<?xml version="1.0" encoding="UTF-8" standalone="no"?><svg xmlns="http://www.w3.org/2000/svg" xmlns:xlink="http://www.w3.org/1999/xlink" clip-rule="evenodd" stroke-miterlimit="4.00" viewBox="0 0 1024 768"><desc>SVG generated by Keynote</desc><defs></defs><g transform="matrix(1.00, 0.00, -0.00, -1.00, 0.0, 768.0)"><path d="M 0.0 768.0 L 1024.0 768.0 L 1024.0 0.0 L 0.0 0.0 Z M 0.0 768.0 " fill="#000000"></path><text xml:space="preserve" font-family="Helvetica-Light" font-size="18.0" fill="#FEFFFF" transform="matrix(1.00, 0.00, -0.00, -1.00, 501.0, 17.0)">1</text><text xml:space="preserve" font-family="Helvetica-Light" font-size="18.0" fill="#FEFFFF" transform="matrix(1.00, 0.00, -0.00, -1.00, 511.0, 17.0)">8</text><image xlink:href="96E6E5C69A9A53E98A147AF769E0D572.png" width="852.00" height="713.00" transform="matrix(1.00, 0.00, -0.00, -1.00, 86.0, 752.0)"></image><g><clipPath id="clip-243"><path d="M 7.0 750.0 L 186.0 750.0 L 186.0 611.0 L 7.0 611.0 Z M 6.6 749.5 "></path></clipPath><g clip-path="url(#clip-243)"><g><clipPath id="clip-244"><path d="M 6.6 611.0 L 185.6 611.0 L 185.6 749.5 L 6.6 749.5 Z M 6.6 611.0 "></path></clipPath><g clip-path="url(#clip-244)"><image xlink:href="../../39451CEE-E280-41CA-872D-216C9FC86FAF/assets/10A10264639072BB412C539169A6ABF1.png" width="356.00" height="540.00" transform="matrix(0.50, 0.00, -0.00, -0.50, 7.0, 750.0)"></image></g></g></g></g><g><clipPath id="clip-245"><path d="M 77.6 667.0 L 110.2 667.0 L 110.2 699.8 L 77.6 699.8 Z M 77.6 667.0 "></path></clipPath><g clip-path="url(#clip-245)"><path d="M 0.0 0.0 L 28.6 0.0 L 28.6 28.8 L 0.0 28.8 Z M 0.0 0.0 " fill="none" stroke="#FEFFFE" stroke-width="2.00" transform="matrix(1.00, 0.00, 0.00, -1.00, 79.6, 697.8)"></path></g></g><text xml:space="preserve" font-family="Helvetica-Bold" font-weight="bold" font-size="20.0" fill="#D35854" transform="matrix(1.00, 0.00, -0.00, -1.00, 102.0, 98.0)">0</text><text xml:space="preserve" font-family="Helvetica-Bold" font-weight="bold" font-size="20.0" fill="#D35854" transform="matrix(1.00, 0.00, -0.00, -1.00, 113.1, 98.0)">.</text><text xml:space="preserve" font-family="Helvetica-Bold" font-weight="bold" font-size="20.0" fill="#D35854" transform="matrix(1.00, 0.00, -0.00, -1.00, 118.7, 98.0)">5</text><text xml:space="preserve" font-family="Helvetica-Bold" font-weight="bold" font-size="20.0" fill="#D35854" transform="matrix(1.00, 0.00, -0.00, -1.00, 129.8, 98.0)">-</text><text xml:space="preserve" font-family="Helvetica-Bold" font-weight="bold" font-size="20.0" fill="#D35854" transform="matrix(1.00, 0.00, -0.00, -1.00, 136.5, 98.0)">1</text><text xml:space="preserve" font-family="Helvetica-Bold" font-weight="bold" font-size="20.0" fill="#D35854" transform="matrix(1.00, 0.00, -0.00, -1.00, 147.6, 98.0)"> </text><text xml:space="preserve" font-family="Helvetica-Bold" font-weight="bold" font-size="20.0" fill="#D35854" transform="matrix(1.00, 0.00, -0.00, -1.00, 153.1, 98.0)">k</text><text xml:space="preserve" font-family="Helvetica-Bold" font-weight="bold" font-size="20.0" fill="#D35854" transform="matrix(1.00, 0.00, -0.00, -1.00, 164.3, 98.0)">e</text><text xml:space="preserve" font-family="Helvetica-Bold" font-weight="bold" font-size="20.0" fill="#D35854" transform="matrix(1.00, 0.00, -0.00, -1.00, 175.4, 98.0)">V</text><text xml:space="preserve" font-family="Helvetica-Bold" font-weight="bold" font-size="20.0" fill="#7ADA45" transform="matrix(1.00, 0.00, -0.00, -1.00, 102.0, 74.0)">1</text><text xml:space="preserve" font-family="Helvetica-Bold" font-weight="bold" font-size="20.0" fill="#7ADA45" transform="matrix(1.00, 0.00, -0.00, -1.00, 113.1, 74.0)">-</text><text xml:space="preserve" font-family="Helvetica-Bold" font-weight="bold" font-size="20.0" fill="#7ADA45" transform="matrix(1.00, 0.00, -0.00, -1.00, 119.8, 74.0)">1</text><text xml:space="preserve" font-family="Helvetica-Bold" font-weight="bold" font-size="20.0" fill="#7ADA45" transform="matrix(1.00, 0.00, -0.00, -1.00, 130.9, 74.0)">.</text><text xml:space="preserve" font-family="Helvetica-Bold" font-weight="bold" font-size="20.0" fill="#7ADA45" transform="matrix(1.00, 0.00, -0.00, -1.00, 136.5, 74.0)">5</text><text xml:space="preserve" font-family="Helvetica-Bold" font-weight="bold" font-size="20.0" fill="#7ADA45" transform="matrix(1.00, 0.00, -0.00, -1.00, 147.6, 74.0)"> </text><text xml:space="preserve" font-family="Helvetica-Bold" font-weight="bold" font-size="20.0" fill="#7ADA45" transform="matrix(1.00, 0.00, -0.00, -1.00, 153.1, 74.0)">k</text><text xml:space="preserve" font-family="Helvetica-Bold" font-weight="bold" font-size="20.0" fill="#7ADA45" transform="matrix(1.00, 0.00, -0.00, -1.00, 164.3, 74.0)">e</text><text xml:space="preserve" font-family="Helvetica-Bold" font-weight="bold" font-size="20.0" fill="#7ADA45" transform="matrix(1.00, 0.00, -0.00, -1.00, 175.4, 74.0)">V</text><text xml:space="preserve" font-family="Helvetica-Bold" font-weight="bold" font-size="20.0" fill="#1497FC" transform="matrix(1.00, 0.00, -0.00, -1.00, 102.0, 50.0)">1</text><text xml:space="preserve" font-family="Helvetica-Bold" font-weight="bold" font-size="20.0" fill="#1497FC" transform="matrix(1.00, 0.00, -0.00, -1.00, 113.1, 50.0)">.</text><text xml:space="preserve" font-family="Helvetica-Bold" font-weight="bold" font-size="20.0" fill="#1497FC" transform="matrix(1.00, 0.00, -0.00, -1.00, 118.7, 50.0)">5</text><text xml:space="preserve" font-family="Helvetica-Bold" font-weight="bold" font-size="20.0" fill="#1497FC" transform="matrix(1.00, 0.00, -0.00, -1.00, 129.8, 50.0)">-</text><text xml:space="preserve" font-family="Helvetica-Bold" font-weight="bold" font-size="20.0" fill="#1497FC" transform="matrix(1.00, 0.00, -0.00, -1.00, 136.5, 50.0)">7</text><text xml:space="preserve" font-family="Helvetica-Bold" font-weight="bold" font-size="20.0" fill="#1497FC" transform="matrix(1.00, 0.00, -0.00, -1.00, 147.6, 50.0)"> </text><text xml:space="preserve" font-family="Helvetica-Bold" font-weight="bold" font-size="20.0" fill="#1497FC" transform="matrix(1.00, 0.00, -0.00, -1.00, 153.1, 50.0)">k</text><text xml:space="preserve" font-family="Helvetica-Bold" font-weight="bold" font-size="20.0" fill="#1497FC" transform="matrix(1.00, 0.00, -0.00, -1.00, 164.3, 50.0)">e</text><text xml:space="preserve" font-family="Helvetica-Bold" font-weight="bold" font-size="20.0" fill="#1497FC" transform="matrix(1.00, 0.00, -0.00, -1.00, 175.4, 50.0)">V</text><g><clipPath id="clip-246"><path d="M 202.3 43.7 L 401.1 43.7 L 401.1 101.7 L 202.3 101.7 Z M 202.3 43.7 "></path></clipPath><g clip-path="url(#clip-246)"><text xml:space="preserve" font-family="Helvetica-Light" font-size="20.0" fill="#FEFFFF" transform="matrix(1.00, 0.00, -0.00, -1.00, 211.0, 77.0)">3</text><text xml:space="preserve" font-family="Helvetica-Light" font-size="20.0" fill="#FEFFFF" transform="matrix(1.00, 0.00, -0.00, -1.00, 222.1, 77.0)">0</text><text xml:space="preserve" font-family="Helvetica-Light" font-size="20.0" fill="#FEFFFF" transform="matrix(1.00, 0.00, -0.00, -1.00, 233.2, 77.0)"> </text><text xml:space="preserve" font-family="Helvetica-Light" font-size="20.0" fill="#FEFFFF" transform="matrix(1.00, 0.00, -0.00, -1.00, 238.8, 77.0)">a</text><text xml:space="preserve" font-family="Helvetica-Light" font-size="20.0" fill="#FEFFFF" transform="matrix(1.00, 0.00, -0.00, -1.00, 249.9, 77.0)">r</text><text xml:space="preserve" font-family="Helvetica-Light" font-size="20.0" fill="#FEFFFF" transform="matrix(1.00, 0.00, -0.00, -1.00, 256.2, 77.0)">c</text><text xml:space="preserve" font-family="Helvetica-Light" font-size="20.0" fill="#FEFFFF" transform="matrix(1.00, 0.00, -0.00, -1.00, 267.3, 77.0)">s</text><text xml:space="preserve" font-family="Helvetica-Light" font-size="20.0" fill="#FEFFFF" transform="matrix(1.00, 0.00, -0.00, -1.00, 277.3, 77.0)">e</text><text xml:space="preserve" font-family="Helvetica-Light" font-size="20.0" fill="#FEFFFF" transform="matrix(1.00, 0.00, -0.00, -1.00, 288.5, 77.0)">c</text><text xml:space="preserve" font-family="Helvetica-Light" font-size="20.0" fill="#FEFFFF" transform="matrix(1.00, 0.00, -0.00, -1.00, 299.6, 77.0)"> </text><text xml:space="preserve" font-family="Helvetica-Light" font-size="20.0" fill="#FEFFFF" transform="matrix(1.00, 0.00, -0.00, -1.00, 221.0, 53.0)">6</text><text xml:space="preserve" font-family="Helvetica-Light" font-size="20.0" fill="#FEFFFF" transform="matrix(1.00, 0.00, -0.00, -1.00, 232.1, 53.0)">.</text><text xml:space="preserve" font-family="Helvetica-Light" font-size="20.0" fill="#FEFFFF" transform="matrix(1.00, 0.00, -0.00, -1.00, 237.7, 53.0)">4</text><text xml:space="preserve" font-family="Helvetica-Light" font-size="20.0" fill="#FEFFFF" transform="matrix(1.00, 0.00, -0.00, -1.00, 248.8, 53.0)"> </text><text xml:space="preserve" font-family="Helvetica-Light" font-size="20.0" fill="#FEFFFF" transform="matrix(1.00, 0.00, -0.00, -1.00, 254.4, 53.0)">k</text><text xml:space="preserve" font-family="Helvetica-Light" font-size="20.0" fill="#FEFFFF" transform="matrix(1.00, 0.00, -0.00, -1.00, 264.4, 53.0)">p</text><text xml:space="preserve" font-family="Helvetica-Light" font-size="20.0" fill="#FEFFFF" transform="matrix(1.00, 0.00, -0.00, -1.00, 276.6, 53.0)">c</text></g></g><g><clipPath id="clip-247"><path d="M 210.8 70.7 L 301.9 70.7 L 301.9 74.7 L 210.8 74.7 Z M 210.8 70.7 "></path></clipPath><g clip-path="url(#clip-247)"><path d="M 0.0 0.0 L 89.0 0.0 " fill="none" stroke="#FEFFFE" stroke-width="2.00" transform="matrix(1.00, 0.00, 0.00, -1.00, 211.8, 72.7)"></path></g></g></g></svg>