<?xml version="1.0" encoding="UTF-8" standalone="no"?><svg xmlns="http://www.w3.org/2000/svg" xmlns:xlink="http://www.w3.org/1999/xlink" clip-rule="evenodd" stroke-miterlimit="4.00" viewBox="0 0 1920 1080"><desc>SVG generated by Keynote</desc><defs><pattern id="A64536AD-B06B-4265-8B45-6684187CDA6A" patternUnits="userSpaceOnUse" width="256" height="256" viewBox="0 0 256 256" patternTransform="matrix(0.500000, 0.000000, 0.000000, -0.500000, 358.115000, 906.431800)"><image xlink:href="../../158E7F1E-EDA4-48C2-9D8F-B85F720CF086/assets/C2E6FBB4C3857A0E73F6D4A465A166F0.jpeg" width="256.00" height="256.00"></image></pattern></defs><g transform="matrix(1.00, 0.00, -0.00, -1.00, 0.0, 1080.0)"><path d="M 0.0 1080.0 L 1920.0 1080.0 L 1920.0 0.0 L 0.0 0.0 Z M 0.0 1080.0 " fill="#000000"></path><text xml:space="preserve" font-family="Helvetica-Light" font-size="20.0" fill="#DCDDE0" transform="matrix(1.00, 0.00, -0.00, -1.00, 37.0, 27.0)">T</text><text xml:space="preserve" font-family="Helvetica-Light" font-size="20.0" fill="#DCDDE0" transform="matrix(1.00, 0.00, -0.00, -1.00, 45.9, 27.0)">a</text><text xml:space="preserve" font-family="Helvetica-Light" font-size="20.0" fill="#DCDDE0" transform="matrix(1.00, 0.00, -0.00, -1.00, 57.0, 27.0)">w</text><text xml:space="preserve" font-family="Helvetica-Light" font-size="20.0" fill="#DCDDE0" transform="matrix(1.00, 0.00, -0.00, -1.00, 71.5, 27.0)">e</text><text xml:space="preserve" font-family="Helvetica-Light" font-size="20.0" fill="#DCDDE0" transform="matrix(1.00, 0.00, -0.00, -1.00, 82.6, 27.0)">e</text><text xml:space="preserve" font-family="Helvetica-Light" font-size="20.0" fill="#DCDDE0" transform="matrix(1.00, 0.00, -0.00, -1.00, 93.7, 27.0)">w</text><text xml:space="preserve" font-family="Helvetica-Light" font-size="20.0" fill="#DCDDE0" transform="matrix(1.00, 0.00, -0.00, -1.00, 108.1, 27.0)">a</text><text xml:space="preserve" font-family="Helvetica-Light" font-size="20.0" fill="#DCDDE0" transform="matrix(1.00, 0.00, -0.00, -1.00, 119.3, 27.0)">t</text><text xml:space="preserve" font-family="Helvetica-Light" font-size="20.0" fill="#DCDDE0" transform="matrix(1.00, 0.00, -0.00, -1.00, 124.8, 27.0)"> </text><text xml:space="preserve" font-family="Helvetica-Light" font-size="20.0" fill="#DCDDE0" transform="matrix(1.00, 0.00, -0.00, -1.00, 130.4, 27.0)">S</text><text xml:space="preserve" font-family="Helvetica-Light" font-size="20.0" fill="#DCDDE0" transform="matrix(1.00, 0.00, -0.00, -1.00, 142.6, 27.0)">o</text><text xml:space="preserve" font-family="Helvetica-Light" font-size="20.0" fill="#DCDDE0" transform="matrix(1.00, 0.00, -0.00, -1.00, 153.7, 27.0)">m</text><text xml:space="preserve" font-family="Helvetica-Light" font-size="20.0" fill="#DCDDE0" transform="matrix(1.00, 0.00, -0.00, -1.00, 170.4, 27.0)">b</text><text xml:space="preserve" font-family="Helvetica-Light" font-size="20.0" fill="#DCDDE0" transform="matrix(1.00, 0.00, -0.00, -1.00, 182.6, 27.0)">o</text><text xml:space="preserve" font-family="Helvetica-Light" font-size="20.0" fill="#DCDDE0" transform="matrix(1.00, 0.00, -0.00, -1.00, 193.7, 27.0)">o</text><text xml:space="preserve" font-family="Helvetica-Light" font-size="20.0" fill="#DCDDE0" transform="matrix(1.00, 0.00, -0.00, -1.00, 204.8, 27.0)">n</text><text xml:space="preserve" font-family="Helvetica-Light" font-size="20.0" fill="#DCDDE0" transform="matrix(1.00, 0.00, -0.00, -1.00, 216.0, 27.0)">p</text><text xml:space="preserve" font-family="Helvetica-Light" font-size="20.0" fill="#DCDDE0" transform="matrix(1.00, 0.00, -0.00, -1.00, 228.2, 27.0)">a</text><text xml:space="preserve" font-family="Helvetica-Light" font-size="20.0" fill="#DCDDE0" transform="matrix(1.00, 0.00, -0.00, -1.00, 239.3, 27.0)">n</text><text xml:space="preserve" font-family="Helvetica-Light" font-size="20.0" fill="#DCDDE0" transform="matrix(1.00, 0.00, -0.00, -1.00, 250.4, 27.0)">y</text><text xml:space="preserve" font-family="Helvetica-Light" font-size="20.0" fill="#DCDDE0" transform="matrix(1.00, 0.00, -0.00, -1.00, 260.4, 27.0)">a</text><text xml:space="preserve" font-family="Helvetica-Light" font-size="20.0" fill="#DCDDE0" transform="matrix(1.00, 0.00, -0.00, -1.00, 271.5, 27.0)">k</text><text xml:space="preserve" font-family="Helvetica-Light" font-size="20.0" fill="#DCDDE0" transform="matrix(1.00, 0.00, -0.00, -1.00, 281.5, 27.0)">u</text><text xml:space="preserve" font-family="Helvetica-Light" font-size="20.0" fill="#DCDDE0" transform="matrix(1.00, 0.00, -0.00, -1.00, 292.7, 27.0)">l</text><text xml:space="preserve" font-family="Helvetica-Light" font-size="20.0" fill="#DCDDE0" transform="matrix(1.00, 0.00, -0.00, -1.00, 297.1, 27.0)"> </text><text xml:space="preserve" font-family="Helvetica-Light" font-size="20.0" fill="#DCDDE0" transform="matrix(1.00, 0.00, -0.00, -1.00, 302.7, 27.0)">|</text><text xml:space="preserve" font-family="Helvetica-Light" font-size="20.0" fill="#DCDDE0" transform="matrix(1.00, 0.00, -0.00, -1.00, 307.1, 27.0)"> </text><text xml:space="preserve" font-family="Helvetica-Light" font-size="20.0" fill="#DCDDE0" transform="matrix(1.00, 0.00, -0.00, -1.00, 312.7, 27.0)">j</text><text xml:space="preserve" font-family="Helvetica-Light" font-size="20.0" fill="#DCDDE0" transform="matrix(1.00, 0.00, -0.00, -1.00, 317.1, 27.0)">o</text><text xml:space="preserve" font-family="Helvetica-Light" font-size="20.0" fill="#DCDDE0" transform="matrix(1.00, 0.00, -0.00, -1.00, 328.2, 27.0)">u</text><text xml:space="preserve" font-family="Helvetica-Light" font-size="20.0" fill="#DCDDE0" transform="matrix(1.00, 0.00, -0.00, -1.00, 339.3, 27.0)">r</text><text xml:space="preserve" font-family="Helvetica-Light" font-size="20.0" fill="#DCDDE0" transform="matrix(1.00, 0.00, -0.00, -1.00, 346.4, 27.0)">n</text><text xml:space="preserve" font-family="Helvetica-Light" font-size="20.0" fill="#DCDDE0" transform="matrix(1.00, 0.00, -0.00, -1.00, 357.5, 27.0)">a</text><text xml:space="preserve" font-family="Helvetica-Light" font-size="20.0" fill="#DCDDE0" transform="matrix(1.00, 0.00, -0.00, -1.00, 368.6, 27.0)">l</text><text xml:space="preserve" font-family="Helvetica-Light" font-size="20.0" fill="#DCDDE0" transform="matrix(1.00, 0.00, -0.00, -1.00, 373.0, 27.0)"> </text><text xml:space="preserve" font-family="Helvetica-Light" font-size="20.0" fill="#DCDDE0" transform="matrix(1.00, 0.00, -0.00, -1.00, 378.6, 27.0)">c</text><text xml:space="preserve" font-family="Helvetica-Light" font-size="20.0" fill="#DCDDE0" transform="matrix(1.00, 0.00, -0.00, -1.00, 389.7, 27.0)">l</text><text xml:space="preserve" font-family="Helvetica-Light" font-size="20.0" fill="#DCDDE0" transform="matrix(1.00, 0.00, -0.00, -1.00, 394.2, 27.0)">u</text><text xml:space="preserve" font-family="Helvetica-Light" font-size="20.0" fill="#DCDDE0" transform="matrix(1.00, 0.00, -0.00, -1.00, 405.3, 27.0)">b</text><text xml:space="preserve" font-family="Helvetica-Light" font-size="20.0" fill="#DCDDE0" transform="matrix(1.00, 0.00, -0.00, -1.00, 417.5, 27.0)"> </text><text xml:space="preserve" font-family="Helvetica-Light" font-size="20.0" fill="#DCDDE0" transform="matrix(1.00, 0.00, -0.00, -1.00, 423.1, 27.0)">|</text><text xml:space="preserve" font-family="Helvetica-Light" font-size="20.0" fill="#DCDDE0" transform="matrix(1.00, 0.00, -0.00, -1.00, 427.5, 27.0)"> </text><text xml:space="preserve" font-family="Helvetica-Light" font-size="20.0" fill="#DCDDE0" transform="matrix(1.00, 0.00, -0.00, -1.00, 433.1, 27.0)">0</text><text xml:space="preserve" font-family="Helvetica-Light" font-size="20.0" fill="#DCDDE0" transform="matrix(1.00, 0.00, -0.00, -1.00, 444.2, 27.0)">4</text><text xml:space="preserve" font-family="Helvetica-Light" font-size="20.0" fill="#DCDDE0" transform="matrix(1.00, 0.00, -0.00, -1.00, 455.3, 27.0)">.</text><text xml:space="preserve" font-family="Helvetica-Light" font-size="20.0" fill="#DCDDE0" transform="matrix(1.00, 0.00, -0.00, -1.00, 460.9, 27.0)">2</text><text xml:space="preserve" font-family="Helvetica-Light" font-size="20.0" fill="#DCDDE0" transform="matrix(1.00, 0.00, -0.00, -1.00, 472.0, 27.0)">1</text><text xml:space="preserve" font-family="Helvetica-Light" font-size="20.0" fill="#DCDDE0" transform="matrix(1.00, 0.00, -0.00, -1.00, 483.1, 27.0)">.</text><text xml:space="preserve" font-family="Helvetica-Light" font-size="20.0" fill="#DCDDE0" transform="matrix(1.00, 0.00, -0.00, -1.00, 488.7, 27.0)">2</text><text xml:space="preserve" font-family="Helvetica-Light" font-size="20.0" fill="#DCDDE0" transform="matrix(1.00, 0.00, -0.00, -1.00, 499.8, 27.0)">0</text><text xml:space="preserve" font-family="Helvetica-Light" font-size="20.0" fill="#DCDDE0" transform="matrix(1.00, 0.00, -0.00, -1.00, 510.9, 27.0)">1</text><text xml:space="preserve" font-family="Helvetica-Light" font-size="20.0" fill="#DCDDE0" transform="matrix(1.00, 0.00, -0.00, -1.00, 522.0, 27.0)">7</text><text xml:space="preserve" font-family="Helvetica-Light" font-size="24.0" fill="#DCDDE0" transform="matrix(1.00, 0.00, -0.00, -1.00, 946.0, 26.0)">1</text><text xml:space="preserve" font-family="Helvetica-Light" font-size="24.0" fill="#DCDDE0" transform="matrix(1.00, 0.00, -0.00, -1.00, 959.3, 26.0)">3</text><text xml:space="preserve" font-family="Helvetica-Light" font-size="70.0" fill="#A6AAA8" transform="matrix(1.00, 0.00, -0.00, -1.00, 540.0, 973.0)">T</text><text xml:space="preserve" font-family="Helvetica-Light" font-size="70.0" fill="#A6AAA8" transform="matrix(1.00, 0.00, -0.00, -1.00, 572.5, 973.0)">r</text><text xml:space="preserve" font-family="Helvetica-Light" font-size="70.0" fill="#A6AAA8" transform="matrix(1.00, 0.00, -0.00, -1.00, 595.8, 973.0)">a</text><text xml:space="preserve" font-family="Helvetica-Light" font-size="70.0" fill="#A6AAA8" transform="matrix(1.00, 0.00, -0.00, -1.00, 634.7, 973.0)">n</text><text xml:space="preserve" font-family="Helvetica-Light" font-size="70.0" fill="#A6AAA8" transform="matrix(1.00, 0.00, -0.00, -1.00, 673.6, 973.0)">s</text><text xml:space="preserve" font-family="Helvetica-Light" font-size="70.0" fill="#A6AAA8" transform="matrix(1.00, 0.00, -0.00, -1.00, 708.6, 973.0)">v</text><text xml:space="preserve" font-family="Helvetica-Light" font-size="70.0" fill="#A6AAA8" transform="matrix(1.00, 0.00, -0.00, -1.00, 743.6, 973.0)">e</text><text xml:space="preserve" font-family="Helvetica-Light" font-size="70.0" fill="#A6AAA8" transform="matrix(1.00, 0.00, -0.00, -1.00, 782.5, 973.0)">r</text><text xml:space="preserve" font-family="Helvetica-Light" font-size="70.0" fill="#A6AAA8" transform="matrix(1.00, 0.00, -0.00, -1.00, 805.9, 973.0)">s</text><text xml:space="preserve" font-family="Helvetica-Light" font-size="70.0" fill="#A6AAA8" transform="matrix(1.00, 0.00, -0.00, -1.00, 840.9, 973.0)">e</text><text xml:space="preserve" font-family="Helvetica-Light" font-size="70.0" fill="#A6AAA8" transform="matrix(1.00, 0.00, -0.00, -1.00, 879.8, 973.0)"> </text><text xml:space="preserve" font-family="Helvetica-Light" font-size="70.0" fill="#A6AAA8" transform="matrix(1.00, 0.00, -0.00, -1.00, 899.2, 973.0)">P</text><text xml:space="preserve" font-family="Helvetica-Light" font-size="70.0" fill="#A6AAA8" transform="matrix(1.00, 0.00, -0.00, -1.00, 942.0, 973.0)">r</text><text xml:space="preserve" font-family="Helvetica-Light" font-size="70.0" fill="#A6AAA8" transform="matrix(1.00, 0.00, -0.00, -1.00, 964.1, 973.0)">o</text><text xml:space="preserve" font-family="Helvetica-Light" font-size="70.0" fill="#A6AAA8" transform="matrix(1.00, 0.00, -0.00, -1.00, 1003.0, 973.0)">x</text><text xml:space="preserve" font-family="Helvetica-Light" font-size="70.0" fill="#A6AAA8" transform="matrix(1.00, 0.00, -0.00, -1.00, 1038.0, 973.0)">i</text><text xml:space="preserve" font-family="Helvetica-Light" font-size="70.0" fill="#A6AAA8" transform="matrix(1.00, 0.00, -0.00, -1.00, 1053.5, 973.0)">m</text><text xml:space="preserve" font-family="Helvetica-Light" font-size="70.0" fill="#A6AAA8" transform="matrix(1.00, 0.00, -0.00, -1.00, 1111.8, 973.0)">i</text><text xml:space="preserve" font-family="Helvetica-Light" font-size="70.0" fill="#A6AAA8" transform="matrix(1.00, 0.00, -0.00, -1.00, 1127.4, 973.0)">t</text><text xml:space="preserve" font-family="Helvetica-Light" font-size="70.0" fill="#A6AAA8" transform="matrix(1.00, 0.00, -0.00, -1.00, 1146.8, 973.0)">y</text><text xml:space="preserve" font-family="Helvetica-Light" font-size="70.0" fill="#A6AAA8" transform="matrix(1.00, 0.00, -0.00, -1.00, 1181.8, 973.0)"> </text><text xml:space="preserve" font-family="Helvetica-Light" font-size="70.0" fill="#A6AAA8" transform="matrix(1.00, 0.00, -0.00, -1.00, 1201.3, 973.0)">E</text><text xml:space="preserve" font-family="Helvetica-Light" font-size="70.0" fill="#A6AAA8" transform="matrix(1.00, 0.00, -0.00, -1.00, 1244.1, 973.0)">f</text><text xml:space="preserve" font-family="Helvetica-Light" font-size="70.0" fill="#A6AAA8" transform="matrix(1.00, 0.00, -0.00, -1.00, 1262.3, 973.0)">f</text><text xml:space="preserve" font-family="Helvetica-Light" font-size="70.0" fill="#A6AAA8" transform="matrix(1.00, 0.00, -0.00, -1.00, 1281.7, 973.0)">e</text><text xml:space="preserve" font-family="Helvetica-Light" font-size="70.0" fill="#A6AAA8" transform="matrix(1.00, 0.00, -0.00, -1.00, 1320.6, 973.0)">c</text><text xml:space="preserve" font-family="Helvetica-Light" font-size="70.0" fill="#A6AAA8" transform="matrix(1.00, 0.00, -0.00, -1.00, 1359.6, 973.0)">t</text><g><clipPath id="clip-122"><path d="M 358.1 906.4 L 1561.9 906.4 L 1561.9 100.2 L 358.1 100.2 Z M 358.1 906.4 "></path></clipPath><g clip-path="url(#clip-122)"><path d="M 358.1 100.2 L 1561.9 100.2 L 1561.9 906.4 L 358.1 906.4 Z M 358.1 100.2 " fill="url(#A64536AD-B06B-4265-8B45-6684187CDA6A)"></path><path d="M 358.1 906.4 L 1561.9 906.4 L 1561.9 100.2 L 358.1 100.2 Z M 358.1 906.4 " fill="#002451" fill-opacity="0.85"></path></g></g><path d="M 524.2 591.9 C 532.0 584.0 532.0 571.3 524.2 563.4 C 516.3 555.6 503.6 555.6 495.7 563.4 C 487.8 571.3 487.8 584.0 495.7 591.9 C 503.6 599.8 516.3 599.8 524.2 591.9 Z M 524.2 591.9 " fill="#885409"></path><path d="M 757.3 356.3 C 765.1 348.4 765.1 335.7 757.3 327.8 C 749.4 320.0 736.7 320.0 728.8 327.8 C 721.0 335.7 721.0 348.4 728.8 356.3 C 736.7 364.1 749.4 364.1 757.3 356.3 Z M 757.3 356.3 " fill="#E7A432"></path><path d="M 1046.7 356.3 C 1054.5 348.4 1054.5 335.7 1046.7 327.8 C 1038.8 320.0 1026.1 320.0 1018.2 327.8 C 1010.3 335.7 1010.3 348.4 1018.2 356.3 C 1026.1 364.1 1038.8 364.1 1046.7 356.3 Z M 1046.7 356.3 " fill="#885409"></path><path d="M 1227.3 631.3 C 1235.1 623.4 1235.1 610.7 1227.3 602.8 C 1219.4 595.0 1206.7 595.0 1198.8 602.8 C 1191.0 610.7 1191.0 623.4 1198.8 631.3 C 1206.7 639.1 1219.4 639.1 1227.3 631.3 Z M 1227.3 631.3 " fill="#BC8027"></path><path d="M 306.1 49.6 C 376.1 115.7 376.1 222.9 306.1 289.0 C 236.1 355.1 122.5 355.1 52.5 289.0 C -17.5 222.9 -17.5 115.7 52.5 49.6 C 122.5 -16.5 236.1 -16.5 306.1 49.6 Z M 306.1 49.6 " fill="none" stroke="#2F8B16" stroke-width="7.00" stroke-dasharray="14.0, 14.0" transform="matrix(1.00, 0.00, 0.00, -1.00, 853.1, 511.3)"></path><g opacity="0.71"><g><clipPath id="clip-123"><path d="M 924.0 345.0 L 1503.0 345.0 L 1503.0 889.0 L 924.0 889.0 Z M 924.0 345.0 "></path></clipPath><g clip-path="url(#clip-123)"><path d="M 485.7 78.2 C 596.8 182.5 596.8 351.6 485.7 455.9 C 374.6 560.2 194.4 560.2 83.3 455.9 C -27.8 351.6 -27.8 182.5 83.3 78.2 C 194.4 -26.1 374.6 -26.1 485.7 78.2 Z M 485.7 78.2 " fill="none" stroke="#2F8B16" stroke-width="7.00" stroke-dasharray="14.0, 14.0" transform="matrix(1.00, 0.00, 0.00, -1.00, 928.5, 884.1)"></path></g></g></g><g opacity="0.71"><g><clipPath id="clip-124"><path d="M 48.0 141.0 L 972.0 141.0 L 972.0 1014.0 L 48.0 1014.0 Z M 48.0 141.0 "></path></clipPath><g clip-path="url(#clip-124)"><path d="M 780.0 126.4 C 958.5 294.9 958.5 568.0 780.0 736.5 C 601.6 905.0 312.3 905.0 133.8 736.5 C -44.6 568.0 -44.6 294.9 133.8 126.4 C 312.3 -42.1 601.6 -42.1 780.0 126.4 Z M 780.0 126.4 " fill="none" stroke="#961817" stroke-width="7.00" stroke-dasharray="14.0, 14.0" transform="matrix(1.00, 0.00, 0.00, -1.00, 53.0, 1009.1)"></path></g></g></g><path d="M 959.3 520.7 L 964.4 505.1 L 980.9 505.1 L 967.5 495.4 L 972.6 479.7 L 959.3 489.4 L 946.0 479.7 L 951.1 495.4 L 937.7 505.1 L 954.2 505.1 Z M 959.3 520.7 " fill="#603704"></path><g opacity="0.71"><g><clipPath id="clip-125"><path d="M 467.0 83.0 L 1019.0 83.0 L 1019.0 601.0 L 467.0 601.0 Z M 467.0 83.0 "></path></clipPath><g clip-path="url(#clip-125)"><path d="M 462.3 74.5 C 568.1 173.8 568.1 334.7 462.3 434.0 C 356.6 533.3 185.1 533.3 79.3 434.0 C -26.4 334.7 -26.4 173.8 79.3 74.5 C 185.1 -24.8 356.6 -24.8 462.3 74.5 Z M 462.3 74.5 " fill="none" stroke="#2F8B16" stroke-width="7.00" stroke-dasharray="14.0, 14.0" transform="matrix(1.00, 0.00, 0.00, -1.00, 472.2, 596.3)"></path></g></g></g></g></svg>