<?xml version="1.0" encoding="UTF-8" standalone="no"?><svg xmlns="http://www.w3.org/2000/svg" xmlns:xlink="http://www.w3.org/1999/xlink" clip-rule="evenodd" stroke-miterlimit="4.00" viewBox="0 0 74 305"><desc>SVG generated by Keynote</desc><defs></defs><g transform="matrix(1.00, 0.00, -0.00, -1.00, 0.0, 305.0)"><path d="M 1.1 1.2 L 1.1 303.4 L 72.3 303.4 L 72.3 1.2 Z M 1.1 1.2 " fill="#000000"></path><g><clipPath id="clip-147"><path d="M -5.8 -5.7 L -5.8 311.2 L 79.2 311.2 L 79.2 -5.7 Z M -5.8 -5.7 "></path></clipPath><g clip-path="url(#clip-147)"><text xml:space="preserve" font-family="Helvetica-Light" font-size="50.0" fill="#DCDDE0" transform="matrix(0.00, 1.00, 1.00, -0.00, 55.0, 7.0)">T</text><text xml:space="preserve" font-family="Helvetica-Light" font-size="50.0" fill="#DCDDE0" transform="matrix(0.00, 1.00, 1.00, -0.00, 55.0, 30.2)">r</text><text xml:space="preserve" font-family="Helvetica-Light" font-size="50.0" fill="#DCDDE0" transform="matrix(0.00, 1.00, 1.00, -0.00, 55.0, 46.9)">a</text><text xml:space="preserve" font-family="Helvetica-Light" font-size="50.0" fill="#DCDDE0" transform="matrix(0.00, 1.00, 1.00, -0.00, 55.0, 74.7)">n</text><text xml:space="preserve" font-family="Helvetica-Light" font-size="50.0" fill="#DCDDE0" transform="matrix(0.00, 1.00, 1.00, -0.00, 55.0, 102.5)">s</text><text xml:space="preserve" font-family="Helvetica-Light" font-size="50.0" fill="#DCDDE0" transform="matrix(0.00, 1.00, 1.00, -0.00, 55.0, 127.5)">m</text><text xml:space="preserve" font-family="Helvetica-Light" font-size="50.0" fill="#DCDDE0" transform="matrix(0.00, 1.00, 1.00, -0.00, 55.0, 169.1)">i</text><text xml:space="preserve" font-family="Helvetica-Light" font-size="50.0" fill="#DCDDE0" transform="matrix(0.00, 1.00, 1.00, -0.00, 55.0, 180.2)">s</text><text xml:space="preserve" font-family="Helvetica-Light" font-size="50.0" fill="#DCDDE0" transform="matrix(0.00, 1.00, 1.00, -0.00, 55.0, 205.2)">s</text><text xml:space="preserve" font-family="Helvetica-Light" font-size="50.0" fill="#DCDDE0" transform="matrix(0.00, 1.00, 1.00, -0.00, 55.0, 230.2)">i</text><text xml:space="preserve" font-family="Helvetica-Light" font-size="50.0" fill="#DCDDE0" transform="matrix(0.00, 1.00, 1.00, -0.00, 55.0, 241.3)">o</text><text xml:space="preserve" font-family="Helvetica-Light" font-size="50.0" fill="#DCDDE0" transform="matrix(0.00, 1.00, 1.00, -0.00, 55.0, 269.1)">n</text></g></g></g></svg>