<?xml version="1.0" encoding="UTF-8" standalone="no"?><svg xmlns="http://www.w3.org/2000/svg" xmlns:xlink="http://www.w3.org/1999/xlink" clip-rule="evenodd" stroke-miterlimit="4.00" viewBox="0 0 257 37"><desc>SVG generated by Keynote</desc><defs></defs><g transform="matrix(1.00, 0.00, -0.00, -1.00, 0.0, 37.0)"><text xml:space="preserve" font-family="Helvetica-Light" font-size="36.0" fill="#A6AAA8" transform="matrix(1.00, 0.00, -0.00, -1.00, 0.0, 9.0)">q</text><text xml:space="preserve" font-family="Helvetica-Light" font-size="36.0" fill="#A6AAA8" transform="matrix(1.00, 0.00, -0.00, -1.00, 22.0, 9.0)">u</text><text xml:space="preserve" font-family="Helvetica-Light" font-size="36.0" fill="#A6AAA8" transform="matrix(1.00, 0.00, -0.00, -1.00, 42.0, 9.0)">a</text><text xml:space="preserve" font-family="Helvetica-Light" font-size="36.0" fill="#A6AAA8" transform="matrix(1.00, 0.00, -0.00, -1.00, 62.0, 9.0)">s</text><text xml:space="preserve" font-family="Helvetica-Light" font-size="36.0" fill="#A6AAA8" transform="matrix(1.00, 0.00, -0.00, -1.00, 80.0, 9.0)">a</text><text xml:space="preserve" font-family="Helvetica-Light" font-size="36.0" fill="#A6AAA8" transform="matrix(1.00, 0.00, -0.00, -1.00, 100.0, 9.0)">r</text><text xml:space="preserve" font-family="Helvetica-Light" font-size="36.0" fill="#A6AAA8" transform="matrix(1.00, 0.00, -0.00, -1.00, 112.0, 9.0)"> </text><text xml:space="preserve" font-family="Helvetica-Light" font-size="36.0" fill="#A6AAA8" transform="matrix(1.00, 0.00, -0.00, -1.00, 122.0, 9.0)">s</text><text xml:space="preserve" font-family="Helvetica-Light" font-size="36.0" fill="#A6AAA8" transform="matrix(1.00, 0.00, -0.00, -1.00, 140.0, 9.0)">i</text><text xml:space="preserve" font-family="Helvetica-Light" font-size="36.0" fill="#A6AAA8" transform="matrix(1.00, 0.00, -0.00, -1.00, 148.0, 9.0)">g</text><text xml:space="preserve" font-family="Helvetica-Light" font-size="36.0" fill="#A6AAA8" transform="matrix(1.00, 0.00, -0.00, -1.00, 170.0, 9.0)">h</text><text xml:space="preserve" font-family="Helvetica-Light" font-size="36.0" fill="#A6AAA8" transform="matrix(1.00, 0.00, -0.00, -1.00, 190.0, 9.0)">t</text><text xml:space="preserve" font-family="Helvetica-Light" font-size="36.0" fill="#A6AAA8" transform="matrix(1.00, 0.00, -0.00, -1.00, 200.1, 9.0)">l</text><text xml:space="preserve" font-family="Helvetica-Light" font-size="36.0" fill="#A6AAA8" transform="matrix(1.00, 0.00, -0.00, -1.00, 208.0, 9.0)">i</text><text xml:space="preserve" font-family="Helvetica-Light" font-size="36.0" fill="#A6AAA8" transform="matrix(1.00, 0.00, -0.00, -1.00, 216.0, 9.0)">n</text><text xml:space="preserve" font-family="Helvetica-Light" font-size="36.0" fill="#A6AAA8" transform="matrix(1.00, 0.00, -0.00, -1.00, 236.1, 9.0)">e</text></g></svg>