<?xml version="1.0" encoding="UTF-8" standalone="no"?><svg xmlns="http://www.w3.org/2000/svg" xmlns:xlink="http://www.w3.org/1999/xlink" clip-rule="evenodd" stroke-miterlimit="4.00" viewBox="0 0 315 38"><desc>SVG generated by Keynote</desc><defs></defs><g transform="matrix(1.00, 0.00, -0.00, -1.00, 0.0, 38.0)"><text xml:space="preserve" font-family="Helvetica-Light" font-size="36.0" fill="#A6AAA8" transform="matrix(1.00, 0.00, -0.00, -1.00, 1.0, 9.0)">s</text><text xml:space="preserve" font-family="Helvetica-Light" font-size="36.0" fill="#A6AAA8" transform="matrix(1.00, 0.00, -0.00, -1.00, 19.0, 9.0)">e</text><text xml:space="preserve" font-family="Helvetica-Light" font-size="36.0" fill="#A6AAA8" transform="matrix(1.00, 0.00, -0.00, -1.00, 39.0, 9.0)">p</text><text xml:space="preserve" font-family="Helvetica-Light" font-size="36.0" fill="#A6AAA8" transform="matrix(1.00, 0.00, -0.00, -1.00, 61.0, 9.0)">a</text><text xml:space="preserve" font-family="Helvetica-Light" font-size="36.0" fill="#A6AAA8" transform="matrix(1.00, 0.00, -0.00, -1.00, 81.0, 9.0)">r</text><text xml:space="preserve" font-family="Helvetica-Light" font-size="36.0" fill="#A6AAA8" transform="matrix(1.00, 0.00, -0.00, -1.00, 93.0, 9.0)">a</text><text xml:space="preserve" font-family="Helvetica-Light" font-size="36.0" fill="#A6AAA8" transform="matrix(1.00, 0.00, -0.00, -1.00, 113.0, 9.0)">t</text><text xml:space="preserve" font-family="Helvetica-Light" font-size="36.0" fill="#A6AAA8" transform="matrix(1.00, 0.00, -0.00, -1.00, 123.0, 9.0)">i</text><text xml:space="preserve" font-family="Helvetica-Light" font-size="36.0" fill="#A6AAA8" transform="matrix(1.00, 0.00, -0.00, -1.00, 131.0, 9.0)">o</text><text xml:space="preserve" font-family="Helvetica-Light" font-size="36.0" fill="#A6AAA8" transform="matrix(1.00, 0.00, -0.00, -1.00, 151.0, 9.0)">n</text><text xml:space="preserve" font-family="Helvetica-Light" font-size="36.0" fill="#A6AAA8" transform="matrix(1.00, 0.00, -0.00, -1.00, 171.1, 9.0)"> </text><text xml:space="preserve" font-family="Helvetica-Light" font-size="36.0" fill="#A6AAA8" transform="matrix(1.00, 0.00, -0.00, -1.00, 181.1, 9.0)">(</text><text xml:space="preserve" font-family="Helvetica-Light" font-size="36.0" fill="#A6AAA8" transform="matrix(1.00, 0.00, -0.00, -1.00, 193.1, 9.0)">a</text><text xml:space="preserve" font-family="Helvetica-Light" font-size="36.0" fill="#A6AAA8" transform="matrix(1.00, 0.00, -0.00, -1.00, 213.1, 9.0)">r</text><text xml:space="preserve" font-family="Helvetica-Light" font-size="36.0" fill="#A6AAA8" transform="matrix(1.00, 0.00, -0.00, -1.00, 224.4, 9.0)">c</text><text xml:space="preserve" font-family="Helvetica-Light" font-size="36.0" fill="#A6AAA8" transform="matrix(1.00, 0.00, -0.00, -1.00, 244.4, 9.0)">m</text><text xml:space="preserve" font-family="Helvetica-Light" font-size="36.0" fill="#A6AAA8" transform="matrix(1.00, 0.00, -0.00, -1.00, 274.4, 9.0)">i</text><text xml:space="preserve" font-family="Helvetica-Light" font-size="36.0" fill="#A6AAA8" transform="matrix(1.00, 0.00, -0.00, -1.00, 282.4, 9.0)">n</text><text xml:space="preserve" font-family="Helvetica-Light" font-size="36.0" fill="#A6AAA8" transform="matrix(1.00, 0.00, -0.00, -1.00, 302.4, 9.0)">)</text></g></svg>