<?xml version="1.0" encoding="UTF-8" standalone="no"?><svg xmlns="http://www.w3.org/2000/svg" xmlns:xlink="http://www.w3.org/1999/xlink" clip-rule="evenodd" stroke-miterlimit="4.00" viewBox="0 0 501 161"><desc>SVG generated by Keynote</desc><defs></defs><g transform="matrix(1.00, 0.00, -0.00, -1.00, 0.0, 161.0)"><path d="M 475.1 2.4 L 391.0 19.6 L 316.5 28.0 L 238.8 39.5 L 160.4 56.0 L 84.3 79.0 L 3.9 110.0 L 137.0 158.1 L 437.7 156.0 L 498.1 77.6 L 475.1 2.4 Z M 475.1 2.4 " fill="#FEFFFE"></path><path d="M 471.2 155.8 L 387.1 138.5 L 312.5 130.1 L 234.8 118.7 L 156.5 102.1 L 80.4 79.1 L 0.0 48.2 L 133.0 0.0 L 433.8 2.2 L 494.2 80.6 L 471.2 155.8 Z M 471.2 155.8 " fill="none" stroke="#FEFFFE" stroke-width="2.00" transform="matrix(1.00, 0.00, 0.00, -1.00, 3.9, 158.1)"></path></g></svg>