<?xml version="1.0" encoding="UTF-8" standalone="no"?><svg xmlns="http://www.w3.org/2000/svg" xmlns:xlink="http://www.w3.org/1999/xlink" clip-rule="evenodd" stroke-miterlimit="4.00" viewBox="0 0 99 97"><desc>SVG generated by Keynote</desc><defs></defs><g transform="matrix(1.00, 0.00, -0.00, -1.00, 0.0, 97.0)"><path d="M 60.2 92.2 C 60.8 92.1 63.2 91.5 63.2 91.4 C 62.3 91.7 60.3 92.1 60.2 92.2 C 60.2 92.2 60.2 92.2 60.2 92.2 Z M 55.3 93.2 C 56.2 93.1 58.1 92.7 58.7 92.6 C 57.7 92.8 55.6 93.0 55.3 93.2 C 55.3 93.2 55.3 93.2 55.3 93.2 Z M 62.7 91.3 C 63.9 90.9 66.3 90.1 66.8 89.8 C 65.6 90.3 63.2 91.0 62.7 91.3 C 62.7 91.3 62.7 91.3 62.7 91.3 Z M 4.0 62.6 C 4.1 63.2 5.0 65.6 5.1 65.6 C 4.7 64.7 4.1 62.7 4.0 62.6 C 4.0 62.6 4.0 62.6 4.0 62.6 Z M 10.8 75.4 C 11.3 76.2 12.7 77.9 13.2 78.3 C 12.4 77.5 11.1 75.6 10.8 75.4 C 10.8 75.4 10.8 75.4 10.8 75.4 Z M 16.6 82.0 C 18.1 83.4 19.7 84.7 19.5 84.4 C 18.9 84.0 16.8 82.0 16.6 82.0 C 16.6 82.0 16.6 82.0 16.6 82.0 Z M 60.1 87.5 C 58.3 88.0 57.0 88.2 55.8 88.4 C 49.8 89.3 58.9 88.0 60.1 87.5 C 60.1 87.5 60.1 87.5 60.1 87.5 Z M 29.1 90.1 C 27.9 89.5 26.9 89.0 26.2 88.7 C 27.4 89.3 29.0 90.1 29.1 90.1 C 29.1 90.1 29.1 90.1 29.1 90.1 Z M 40.5 93.6 C 40.8 93.7 47.8 94.5 51.7 94.3 C 48.4 94.4 40.2 93.5 40.5 93.6 C 40.5 93.6 40.5 93.6 40.5 93.6 Z M 45.6 88.7 C 41.6 88.4 35.3 86.7 32.5 85.5 C 29.8 84.4 37.3 88.0 44.8 88.8 C 52.2 89.6 46.1 88.8 49.1 88.8 C 52.1 88.8 46.2 88.7 43.2 88.3 C 40.3 87.9 45.2 88.6 45.6 88.7 C 45.6 88.7 45.6 88.7 45.6 88.7 Z M 45.8 88.3 C 47.2 88.5 48.5 88.5 49.3 88.4 C 47.8 88.4 46.4 88.2 45.8 88.3 C 45.8 88.3 45.8 88.3 45.8 88.3 Z M 80.9 78.1 C 82.1 78.4 85.6 76.1 88.5 72.7 C 89.2 71.8 89.9 70.9 90.6 70.0 C 94.9 63.1 97.0 55.0 96.8 46.9 C 96.7 45.3 96.6 43.7 96.4 42.1 C 95.7 37.1 94.2 32.3 91.8 27.7 C 91.1 26.1 90.2 24.7 89.2 23.2 C 85.7 17.9 81.0 13.5 75.9 10.1 C 73.3 8.4 70.6 6.9 67.7 5.6 C 66.2 4.9 59.8 3.1 57.4 2.8 C 59.7 2.9 48.8 2.0 49.3 2.0 C 48.0 2.0 46.8 2.1 45.5 2.3 C 44.2 2.4 45.9 2.3 47.5 2.2 C 46.0 2.3 44.6 2.5 43.2 2.7 C 41.7 2.8 40.2 3.1 38.6 3.4 C 33.6 4.5 28.4 6.7 24.3 9.3 C 21.5 11.0 17.5 13.8 13.8 17.8 C 10.2 21.8 7.2 26.6 5.3 31.1 C 1.5 40.2 1.7 47.6 2.0 44.5 C 2.8 37.3 2.6 41.0 2.4 42.9 C 2.2 44.0 2.1 45.5 2.1 47.2 C 2.0 47.2 2.0 47.0 2.0 46.8 C 1.8 50.0 1.9 54.5 3.0 58.8 C 2.9 58.0 2.7 57.0 2.7 56.6 C 3.0 58.8 2.8 57.0 3.2 58.5 C 4.1 62.4 4.7 64.3 3.5 59.7 C 4.7 63.9 5.9 66.5 8.2 70.3 C 8.9 71.8 8.5 71.0 8.2 70.6 C 9.6 73.2 13.9 78.6 14.3 79.1 C 14.5 79.3 11.3 75.8 9.0 72.2 C 6.8 68.6 5.4 65.0 6.0 66.6 C 6.5 67.8 7.8 70.3 8.3 71.3 C 7.1 69.2 5.9 66.6 5.3 65.2 C 5.9 66.7 6.9 68.8 7.5 70.0 C 6.7 68.6 6.3 67.6 6.0 67.1 C 7.0 69.3 7.8 70.8 9.3 73.2 C 10.0 74.2 8.8 72.3 10.3 74.5 C 10.6 74.8 9.3 73.0 9.4 73.1 C 10.6 74.9 13.3 78.3 14.1 79.1 C 14.8 79.8 12.4 77.1 12.3 77.0 C 17.7 83.5 26.0 88.5 28.5 89.7 C 31.2 90.9 28.7 89.8 27.6 89.2 C 30.6 90.7 33.0 91.6 36.7 92.7 C 39.2 93.3 38.2 93.0 37.3 92.7 C 37.9 92.9 38.5 93.0 38.9 93.1 C 39.2 93.1 39.9 93.3 40.3 93.3 C 38.8 93.0 36.1 92.4 34.9 91.9 C 37.1 92.6 42.4 93.7 44.4 93.8 C 41.3 93.4 38.0 92.8 34.6 91.7 C 41.2 93.8 48.3 94.5 53.7 93.8 C 52.8 93.8 52.3 93.8 51.5 93.8 C 53.6 93.8 56.7 93.5 58.5 93.0 C 59.5 92.8 61.5 92.3 63.5 91.6 C 60.0 92.7 57.7 93.1 55.2 93.4 C 55.2 93.4 55.5 93.3 55.9 93.3 C 50.3 93.9 47.1 94.0 43.2 93.5 C 42.9 93.5 42.6 93.4 42.3 93.4 C 41.0 93.1 45.5 93.7 46.0 93.6 C 40.1 93.2 33.9 91.3 31.2 90.1 C 37.8 92.7 43.9 93.7 49.2 93.6 C 47.8 93.5 42.6 93.1 40.1 92.6 C 45.7 93.6 48.9 93.4 50.7 93.4 C 52.5 93.3 53.0 93.2 53.5 93.2 C 52.6 93.2 51.7 93.3 50.9 93.3 C 51.1 93.3 51.3 93.2 51.5 93.2 C 56.5 93.0 62.2 91.5 61.9 91.5 C 61.7 91.5 57.2 92.7 52.5 93.1 C 53.0 93.0 53.4 92.9 53.9 92.8 C 59.5 92.2 65.6 90.2 70.7 87.7 C 69.8 88.0 70.2 87.8 71.3 87.2 C 69.7 88.0 67.4 89.1 65.6 89.7 C 66.2 89.4 67.3 89.0 67.6 88.8 C 66.7 89.1 65.3 89.7 64.9 89.8 C 67.3 88.9 69.9 87.6 72.4 86.2 C 72.8 85.8 71.3 86.8 71.4 86.7 C 73.7 85.3 76.8 83.2 78.3 81.8 C 76.5 83.3 72.8 85.7 71.6 86.4 C 72.4 85.9 73.1 85.4 73.9 84.9 C 75.4 83.9 76.1 83.4 74.4 84.5 C 73.4 85.1 73.4 85.0 73.7 84.9 C 74.7 84.1 78.2 81.5 78.0 81.5 C 77.1 82.2 73.6 84.7 72.6 85.2 C 73.3 84.7 75.1 83.5 75.2 83.3 C 71.4 86.1 71.4 85.8 70.4 86.4 C 70.8 86.1 72.0 85.4 72.0 85.5 C 69.5 87.0 66.8 88.2 64.0 89.2 C 64.0 89.2 64.0 89.2 64.0 89.2 C 64.0 89.2 64.0 89.2 64.0 89.2 C 64.0 89.2 64.0 89.2 64.0 89.2 C 64.3 89.0 64.1 88.9 63.9 89.0 C 65.1 88.6 66.3 88.1 68.4 87.1 C 67.8 87.3 65.8 88.2 64.0 88.8 C 64.0 88.8 64.0 88.8 64.0 88.8 C 67.0 87.7 71.4 85.5 74.1 83.6 C 72.8 84.4 68.0 87.2 64.5 88.5 C 64.6 88.4 64.7 88.3 64.8 88.2 C 60.5 89.9 55.0 90.9 49.8 91.0 C 52.3 90.8 55.3 90.7 58.4 90.0 C 59.9 89.6 61.2 89.2 62.6 88.8 C 64.5 88.2 68.4 86.7 71.7 84.8 C 75.0 82.8 77.7 80.5 78.2 80.0 C 78.8 79.4 76.7 81.3 74.2 83.0 C 71.7 84.7 68.9 86.1 68.9 86.1 C 68.8 86.1 73.9 83.2 71.5 84.6 C 70.2 85.3 67.5 86.8 65.4 87.6 C 65.3 87.6 65.2 87.5 65.1 87.5 C 66.9 86.7 68.9 85.7 69.1 85.8 C 70.0 85.3 71.8 84.4 72.0 84.1 C 71.7 84.3 71.3 84.6 71.3 84.5 C 71.7 84.3 72.3 83.9 72.3 83.9 C 70.3 85.1 67.3 86.5 64.9 87.4 C 64.7 87.5 64.5 87.5 64.3 87.6 C 64.3 87.5 66.2 86.8 67.7 86.1 C 69.3 85.3 65.9 86.9 63.1 87.8 C 62.7 87.9 62.2 88.0 61.7 88.1 C 62.7 87.8 63.8 87.5 65.1 87.0 C 66.6 86.3 66.6 86.3 68.0 85.5 C 65.3 86.8 61.9 87.9 59.1 88.6 C 58.0 88.8 57.0 88.9 55.9 89.0 C 58.3 88.6 60.4 88.0 61.6 87.5 C 62.6 87.2 63.7 86.9 64.0 86.7 C 63.1 87.0 65.5 86.1 65.1 86.1 C 63.8 86.7 61.1 87.5 60.2 87.9 C 58.1 88.5 55.7 88.9 53.6 89.1 C 53.3 89.1 53.1 89.1 52.8 89.1 C 54.6 89.0 56.3 88.7 58.1 88.3 C 57.3 88.3 52.1 89.1 48.2 89.1 C 40.5 88.8 32.6 87.0 25.8 82.6 C 25.5 82.5 25.1 82.2 24.7 81.9 C 24.3 81.5 23.8 81.1 23.3 80.7 C 24.9 81.9 26.3 82.8 27.6 83.5 C 25.2 82.0 26.9 83.1 29.4 84.4 C 31.9 85.7 35.3 86.9 35.7 87.0 C 31.5 85.5 25.6 82.6 20.5 77.9 C 15.5 73.1 11.9 67.0 10.2 62.2 C 11.0 64.5 11.3 65.2 10.4 62.7 C 10.2 62.0 10.0 61.4 9.8 60.7 C 13.0 70.5 21.2 79.6 28.7 83.5 C 24.3 81.1 18.5 75.6 17.2 73.9 C 18.2 75.1 19.7 76.7 20.0 76.9 C 18.1 74.9 13.0 67.9 12.0 65.6 C 14.7 71.0 19.6 77.1 25.3 81.1 C 31.0 85.1 37.1 87.0 41.5 87.8 C 34.9 86.6 27.4 83.3 21.5 77.9 C 15.5 72.5 11.7 65.6 10.0 60.2 C 10.5 62.1 10.6 62.1 10.2 61.2 C 9.0 57.8 8.3 54.3 8.1 50.7 C 8.1 49.9 8.1 50.2 8.3 51.9 C 8.4 53.4 8.5 54.2 8.7 54.6 C 8.5 53.7 7.7 42.5 8.4 51.4 C 9.0 60.2 16.5 74.3 12.5 66.1 C 10.5 62.0 9.8 58.9 9.5 57.5 C 9.2 56.1 9.2 56.5 9.9 58.8 C 10.6 61.2 12.5 66.0 14.6 69.3 C 16.8 72.6 18.6 74.7 17.0 72.5 C 15.3 70.4 13.1 66.8 11.5 63.0 C 10.0 59.1 9.2 54.9 9.0 51.9 C 8.7 48.9 8.7 49.9 8.7 50.6 C 8.6 51.2 8.3 51.6 8.5 47.0 C 8.9 38.0 8.7 45.5 8.9 43.8 C 9.2 41.1 10.3 36.1 12.5 31.8 C 14.0 28.7 16.7 25.0 18.2 23.3 C 18.2 23.4 12.1 32.2 14.4 28.7 C 19.7 19.9 30.3 13.6 26.3 16.1 C 31.6 12.6 36.1 11.2 39.9 10.3 C 45.8 9.1 52.8 9.5 53.6 9.6 C 54.1 9.6 58.4 10.0 63.2 11.7 C 67.9 13.3 72.9 16.5 75.2 18.6 C 75.4 18.8 77.8 20.7 79.9 23.0 C 82.0 25.3 83.8 27.8 84.1 28.2 C 86.9 32.8 87.4 35.1 88.1 37.2 C 88.7 39.3 89.4 41.5 89.8 46.5 C 90.3 55.0 88.9 57.6 88.5 59.0 C 87.4 63.4 86.2 65.4 85.4 66.9 C 84.7 68.5 84.2 69.5 83.1 71.5 C 82.4 72.8 80.9 74.5 80.6 75.3 C 80.0 76.8 79.9 77.8 80.9 78.1 C 80.9 78.1 80.9 78.1 80.9 78.1 Z M 62.9 89.7 C 64.6 89.3 67.5 88.1 69.2 87.3 C 67.4 88.3 64.9 89.3 62.3 90.0 C 62.5 89.9 62.7 89.8 62.9 89.7 C 62.9 89.7 62.9 89.7 62.9 89.7 Z M 49.5 90.1 C 50.6 90.1 52.0 90.1 53.2 90.0 C 54.4 89.9 55.7 89.8 57.5 89.4 C 57.3 89.3 54.3 89.8 52.0 90.0 C 52.0 89.9 52.0 89.9 52.0 89.9 C 53.1 89.7 54.4 89.6 56.0 89.4 C 56.6 89.3 57.1 89.2 57.6 89.1 C 57.7 89.1 56.9 89.3 56.5 89.4 C 57.0 89.4 58.4 89.2 60.2 88.8 C 60.4 88.7 60.6 88.7 60.8 88.6 C 61.1 88.7 59.8 89.1 61.3 88.6 C 60.2 89.0 57.4 89.6 55.7 89.9 C 57.6 89.4 50.2 90.3 48.4 90.2 C 48.7 90.2 49.1 90.1 49.5 90.1 Z M 34.2 91.5 C 33.2 91.2 32.1 90.8 31.1 90.3 C 32.6 91.0 33.8 91.4 34.9 91.7 C 34.7 91.6 34.4 91.6 34.2 91.5 Z M 16.3 15.8 C 13.8 18.3 10.2 22.6 7.9 26.6 C 5.7 30.6 4.5 34.2 4.4 34.7 C 4.0 36.1 3.6 37.5 3.2 38.9 C 5.2 29.8 11.1 20.7 16.3 15.8 C 16.3 15.8 16.3 15.8 16.3 15.8 Z M 9.6 38.2 C 9.4 38.7 9.5 38.5 9.8 37.3 C 11.6 31.3 13.7 28.0 11.9 31.6 C 10.4 34.7 8.5 41.9 8.9 39.8 C 9.6 37.0 10.5 34.2 11.8 31.5 C 12.9 29.4 14.2 27.5 15.7 25.6 C 12.7 29.8 10.7 34.1 9.6 38.2 C 9.6 38.2 9.6 38.2 9.6 38.2 Z M 17.6 23.5 C 16.4 24.9 15.1 26.6 13.9 28.5 C 14.9 26.9 16.0 25.3 17.2 23.8 C 17.3 23.7 17.4 23.6 17.6 23.5 Z M 19.2 21.8 C 16.6 24.6 14.5 27.6 16.7 24.6 C 17.3 23.9 17.8 23.3 18.4 22.6 C 18.7 22.3 18.9 22.1 19.2 21.8 Z M 20.9 20.2 C 20.9 20.2 20.4 20.6 19.5 21.5 C 21.3 19.7 25.2 16.5 25.1 16.8 C 23.7 17.7 22.3 18.9 20.9 20.2 C 20.9 20.2 20.9 20.2 20.9 20.2 Z M 19.8 12.6 C 18.3 13.7 17.0 14.7 19.3 12.9 C 20.2 12.1 21.1 11.5 22.0 10.8 C 21.3 11.4 20.5 11.9 19.8 12.6 Z M 33.6 85.8 C 33.0 85.5 30.6 84.4 29.3 83.8 C 29.0 83.9 34.5 86.2 33.6 85.8 C 33.6 85.8 33.6 85.8 33.6 85.8 Z M 42.9 88.2 C 42.3 88.1 39.8 87.6 38.3 87.2 C 38.1 87.5 43.8 88.4 42.9 88.2 C 42.9 88.2 42.9 88.2 42.9 88.2 Z M 75.3 18.7 C 75.3 18.6 75.3 18.6 75.2 18.6 C 75.3 18.6 75.3 18.6 75.3 18.7 C 75.3 18.7 75.3 18.7 75.3 18.7 Z M 75.3 18.7 " fill="#961817"></path></g></svg>