<?xml version="1.0" encoding="UTF-8" standalone="no"?><svg xmlns="http://www.w3.org/2000/svg" xmlns:xlink="http://www.w3.org/1999/xlink" clip-rule="evenodd" stroke-miterlimit="4.00" viewBox="0 0 409 105"><desc>SVG generated by Keynote</desc><defs></defs><g transform="matrix(1.00, 0.00, -0.00, -1.00, 0.0, 105.0)"><text xml:space="preserve" font-family="Helvetica-Bold" font-weight="bold" font-size="50.0" fill="#0065C0" transform="matrix(1.00, 0.00, -0.00, -1.00, 1.0, 67.0)">2</text><text xml:space="preserve" font-family="Helvetica-Bold" font-weight="bold" font-size="50.0" fill="#0065C0" transform="matrix(1.00, 0.00, -0.00, -1.00, 28.8, 67.0)">2</text><text xml:space="preserve" font-family="Helvetica-Light" font-size="50.0" fill="#0065C0" transform="matrix(1.00, 0.00, -0.00, -1.00, 56.6, 67.0)"> </text><text xml:space="preserve" font-family="Helvetica-Light" font-size="50.0" fill="#A6AAA8" transform="matrix(1.00, 0.00, -0.00, -1.00, 70.5, 67.0)">H</text><text xml:space="preserve" font-family="Helvetica-Light" font-size="50.0" fill="#A6AAA8" transform="matrix(1.00, 0.00, -0.00, -1.00, 106.6, 67.0)">e</text><text xml:space="preserve" font-family="Helvetica-Light" font-size="50.0" fill="#A6AAA8" transform="matrix(1.00, 0.00, -0.00, -1.00, 134.4, 67.0)">I</text><text xml:space="preserve" font-family="Helvetica-Light" font-size="50.0" fill="#A6AAA8" transform="matrix(1.00, 0.00, -0.00, -1.00, 148.3, 67.0)">I</text><text xml:space="preserve" font-family="Helvetica-Light" font-size="50.0" fill="#A6AAA8" transform="matrix(1.00, 0.00, -0.00, -1.00, 162.2, 67.0)"> </text><text xml:space="preserve" font-family="Helvetica-Light" font-size="50.0" fill="#A6AAA8" transform="matrix(1.00, 0.00, -0.00, -1.00, 176.1, 67.0)">S</text><text xml:space="preserve" font-family="Helvetica-Light" font-size="50.0" fill="#A6AAA8" transform="matrix(1.00, 0.00, -0.00, -1.00, 206.7, 67.0)">i</text><text xml:space="preserve" font-family="Helvetica-Light" font-size="50.0" fill="#A6AAA8" transform="matrix(1.00, 0.00, -0.00, -1.00, 217.8, 67.0)">g</text><text xml:space="preserve" font-family="Helvetica-Light" font-size="50.0" fill="#A6AAA8" transform="matrix(1.00, 0.00, -0.00, -1.00, 248.3, 67.0)">h</text><text xml:space="preserve" font-family="Helvetica-Light" font-size="50.0" fill="#A6AAA8" transform="matrix(1.00, 0.00, -0.00, -1.00, 276.1, 67.0)">t</text><text xml:space="preserve" font-family="Helvetica-Light" font-size="50.0" fill="#A6AAA8" transform="matrix(1.00, 0.00, -0.00, -1.00, 290.0, 67.0)">l</text><text xml:space="preserve" font-family="Helvetica-Light" font-size="50.0" fill="#A6AAA8" transform="matrix(1.00, 0.00, -0.00, -1.00, 301.1, 67.0)">i</text><text xml:space="preserve" font-family="Helvetica-Light" font-size="50.0" fill="#A6AAA8" transform="matrix(1.00, 0.00, -0.00, -1.00, 312.2, 67.0)">n</text><text xml:space="preserve" font-family="Helvetica-Light" font-size="50.0" fill="#A6AAA8" transform="matrix(1.00, 0.00, -0.00, -1.00, 340.0, 67.0)">e</text><text xml:space="preserve" font-family="Helvetica-Light" font-size="50.0" fill="#A6AAA8" transform="matrix(1.00, 0.00, -0.00, -1.00, 367.8, 67.0)">s</text><text xml:space="preserve" font-family="Helvetica-Light" font-size="50.0" fill="#A6AAA8" transform="matrix(1.00, 0.00, -0.00, -1.00, 392.8, 67.0)"> </text><text xml:space="preserve" font-family="Helvetica-Light" font-size="50.0" fill="#A6AAA8" transform="matrix(1.00, 0.00, -0.00, -1.00, 406.7, 67.0)"> </text><text xml:space="preserve" font-family="Helvetica-Light" font-size="50.0" fill="#A6AAA8" transform="matrix(1.00, 0.00, -0.00, -1.00, 1.0, 7.0)">f</text><text xml:space="preserve" font-family="Helvetica-Light" font-size="50.0" fill="#A6AAA8" transform="matrix(1.00, 0.00, -0.00, -1.00, 14.9, 7.0)">r</text><text xml:space="preserve" font-family="Helvetica-Light" font-size="50.0" fill="#A6AAA8" transform="matrix(1.00, 0.00, -0.00, -1.00, 30.7, 7.0)">o</text><text xml:space="preserve" font-family="Helvetica-Light" font-size="50.0" fill="#A6AAA8" transform="matrix(1.00, 0.00, -0.00, -1.00, 58.5, 7.0)">m</text><text xml:space="preserve" font-family="Helvetica-Light" font-size="50.0" fill="#A6AAA8" transform="matrix(1.00, 0.00, -0.00, -1.00, 100.1, 7.0)"> </text><text xml:space="preserve" font-family="Helvetica-Light" font-size="50.0" fill="#A6AAA8" transform="matrix(1.00, 0.00, -0.00, -1.00, 114.0, 7.0)">H</text><text xml:space="preserve" font-family="Helvetica-Light" font-size="50.0" fill="#A6AAA8" transform="matrix(1.00, 0.00, -0.00, -1.00, 150.1, 7.0)">S</text><text xml:space="preserve" font-family="Helvetica-Light" font-size="50.0" fill="#A6AAA8" transform="matrix(1.00, 0.00, -0.00, -1.00, 180.7, 7.0)">T</text><text xml:space="preserve" font-family="Helvetica-Light" font-size="50.0" fill="#A6AAA8" transform="matrix(1.00, 0.00, -0.00, -1.00, 208.5, 7.0)">/</text><text xml:space="preserve" font-family="Helvetica-Light" font-size="50.0" fill="#A6AAA8" transform="matrix(1.00, 0.00, -0.00, -1.00, 222.4, 7.0)">C</text><text xml:space="preserve" font-family="Helvetica-Light" font-size="50.0" fill="#A6AAA8" transform="matrix(1.00, 0.00, -0.00, -1.00, 258.5, 7.0)">O</text><text xml:space="preserve" font-family="Helvetica-Light" font-size="50.0" fill="#A6AAA8" transform="matrix(1.00, 0.00, -0.00, -1.00, 297.4, 7.0)">S</text></g></svg>