<?xml version="1.0" encoding="UTF-8" standalone="no"?><svg xmlns="http://www.w3.org/2000/svg" xmlns:xlink="http://www.w3.org/1999/xlink" clip-rule="evenodd" stroke-miterlimit="4.00" viewBox="0 0 703 216"><desc>SVG generated by Keynote</desc><defs></defs><g transform="matrix(1.00, 0.00, -0.00, -1.00, 0.0, 216.0)"><path d="M 473.4 205.7 C 476.6 205.4 490.1 203.7 490.3 203.6 C 485.2 204.3 474.4 205.5 473.4 205.7 C 473.4 205.7 473.4 205.7 473.4 205.7 Z M 445.6 208.4 C 450.7 208.1 461.8 207.0 465.2 206.6 C 459.4 207.2 447.4 208.2 445.6 208.4 C 445.6 208.4 445.6 208.4 445.6 208.4 Z M 487.9 203.7 C 495.1 202.7 508.3 200.9 511.4 200.3 C 504.4 201.4 491.2 203.2 487.9 203.7 C 487.9 203.7 487.9 203.7 487.9 203.7 Z M 103.1 182.9 C 107.9 184.4 118.1 187.2 118.1 187.1 C 116.0 186.6 112.7 185.6 109.9 184.8 C 108.5 184.4 107.1 184.0 106.1 183.7 C 105.1 183.4 103.5 183.0 103.1 182.9 C 103.1 182.9 103.1 182.9 103.1 182.9 Z M 171.0 198.6 C 175.6 199.5 186.0 201.2 189.3 201.6 C 183.7 200.8 172.7 198.8 171.0 198.6 C 171.0 198.6 171.0 198.6 171.0 198.6 Z M 213.6 205.2 C 223.8 206.5 235.0 207.7 232.9 207.3 C 229.5 207.1 214.7 205.2 213.6 205.2 C 213.6 205.2 213.6 205.2 213.6 205.2 Z M 478.7 200.5 C 467.7 201.8 459.6 202.5 452.1 203.2 C 414.2 206.6 471.4 201.5 478.7 200.5 C 478.7 200.5 478.7 200.5 478.7 200.5 Z M 293.3 211.8 C 285.5 211.4 279.4 211.1 275.6 210.9 C 282.8 211.3 292.9 211.9 293.3 211.8 C 293.3 211.8 293.3 211.8 293.3 211.8 Z M 360.9 213.1 C 362.6 213.1 402.8 212.2 424.7 210.8 C 406.1 211.9 359.1 213.0 360.9 213.1 C 360.9 213.1 360.9 213.1 360.9 213.1 Z M 387.2 207.1 C 361.4 207.9 319.8 207.4 301.1 206.6 C 282.5 205.9 334.4 208.7 382.2 207.4 C 430.0 206.1 390.6 207.1 410.0 206.1 C 429.2 205.0 391.4 206.9 372.0 207.3 C 352.7 207.7 384.9 207.0 387.2 207.1 C 387.2 207.1 387.2 207.1 387.2 207.1 Z M 388.4 206.6 C 397.7 206.3 405.8 205.9 411.1 205.6 C 401.5 206.1 392.2 206.4 388.4 206.6 C 388.4 206.6 388.4 206.6 388.4 206.6 Z M 603.8 177.5 C 608.6 177.1 639.8 167.9 661.8 155.6 C 667.3 152.6 672.2 149.4 676.7 146.1 C 692.5 134.0 700.8 120.5 700.4 106.6 C 700.0 92.6 690.8 79.0 673.9 66.6 C 667.2 61.7 659.4 56.9 649.9 52.2 C 635.7 45.2 618.6 38.5 598.3 32.5 C 595.8 31.7 595.0 31.5 593.6 31.1 C 592.3 30.7 590.9 30.3 589.5 29.9 C 586.7 29.1 583.9 28.3 581.1 27.6 C 575.4 26.1 569.6 24.7 563.7 23.3 C 555.8 21.5 547.8 19.8 539.3 18.2 C 509.5 12.3 478.8 8.5 446.2 5.7 C 430.0 4.3 413.2 3.3 395.8 2.4 C 387.1 2.0 349.6 1.5 336.3 1.7 C 342.7 1.5 330.6 1.6 317.2 2.0 C 303.8 2.4 289.2 3.2 290.6 3.1 C 283.8 3.5 276.8 4.0 269.8 4.5 C 262.8 5.0 271.7 4.4 280.6 3.9 C 272.7 4.4 264.8 5.0 256.9 5.7 C 248.6 6.4 240.3 7.1 231.9 8.0 C 204.6 10.9 176.3 15.4 153.5 20.2 C 145.6 21.8 136.3 23.9 126.2 26.4 C 121.2 27.7 116.1 29.1 110.8 30.5 C 109.5 30.9 108.2 31.3 106.9 31.7 C 105.5 32.1 103.1 32.8 100.7 33.5 C 95.8 35.1 91.0 36.6 86.4 38.2 C 49.4 51.1 23.1 67.2 11.1 83.0 C -1.0 98.7 1.1 114.0 5.1 122.9 C 7.1 127.3 9.3 130.2 10.2 131.5 C 11.1 132.7 10.6 132.3 8.9 129.6 C 5.0 123.7 3.9 119.8 3.2 117.6 C 2.6 115.4 2.6 114.9 2.7 115.3 C 3.0 116.3 4.4 121.1 6.0 124.3 C 7.9 128.1 11.1 133.1 16.4 138.5 C 16.2 138.4 15.8 138.0 15.0 137.2 C 19.7 142.3 26.7 148.4 36.6 154.6 C 46.5 160.8 59.3 167.2 74.4 173.0 C 68.8 170.8 62.1 167.9 59.8 166.8 C 66.6 169.9 67.6 170.1 67.7 170.1 C 67.9 170.2 67.3 169.9 72.2 171.9 C 86.0 177.3 98.1 181.0 101.4 182.0 C 104.6 183.0 98.2 181.4 81.3 175.3 C 89.2 178.1 96.9 180.6 104.6 182.9 C 106.5 183.4 107.1 183.6 108.2 183.9 C 109.2 184.2 110.2 184.5 111.2 184.7 C 113.2 185.3 115.2 185.8 117.2 186.4 C 125.3 188.5 133.5 190.4 143.9 192.7 C 151.8 194.4 147.5 193.5 145.1 193.0 C 158.9 196.1 192.4 201.8 195.6 202.3 C 197.2 202.6 173.9 199.1 153.8 195.0 C 133.6 190.8 116.5 186.2 124.0 188.2 C 130.1 189.8 143.2 192.8 148.3 193.9 C 137.0 191.5 123.7 188.2 117.0 186.5 C 124.3 188.4 134.9 191.0 140.9 192.4 C 133.4 190.7 128.5 189.5 126.3 189.0 C 136.8 191.7 145.0 193.6 158.4 196.2 C 164.3 197.3 153.2 195.2 166.0 197.6 C 168.3 198.0 157.6 195.9 158.4 196.0 C 168.6 198.0 189.7 201.6 195.0 202.3 C 200.2 203.1 182.1 200.3 181.7 200.2 C 222.7 207.0 273.7 210.7 289.6 211.6 C 305.6 212.4 290.6 211.6 283.8 211.2 C 302.4 212.2 316.4 212.8 338.7 213.0 C 353.0 213.1 347.3 213.0 341.9 213.0 C 345.7 213.0 349.1 213.0 351.3 213.0 C 352.9 213.0 357.0 213.0 359.7 212.9 C 351.0 213.0 334.7 212.8 327.5 212.7 C 340.6 212.9 371.8 212.8 383.2 212.4 C 365.1 212.8 345.7 212.9 325.5 212.5 C 364.9 213.3 405.6 212.1 436.6 209.6 C 431.0 210.0 428.6 210.1 424.0 210.3 C 435.9 209.6 453.3 208.3 463.6 207.1 C 469.3 206.5 480.5 205.2 491.5 203.8 C 472.2 206.3 458.9 207.5 444.9 208.7 C 445.2 208.7 446.5 208.5 448.9 208.3 C 417.5 210.9 399.0 211.9 376.0 212.4 C 374.3 212.4 372.5 212.4 370.6 212.5 C 363.2 212.5 389.4 211.9 392.0 211.8 C 358.1 212.9 320.8 212.3 304.2 211.5 C 344.4 213.1 380.4 212.5 410.5 210.8 C 402.7 211.1 372.3 212.2 357.7 212.2 C 390.8 212.0 408.9 210.8 419.3 210.1 C 429.8 209.5 432.7 209.2 435.4 209.0 C 430.4 209.4 425.4 209.7 420.2 210.0 C 421.5 209.9 422.8 209.8 424.1 209.7 C 452.7 207.9 485.1 204.1 483.4 204.2 C 482.2 204.3 457.0 207.4 429.5 209.3 C 432.4 209.0 435.2 208.8 438.2 208.5 C 470.3 206.0 505.4 201.4 534.3 196.1 C 529.5 196.9 532.0 196.5 538.0 195.3 C 528.9 197.0 515.8 199.2 505.6 200.6 C 509.1 200.1 515.3 199.1 517.3 198.8 C 512.3 199.5 504.3 200.8 501.7 201.0 C 516.1 199.0 531.1 196.4 545.2 193.5 C 548.1 192.9 539.0 194.7 539.8 194.5 C 553.3 191.9 571.5 187.7 580.5 185.2 C 570.0 187.9 548.5 192.7 541.5 194.0 C 546.0 193.1 550.5 192.2 555.0 191.2 C 563.9 189.2 568.2 188.2 558.1 190.4 C 552.8 191.6 552.8 191.5 554.2 191.2 C 560.3 189.8 581.0 184.8 580.4 184.8 C 575.3 186.1 554.3 191.0 548.8 192.1 C 552.9 191.1 563.8 188.7 564.8 188.4 C 541.6 193.8 541.9 193.3 535.8 194.5 C 538.5 194.0 545.4 192.7 545.2 192.8 C 530.3 195.8 514.8 198.4 498.4 200.7 C 498.4 200.7 498.4 200.7 498.4 200.7 C 498.4 200.7 498.4 200.7 498.4 200.7 C 498.4 200.7 498.4 200.7 498.4 200.7 C 499.9 200.4 499.3 200.4 497.8 200.5 C 504.8 199.5 512.1 198.5 524.6 196.3 C 521.2 196.8 509.6 198.7 498.6 200.3 C 498.7 200.3 498.8 200.2 498.9 200.2 C 516.7 197.7 542.9 193.0 559.4 189.2 C 551.9 190.9 523.0 196.6 502.2 199.6 C 502.9 199.5 503.5 199.4 504.2 199.2 C 478.1 203.1 445.9 206.2 414.4 208.0 C 429.6 207.0 447.2 205.9 466.2 203.8 C 474.9 202.9 482.9 201.9 491.1 200.8 C 502.9 199.3 525.9 195.8 545.7 191.8 C 565.5 187.8 582.0 183.4 585.4 182.4 C 589.1 181.4 576.1 185.0 561.2 188.4 C 546.3 191.8 529.3 194.8 529.1 194.8 C 528.8 194.8 559.5 188.8 545.1 191.7 C 537.6 193.2 520.8 196.3 508.3 198.2 C 507.8 198.2 507.4 198.2 506.9 198.2 C 517.9 196.5 530.5 194.2 531.0 194.3 C 536.3 193.3 547.1 191.3 548.7 190.8 C 547.0 191.2 544.3 191.7 544.3 191.7 C 546.8 191.2 550.4 190.5 550.8 190.3 C 538.4 192.9 520.7 196.0 506.2 198.2 C 505.0 198.3 503.8 198.5 502.5 198.6 C 502.7 198.6 514.1 196.9 523.5 195.3 C 533.5 193.5 512.8 197.1 495.8 199.4 C 493.0 199.8 490.3 200.1 487.5 200.4 C 493.5 199.6 500.3 198.7 508.3 197.5 C 517.5 196.1 517.3 196.0 526.3 194.4 C 509.6 197.3 488.7 200.2 471.5 202.1 C 465.2 202.7 458.9 203.3 452.3 203.8 C 466.8 202.4 480.0 200.8 487.7 199.8 C 493.9 199.0 500.4 198.1 502.6 197.7 C 496.9 198.5 511.7 196.3 509.5 196.5 C 501.4 197.9 485.0 200.0 479.0 200.8 C 465.9 202.4 451.2 203.8 438.0 204.8 C 436.4 204.9 434.7 205.0 432.9 205.1 C 444.1 204.3 454.7 203.4 466.3 202.1 C 461.0 202.5 428.5 205.5 404.4 206.7 C 355.2 208.8 304.1 208.4 256.0 204.4 C 254.0 204.3 251.2 204.0 248.2 203.7 C 244.7 203.3 241.3 203.0 237.7 202.6 C 249.1 203.7 259.4 204.6 267.9 205.2 C 250.8 203.8 262.9 204.8 280.3 205.9 C 297.6 206.9 320.2 207.6 323.0 207.6 C 294.6 206.9 254.0 204.6 214.8 199.6 C 175.6 194.6 138.6 186.8 113.2 179.6 C 125.4 183.0 129.5 184.1 116.2 180.4 C 114.4 179.9 112.7 179.4 110.9 178.9 C 110.0 178.6 109.1 178.3 108.2 178.1 C 107.3 177.8 105.7 177.3 104.1 176.8 C 109.9 178.6 111.9 179.1 115.2 180.0 C 118.5 180.9 121.8 181.8 125.1 182.7 C 131.9 184.4 138.8 186.1 145.8 187.6 C 159.9 190.7 174.5 193.4 189.1 195.8 C 218.4 200.4 247.9 203.4 274.0 205.0 C 258.5 204.0 239.3 202.3 222.7 200.3 C 206.1 198.3 192.2 196.2 186.3 195.1 C 194.6 196.5 207.1 198.2 208.8 198.4 C 201.3 197.4 185.1 195.0 169.6 192.2 C 154.1 189.4 139.5 186.0 133.0 184.4 C 164.8 192.1 206.6 198.9 248.4 202.8 C 290.2 206.6 331.4 207.5 360.1 207.2 C 316.7 207.6 265.4 205.2 219.0 199.5 C 195.8 196.6 173.9 193.0 154.4 189.0 C 144.6 187.0 135.5 184.9 127.1 182.8 C 122.8 181.7 118.8 180.7 114.9 179.6 C 113.0 179.1 111.1 178.5 109.3 178.0 C 108.4 177.7 107.5 177.5 105.8 177.0 C 104.2 176.5 102.5 176.0 100.9 175.5 C 103.1 176.2 105.1 176.8 106.9 177.3 C 108.6 177.8 108.8 177.9 109.5 178.1 C 110.8 178.5 111.6 178.7 111.9 178.8 C 112.5 179.0 111.2 178.7 108.6 177.9 C 106.4 177.3 101.5 175.8 97.6 174.6 C 93.7 173.3 89.9 172.0 86.2 170.7 C 78.9 168.1 72.1 165.4 65.7 162.7 C 53.1 157.2 42.4 151.4 33.8 145.3 C 30.3 142.8 30.9 143.7 40.2 149.4 C 47.8 154.2 53.4 156.8 56.4 158.3 C 54.9 157.5 49.1 154.7 43.3 151.2 C 37.5 147.8 31.7 143.7 27.9 140.6 C 24.2 137.6 22.2 135.6 22.9 136.2 C 23.5 136.8 26.2 140.2 37.5 147.6 C 48.8 154.9 65.9 163.4 87.2 170.9 C 92.6 172.8 98.1 174.6 103.8 176.3 C 109.5 178.1 111.6 178.6 114.6 179.5 C 120.6 181.1 126.4 182.6 131.5 183.9 C 141.7 186.4 149.3 187.9 151.1 188.3 C 152.8 188.7 148.6 187.9 136.5 185.0 C 130.4 183.6 125.0 182.2 120.0 180.8 C 117.6 180.2 115.3 179.5 113.1 178.9 C 112.0 178.6 111.0 178.3 110.0 178.0 C 108.9 177.7 108.4 177.6 106.7 177.0 C 92.5 172.8 83.3 169.4 77.9 167.2 C 72.4 165.1 70.5 164.3 72.1 164.9 C 73.7 165.6 78.8 167.7 89.2 171.3 C 91.8 172.2 94.8 173.2 98.3 174.3 C 101.7 175.4 106.4 176.8 108.6 177.5 C 113.1 178.8 118.1 180.2 123.5 181.6 C 134.4 184.4 146.6 187.2 157.5 189.3 C 179.2 193.7 194.8 195.9 179.5 193.3 C 164.3 190.7 141.3 186.2 119.8 180.4 C 114.4 178.9 110.5 177.9 101.1 174.9 C 91.7 172.0 83.2 169.0 75.6 166.0 C 60.3 160.0 48.9 154.0 40.7 148.9 C 32.4 143.8 30.6 142.1 30.4 142.0 C 30.3 141.9 32.1 143.4 33.7 144.5 C 35.3 145.7 36.5 146.6 34.5 145.3 C 32.6 143.9 26.8 140.4 19.7 132.7 C 12.6 125.0 11.4 120.8 10.6 118.8 C 9.8 116.9 9.9 117.0 10.3 117.9 C 11.0 119.7 13.5 124.5 12.0 121.6 C 9.7 117.0 7.7 110.6 8.9 103.4 C 10.1 96.2 14.6 87.8 23.2 79.7 C 29.3 74.0 38.4 67.5 49.0 61.7 C 59.7 56.0 71.9 50.9 80.6 47.7 C 80.0 47.9 59.8 55.9 47.5 62.7 C 41.4 66.1 36.9 69.1 35.0 70.4 C 33.1 71.7 33.5 71.3 38.7 68.0 C 51.6 59.7 69.3 51.5 89.5 44.6 C 94.5 42.8 99.7 41.1 105.0 39.6 C 107.6 38.8 108.9 38.4 110.3 38.0 C 111.7 37.6 113.1 37.2 114.4 36.8 C 119.9 35.3 125.0 33.9 129.6 32.8 C 148.0 28.2 157.4 26.4 144.8 29.1 C 178.8 21.6 206.8 17.8 230.9 15.1 C 268.3 11.2 314.1 9.5 319.2 9.3 C 322.2 9.3 350.6 8.4 383.2 9.3 C 415.8 10.2 451.9 13.1 471.1 15.4 C 472.5 15.6 490.5 17.5 508.0 20.1 C 525.6 22.8 542.7 26.0 545.3 26.5 C 560.1 29.6 570.2 32.1 578.0 34.1 C 581.9 35.2 585.3 36.1 588.4 37.0 C 591.5 37.9 593.8 38.5 598.9 40.1 C 609.2 43.2 618.8 46.5 629.9 51.0 C 641.1 55.6 654.0 61.4 666.7 70.0 C 677.2 77.2 682.9 83.3 686.6 88.3 C 690.2 93.3 691.8 97.2 692.7 100.3 C 694.5 106.6 693.8 109.9 693.5 112.2 C 692.3 119.6 688.6 125.4 684.9 129.9 C 681.2 134.5 677.4 137.8 673.9 140.6 C 666.9 146.3 661.8 150.1 647.5 157.5 C 638.9 162.0 623.1 168.3 617.3 170.7 C 605.8 175.4 599.6 177.9 603.8 177.5 C 603.8 177.5 603.8 177.5 603.8 177.5 Z M 491.1 201.8 C 501.0 200.6 518.5 197.9 528.5 196.2 C 517.1 198.3 502.7 200.5 487.6 202.4 C 488.8 202.2 489.9 202.0 491.1 201.8 C 491.1 201.8 491.1 201.8 491.1 201.8 Z M 412.0 207.3 C 419.1 206.9 427.5 206.5 435.3 205.9 C 442.7 205.3 450.3 204.7 461.3 203.6 C 460.3 203.6 442.1 205.3 427.7 206.3 C 427.7 206.2 427.7 206.2 427.7 206.2 C 434.7 205.7 442.9 205.0 452.6 204.1 C 455.9 203.8 459.1 203.5 462.5 203.2 C 462.8 203.2 457.6 203.8 455.7 203.9 C 458.2 203.8 466.7 203.0 477.6 201.8 C 478.9 201.7 480.2 201.5 481.5 201.4 C 483.1 201.3 474.9 202.3 484.0 201.2 C 477.6 202.1 460.8 203.9 450.1 204.8 C 462.0 203.6 416.6 207.2 405.3 207.7 C 407.5 207.5 409.7 207.4 412.0 207.3 Z M 323.0 212.4 C 316.7 212.2 310.5 212.0 304.0 211.8 C 313.3 212.1 320.4 212.3 327.0 212.4 C 325.7 212.4 324.4 212.4 323.0 212.4 Z M 107.7 31.8 C 104.0 32.9 95.0 35.6 87.4 38.3 C 79.7 40.9 72.0 43.9 64.8 47.0 C 50.2 53.3 37.6 60.3 28.3 67.2 C 9.7 80.8 5.1 93.6 4.5 95.2 C 2.7 100.1 1.8 105.1 2.2 110.2 C 1.0 94.0 12.4 77.7 32.5 64.1 C 42.6 57.3 54.7 51.1 68.0 45.6 C 74.6 42.8 81.5 40.2 88.5 37.8 C 95.5 35.4 104.0 32.8 107.7 31.8 C 107.7 31.8 107.7 31.8 107.7 31.8 Z M 8.5 103.0 C 8.2 104.6 8.1 104.0 9.2 100.1 C 12.1 89.7 20.7 81.1 25.4 77.0 C 27.7 74.9 29.0 73.9 28.6 74.3 C 28.1 74.7 25.8 76.4 22.3 79.7 C 16.4 85.4 10.3 94.5 8.7 101.2 C 7.1 107.8 7.9 112.1 7.9 108.5 C 7.6 99.0 12.1 89.3 22.6 79.3 C 30.8 71.6 41.9 64.3 56.6 57.3 C 25.1 72.7 11.0 89.0 8.5 103.0 C 8.5 103.0 8.5 103.0 8.5 103.0 Z M 76.0 49.0 C 62.6 54.3 48.9 60.8 38.2 67.7 C 47.5 61.7 58.8 55.9 72.9 50.2 C 73.9 49.8 74.9 49.4 76.0 49.0 Z M 94.2 42.6 C 78.9 47.7 66.1 53.2 60.2 55.9 C 54.2 58.7 53.7 58.6 66.4 53.1 C 72.1 50.6 78.2 48.1 85.0 45.7 C 87.9 44.7 91.0 43.7 94.2 42.6 Z M 110.9 37.5 C 110.8 37.5 110.0 37.7 108.5 38.2 C 107.0 38.6 102.5 39.9 97.3 41.6 C 99.9 40.7 103.0 39.8 106.3 38.8 C 108.0 38.3 108.6 38.1 109.6 37.8 C 110.5 37.5 111.5 37.3 112.5 37.0 C 116.4 35.8 120.6 34.7 124.5 33.7 C 132.1 31.7 138.3 30.3 137.8 30.5 C 129.2 32.5 120.0 34.9 110.9 37.5 C 110.9 37.5 110.9 37.5 110.9 37.5 Z M 127.8 26.2 C 119.5 28.2 112.3 30.1 125.4 26.7 C 130.4 25.4 135.4 24.2 140.7 23.0 C 136.4 24.0 132.1 25.1 127.8 26.2 Z M 308.0 206.7 C 303.7 206.6 287.3 205.8 277.9 205.2 C 276.9 205.4 314.0 207.0 308.0 206.7 C 308.0 206.7 308.0 206.7 308.0 206.7 Z M 369.8 207.2 C 365.6 207.3 349.1 207.4 339.4 207.4 C 338.4 207.6 375.9 207.3 369.8 207.2 C 369.8 207.2 369.8 207.2 369.8 207.2 Z M 471.2 15.4 C 471.2 15.4 471.1 15.4 471.1 15.4 C 471.1 15.4 471.2 15.4 471.2 15.4 C 471.2 15.4 471.2 15.4 471.2 15.4 Z M 471.2 15.4 " fill="#DCDDE0"></path></g></svg>