<?xml version="1.0" encoding="UTF-8" standalone="no"?><svg xmlns="http://www.w3.org/2000/svg" xmlns:xlink="http://www.w3.org/1999/xlink" clip-rule="evenodd" stroke-miterlimit="4.00" viewBox="0 0 527 111"><desc>SVG generated by Keynote</desc><defs></defs><g transform="matrix(1.00, 0.00, -0.00, -1.00, 0.0, 111.0)"><text xml:space="preserve" font-family="Helvetica-Bold" font-weight="bold" font-size="50.0" fill="#961817" transform="matrix(1.00, 0.00, -0.00, -1.00, 2.0, 72.0)">2</text><text xml:space="preserve" font-family="Helvetica-Bold" font-weight="bold" font-size="50.0" fill="#961817" transform="matrix(1.00, 0.00, -0.00, -1.00, 29.8, 72.0)">7</text><text xml:space="preserve" font-family="Helvetica-Light" font-size="50.0" fill="#A6AAA8" transform="matrix(1.00, 0.00, -0.00, -1.00, 57.6, 72.0)"> </text><text xml:space="preserve" font-family="Helvetica-Light" font-size="50.0" fill="#A6AAA8" transform="matrix(1.00, 0.00, -0.00, -1.00, 71.5, 72.0)">f</text><text xml:space="preserve" font-family="Helvetica-Light" font-size="50.0" fill="#A6AAA8" transform="matrix(1.00, 0.00, -0.00, -1.00, 85.4, 72.0)">o</text><text xml:space="preserve" font-family="Helvetica-Light" font-size="50.0" fill="#A6AAA8" transform="matrix(1.00, 0.00, -0.00, -1.00, 113.2, 72.0)">r</text><text xml:space="preserve" font-family="Helvetica-Light" font-size="50.0" fill="#A6AAA8" transform="matrix(1.00, 0.00, -0.00, -1.00, 129.0, 72.0)">e</text><text xml:space="preserve" font-family="Helvetica-Light" font-size="50.0" fill="#A6AAA8" transform="matrix(1.00, 0.00, -0.00, -1.00, 156.8, 72.0)">g</text><text xml:space="preserve" font-family="Helvetica-Light" font-size="50.0" fill="#A6AAA8" transform="matrix(1.00, 0.00, -0.00, -1.00, 187.3, 72.0)">r</text><text xml:space="preserve" font-family="Helvetica-Light" font-size="50.0" fill="#A6AAA8" transform="matrix(1.00, 0.00, -0.00, -1.00, 203.1, 72.0)">o</text><text xml:space="preserve" font-family="Helvetica-Light" font-size="50.0" fill="#A6AAA8" transform="matrix(1.00, 0.00, -0.00, -1.00, 230.9, 72.0)">u</text><text xml:space="preserve" font-family="Helvetica-Light" font-size="50.0" fill="#A6AAA8" transform="matrix(1.00, 0.00, -0.00, -1.00, 258.7, 72.0)">n</text><text xml:space="preserve" font-family="Helvetica-Light" font-size="50.0" fill="#A6AAA8" transform="matrix(1.00, 0.00, -0.00, -1.00, 286.5, 72.0)">d</text><text xml:space="preserve" font-family="Helvetica-Light" font-size="50.0" fill="#A6AAA8" transform="matrix(1.00, 0.00, -0.00, -1.00, 317.0, 72.0)"> </text><text xml:space="preserve" font-family="Helvetica-Light" font-size="50.0" fill="#A6AAA8" transform="matrix(1.00, 0.00, -0.00, -1.00, 330.9, 72.0)">q</text><text xml:space="preserve" font-family="Helvetica-Light" font-size="50.0" fill="#A6AAA8" transform="matrix(1.00, 0.00, -0.00, -1.00, 361.5, 72.0)">u</text><text xml:space="preserve" font-family="Helvetica-Light" font-size="50.0" fill="#A6AAA8" transform="matrix(1.00, 0.00, -0.00, -1.00, 389.3, 72.0)">a</text><text xml:space="preserve" font-family="Helvetica-Light" font-size="50.0" fill="#A6AAA8" transform="matrix(1.00, 0.00, -0.00, -1.00, 417.1, 72.0)">s</text><text xml:space="preserve" font-family="Helvetica-Light" font-size="50.0" fill="#A6AAA8" transform="matrix(1.00, 0.00, -0.00, -1.00, 442.1, 72.0)">a</text><text xml:space="preserve" font-family="Helvetica-Light" font-size="50.0" fill="#A6AAA8" transform="matrix(1.00, 0.00, -0.00, -1.00, 469.9, 72.0)">r</text><text xml:space="preserve" font-family="Helvetica-Light" font-size="50.0" fill="#A6AAA8" transform="matrix(1.00, 0.00, -0.00, -1.00, 486.5, 72.0)">s</text><text xml:space="preserve" font-family="Helvetica-Light" font-size="50.0" fill="#A6AAA8" transform="matrix(1.00, 0.00, -0.00, -1.00, 511.5, 72.0)"> </text><text xml:space="preserve" font-family="Helvetica-Light" font-size="50.0" fill="#A6AAA8" transform="matrix(1.00, 0.00, -0.00, -1.00, 525.4, 72.0)"> </text><text xml:space="preserve" font-family="Helvetica-Light" font-size="50.0" fill="#A6AAA8" transform="matrix(1.00, 0.00, -0.00, -1.00, 2.0, 12.0)">f</text><text xml:space="preserve" font-family="Helvetica-Light" font-size="50.0" fill="#A6AAA8" transform="matrix(1.00, 0.00, -0.00, -1.00, 15.9, 12.0)">r</text><text xml:space="preserve" font-family="Helvetica-Light" font-size="50.0" fill="#A6AAA8" transform="matrix(1.00, 0.00, -0.00, -1.00, 31.7, 12.0)">o</text><text xml:space="preserve" font-family="Helvetica-Light" font-size="50.0" fill="#A6AAA8" transform="matrix(1.00, 0.00, -0.00, -1.00, 59.5, 12.0)">m</text><text xml:space="preserve" font-family="Helvetica-Light" font-size="50.0" fill="#A6AAA8" transform="matrix(1.00, 0.00, -0.00, -1.00, 101.1, 12.0)"> </text><text xml:space="preserve" font-family="Helvetica-Light" font-size="50.0" fill="#A6AAA8" transform="matrix(1.00, 0.00, -0.00, -1.00, 115.0, 12.0)">t</text><text xml:space="preserve" font-family="Helvetica-Light" font-size="50.0" fill="#A6AAA8" transform="matrix(1.00, 0.00, -0.00, -1.00, 128.9, 12.0)">h</text><text xml:space="preserve" font-family="Helvetica-Light" font-size="50.0" fill="#A6AAA8" transform="matrix(1.00, 0.00, -0.00, -1.00, 156.7, 12.0)">i</text><text xml:space="preserve" font-family="Helvetica-Light" font-size="50.0" fill="#A6AAA8" transform="matrix(1.00, 0.00, -0.00, -1.00, 167.8, 12.0)">s</text><text xml:space="preserve" font-family="Helvetica-Light" font-size="50.0" fill="#A6AAA8" transform="matrix(1.00, 0.00, -0.00, -1.00, 192.8, 12.0)"> </text><text xml:space="preserve" font-family="Helvetica-Light" font-size="50.0" fill="#A6AAA8" transform="matrix(1.00, 0.00, -0.00, -1.00, 206.7, 12.0)">w</text><text xml:space="preserve" font-family="Helvetica-Light" font-size="50.0" fill="#A6AAA8" transform="matrix(1.00, 0.00, -0.00, -1.00, 242.8, 12.0)">o</text><text xml:space="preserve" font-family="Helvetica-Light" font-size="50.0" fill="#A6AAA8" transform="matrix(1.00, 0.00, -0.00, -1.00, 270.6, 12.0)">r</text><text xml:space="preserve" font-family="Helvetica-Light" font-size="50.0" fill="#A6AAA8" transform="matrix(1.00, 0.00, -0.00, -1.00, 287.2, 12.0)">k</text><text xml:space="preserve" font-family="Helvetica-Light" font-size="50.0" fill="#A6AAA8" transform="matrix(1.00, 0.00, -0.00, -1.00, 312.2, 12.0)"> </text><text xml:space="preserve" font-family="Helvetica-Light" font-size="50.0" fill="#A6AAA8" transform="matrix(1.00, 0.00, -0.00, -1.00, 326.1, 12.0)">s</text><text xml:space="preserve" font-family="Helvetica-Light" font-size="50.0" fill="#A6AAA8" transform="matrix(1.00, 0.00, -0.00, -1.00, 351.1, 12.0)">u</text><text xml:space="preserve" font-family="Helvetica-Light" font-size="50.0" fill="#A6AAA8" transform="matrix(1.00, 0.00, -0.00, -1.00, 378.9, 12.0)">r</text><text xml:space="preserve" font-family="Helvetica-Light" font-size="50.0" fill="#A6AAA8" transform="matrix(1.00, 0.00, -0.00, -1.00, 395.6, 12.0)">v</text><text xml:space="preserve" font-family="Helvetica-Light" font-size="50.0" fill="#A6AAA8" transform="matrix(1.00, 0.00, -0.00, -1.00, 420.6, 12.0)">e</text><text xml:space="preserve" font-family="Helvetica-Light" font-size="50.0" fill="#A6AAA8" transform="matrix(1.00, 0.00, -0.00, -1.00, 448.4, 12.0)">y</text></g></svg>