<?xml version="1.0" encoding="UTF-8" standalone="no"?><svg xmlns="http://www.w3.org/2000/svg" xmlns:xlink="http://www.w3.org/1999/xlink" clip-rule="evenodd" stroke-miterlimit="4.00" viewBox="0 0 1024 768"><desc>SVG generated by Keynote</desc><defs></defs><g transform="matrix(1.00, 0.00, -0.00, -1.00, 0.0, 768.0)"><path d="M 0.0 768.0 L 1024.0 768.0 L 1024.0 0.0 L 0.0 0.0 Z M 0.0 768.0 " fill="#000000"></path><text xml:space="preserve" font-family="Helvetica-Light" font-size="18.0" fill="#FEFFFF" transform="matrix(1.00, 0.00, -0.00, -1.00, 501.0, 17.0)">2</text><text xml:space="preserve" font-family="Helvetica-Light" font-size="18.0" fill="#FEFFFF" transform="matrix(1.00, 0.00, -0.00, -1.00, 511.0, 17.0)">1</text><image xlink:href="8E0D87D8D94B52CF2769C8431D099CD5.png" width="746.00" height="635.00" transform="matrix(1.00, 0.00, -0.00, -1.00, 16.0, 709.0)"></image><g><clipPath id="clip-272"><path d="M 2.0 130.0 L 174.0 130.0 L 174.0 -4.0 L 2.0 -4.0 Z M 1.8 129.9 "></path></clipPath><g clip-path="url(#clip-272)"><g><clipPath id="clip-273"><path d="M 1.8 -3.6 L 174.4 -3.6 L 174.4 129.9 L 1.8 129.9 Z M 1.8 -3.6 "></path></clipPath><g clip-path="url(#clip-273)"><image xlink:href="../../39451CEE-E280-41CA-872D-216C9FC86FAF/assets/10A10264639072BB412C539169A6ABF1.png" width="356.00" height="540.00" transform="matrix(0.48, 0.00, -0.00, -0.49, 2.0, 130.0)"></image></g></g></g></g><g><clipPath id="clip-274"><path d="M 82.9 57.9 L 96.0 57.9 L 96.0 71.2 L 82.9 71.2 Z M 82.9 57.9 "></path></clipPath><g clip-path="url(#clip-274)"><path d="M 0.0 0.0 L 9.1 0.0 L 9.1 9.3 L 0.0 9.3 Z M 0.0 0.0 " fill="none" stroke="#FEFFFE" stroke-width="2.00" transform="matrix(1.00, 0.00, 0.00, -1.00, 84.9, 69.2)"></path></g></g></g></svg>