<?xml version="1.0" encoding="UTF-8" standalone="no"?><svg xmlns="http://www.w3.org/2000/svg" xmlns:xlink="http://www.w3.org/1999/xlink" clip-rule="evenodd" stroke-miterlimit="4.00" viewBox="0 0 1921 312"><desc>SVG generated by Keynote</desc><defs></defs><g transform="matrix(1.00, 0.00, -0.00, -1.00, 0.0, 312.0)"><g><clipPath id="clip-93"><path d="M 1.8 1.0 L 743.5 1.0 L 743.5 50.2 L 1.8 50.2 Z M 1.8 1.0 "></path></clipPath><g clip-path="url(#clip-93)"><path d="M 2.8 49.2 L 742.5 49.2 L 742.5 2.0 L 2.8 2.0 Z M 2.8 49.2 " fill="#000000"></path></g></g><g><clipPath id="clip-94"><path d="M 1.0 34.4 L 1921.0 34.4 L 1921.0 311.8 L 1.0 311.8 Z M 1.0 34.4 "></path></clipPath><g clip-path="url(#clip-94)"><image xlink:href="E8F4CBEC79EFFBA726132E1BE57B4E48.jpeg" width="1365.00" height="197.00" transform="matrix(1.41, 0.00, -0.00, -1.41, 1.0, 312.0)"></image></g></g><g><clipPath id="clip-95"><path d="M 885.3 0.1 L 1001.8 0.1 L 1001.8 51.1 L 885.3 51.1 Z M 885.3 0.1 "></path></clipPath><g clip-path="url(#clip-95)"><text xml:space="preserve" font-family="Helvetica-Light" font-size="30.0" fill="#DCDDE0" transform="matrix(1.00, 0.00, -0.00, -1.00, 893.0, 14.0)">r</text><text xml:space="preserve" font-family="Helvetica-Light" font-size="30.0" fill="#DCDDE0" transform="matrix(1.00, 0.00, -0.00, -1.00, 902.5, 14.0)">e</text><text xml:space="preserve" font-family="Helvetica-Light" font-size="30.0" fill="#DCDDE0" transform="matrix(1.00, 0.00, -0.00, -1.00, 919.1, 14.0)">d</text><text xml:space="preserve" font-family="Helvetica-Light" font-size="30.0" fill="#DCDDE0" transform="matrix(1.00, 0.00, -0.00, -1.00, 937.5, 14.0)">s</text><text xml:space="preserve" font-family="Helvetica-Light" font-size="30.0" fill="#DCDDE0" transform="matrix(1.00, 0.00, -0.00, -1.00, 952.5, 14.0)">h</text><text xml:space="preserve" font-family="Helvetica-Light" font-size="30.0" fill="#DCDDE0" transform="matrix(1.00, 0.00, -0.00, -1.00, 969.1, 14.0)">i</text><text xml:space="preserve" font-family="Helvetica-Light" font-size="30.0" fill="#DCDDE0" transform="matrix(1.00, 0.00, -0.00, -1.00, 975.8, 14.0)">f</text><text xml:space="preserve" font-family="Helvetica-Light" font-size="30.0" fill="#DCDDE0" transform="matrix(1.00, 0.00, -0.00, -1.00, 984.1, 14.0)">t</text></g></g></g></svg>