<?xml version="1.0" encoding="UTF-8" standalone="no"?><svg xmlns="http://www.w3.org/2000/svg" xmlns:xlink="http://www.w3.org/1999/xlink" clip-rule="evenodd" stroke-miterlimit="4.00" viewBox="0 0 261 209"><desc>SVG generated by Keynote</desc><defs></defs><g transform="matrix(1.00, 0.00, -0.00, -1.00, 0.0, 209.0)"><g><clipPath id="clip-97"><path d="M 260.0 30.3 L 22.9 1.2 L 1.2 178.1 L 238.2 207.2 Z M 260.0 30.3 "></path></clipPath><g clip-path="url(#clip-97)"><g><clipPath id="clip-98"><path d="M 380.8 -63.3 L 362.2 88.5 L 343.5 240.3 L 131.3 214.2 L -80.9 188.2 L -62.3 36.4 L -43.6 -115.4 L 168.6 -89.4 L 380.8 -63.3 Z M 242.7 -72.6 C 214.3 -76.0 177.0 -80.2 141.3 -83.8 C 112.0 -86.8 60.0 -92.5 25.8 -96.6 L -36.5 -104.0 L -38.0 -89.8 C -38.8 -82.0 -39.5 -73.8 -39.5 -71.7 C -39.6 -69.6 -43.8 -34.4 -49.0 6.4 C -58.9 85.5 -60.7 101.0 -66.2 150.2 C -68.8 174.4 -70.0 181.9 -71.2 183.1 C -72.5 184.3 -72.6 184.7 -71.5 185.6 C -70.0 186.8 -16.3 193.6 9.2 195.9 C 18.6 196.7 51.6 200.4 82.5 204.1 C 113.8 207.8 139.3 210.4 139.9 209.9 C 140.4 209.9 145.6 210.6 145.8 210.6 C 149.6 211.0 152.9 211.9 153.2 212.5 C 153.9 214.0 194.2 219.0 195.9 217.9 C 196.3 217.6 198.2 217.4 200.4 217.4 C 208.5 218.5 218.8 219.8 223.6 220.4 C 228.1 221.1 234.3 221.9 243.3 223.0 C 243.4 223.0 243.5 223.0 243.6 223.0 C 249.9 224.1 255.3 224.8 255.6 224.6 C 255.7 224.6 266.2 225.7 271.3 226.1 C 291.6 228.3 312.8 230.6 317.1 231.1 C 320.1 231.4 322.7 231.5 324.7 231.5 L 327.4 231.7 L 327.5 231.3 C 327.5 231.3 327.7 231.3 327.7 231.3 C 327.7 231.3 327.7 231.2 327.7 231.2 C 327.7 231.1 327.9 231.1 327.9 231.1 C 328.0 231.1 328.1 230.2 328.2 230.0 C 328.3 229.6 328.5 228.6 328.7 227.7 C 330.5 220.6 334.9 190.7 339.6 156.7 C 342.7 135.7 345.4 116.6 345.8 111.9 C 346.0 108.8 346.0 106.7 345.8 105.0 C 345.8 103.0 345.6 101.6 345.2 100.7 C 345.1 100.6 345.1 100.5 345.1 100.5 C 345.1 100.5 345.1 100.4 345.1 100.4 C 345.1 100.4 345.0 100.4 345.0 100.4 C 345.0 100.3 344.9 100.1 344.8 100.0 C 345.5 99.7 346.0 99.3 346.2 98.9 L 347.0 99.0 L 349.3 80.4 C 350.7 70.3 352.5 55.9 355.7 27.6 C 357.2 13.6 357.6 10.7 358.8 -0.9 C 361.7 -25.2 365.1 -54.1 364.9 -54.7 C 364.9 -54.8 364.8 -54.8 364.8 -54.8 L 364.9 -55.8 L 364.6 -55.9 L 363.5 -56.0 L 354.2 -57.1 C 351.9 -57.5 350.8 -57.7 347.5 -58.2 C 337.9 -59.5 313.7 -62.3 291.6 -65.0 C 291.6 -65.2 291.6 -65.3 291.5 -65.5 C 290.8 -66.3 271.2 -69.1 242.7 -72.6 Z M 166.3 -77.1 C 166.2 -76.2 166.4 -75.2 166.9 -74.5 C 166.7 -74.3 165.7 -74.9 164.5 -75.9 C 162.5 -77.7 162.1 -77.7 160.0 -76.3 C 158.2 -75.0 157.4 -75.0 155.8 -76.3 C 154.1 -77.7 153.6 -77.6 152.4 -75.2 C 151.6 -73.8 150.5 -72.9 149.9 -73.4 C 148.0 -74.9 142.5 -75.8 141.7 -74.8 C 140.7 -73.6 145.7 -66.5 147.1 -67.1 C 148.1 -67.6 150.8 -60.6 149.9 -59.5 C 149.0 -58.4 151.6 -51.9 153.3 -50.9 C 154.2 -50.5 154.5 -49.4 154.0 -48.6 C 153.5 -47.6 154.3 -46.3 156.1 -45.1 C 157.7 -44.0 159.8 -41.9 160.8 -40.5 C 162.9 -37.5 166.0 -35.6 169.1 -34.9 C 166.4 -34.3 164.6 -35.5 158.6 -41.4 C 154.9 -45.0 153.8 -45.5 152.3 -44.6 C 150.7 -43.6 151.0 -42.8 154.6 -38.8 C 157.6 -35.3 158.4 -33.7 157.5 -32.6 C 156.5 -31.2 155.9 -31.4 152.9 -34.2 C 151.1 -35.9 148.8 -37.5 148.0 -37.6 C 147.8 -37.6 147.9 -37.6 147.8 -37.6 C 147.6 -37.9 147.4 -38.1 147.3 -38.3 C 147.4 -38.5 147.5 -38.8 148.0 -39.2 C 149.2 -40.4 149.2 -40.9 147.6 -41.7 C 146.5 -42.2 143.9 -44.3 141.8 -46.3 C 138.2 -49.6 137.8 -49.7 135.1 -48.4 C 134.4 -48.0 133.9 -47.6 133.4 -47.2 C 132.7 -47.1 132.5 -46.8 132.9 -46.1 C 132.9 -46.1 132.8 -46.0 132.8 -46.0 C 133.0 -45.4 132.5 -45.3 131.7 -45.8 C 130.7 -46.3 129.7 -46.0 129.1 -45.0 C 128.4 -43.6 127.9 -43.6 126.8 -44.7 C 125.7 -45.9 125.2 -45.8 124.5 -44.0 C 124.2 -43.3 124.0 -43.0 123.7 -42.8 C 123.5 -42.7 123.1 -42.7 122.7 -42.7 C 122.4 -42.8 122.2 -42.8 121.7 -43.1 C 120.2 -44.1 119.6 -44.1 119.0 -42.8 C 118.6 -41.9 117.9 -40.5 117.5 -39.6 C 117.1 -38.7 116.2 -38.2 115.5 -38.5 C 115.3 -38.5 115.2 -38.4 115.1 -38.3 C 115.7 -58.1 109.6 -65.4 90.4 -71.9 C 86.6 -73.2 83.6 -74.0 77.5 -74.8 C 71.5 -75.6 62.4 -76.5 46.7 -77.9 C 23.4 -79.9 15.0 -80.5 8.8 -80.2 C 8.8 -80.5 8.3 -80.9 7.3 -81.3 C 4.2 -82.2 -9.4 -79.4 -15.4 -76.5 C -18.5 -75.1 -22.1 -72.4 -23.5 -70.6 C -27.6 -65.5 -30.5 -54.0 -31.3 -39.6 C -31.8 -32.7 -32.2 -25.5 -32.3 -23.7 C -32.5 -20.8 -32.9 -20.4 -35.3 -20.7 C -36.8 -20.9 -38.0 -20.5 -38.0 -19.8 C -37.9 -19.2 -38.5 -18.7 -39.3 -18.8 C -41.0 -19.0 -39.4 -41.5 -35.1 -76.5 L -32.2 -99.9 L -18.3 -97.6 C -10.7 -96.4 14.5 -93.4 37.8 -91.1 C 65.4 -88.3 119.0 -82.3 166.3 -77.1 Z M 90.2 -51.9 C 91.7 -51.9 93.7 -49.4 93.4 -47.0 C 93.2 -45.4 92.5 -44.4 91.5 -44.5 C 89.5 -44.7 87.7 -49.0 88.8 -51.1 C 89.2 -51.7 89.6 -51.9 90.2 -51.9 Z M 37.2 -57.6 C 37.6 -57.5 38.0 -57.1 38.3 -56.7 C 39.2 -55.5 39.1 -55.4 37.6 -56.2 C 36.6 -56.7 36.0 -57.4 36.4 -57.7 C 36.6 -57.9 36.9 -57.8 37.2 -57.6 Z M 1.4 -61.1 C 3.5 -60.8 4.0 -60.2 3.7 -58.1 C 3.5 -56.0 3.0 -55.6 1.6 -56.3 C -3.3 -58.8 -3.4 -61.7 1.4 -61.1 Z M 82.1 -51.1 C 83.8 -50.9 85.3 -48.7 85.3 -46.0 C 85.3 -42.1 82.5 -42.4 80.4 -46.5 C 79.3 -48.8 79.3 -49.7 80.4 -50.6 C 80.9 -51.0 81.5 -51.1 82.1 -51.1 Z M 77.2 -50.7 C 77.8 -50.6 78.3 -50.1 78.2 -49.5 C 78.1 -48.9 77.6 -48.4 77.0 -48.5 C 76.4 -48.6 75.9 -49.1 76.0 -49.7 C 76.1 -50.3 76.6 -50.7 77.2 -50.7 Z M 43.2 -54.8 C 43.9 -54.8 44.3 -54.2 44.3 -53.6 C 44.2 -53.0 43.9 -52.5 43.6 -52.6 C 43.4 -52.6 42.9 -53.2 42.6 -53.8 C 42.3 -54.5 42.6 -54.9 43.2 -54.8 Z M 15.8 -57.0 C 15.8 -57.0 15.5 -56.7 14.9 -56.1 C 14.0 -55.4 13.2 -53.9 13.1 -52.9 C 12.9 -51.8 12.2 -50.8 11.4 -50.6 C 9.4 -50.1 9.0 -50.1 7.7 -51.2 C 6.9 -51.9 7.4 -52.8 9.4 -54.2 C 11.1 -55.3 12.4 -56.0 12.3 -55.6 C 12.3 -55.3 13.2 -55.6 14.3 -56.3 C 15.2 -56.8 15.7 -57.1 15.8 -57.0 Z M 38.4 -52.9 C 38.5 -52.7 38.6 -52.4 38.5 -51.9 C 38.4 -51.0 37.9 -50.0 37.5 -49.7 C 36.3 -48.7 36.1 -48.9 36.6 -50.6 C 37.0 -52.3 38.0 -53.3 38.4 -52.9 Z M -4.6 -55.9 C -4.4 -55.8 -4.4 -55.6 -4.4 -55.2 C -4.5 -54.6 -5.0 -54.1 -5.6 -54.2 C -6.2 -54.3 -6.7 -54.6 -6.7 -54.8 C -6.6 -55.1 -6.1 -55.5 -5.4 -55.8 C -5.1 -56.0 -4.8 -56.0 -4.6 -55.9 Z M 58.1 -40.8 C 60.6 -40.5 60.8 -38.1 58.8 -33.2 C 57.9 -31.0 57.7 -31.0 55.6 -32.7 C 53.6 -34.4 53.1 -34.4 51.1 -33.0 C 49.6 -32.0 49.4 -32.0 50.3 -32.9 C 51.1 -33.8 51.8 -34.8 51.9 -35.2 C 52.0 -35.7 52.3 -35.9 52.4 -35.7 C 53.4 -34.8 56.6 -38.0 56.2 -39.5 C 56.0 -40.6 56.6 -41.0 58.1 -40.8 Z M 1.6 -47.1 C 2.9 -47.0 4.3 -46.6 4.7 -45.8 C 5.0 -44.9 6.4 -44.4 8.1 -44.5 C 10.4 -44.6 11.1 -44.1 11.7 -41.6 C 12.5 -38.2 14.6 -38.4 15.2 -42.0 L 15.5 -44.4 L 16.2 -41.9 C 17.2 -38.0 18.7 -37.6 20.9 -40.7 L 23.0 -43.5 L 22.6 -40.1 C 22.2 -37.2 21.8 -36.7 19.4 -37.0 C 17.9 -37.2 16.5 -37.8 16.2 -38.4 C 15.9 -38.9 15.1 -39.1 14.3 -38.8 C 11.3 -37.4 7.6 -38.1 6.4 -40.4 C 5.7 -41.7 4.3 -42.7 3.2 -42.6 C 1.2 -42.6 -1.3 -44.4 -1.1 -45.9 C -1.0 -46.7 0.3 -47.1 1.6 -47.1 Z M 76.8 -37.4 C 77.3 -37.4 77.7 -36.8 77.7 -36.2 C 77.6 -35.6 76.8 -35.2 75.8 -35.3 C 74.9 -35.4 74.5 -36.0 74.9 -36.6 C 75.4 -37.1 76.2 -37.5 76.8 -37.4 Z M 86.5 -35.6 C 87.3 -35.4 88.1 -34.4 88.4 -32.6 C 88.7 -30.0 88.5 -29.8 86.5 -30.4 C 84.8 -31.0 84.2 -31.9 84.6 -33.5 C 84.9 -35.2 85.7 -35.8 86.5 -35.6 Z M 44.0 -38.1 C 44.2 -38.1 44.7 -37.5 45.0 -36.9 C 45.3 -36.2 45.0 -35.8 44.4 -35.9 C 43.7 -36.0 43.3 -36.5 43.4 -37.1 C 43.4 -37.7 43.7 -38.2 44.0 -38.1 Z M 37.0 -39.0 C 37.6 -38.9 37.8 -38.4 37.3 -37.8 C 36.9 -37.3 36.3 -36.9 36.0 -36.9 C 35.8 -36.9 35.6 -37.4 35.7 -38.0 C 35.8 -38.6 36.3 -39.1 37.0 -39.0 Z M 32.2 -36.8 C 32.8 -36.4 32.9 -35.5 32.5 -35.0 C 31.4 -33.6 30.8 -34.0 31.0 -35.9 C 31.1 -36.9 31.7 -37.3 32.2 -36.8 Z M 73.2 -31.6 C 73.5 -31.4 73.7 -31.0 73.6 -30.5 C 73.4 -28.8 70.6 -28.8 69.8 -30.4 C 69.5 -31.0 70.3 -31.6 71.6 -31.8 C 72.3 -31.9 72.8 -31.8 73.2 -31.6 Z M 94.1 -18.7 C 96.5 -18.4 96.7 -18.0 95.6 -14.9 C 95.0 -13.0 94.1 -10.5 93.6 -9.5 C 92.9 -7.7 92.5 -7.9 89.8 -11.3 C 86.9 -15.0 86.9 -15.1 89.1 -17.0 C 90.4 -18.1 92.6 -18.9 94.1 -18.7 Z M 79.3 -20.5 C 81.0 -20.3 81.2 -19.7 80.4 -17.9 C 79.8 -16.6 79.1 -14.7 78.6 -13.7 C 77.6 -11.2 77.2 -11.4 75.5 -14.9 C 74.3 -17.3 74.3 -18.1 75.6 -19.3 C 76.4 -20.1 78.1 -20.6 79.3 -20.5 Z M 52.9 -23.7 C 53.5 -23.7 53.7 -23.2 53.2 -22.6 C 52.8 -22.1 52.2 -21.6 51.9 -21.6 C 51.7 -21.7 51.5 -22.2 51.6 -22.8 C 51.7 -23.4 52.2 -23.8 52.9 -23.7 Z M 11.0 -28.9 C 11.6 -28.8 12.3 -28.0 12.5 -27.0 C 12.8 -26.1 12.8 -25.3 12.6 -25.4 C 12.4 -25.4 11.7 -26.2 11.0 -27.2 C 10.4 -28.3 10.4 -29.0 11.0 -28.9 Z M 65.1 -19.6 C 68.5 -19.4 68.5 -18.7 65.1 -17.8 C 61.5 -16.9 60.8 -17.0 61.6 -18.5 C 62.0 -19.2 63.6 -19.7 65.1 -19.6 Z M 38.5 -18.4 C 38.7 -18.3 38.8 -18.1 38.7 -17.8 C 38.7 -17.1 38.1 -16.7 37.5 -16.8 C 36.9 -16.8 36.4 -17.1 36.5 -17.4 C 36.5 -17.6 37.1 -18.1 37.7 -18.4 C 38.1 -18.6 38.3 -18.5 38.5 -18.4 Z M 107.5 -1.9 C 105.9 1.6 103.9 4.5 101.6 6.7 C 101.2 7.0 100.8 7.4 100.4 7.7 C 99.6 8.3 98.7 8.9 97.4 9.6 C 95.4 10.6 92.5 11.6 89.6 12.6 C 98.1 9.4 103.6 4.9 107.5 -1.9 Z M 83.2 14.5 C 81.4 15.0 80.0 15.6 78.1 16.0 C 74.6 16.8 72.6 17.1 71.0 17.0 C 71.4 17.0 71.7 17.0 72.3 16.9 C 76.4 16.2 79.9 15.4 83.2 14.5 Z M 123.4 19.7 C 123.7 19.9 124.8 20.8 126.0 21.9 L 128.6 25.2 C 131.2 28.4 134.5 31.9 136.1 33.0 C 137.6 34.1 140.6 37.2 142.7 39.8 C 145.8 43.6 146.4 44.2 147.2 43.2 C 148.2 45.2 150.4 47.9 154.1 51.5 C 158.4 55.9 164.6 62.4 167.8 66.1 L 173.5 72.7 L 170.5 76.2 C 168.8 78.0 164.6 82.1 161.3 85.1 C 157.9 88.2 155.4 91.2 155.8 92.0 C 156.2 92.9 156.9 93.0 158.1 92.1 C 159.6 91.2 160.6 91.5 163.4 93.5 C 165.4 94.8 167.3 95.7 167.7 95.3 C 168.1 95.0 169.2 95.9 170.1 97.3 L 171.7 99.9 L 173.3 97.7 C 174.1 96.4 174.6 94.9 174.4 94.4 C 173.8 93.1 177.8 85.8 179.0 86.0 C 179.5 86.0 181.6 87.6 183.7 89.4 C 187.4 92.7 187.4 92.8 185.2 95.3 C 179.9 101.7 178.3 104.5 177.8 108.6 C 177.4 111.0 176.9 113.7 176.7 114.5 C 176.0 116.4 179.7 117.7 180.5 115.9 C 180.9 115.1 181.7 112.7 182.3 110.5 C 183.0 108.2 183.9 106.7 184.4 107.1 C 184.8 107.4 186.2 106.9 187.4 105.8 C 188.6 104.8 189.2 103.9 188.7 103.8 C 188.3 103.7 189.2 102.9 190.9 101.9 C 192.5 100.9 194.7 98.6 195.7 96.9 C 196.7 95.1 197.8 93.9 198.1 94.1 C 198.5 94.3 202.6 97.2 207.4 100.4 C 214.8 105.4 216.2 106.1 217.4 104.8 C 217.7 104.5 218.1 104.3 218.5 104.1 C 218.5 104.1 218.5 104.1 218.5 104.1 C 219.2 105.2 220.1 106.3 221.2 107.4 C 222.8 108.9 224.5 110.4 226.6 111.7 C 230.2 113.8 233.3 116.2 233.6 116.9 C 234.0 117.5 232.8 118.8 231.1 119.7 C 229.5 120.6 226.1 122.7 223.8 124.3 C 219.8 127.0 219.6 127.4 221.4 128.7 C 224.5 131.0 222.2 143.8 217.4 150.8 C 215.8 153.1 214.4 154.8 212.9 156.4 C 210.2 158.9 207.3 160.9 204.6 161.9 C 201.4 162.5 198.0 161.9 193.7 159.9 C 190.1 158.2 185.2 155.4 182.7 153.5 C 179.1 150.7 176.4 149.2 174.2 148.6 C 174.0 148.5 173.7 148.3 173.5 148.2 C 173.3 148.1 173.1 148.0 172.9 148.0 C 172.3 147.8 171.9 147.9 171.6 148.0 C 171.4 148.1 171.4 148.3 171.2 148.4 C 170.8 148.5 170.3 148.5 169.9 148.7 C 168.5 149.5 166.4 149.8 165.4 149.7 C 165.3 149.5 165.2 149.4 165.1 149.2 C 165.1 149.1 165.0 149.1 165.2 149.0 C 166.3 148.1 158.0 136.6 154.2 133.6 C 151.2 131.2 151.0 131.2 149.4 132.9 C 147.9 134.5 147.6 134.5 146.6 132.8 C 144.8 129.9 127.6 120.4 125.0 120.9 C 123.7 121.1 122.8 120.8 122.9 120.2 C 123.0 119.5 121.5 118.1 119.6 117.1 C 117.3 115.8 115.7 115.0 114.5 114.5 C 113.3 114.0 111.9 113.2 111.9 113.2 C 111.9 113.2 111.9 113.2 111.9 113.2 C 111.9 113.2 111.8 113.2 111.8 113.2 C 111.8 113.2 109.9 115.1 109.5 115.5 C 108.3 116.4 106.9 117.6 105.0 119.4 C 96.8 127.2 93.4 130.5 91.5 132.6 C 90.1 133.9 88.2 135.8 87.3 136.4 C 86.8 136.6 86.4 136.9 85.9 136.9 C 85.8 136.9 85.7 137.0 85.5 137.0 C 84.9 136.9 84.2 136.6 83.4 136.2 C 83.3 136.1 83.2 136.0 83.2 136.0 C 82.5 135.4 82.2 135.3 81.4 134.5 C 79.2 132.1 71.7 125.9 64.6 120.4 C 65.0 119.8 65.0 119.0 64.6 118.6 C 63.5 117.3 58.6 113.8 54.7 111.2 C 52.9 109.8 50.4 108.0 47.8 106.0 C 47.4 105.6 47.2 105.4 47.1 105.5 C 46.3 104.9 45.8 104.6 45.0 103.9 C 44.9 103.9 44.9 103.9 44.9 103.9 C 43.9 102.6 43.3 102.1 42.5 102.1 C 38.6 99.2 34.5 95.9 32.5 94.6 C 27.7 91.3 25.6 88.2 28.3 88.5 C 29.9 88.7 38.6 82.0 37.0 81.8 C 35.4 81.6 41.8 78.1 43.5 78.2 C 44.4 78.3 44.7 79.1 44.1 80.5 C 43.6 81.9 43.9 83.1 45.3 84.0 C 47.7 85.8 50.1 84.9 48.7 82.8 C 48.1 82.0 48.1 81.0 48.5 80.7 C 50.0 79.5 53.1 80.5 53.5 82.2 C 54.1 84.4 56.2 84.6 59.2 83.0 C 61.4 81.7 61.4 81.6 58.5 80.1 C 56.8 79.2 55.0 77.6 54.4 76.7 C 53.6 75.2 52.8 75.0 50.3 75.6 C 48.6 76.0 46.5 76.0 45.7 75.6 C 44.0 74.6 42.9 66.9 43.2 56.4 C 43.2 53.7 43.1 52.0 42.8 50.8 C 43.4 49.1 44.5 47.7 47.6 45.1 C 47.7 45.0 47.9 44.9 48.0 44.8 C 49.0 44.1 49.8 43.4 51.1 42.5 C 54.0 40.4 56.1 38.7 57.6 37.3 C 58.4 36.7 59.4 36.0 60.0 35.5 C 60.0 35.5 60.0 35.5 60.1 35.5 C 61.7 34.3 62.9 33.6 64.0 33.1 C 64.0 33.1 64.0 33.1 64.1 33.1 C 64.3 33.0 64.5 32.9 64.7 32.9 C 66.0 32.9 67.2 33.0 68.1 33.6 C 68.4 33.8 68.7 33.9 69.0 34.1 C 69.5 34.6 69.9 34.8 70.0 34.5 C 70.2 34.6 70.2 34.5 70.3 34.6 C 70.8 34.7 74.6 37.0 78.1 39.1 C 80.7 41.0 84.0 43.1 86.8 44.5 C 86.8 44.5 86.8 44.6 86.8 44.6 C 87.0 44.7 87.2 44.8 87.4 44.9 L 94.8 49.4 C 95.1 49.7 95.4 49.9 95.7 50.0 L 95.8 50.1 L 95.8 50.0 C 96.6 50.1 97.5 49.5 98.8 47.9 C 100.8 45.5 100.8 45.4 98.0 43.2 C 97.9 43.1 97.8 43.0 97.6 42.9 C 97.6 42.8 97.6 42.7 97.4 42.5 C 96.6 41.2 96.3 40.5 96.0 39.6 C 96.3 37.8 99.7 35.2 105.8 30.9 C 107.8 29.7 109.4 28.6 112.1 26.9 L 123.4 19.7 Z M 21.3 33.5 C 22.1 34.3 22.8 34.7 23.3 34.8 C 23.5 35.3 23.5 35.7 23.6 36.1 C 22.8 35.2 22.0 34.4 21.3 33.6 C 21.3 33.6 21.3 33.6 21.3 33.5 Z M 14.7 75.3 C 14.7 75.4 14.7 75.5 14.6 75.4 L 14.7 75.3 Z M -36.7 76.5 C -36.6 76.4 -36.4 76.5 -36.2 76.6 C -35.5 76.9 -34.3 77.9 -32.9 79.4 C -32.5 79.8 -32.3 79.9 -31.8 80.3 C -32.3 80.5 -32.7 80.7 -33.2 80.9 C -33.6 80.4 -33.9 79.8 -34.5 79.3 C -35.3 78.4 -35.9 77.7 -36.4 77.2 C -36.5 77.0 -36.6 76.7 -36.6 76.6 C -36.6 76.6 -36.7 76.5 -36.7 76.5 Z M -22.7 82.7 C -22.5 82.8 -22.5 82.9 -22.3 83.1 C -22.8 82.9 -22.9 82.8 -23.5 82.7 C -23.3 82.7 -22.8 82.7 -22.7 82.7 Z M -33.6 94.1 C -33.5 94.2 -33.4 94.1 -33.3 94.2 C -32.6 95.0 -31.6 95.6 -31.1 95.5 C -30.6 95.5 -28.8 96.2 -27.1 97.1 C -24.7 98.5 -24.4 99.0 -25.7 100.2 C -25.9 100.4 -26.0 100.6 -26.1 100.9 C -26.2 101.0 -26.4 101.0 -26.5 101.1 C -26.5 101.1 -26.6 101.1 -26.6 101.1 C -26.9 101.5 -27.2 101.7 -27.5 101.8 C -28.1 101.1 -28.5 100.4 -28.2 99.8 C -27.7 98.7 -30.8 95.3 -32.8 94.9 C -32.9 94.9 -33.3 94.3 -33.6 94.1 Z M 323.2 139.7 C 323.7 140.0 324.1 140.2 324.5 140.8 C 325.1 141.8 327.0 142.5 328.9 142.5 C 329.9 142.5 330.7 142.6 331.3 142.8 C 331.8 143.0 332.1 143.3 332.3 143.6 C 332.5 143.8 332.4 144.0 332.5 144.3 C 332.6 145.1 332.3 146.1 331.1 147.4 C 328.9 150.1 329.1 152.1 331.6 152.4 C 331.8 152.4 331.8 152.5 331.9 152.5 C 332.5 153.3 332.6 154.2 332.3 155.2 C 332.1 155.7 332.1 156.0 331.7 156.6 C 331.0 157.5 330.1 159.2 329.6 160.2 C 329.4 160.7 329.0 161.1 328.6 161.2 C 328.6 161.2 328.6 161.2 328.6 161.2 C 328.2 161.4 327.7 161.4 327.3 161.2 C 326.4 160.7 325.1 161.3 324.1 162.6 C 323.7 163.2 323.5 163.3 323.3 163.6 C 323.0 163.7 322.6 163.7 322.3 163.7 C 322.1 163.6 322.0 163.5 321.7 163.0 C 321.3 161.9 320.3 161.2 319.6 161.6 C 318.8 161.9 318.7 161.7 319.3 160.9 C 320.0 160.2 319.6 159.4 318.2 158.9 C 315.7 157.9 314.9 154.0 317.1 153.5 C 318.0 153.3 318.5 152.3 318.3 151.4 C 318.0 150.5 318.4 149.6 319.1 149.3 C 319.8 148.9 320.0 147.7 319.7 146.2 C 319.1 143.9 320.3 140.6 321.6 139.5 C 322.1 139.6 322.5 139.6 323.2 139.7 Z M 124.1 122.6 C 124.4 122.5 125.1 123.1 126.2 124.5 C 127.0 125.5 127.3 126.9 126.9 127.4 C 126.0 128.6 125.9 128.5 124.6 125.0 C 124.0 123.5 123.9 122.7 124.1 122.6 Z M 46.4 113.6 C 46.6 113.9 46.9 114.1 47.0 114.4 L 45.7 115.1 L 44.5 114.1 C 45.1 113.8 45.7 113.7 46.4 113.6 Z M 129.2 130.1 L 130.1 132.8 C 131.4 137.1 131.0 137.7 127.5 136.6 C 123.9 135.4 121.2 136.6 118.9 140.6 C 116.6 144.7 116.7 145.2 119.3 148.9 L 121.7 152.4 L 119.1 150.6 C 117.7 149.6 116.2 148.7 115.8 148.6 C 115.4 148.6 114.5 147.5 113.8 146.3 C 113.1 145.0 112.2 145.0 110.7 145.9 C 110.5 145.8 109.4 145.0 109.3 145.0 C 109.1 145.0 107.7 146.4 106.2 148.2 C 105.8 148.8 105.3 149.4 104.7 150.0 C 104.1 150.7 103.6 151.2 103.1 151.7 C 101.0 153.7 99.2 155.6 98.8 156.6 C 98.2 158.4 97.5 158.9 96.9 158.1 C 96.7 157.9 96.7 157.6 96.6 157.3 C 96.7 157.2 96.7 157.0 96.7 156.8 C 96.7 156.8 96.7 156.8 96.7 156.8 C 96.8 156.6 96.8 156.4 96.9 156.2 C 97.0 155.9 97.0 155.7 97.1 155.4 C 98.4 152.5 102.4 148.1 108.3 143.4 C 108.4 143.3 108.4 143.3 108.5 143.3 C 108.6 143.3 108.6 143.2 108.6 143.2 C 109.0 143.0 109.4 142.7 109.8 142.4 C 110.5 141.9 111.1 141.5 111.8 140.9 C 113.0 140.0 114.3 139.2 115.5 138.4 C 116.7 137.8 117.6 137.5 118.1 137.7 C 119.1 138.3 120.0 137.8 120.5 136.4 C 120.8 135.9 121.1 135.4 121.4 135.0 C 121.4 135.0 121.4 135.0 121.4 135.0 C 122.2 134.6 122.6 134.4 123.6 133.9 C 123.9 133.8 123.9 133.7 124.2 133.6 C 124.2 133.6 124.3 133.6 124.4 133.6 C 125.3 133.7 125.7 133.3 126.0 132.7 C 126.1 132.6 126.3 132.5 126.4 132.5 C 126.4 132.5 126.4 132.4 126.3 132.3 L 129.2 130.1 Z M 298.6 168.3 C 299.8 169.6 300.8 170.8 301.7 172.2 C 301.9 172.3 302.0 172.5 302.1 172.7 C 302.9 174.0 303.7 175.3 304.3 176.7 C 304.5 177.1 304.7 177.6 305.0 178.0 C 305.0 178.1 305.0 178.2 305.0 178.3 C 304.7 177.8 304.3 177.3 304.1 177.2 C 301.9 176.9 297.6 170.6 298.5 169.0 C 298.6 168.8 298.6 168.6 298.6 168.3 Z M 122.7 152.5 C 123.7 152.6 125.7 153.8 127.4 155.3 C 128.8 156.6 129.5 157.5 129.0 157.4 C 128.8 157.4 128.0 156.9 127.6 156.6 C 127.4 156.5 127.4 156.5 127.3 156.5 C 126.2 155.7 125.9 155.6 124.8 154.9 C 124.6 154.8 124.6 154.8 124.5 154.7 C 123.4 153.9 122.2 153.0 122.2 152.8 C 122.2 152.6 122.4 152.5 122.7 152.5 Z M 62.5 149.4 C 62.8 149.5 63.3 149.7 63.7 150.0 C 63.7 150.0 63.8 150.1 63.8 150.1 C 64.3 150.9 65.2 151.3 66.4 151.6 C 66.5 151.6 66.8 151.7 66.9 151.7 C 67.2 151.8 67.8 151.9 68.2 152.0 C 69.3 152.4 70.4 152.8 72.0 153.1 C 73.4 153.3 74.4 153.5 75.3 153.7 C 75.5 153.8 75.8 153.8 76.0 153.9 C 76.9 154.1 77.7 154.5 78.5 155.0 C 78.6 155.0 78.6 155.0 78.7 155.1 C 79.2 155.4 79.7 156.0 80.2 156.4 C 81.4 157.6 82.7 159.2 84.7 162.1 C 87.7 166.3 90.2 169.3 90.3 168.8 C 90.3 168.3 91.2 168.9 92.3 170.1 C 94.1 172.2 94.3 172.2 95.8 169.3 C 96.6 167.7 97.2 165.2 97.0 163.8 C 96.8 162.4 97.1 161.3 97.7 161.3 C 98.4 161.4 98.8 163.5 98.8 165.8 C 98.8 166.2 98.8 166.5 98.8 166.8 C 98.7 168.2 98.5 169.4 98.2 170.4 C 98.1 170.6 98.0 170.8 97.9 171.0 C 97.9 171.0 97.9 171.0 97.9 171.0 C 97.7 171.2 97.5 171.3 97.3 171.5 C 97.2 171.5 97.2 171.6 97.1 171.6 C 96.4 171.8 96.1 172.2 95.9 172.6 C 95.6 172.9 95.3 173.0 95.0 173.2 C 93.4 173.3 91.7 172.5 89.7 170.7 C 89.4 170.4 89.0 170.1 88.7 169.8 C 87.8 168.9 86.9 167.9 85.9 166.6 C 83.5 163.3 81.5 161.2 81.4 161.4 C 81.3 161.4 81.2 161.2 81.2 161.2 C 81.2 161.2 81.1 161.1 81.1 161.1 C 80.7 161.0 79.6 160.1 78.3 158.5 C 78.2 158.4 78.2 158.4 78.1 158.4 C 77.5 157.6 77.1 157.1 76.6 156.6 C 76.6 156.6 76.5 156.6 76.5 156.6 C 76.5 156.6 76.5 156.5 76.5 156.5 L 76.5 156.5 L 75.1 155.0 L 71.6 155.0 C 71.0 154.9 70.6 154.9 69.8 154.8 C 65.4 154.7 63.9 154.2 62.7 152.4 C 61.4 150.6 61.5 149.3 62.5 149.4 Z M 231.7 171.6 C 231.7 171.9 231.2 172.3 230.2 173.1 C 227.5 175.5 226.9 175.6 228.0 173.5 C 228.5 172.7 229.6 171.9 230.7 171.6 C 231.4 171.4 231.8 171.4 231.7 171.6 Z M 140.0 163.4 C 140.4 163.6 140.7 163.9 141.1 164.3 C 142.0 165.5 141.9 165.6 140.4 164.8 C 139.3 164.3 138.8 163.6 139.2 163.3 C 139.4 163.2 139.7 163.2 140.0 163.4 Z M 307.2 184.6 C 307.8 185.6 308.3 186.4 309.0 187.5 C 313.0 193.8 313.5 195.3 313.0 199.6 C 312.7 202.3 311.8 205.3 311.0 206.4 C 310.1 207.7 310.0 208.6 310.7 209.1 C 312.4 210.4 310.5 211.8 307.6 211.5 C 305.9 211.3 304.5 212.1 303.3 214.0 C 302.3 215.4 300.5 216.6 299.0 217.0 C 298.8 217.0 298.7 217.1 298.5 217.0 C 297.4 216.9 296.6 216.8 295.9 216.5 C 295.6 216.4 295.4 216.3 295.2 216.2 C 295.1 216.2 295.1 216.2 295.1 216.2 C 293.8 215.3 292.8 213.9 292.6 212.4 C 292.4 210.8 292.9 209.1 294.4 207.9 C 295.5 207.1 295.6 206.4 294.9 205.5 C 294.7 205.2 294.5 205.2 294.2 205.1 C 294.2 204.7 295.0 203.3 296.5 201.5 C 298.2 199.4 301.5 194.9 303.8 191.5 C 306.3 187.7 307.2 186.2 307.2 184.6 Z M 278.4 181.1 C 278.2 184.2 275.2 186.0 273.3 184.1 C 273.3 184.0 273.2 183.8 273.2 183.7 C 273.8 183.4 274.5 183.1 275.2 182.7 C 276.6 181.8 277.4 181.5 278.4 181.1 Z M 144.4 165.3 C 145.0 165.5 145.8 165.8 146.7 166.3 C 148.3 167.1 150.3 167.6 151.2 167.4 C 153.3 166.9 157.0 169.5 156.0 170.8 C 155.8 171.1 155.5 171.2 155.3 171.2 C 154.8 171.3 154.4 171.3 153.8 171.1 C 152.8 170.7 151.8 170.8 151.0 171.2 C 150.5 171.2 150.0 171.2 149.7 171.4 C 149.7 171.4 149.7 171.4 149.7 171.4 C 149.6 171.4 149.6 171.4 149.6 171.4 C 148.3 171.3 146.8 170.2 144.3 167.7 C 142.4 165.8 142.7 164.8 144.4 165.3 Z M 292.5 184.1 C 293.8 184.3 294.9 186.3 295.5 188.8 C 294.9 188.2 294.2 187.4 293.6 186.5 C 292.8 185.3 292.4 184.7 291.9 184.5 C 292.1 184.3 292.2 184.1 292.5 184.1 Z M 294.8 191.5 C 295.0 191.9 294.9 192.6 294.4 193.2 C 293.1 194.8 292.5 194.4 293.5 192.6 C 294.0 191.7 294.5 191.2 294.8 191.5 Z M 280.9 191.7 C 281.8 191.8 282.8 192.3 283.8 193.1 C 285.0 194.1 284.6 194.3 282.3 194.0 C 280.6 193.8 279.4 193.1 279.4 192.5 C 279.5 191.9 280.1 191.6 280.9 191.7 Z M -33.1 158.6 C -31.9 158.7 -30.3 159.1 -29.2 159.7 C -28.3 160.2 -27.7 161.8 -27.9 163.3 C -28.1 164.5 -28.2 165.1 -28.6 165.4 C -29.6 165.0 -31.4 164.6 -33.3 164.2 C -33.9 164.1 -34.6 163.7 -35.0 163.7 C -35.1 163.7 -35.1 163.6 -35.2 163.6 C -35.6 163.4 -35.8 163.2 -35.9 162.8 C -35.9 162.5 -35.9 162.2 -35.5 161.7 C -34.8 160.7 -34.5 159.5 -34.8 159.1 C -35.0 158.9 -34.8 158.7 -34.6 158.7 C -34.4 158.6 -34.4 158.6 -34.2 158.6 C -33.9 158.6 -33.6 158.5 -33.1 158.6 Z M -58.8 156.2 C -58.7 156.3 -58.7 156.7 -59.0 157.1 C -59.4 157.9 -59.7 158.2 -59.9 158.3 C -60.3 158.1 -60.3 157.9 -60.5 157.6 C -60.7 157.0 -60.6 156.6 -60.3 156.3 C -60.2 156.3 -60.2 156.3 -60.2 156.2 C -60.1 156.2 -60.1 156.2 -60.0 156.2 C -59.7 156.1 -59.2 156.2 -58.8 156.2 Z M -51.7 157.7 C -49.5 158.1 -47.2 159.0 -46.9 160.0 C -46.9 160.0 -46.9 160.1 -46.9 160.1 C -46.7 160.8 -46.3 161.0 -45.7 160.9 C -45.6 160.9 -45.5 161.0 -45.4 161.0 C -44.7 160.7 -44.3 160.9 -44.3 161.6 C -44.4 161.8 -44.5 162.0 -44.6 162.1 C -45.0 162.2 -45.9 162.0 -46.5 161.9 C -46.6 161.8 -46.8 161.9 -47.0 161.7 C -47.5 161.0 -48.7 160.4 -49.8 160.2 C -50.1 160.2 -50.4 160.2 -50.6 160.2 C -50.8 160.2 -50.9 160.2 -51.0 160.2 C -51.2 160.2 -51.3 160.1 -51.5 160.1 C -51.8 160.2 -52.0 160.3 -52.2 160.5 C -52.3 160.5 -52.3 160.5 -52.3 160.5 C -52.4 160.6 -52.5 160.5 -52.5 160.6 C -53.2 161.0 -54.1 161.0 -54.8 160.7 C -54.8 160.7 -54.8 160.7 -54.8 160.7 C -55.6 160.2 -56.3 159.4 -56.2 158.4 C -56.1 157.9 -55.5 157.7 -54.7 157.6 C -53.9 157.5 -52.8 157.5 -51.7 157.7 Z M -18.4 169.8 C -18.2 169.9 -18.1 169.9 -18.0 170.0 C -18.1 170.4 -18.2 170.7 -18.2 171.1 C -18.2 171.3 -18.4 171.7 -18.6 172.0 C -18.9 172.6 -19.2 173.2 -19.7 174.0 C -19.9 174.1 -20.3 173.9 -20.8 173.3 C -21.5 172.6 -22.2 172.4 -23.0 172.5 C -23.5 172.4 -24.0 172.5 -24.5 172.6 C -25.7 172.1 -26.4 172.5 -26.8 173.8 C -27.0 174.0 -27.3 174.2 -27.5 174.4 C -28.7 174.9 -30.1 175.6 -30.8 175.8 C -31.4 175.9 -31.7 176.2 -32.0 176.6 C -32.3 177.0 -32.5 177.5 -32.3 178.0 C -32.2 178.6 -32.4 179.4 -32.5 180.1 C -32.6 180.4 -32.6 180.8 -32.7 181.0 C -32.7 181.0 -32.7 181.1 -32.7 181.1 C -33.1 182.0 -34.3 182.5 -35.4 182.5 C -35.5 182.5 -35.6 182.6 -35.7 182.6 C -36.2 182.5 -36.6 182.4 -37.0 182.2 C -37.4 182.1 -37.7 182.1 -38.0 181.9 C -38.9 181.4 -39.6 180.8 -40.1 180.1 C -40.3 179.7 -40.5 179.4 -40.6 179.0 C -40.6 178.8 -40.6 178.6 -40.6 178.4 C -40.6 178.1 -40.6 177.8 -40.5 177.4 C -40.2 176.7 -41.0 174.4 -42.1 172.3 C -42.1 172.2 -42.1 172.1 -42.2 172.0 L -42.2 172.0 L -42.3 171.8 L -44.1 168.5 L -43.4 168.6 L -42.4 168.7 L -42.0 168.9 C -41.4 169.1 -39.9 169.3 -38.2 169.4 C -37.5 169.4 -36.7 169.3 -35.9 169.3 C -34.7 169.3 -33.5 169.3 -32.3 169.2 C -27.7 168.8 -24.1 169.1 -22.6 169.9 C -21.8 170.3 -21.1 170.5 -20.5 170.5 C -19.8 170.5 -19.2 170.3 -18.7 170.0 C -18.5 169.8 -18.5 169.9 -18.4 169.8 Z M -50.1 168.3 C -49.6 168.4 -49.1 168.6 -48.7 168.9 C -48.4 169.0 -48.1 169.1 -47.9 169.3 C -47.7 169.5 -47.5 169.8 -47.3 170.0 C -46.9 170.7 -46.7 171.3 -46.7 171.8 C -46.8 172.3 -47.0 172.5 -47.4 172.7 C -47.5 172.8 -47.6 172.8 -47.7 172.8 C -47.7 172.8 -47.8 172.8 -47.8 172.8 C -47.8 172.8 -47.8 172.8 -47.8 172.8 C -48.1 172.9 -48.4 172.9 -48.7 172.8 C -49.0 172.7 -49.2 172.6 -49.4 172.4 C -49.5 172.3 -49.6 172.1 -49.4 172.0 C -48.5 170.8 -50.4 169.8 -52.0 170.4 C -53.4 170.3 -54.2 169.9 -54.1 169.4 C -54.1 169.2 -53.9 169.0 -53.6 168.9 C -52.6 168.4 -51.4 168.2 -50.1 168.3 Z M -50.1 168.3 "></path></clipPath><g clip-path="url(#clip-98)"><image xlink:href="../../144BEF91-2C83-4E9F-8C2F-8B1F1078D76B/assets/509C5094B150CEC6491BB273EB9844E0.png" width="428.00" height="306.00" transform="matrix(-0.99, -0.12, -0.12, 0.99, 380.8, -63.3)"></image></g></g></g></g></g></svg>