<?xml version="1.0" encoding="UTF-8" standalone="no"?><svg xmlns="http://www.w3.org/2000/svg" xmlns:xlink="http://www.w3.org/1999/xlink" clip-rule="evenodd" stroke-miterlimit="4.00" viewBox="0 0 754 111"><desc>SVG generated by Keynote</desc><defs></defs><g transform="matrix(1.00, 0.00, -0.00, -1.00, 0.0, 111.0)"><text xml:space="preserve" font-family="Helvetica-Bold" font-weight="bold" font-size="50.0" fill="#F2F103" transform="matrix(1.00, 0.00, -0.00, -1.00, 2.0, 72.0)">8</text><text xml:space="preserve" font-family="Helvetica-Bold" font-weight="bold" font-size="50.0" fill="#F2F103" transform="matrix(1.00, 0.00, -0.00, -1.00, 29.8, 72.0)">-</text><text xml:space="preserve" font-family="Helvetica-Bold" font-weight="bold" font-size="50.0" fill="#F2F103" transform="matrix(1.00, 0.00, -0.00, -1.00, 46.5, 72.0)">m</text><text xml:space="preserve" font-family="Helvetica-Bold" font-weight="bold" font-size="50.0" fill="#F2F103" transform="matrix(1.00, 0.00, -0.00, -1.00, 90.9, 72.0)">e</text><text xml:space="preserve" font-family="Helvetica-Bold" font-weight="bold" font-size="50.0" fill="#F2F103" transform="matrix(1.00, 0.00, -0.00, -1.00, 118.8, 72.0)">t</text><text xml:space="preserve" font-family="Helvetica-Bold" font-weight="bold" font-size="50.0" fill="#F2F103" transform="matrix(1.00, 0.00, -0.00, -1.00, 135.4, 72.0)">e</text><text xml:space="preserve" font-family="Helvetica-Bold" font-weight="bold" font-size="50.0" fill="#F2F103" transform="matrix(1.00, 0.00, -0.00, -1.00, 163.2, 72.0)">r</text><text xml:space="preserve" font-family="Helvetica-Light" font-size="50.0" fill="#0065C0" transform="matrix(1.00, 0.00, -0.00, -1.00, 182.6, 72.0)"> </text><text xml:space="preserve" font-family="Helvetica-Light" font-size="50.0" fill="#A6AAA8" transform="matrix(1.00, 0.00, -0.00, -1.00, 196.5, 72.0)">d</text><text xml:space="preserve" font-family="Helvetica-Light" font-size="50.0" fill="#A6AAA8" transform="matrix(1.00, 0.00, -0.00, -1.00, 227.1, 72.0)">e</text><text xml:space="preserve" font-family="Helvetica-Light" font-size="50.0" fill="#A6AAA8" transform="matrix(1.00, 0.00, -0.00, -1.00, 254.9, 72.0)">e</text><text xml:space="preserve" font-family="Helvetica-Light" font-size="50.0" fill="#A6AAA8" transform="matrix(1.00, 0.00, -0.00, -1.00, 282.7, 72.0)">p</text><text xml:space="preserve" font-family="Helvetica-Light" font-size="50.0" fill="#A6AAA8" transform="matrix(1.00, 0.00, -0.00, -1.00, 313.2, 72.0)"> </text><text xml:space="preserve" font-family="Helvetica-Light" font-size="50.0" fill="#A6AAA8" transform="matrix(1.00, 0.00, -0.00, -1.00, 327.1, 72.0)">s</text><text xml:space="preserve" font-family="Helvetica-Light" font-size="50.0" fill="#A6AAA8" transform="matrix(1.00, 0.00, -0.00, -1.00, 352.1, 72.0)">u</text><text xml:space="preserve" font-family="Helvetica-Light" font-size="50.0" fill="#A6AAA8" transform="matrix(1.00, 0.00, -0.00, -1.00, 379.9, 72.0)">r</text><text xml:space="preserve" font-family="Helvetica-Light" font-size="50.0" fill="#A6AAA8" transform="matrix(1.00, 0.00, -0.00, -1.00, 396.6, 72.0)">v</text><text xml:space="preserve" font-family="Helvetica-Light" font-size="50.0" fill="#A6AAA8" transform="matrix(1.00, 0.00, -0.00, -1.00, 421.6, 72.0)">e</text><text xml:space="preserve" font-family="Helvetica-Light" font-size="50.0" fill="#A6AAA8" transform="matrix(1.00, 0.00, -0.00, -1.00, 449.4, 72.0)">y</text><text xml:space="preserve" font-family="Helvetica-Light" font-size="50.0" fill="#A6AAA8" transform="matrix(1.00, 0.00, -0.00, -1.00, 474.4, 72.0)">:</text><text xml:space="preserve" font-family="Helvetica-Light" font-size="50.0" fill="#A6AAA8" transform="matrix(1.00, 0.00, -0.00, -1.00, 488.3, 72.0)"> </text><text xml:space="preserve" font-family="Helvetica-Light" font-size="50.0" fill="#A6AAA8" transform="matrix(1.00, 0.00, -0.00, -1.00, 502.2, 72.0)">V</text><text xml:space="preserve" font-family="Helvetica-Light" font-size="50.0" fill="#A6AAA8" transform="matrix(1.00, 0.00, -0.00, -1.00, 532.7, 72.0)">L</text><text xml:space="preserve" font-family="Helvetica-Light" font-size="50.0" fill="#A6AAA8" transform="matrix(1.00, 0.00, -0.00, -1.00, 555.9, 72.0)">T</text><text xml:space="preserve" font-family="Helvetica-Light" font-size="50.0" fill="#A6AAA8" transform="matrix(1.00, 0.00, -0.00, -1.00, 583.7, 72.0)">/</text><text xml:space="preserve" font-family="Helvetica-Light" font-size="50.0" fill="#A6AAA8" transform="matrix(1.00, 0.00, -0.00, -1.00, 597.6, 72.0)">V</text><text xml:space="preserve" font-family="Helvetica-Light" font-size="50.0" fill="#A6AAA8" transform="matrix(1.00, 0.00, -0.00, -1.00, 628.2, 72.0)">I</text><text xml:space="preserve" font-family="Helvetica-Light" font-size="50.0" fill="#A6AAA8" transform="matrix(1.00, 0.00, -0.00, -1.00, 642.1, 72.0)">M</text><text xml:space="preserve" font-family="Helvetica-Light" font-size="50.0" fill="#A6AAA8" transform="matrix(1.00, 0.00, -0.00, -1.00, 683.7, 72.0)">O</text><text xml:space="preserve" font-family="Helvetica-Light" font-size="50.0" fill="#A6AAA8" transform="matrix(1.00, 0.00, -0.00, -1.00, 722.6, 72.0)">S</text><text xml:space="preserve" font-family="LucidaGrande" font-size="50.0" fill="#A6AAA8" transform="matrix(1.00, 0.00, -0.00, -1.00, 753.2, 72.0)"> </text><text xml:space="preserve" font-family="Helvetica-Light" font-size="50.0" fill="#A6AAA8" transform="matrix(1.00, 0.00, -0.00, -1.00, 2.0, 12.0)">(</text><text xml:space="preserve" font-family="Helvetica-Light" font-size="50.0" fill="#A6AAA8" transform="matrix(1.00, 0.00, -0.00, -1.00, 18.7, 12.0)">Δ</text><text xml:space="preserve" font-family="Helvetica-Light" font-size="50.0" fill="#A6AAA8" transform="matrix(1.00, 0.00, -0.00, -1.00, 52.4, 12.0)">Θ</text><text xml:space="preserve" font-family="Helvetica-Light" font-size="50.0" fill="#A6AAA8" transform="matrix(1.00, 0.00, -0.00, -1.00, 89.4, 12.0)"> </text><text xml:space="preserve" font-family="Helvetica-Light" font-size="50.0" fill="#A6AAA8" transform="matrix(1.00, 0.00, -0.00, -1.00, 103.3, 12.0)">≤</text><text xml:space="preserve" font-family="Helvetica-Light" font-size="50.0" fill="#A6AAA8" transform="matrix(1.00, 0.00, -0.00, -1.00, 131.7, 12.0)"> </text><text xml:space="preserve" font-family="Helvetica-Light" font-size="50.0" fill="#A6AAA8" transform="matrix(1.00, 0.00, -0.00, -1.00, 145.6, 12.0)">1</text><text xml:space="preserve" font-family="Helvetica-Light" font-size="50.0" fill="#A6AAA8" transform="matrix(1.00, 0.00, -0.00, -1.00, 173.4, 12.0)">0</text><text xml:space="preserve" font-family="Helvetica-Light" font-size="50.0" fill="#A6AAA8" transform="matrix(1.00, 0.00, -0.00, -1.00, 201.2, 12.0)">’</text><text xml:space="preserve" font-family="Helvetica-Light" font-size="50.0" fill="#A6AAA8" transform="matrix(1.00, 0.00, -0.00, -1.00, 212.3, 12.0)"> </text><text xml:space="preserve" font-family="Helvetica-Light" font-size="50.0" fill="#A6AAA8" transform="matrix(1.00, 0.00, -0.00, -1.00, 226.2, 12.0)">~</text><text xml:space="preserve" font-family="Helvetica-Light" font-size="50.0" fill="#A6AAA8" transform="matrix(1.00, 0.00, -0.00, -1.00, 259.2, 12.0)"> </text><text xml:space="preserve" font-family="Helvetica-Light" font-size="50.0" fill="#A6AAA8" transform="matrix(1.00, 0.00, -0.00, -1.00, 273.1, 12.0)">1</text><text xml:space="preserve" font-family="Helvetica-Light" font-size="50.0" fill="#A6AAA8" transform="matrix(1.00, 0.00, -0.00, -1.00, 300.9, 12.0)">0</text><text xml:space="preserve" font-family="Helvetica-Light" font-size="50.0" fill="#A6AAA8" transform="matrix(1.00, 0.00, -0.00, -1.00, 328.7, 12.0)"> </text><text xml:space="preserve" font-family="Helvetica-Light" font-size="50.0" fill="#A6AAA8" transform="matrix(1.00, 0.00, -0.00, -1.00, 342.6, 12.0)">M</text><text xml:space="preserve" font-family="Helvetica-Light" font-size="50.0" fill="#A6AAA8" transform="matrix(1.00, 0.00, -0.00, -1.00, 384.2, 12.0)">l</text><text xml:space="preserve" font-family="Helvetica-Light" font-size="50.0" fill="#A6AAA8" transform="matrix(1.00, 0.00, -0.00, -1.00, 395.4, 12.0)">y</text><text xml:space="preserve" font-family="Helvetica-Light" font-size="50.0" fill="#A6AAA8" transform="matrix(1.00, 0.00, -0.00, -1.00, 420.4, 12.0)"> </text><text xml:space="preserve" font-family="Helvetica-Light" font-size="50.0" fill="#A6AAA8" transform="matrix(1.00, 0.00, -0.00, -1.00, 434.2, 12.0)">a</text><text xml:space="preserve" font-family="Helvetica-Light" font-size="50.0" fill="#A6AAA8" transform="matrix(1.00, 0.00, -0.00, -1.00, 462.1, 12.0)">t</text><text xml:space="preserve" font-family="Helvetica-Light" font-size="50.0" fill="#A6AAA8" transform="matrix(1.00, 0.00, -0.00, -1.00, 475.9, 12.0)"> </text><text xml:space="preserve" font-family="Helvetica-Light" font-size="50.0" fill="#A6AAA8" transform="matrix(1.00, 0.00, -0.00, -1.00, 489.8, 12.0)">z</text><text xml:space="preserve" font-family="Helvetica-Light" font-size="50.0" fill="#A6AAA8" transform="matrix(1.00, 0.00, -0.00, -1.00, 514.8, 12.0)">~</text><text xml:space="preserve" font-family="Helvetica-Light" font-size="50.0" fill="#A6AAA8" transform="matrix(1.00, 0.00, -0.00, -1.00, 547.8, 12.0)">3</text><text xml:space="preserve" font-family="Helvetica-Light" font-size="50.0" fill="#A6AAA8" transform="matrix(1.00, 0.00, -0.00, -1.00, 575.6, 12.0)">)</text></g></svg>