<?xml version="1.0" encoding="UTF-8" standalone="no"?><svg xmlns="http://www.w3.org/2000/svg" xmlns:xlink="http://www.w3.org/1999/xlink" clip-rule="evenodd" stroke-miterlimit="4.00" viewBox="0 0 1920 1080"><desc>SVG generated by Keynote</desc><defs></defs><g transform="matrix(1.00, 0.00, -0.00, -1.00, 0.0, 1080.0)"><path d="M 0.0 1080.0 L 1920.0 1080.0 L 1920.0 0.0 L 0.0 0.0 Z M 0.0 1080.0 " fill="#000000"></path><text xml:space="preserve" font-family="Helvetica-Light" font-size="20.0" fill="#DCDDE0" transform="matrix(1.00, 0.00, -0.00, -1.00, 37.0, 27.0)">T</text><text xml:space="preserve" font-family="Helvetica-Light" font-size="20.0" fill="#DCDDE0" transform="matrix(1.00, 0.00, -0.00, -1.00, 45.9, 27.0)">a</text><text xml:space="preserve" font-family="Helvetica-Light" font-size="20.0" fill="#DCDDE0" transform="matrix(1.00, 0.00, -0.00, -1.00, 57.0, 27.0)">w</text><text xml:space="preserve" font-family="Helvetica-Light" font-size="20.0" fill="#DCDDE0" transform="matrix(1.00, 0.00, -0.00, -1.00, 71.5, 27.0)">e</text><text xml:space="preserve" font-family="Helvetica-Light" font-size="20.0" fill="#DCDDE0" transform="matrix(1.00, 0.00, -0.00, -1.00, 82.6, 27.0)">e</text><text xml:space="preserve" font-family="Helvetica-Light" font-size="20.0" fill="#DCDDE0" transform="matrix(1.00, 0.00, -0.00, -1.00, 93.7, 27.0)">w</text><text xml:space="preserve" font-family="Helvetica-Light" font-size="20.0" fill="#DCDDE0" transform="matrix(1.00, 0.00, -0.00, -1.00, 108.1, 27.0)">a</text><text xml:space="preserve" font-family="Helvetica-Light" font-size="20.0" fill="#DCDDE0" transform="matrix(1.00, 0.00, -0.00, -1.00, 119.3, 27.0)">t</text><text xml:space="preserve" font-family="Helvetica-Light" font-size="20.0" fill="#DCDDE0" transform="matrix(1.00, 0.00, -0.00, -1.00, 124.8, 27.0)"> </text><text xml:space="preserve" font-family="Helvetica-Light" font-size="20.0" fill="#DCDDE0" transform="matrix(1.00, 0.00, -0.00, -1.00, 130.4, 27.0)">S</text><text xml:space="preserve" font-family="Helvetica-Light" font-size="20.0" fill="#DCDDE0" transform="matrix(1.00, 0.00, -0.00, -1.00, 142.6, 27.0)">o</text><text xml:space="preserve" font-family="Helvetica-Light" font-size="20.0" fill="#DCDDE0" transform="matrix(1.00, 0.00, -0.00, -1.00, 153.7, 27.0)">m</text><text xml:space="preserve" font-family="Helvetica-Light" font-size="20.0" fill="#DCDDE0" transform="matrix(1.00, 0.00, -0.00, -1.00, 170.4, 27.0)">b</text><text xml:space="preserve" font-family="Helvetica-Light" font-size="20.0" fill="#DCDDE0" transform="matrix(1.00, 0.00, -0.00, -1.00, 182.6, 27.0)">o</text><text xml:space="preserve" font-family="Helvetica-Light" font-size="20.0" fill="#DCDDE0" transform="matrix(1.00, 0.00, -0.00, -1.00, 193.7, 27.0)">o</text><text xml:space="preserve" font-family="Helvetica-Light" font-size="20.0" fill="#DCDDE0" transform="matrix(1.00, 0.00, -0.00, -1.00, 204.8, 27.0)">n</text><text xml:space="preserve" font-family="Helvetica-Light" font-size="20.0" fill="#DCDDE0" transform="matrix(1.00, 0.00, -0.00, -1.00, 216.0, 27.0)">p</text><text xml:space="preserve" font-family="Helvetica-Light" font-size="20.0" fill="#DCDDE0" transform="matrix(1.00, 0.00, -0.00, -1.00, 228.2, 27.0)">a</text><text xml:space="preserve" font-family="Helvetica-Light" font-size="20.0" fill="#DCDDE0" transform="matrix(1.00, 0.00, -0.00, -1.00, 239.3, 27.0)">n</text><text xml:space="preserve" font-family="Helvetica-Light" font-size="20.0" fill="#DCDDE0" transform="matrix(1.00, 0.00, -0.00, -1.00, 250.4, 27.0)">y</text><text xml:space="preserve" font-family="Helvetica-Light" font-size="20.0" fill="#DCDDE0" transform="matrix(1.00, 0.00, -0.00, -1.00, 260.4, 27.0)">a</text><text xml:space="preserve" font-family="Helvetica-Light" font-size="20.0" fill="#DCDDE0" transform="matrix(1.00, 0.00, -0.00, -1.00, 271.5, 27.0)">k</text><text xml:space="preserve" font-family="Helvetica-Light" font-size="20.0" fill="#DCDDE0" transform="matrix(1.00, 0.00, -0.00, -1.00, 281.5, 27.0)">u</text><text xml:space="preserve" font-family="Helvetica-Light" font-size="20.0" fill="#DCDDE0" transform="matrix(1.00, 0.00, -0.00, -1.00, 292.7, 27.0)">l</text><text xml:space="preserve" font-family="Helvetica-Light" font-size="20.0" fill="#DCDDE0" transform="matrix(1.00, 0.00, -0.00, -1.00, 297.1, 27.0)"> </text><text xml:space="preserve" font-family="Helvetica-Light" font-size="20.0" fill="#DCDDE0" transform="matrix(1.00, 0.00, -0.00, -1.00, 302.7, 27.0)">|</text><text xml:space="preserve" font-family="Helvetica-Light" font-size="20.0" fill="#DCDDE0" transform="matrix(1.00, 0.00, -0.00, -1.00, 307.1, 27.0)"> </text><text xml:space="preserve" font-family="Helvetica-Light" font-size="20.0" fill="#DCDDE0" transform="matrix(1.00, 0.00, -0.00, -1.00, 312.7, 27.0)">j</text><text xml:space="preserve" font-family="Helvetica-Light" font-size="20.0" fill="#DCDDE0" transform="matrix(1.00, 0.00, -0.00, -1.00, 317.1, 27.0)">o</text><text xml:space="preserve" font-family="Helvetica-Light" font-size="20.0" fill="#DCDDE0" transform="matrix(1.00, 0.00, -0.00, -1.00, 328.2, 27.0)">u</text><text xml:space="preserve" font-family="Helvetica-Light" font-size="20.0" fill="#DCDDE0" transform="matrix(1.00, 0.00, -0.00, -1.00, 339.3, 27.0)">r</text><text xml:space="preserve" font-family="Helvetica-Light" font-size="20.0" fill="#DCDDE0" transform="matrix(1.00, 0.00, -0.00, -1.00, 346.4, 27.0)">n</text><text xml:space="preserve" font-family="Helvetica-Light" font-size="20.0" fill="#DCDDE0" transform="matrix(1.00, 0.00, -0.00, -1.00, 357.5, 27.0)">a</text><text xml:space="preserve" font-family="Helvetica-Light" font-size="20.0" fill="#DCDDE0" transform="matrix(1.00, 0.00, -0.00, -1.00, 368.6, 27.0)">l</text><text xml:space="preserve" font-family="Helvetica-Light" font-size="20.0" fill="#DCDDE0" transform="matrix(1.00, 0.00, -0.00, -1.00, 373.0, 27.0)"> </text><text xml:space="preserve" font-family="Helvetica-Light" font-size="20.0" fill="#DCDDE0" transform="matrix(1.00, 0.00, -0.00, -1.00, 378.6, 27.0)">c</text><text xml:space="preserve" font-family="Helvetica-Light" font-size="20.0" fill="#DCDDE0" transform="matrix(1.00, 0.00, -0.00, -1.00, 389.7, 27.0)">l</text><text xml:space="preserve" font-family="Helvetica-Light" font-size="20.0" fill="#DCDDE0" transform="matrix(1.00, 0.00, -0.00, -1.00, 394.2, 27.0)">u</text><text xml:space="preserve" font-family="Helvetica-Light" font-size="20.0" fill="#DCDDE0" transform="matrix(1.00, 0.00, -0.00, -1.00, 405.3, 27.0)">b</text><text xml:space="preserve" font-family="Helvetica-Light" font-size="20.0" fill="#DCDDE0" transform="matrix(1.00, 0.00, -0.00, -1.00, 417.5, 27.0)"> </text><text xml:space="preserve" font-family="Helvetica-Light" font-size="20.0" fill="#DCDDE0" transform="matrix(1.00, 0.00, -0.00, -1.00, 423.1, 27.0)">|</text><text xml:space="preserve" font-family="Helvetica-Light" font-size="20.0" fill="#DCDDE0" transform="matrix(1.00, 0.00, -0.00, -1.00, 427.5, 27.0)"> </text><text xml:space="preserve" font-family="Helvetica-Light" font-size="20.0" fill="#DCDDE0" transform="matrix(1.00, 0.00, -0.00, -1.00, 433.1, 27.0)">0</text><text xml:space="preserve" font-family="Helvetica-Light" font-size="20.0" fill="#DCDDE0" transform="matrix(1.00, 0.00, -0.00, -1.00, 444.2, 27.0)">4</text><text xml:space="preserve" font-family="Helvetica-Light" font-size="20.0" fill="#DCDDE0" transform="matrix(1.00, 0.00, -0.00, -1.00, 455.3, 27.0)">.</text><text xml:space="preserve" font-family="Helvetica-Light" font-size="20.0" fill="#DCDDE0" transform="matrix(1.00, 0.00, -0.00, -1.00, 460.9, 27.0)">2</text><text xml:space="preserve" font-family="Helvetica-Light" font-size="20.0" fill="#DCDDE0" transform="matrix(1.00, 0.00, -0.00, -1.00, 472.0, 27.0)">1</text><text xml:space="preserve" font-family="Helvetica-Light" font-size="20.0" fill="#DCDDE0" transform="matrix(1.00, 0.00, -0.00, -1.00, 483.1, 27.0)">.</text><text xml:space="preserve" font-family="Helvetica-Light" font-size="20.0" fill="#DCDDE0" transform="matrix(1.00, 0.00, -0.00, -1.00, 488.7, 27.0)">2</text><text xml:space="preserve" font-family="Helvetica-Light" font-size="20.0" fill="#DCDDE0" transform="matrix(1.00, 0.00, -0.00, -1.00, 499.8, 27.0)">0</text><text xml:space="preserve" font-family="Helvetica-Light" font-size="20.0" fill="#DCDDE0" transform="matrix(1.00, 0.00, -0.00, -1.00, 510.9, 27.0)">1</text><text xml:space="preserve" font-family="Helvetica-Light" font-size="20.0" fill="#DCDDE0" transform="matrix(1.00, 0.00, -0.00, -1.00, 522.0, 27.0)">7</text><text xml:space="preserve" font-family="Helvetica-Light" font-size="24.0" fill="#DCDDE0" transform="matrix(1.00, 0.00, -0.00, -1.00, 946.0, 26.0)">1</text><text xml:space="preserve" font-family="Helvetica-Light" font-size="24.0" fill="#DCDDE0" transform="matrix(1.00, 0.00, -0.00, -1.00, 959.3, 26.0)">7</text><image xlink:href="../../71202BE9-B8E9-43F8-9C68-8F484EFBEA71/assets/176CC889C6B7F914D0E6E1B65288473E.png" width="525.00" height="540.00" transform="matrix(2.00, 0.00, -0.00, -2.00, 37.0, 1080.0)"></image><text xml:space="preserve" font-family="Helvetica-Bold" font-weight="bold" font-size="50.0" fill="#F2F103" transform="matrix(1.00, 0.00, -0.00, -1.00, 1140.0, 966.0)">8</text><text xml:space="preserve" font-family="Helvetica-Bold" font-weight="bold" font-size="50.0" fill="#F2F103" transform="matrix(1.00, 0.00, -0.00, -1.00, 1167.8, 966.0)">-</text><text xml:space="preserve" font-family="Helvetica-Bold" font-weight="bold" font-size="50.0" fill="#F2F103" transform="matrix(1.00, 0.00, -0.00, -1.00, 1184.5, 966.0)">m</text><text xml:space="preserve" font-family="Helvetica-Bold" font-weight="bold" font-size="50.0" fill="#F2F103" transform="matrix(1.00, 0.00, -0.00, -1.00, 1228.9, 966.0)">e</text><text xml:space="preserve" font-family="Helvetica-Bold" font-weight="bold" font-size="50.0" fill="#F2F103" transform="matrix(1.00, 0.00, -0.00, -1.00, 1256.8, 966.0)">t</text><text xml:space="preserve" font-family="Helvetica-Bold" font-weight="bold" font-size="50.0" fill="#F2F103" transform="matrix(1.00, 0.00, -0.00, -1.00, 1273.4, 966.0)">e</text><text xml:space="preserve" font-family="Helvetica-Bold" font-weight="bold" font-size="50.0" fill="#F2F103" transform="matrix(1.00, 0.00, -0.00, -1.00, 1301.2, 966.0)">r</text><text xml:space="preserve" font-family="Helvetica-Light" font-size="50.0" fill="#0065C0" transform="matrix(1.00, 0.00, -0.00, -1.00, 1320.6, 966.0)"> </text><text xml:space="preserve" font-family="Helvetica-Light" font-size="50.0" fill="#A6AAA8" transform="matrix(1.00, 0.00, -0.00, -1.00, 1334.5, 966.0)">d</text><text xml:space="preserve" font-family="Helvetica-Light" font-size="50.0" fill="#A6AAA8" transform="matrix(1.00, 0.00, -0.00, -1.00, 1365.1, 966.0)">e</text><text xml:space="preserve" font-family="Helvetica-Light" font-size="50.0" fill="#A6AAA8" transform="matrix(1.00, 0.00, -0.00, -1.00, 1392.9, 966.0)">e</text><text xml:space="preserve" font-family="Helvetica-Light" font-size="50.0" fill="#A6AAA8" transform="matrix(1.00, 0.00, -0.00, -1.00, 1420.7, 966.0)">p</text><text xml:space="preserve" font-family="Helvetica-Light" font-size="50.0" fill="#A6AAA8" transform="matrix(1.00, 0.00, -0.00, -1.00, 1451.2, 966.0)"> </text><text xml:space="preserve" font-family="Helvetica-Light" font-size="50.0" fill="#A6AAA8" transform="matrix(1.00, 0.00, -0.00, -1.00, 1465.1, 966.0)">s</text><text xml:space="preserve" font-family="Helvetica-Light" font-size="50.0" fill="#A6AAA8" transform="matrix(1.00, 0.00, -0.00, -1.00, 1490.1, 966.0)">u</text><text xml:space="preserve" font-family="Helvetica-Light" font-size="50.0" fill="#A6AAA8" transform="matrix(1.00, 0.00, -0.00, -1.00, 1517.9, 966.0)">r</text><text xml:space="preserve" font-family="Helvetica-Light" font-size="50.0" fill="#A6AAA8" transform="matrix(1.00, 0.00, -0.00, -1.00, 1534.6, 966.0)">v</text><text xml:space="preserve" font-family="Helvetica-Light" font-size="50.0" fill="#A6AAA8" transform="matrix(1.00, 0.00, -0.00, -1.00, 1559.6, 966.0)">e</text><text xml:space="preserve" font-family="Helvetica-Light" font-size="50.0" fill="#A6AAA8" transform="matrix(1.00, 0.00, -0.00, -1.00, 1587.4, 966.0)">y</text><text xml:space="preserve" font-family="Helvetica-Light" font-size="50.0" fill="#A6AAA8" transform="matrix(1.00, 0.00, -0.00, -1.00, 1612.4, 966.0)">:</text><text xml:space="preserve" font-family="Helvetica-Light" font-size="50.0" fill="#A6AAA8" transform="matrix(1.00, 0.00, -0.00, -1.00, 1626.3, 966.0)"> </text><text xml:space="preserve" font-family="Helvetica-Light" font-size="50.0" fill="#A6AAA8" transform="matrix(1.00, 0.00, -0.00, -1.00, 1640.2, 966.0)">V</text><text xml:space="preserve" font-family="Helvetica-Light" font-size="50.0" fill="#A6AAA8" transform="matrix(1.00, 0.00, -0.00, -1.00, 1670.7, 966.0)">L</text><text xml:space="preserve" font-family="Helvetica-Light" font-size="50.0" fill="#A6AAA8" transform="matrix(1.00, 0.00, -0.00, -1.00, 1693.9, 966.0)">T</text><text xml:space="preserve" font-family="Helvetica-Light" font-size="50.0" fill="#A6AAA8" transform="matrix(1.00, 0.00, -0.00, -1.00, 1721.7, 966.0)">/</text><text xml:space="preserve" font-family="Helvetica-Light" font-size="50.0" fill="#A6AAA8" transform="matrix(1.00, 0.00, -0.00, -1.00, 1735.6, 966.0)">V</text><text xml:space="preserve" font-family="Helvetica-Light" font-size="50.0" fill="#A6AAA8" transform="matrix(1.00, 0.00, -0.00, -1.00, 1766.2, 966.0)">I</text><text xml:space="preserve" font-family="Helvetica-Light" font-size="50.0" fill="#A6AAA8" transform="matrix(1.00, 0.00, -0.00, -1.00, 1780.1, 966.0)">M</text><text xml:space="preserve" font-family="Helvetica-Light" font-size="50.0" fill="#A6AAA8" transform="matrix(1.00, 0.00, -0.00, -1.00, 1821.7, 966.0)">O</text><text xml:space="preserve" font-family="Helvetica-Light" font-size="50.0" fill="#A6AAA8" transform="matrix(1.00, 0.00, -0.00, -1.00, 1860.6, 966.0)">S</text><text xml:space="preserve" font-family="LucidaGrande" font-size="50.0" fill="#A6AAA8" transform="matrix(1.00, 0.00, -0.00, -1.00, 1891.2, 966.0)"> </text><text xml:space="preserve" font-family="Helvetica-Light" font-size="50.0" fill="#A6AAA8" transform="matrix(1.00, 0.00, -0.00, -1.00, 1140.0, 906.0)">(</text><text xml:space="preserve" font-family="Helvetica-Light" font-size="50.0" fill="#A6AAA8" transform="matrix(1.00, 0.00, -0.00, -1.00, 1156.7, 906.0)">Δ</text><text xml:space="preserve" font-family="Helvetica-Light" font-size="50.0" fill="#A6AAA8" transform="matrix(1.00, 0.00, -0.00, -1.00, 1190.3, 906.0)">Θ</text><text xml:space="preserve" font-family="Helvetica-Light" font-size="50.0" fill="#A6AAA8" transform="matrix(1.00, 0.00, -0.00, -1.00, 1227.4, 906.0)"> </text><text xml:space="preserve" font-family="Helvetica-Light" font-size="50.0" fill="#A6AAA8" transform="matrix(1.00, 0.00, -0.00, -1.00, 1241.3, 906.0)">≤</text><text xml:space="preserve" font-family="Helvetica-Light" font-size="50.0" fill="#A6AAA8" transform="matrix(1.00, 0.00, -0.00, -1.00, 1269.7, 906.0)"> </text><text xml:space="preserve" font-family="Helvetica-Light" font-size="50.0" fill="#A6AAA8" transform="matrix(1.00, 0.00, -0.00, -1.00, 1283.6, 906.0)">1</text><text xml:space="preserve" font-family="Helvetica-Light" font-size="50.0" fill="#A6AAA8" transform="matrix(1.00, 0.00, -0.00, -1.00, 1311.4, 906.0)">0</text><text xml:space="preserve" font-family="Helvetica-Light" font-size="50.0" fill="#A6AAA8" transform="matrix(1.00, 0.00, -0.00, -1.00, 1339.2, 906.0)">’</text><text xml:space="preserve" font-family="Helvetica-Light" font-size="50.0" fill="#A6AAA8" transform="matrix(1.00, 0.00, -0.00, -1.00, 1350.3, 906.0)"> </text><text xml:space="preserve" font-family="Helvetica-Light" font-size="50.0" fill="#A6AAA8" transform="matrix(1.00, 0.00, -0.00, -1.00, 1364.2, 906.0)">~</text><text xml:space="preserve" font-family="Helvetica-Light" font-size="50.0" fill="#A6AAA8" transform="matrix(1.00, 0.00, -0.00, -1.00, 1397.2, 906.0)"> </text><text xml:space="preserve" font-family="Helvetica-Light" font-size="50.0" fill="#A6AAA8" transform="matrix(1.00, 0.00, -0.00, -1.00, 1411.1, 906.0)">1</text><text xml:space="preserve" font-family="Helvetica-Light" font-size="50.0" fill="#A6AAA8" transform="matrix(1.00, 0.00, -0.00, -1.00, 1438.9, 906.0)">0</text><text xml:space="preserve" font-family="Helvetica-Light" font-size="50.0" fill="#A6AAA8" transform="matrix(1.00, 0.00, -0.00, -1.00, 1466.7, 906.0)"> </text><text xml:space="preserve" font-family="Helvetica-Light" font-size="50.0" fill="#A6AAA8" transform="matrix(1.00, 0.00, -0.00, -1.00, 1480.6, 906.0)">M</text><text xml:space="preserve" font-family="Helvetica-Light" font-size="50.0" fill="#A6AAA8" transform="matrix(1.00, 0.00, -0.00, -1.00, 1522.2, 906.0)">l</text><text xml:space="preserve" font-family="Helvetica-Light" font-size="50.0" fill="#A6AAA8" transform="matrix(1.00, 0.00, -0.00, -1.00, 1533.3, 906.0)">y</text><text xml:space="preserve" font-family="Helvetica-Light" font-size="50.0" fill="#A6AAA8" transform="matrix(1.00, 0.00, -0.00, -1.00, 1558.3, 906.0)"> </text><text xml:space="preserve" font-family="Helvetica-Light" font-size="50.0" fill="#A6AAA8" transform="matrix(1.00, 0.00, -0.00, -1.00, 1572.2, 906.0)">a</text><text xml:space="preserve" font-family="Helvetica-Light" font-size="50.0" fill="#A6AAA8" transform="matrix(1.00, 0.00, -0.00, -1.00, 1600.0, 906.0)">t</text><text xml:space="preserve" font-family="Helvetica-Light" font-size="50.0" fill="#A6AAA8" transform="matrix(1.00, 0.00, -0.00, -1.00, 1614.0, 906.0)"> </text><text xml:space="preserve" font-family="Helvetica-Light" font-size="50.0" fill="#A6AAA8" transform="matrix(1.00, 0.00, -0.00, -1.00, 1627.8, 906.0)">z</text><text xml:space="preserve" font-family="Helvetica-Light" font-size="50.0" fill="#A6AAA8" transform="matrix(1.00, 0.00, -0.00, -1.00, 1652.8, 906.0)">~</text><text xml:space="preserve" font-family="Helvetica-Light" font-size="50.0" fill="#A6AAA8" transform="matrix(1.00, 0.00, -0.00, -1.00, 1685.8, 906.0)">3</text><text xml:space="preserve" font-family="Helvetica-Light" font-size="50.0" fill="#A6AAA8" transform="matrix(1.00, 0.00, -0.00, -1.00, 1713.6, 906.0)">)</text><text xml:space="preserve" font-family="Helvetica-Bold" font-weight="bold" font-size="50.0" fill="#1C91FC" transform="matrix(1.00, 0.00, -0.00, -1.00, 1140.0, 284.0)">4</text><text xml:space="preserve" font-family="Helvetica-Bold" font-weight="bold" font-size="50.0" fill="#1C91FC" transform="matrix(1.00, 0.00, -0.00, -1.00, 1167.8, 284.0)">-</text><text xml:space="preserve" font-family="Helvetica-Bold" font-weight="bold" font-size="50.0" fill="#1C91FC" transform="matrix(1.00, 0.00, -0.00, -1.00, 1184.5, 284.0)">m</text><text xml:space="preserve" font-family="Helvetica-Bold" font-weight="bold" font-size="50.0" fill="#1C91FC" transform="matrix(1.00, 0.00, -0.00, -1.00, 1228.9, 284.0)">e</text><text xml:space="preserve" font-family="Helvetica-Bold" font-weight="bold" font-size="50.0" fill="#1C91FC" transform="matrix(1.00, 0.00, -0.00, -1.00, 1256.8, 284.0)">t</text><text xml:space="preserve" font-family="Helvetica-Bold" font-weight="bold" font-size="50.0" fill="#1C91FC" transform="matrix(1.00, 0.00, -0.00, -1.00, 1273.4, 284.0)">e</text><text xml:space="preserve" font-family="Helvetica-Bold" font-weight="bold" font-size="50.0" fill="#1C91FC" transform="matrix(1.00, 0.00, -0.00, -1.00, 1301.2, 284.0)">r</text><text xml:space="preserve" font-family="Helvetica-Light" font-size="50.0" fill="#0065C0" transform="matrix(1.00, 0.00, -0.00, -1.00, 1320.6, 284.0)"> </text><text xml:space="preserve" font-family="Helvetica-Light" font-size="50.0" fill="#A6AAA8" transform="matrix(1.00, 0.00, -0.00, -1.00, 1334.5, 284.0)">w</text><text xml:space="preserve" font-family="Helvetica-Light" font-size="50.0" fill="#A6AAA8" transform="matrix(1.00, 0.00, -0.00, -1.00, 1370.6, 284.0)">i</text><text xml:space="preserve" font-family="Helvetica-Light" font-size="50.0" fill="#A6AAA8" transform="matrix(1.00, 0.00, -0.00, -1.00, 1381.7, 284.0)">d</text><text xml:space="preserve" font-family="Helvetica-Light" font-size="50.0" fill="#A6AAA8" transform="matrix(1.00, 0.00, -0.00, -1.00, 1412.3, 284.0)">e</text><text xml:space="preserve" font-family="Helvetica-Light" font-size="50.0" fill="#A6AAA8" transform="matrix(1.00, 0.00, -0.00, -1.00, 1440.1, 284.0)"> </text><text xml:space="preserve" font-family="Helvetica-Light" font-size="50.0" fill="#A6AAA8" transform="matrix(1.00, 0.00, -0.00, -1.00, 1454.0, 284.0)">s</text><text xml:space="preserve" font-family="Helvetica-Light" font-size="50.0" fill="#A6AAA8" transform="matrix(1.00, 0.00, -0.00, -1.00, 1479.0, 284.0)">u</text><text xml:space="preserve" font-family="Helvetica-Light" font-size="50.0" fill="#A6AAA8" transform="matrix(1.00, 0.00, -0.00, -1.00, 1506.8, 284.0)">r</text><text xml:space="preserve" font-family="Helvetica-Light" font-size="50.0" fill="#A6AAA8" transform="matrix(1.00, 0.00, -0.00, -1.00, 1523.4, 284.0)">v</text><text xml:space="preserve" font-family="Helvetica-Light" font-size="50.0" fill="#A6AAA8" transform="matrix(1.00, 0.00, -0.00, -1.00, 1548.4, 284.0)">e</text><text xml:space="preserve" font-family="Helvetica-Light" font-size="50.0" fill="#A6AAA8" transform="matrix(1.00, 0.00, -0.00, -1.00, 1576.2, 284.0)">y</text><text xml:space="preserve" font-family="Helvetica-Light" font-size="50.0" fill="#A6AAA8" transform="matrix(1.00, 0.00, -0.00, -1.00, 1601.2, 284.0)">:</text><text xml:space="preserve" font-family="Helvetica-Light" font-size="50.0" fill="#A6AAA8" transform="matrix(1.00, 0.00, -0.00, -1.00, 1615.1, 284.0)"> </text><text xml:space="preserve" font-family="Helvetica-Light" font-size="50.0" fill="#A6AAA8" transform="matrix(1.00, 0.00, -0.00, -1.00, 1629.0, 284.0)">(</text><text xml:space="preserve" font-family="Helvetica-Light" font-size="50.0" fill="#A6AAA8" transform="matrix(1.00, 0.00, -0.00, -1.00, 1645.7, 284.0)">s</text><text xml:space="preserve" font-family="Helvetica-Light" font-size="50.0" fill="#A6AAA8" transform="matrix(1.00, 0.00, -0.00, -1.00, 1670.7, 284.0)">a</text><text xml:space="preserve" font-family="Helvetica-Light" font-size="50.0" fill="#A6AAA8" transform="matrix(1.00, 0.00, -0.00, -1.00, 1698.5, 284.0)">m</text><text xml:space="preserve" font-family="Helvetica-Light" font-size="50.0" fill="#A6AAA8" transform="matrix(1.00, 0.00, -0.00, -1.00, 1740.1, 284.0)">p</text><text xml:space="preserve" font-family="Helvetica-Light" font-size="50.0" fill="#A6AAA8" transform="matrix(1.00, 0.00, -0.00, -1.00, 1770.7, 284.0)">l</text><text xml:space="preserve" font-family="Helvetica-Light" font-size="50.0" fill="#A6AAA8" transform="matrix(1.00, 0.00, -0.00, -1.00, 1781.8, 284.0)">e</text><text xml:space="preserve" font-family="Helvetica-Light" font-size="50.0" fill="#A6AAA8" transform="matrix(1.00, 0.00, -0.00, -1.00, 1809.6, 284.0)">s</text><text xml:space="preserve" font-family="Helvetica-Light" font-size="50.0" fill="#A6AAA8" transform="matrix(1.00, 0.00, -0.00, -1.00, 1834.6, 284.0)"> </text><text xml:space="preserve" font-family="Helvetica-Light" font-size="50.0" fill="#A6AAA8" transform="matrix(1.00, 0.00, -0.00, -1.00, 1140.0, 224.0)">f</text><text xml:space="preserve" font-family="Helvetica-Light" font-size="50.0" fill="#A6AAA8" transform="matrix(1.00, 0.00, -0.00, -1.00, 1153.9, 224.0)">r</text><text xml:space="preserve" font-family="Helvetica-Light" font-size="50.0" fill="#A6AAA8" transform="matrix(1.00, 0.00, -0.00, -1.00, 1169.7, 224.0)">o</text><text xml:space="preserve" font-family="Helvetica-Light" font-size="50.0" fill="#A6AAA8" transform="matrix(1.00, 0.00, -0.00, -1.00, 1197.5, 224.0)">m</text><text xml:space="preserve" font-family="Helvetica-Light" font-size="50.0" fill="#A6AAA8" transform="matrix(1.00, 0.00, -0.00, -1.00, 1239.1, 224.0)"> </text><text xml:space="preserve" font-family="Helvetica-Light" font-size="50.0" fill="#A6AAA8" transform="matrix(1.00, 0.00, -0.00, -1.00, 1253.0, 224.0)">S</text><text xml:space="preserve" font-family="Helvetica-Light" font-size="50.0" fill="#A6AAA8" transform="matrix(1.00, 0.00, -0.00, -1.00, 1283.5, 224.0)">D</text><text xml:space="preserve" font-family="Helvetica-Light" font-size="50.0" fill="#A6AAA8" transform="matrix(1.00, 0.00, -0.00, -1.00, 1319.7, 224.0)">S</text><text xml:space="preserve" font-family="Helvetica-Light" font-size="50.0" fill="#A6AAA8" transform="matrix(1.00, 0.00, -0.00, -1.00, 1350.2, 224.0)">S</text><text xml:space="preserve" font-family="Helvetica-Light" font-size="50.0" fill="#A6AAA8" transform="matrix(1.00, 0.00, -0.00, -1.00, 1380.8, 224.0)">/</text><text xml:space="preserve" font-family="Helvetica-Light" font-size="50.0" fill="#A6AAA8" transform="matrix(1.00, 0.00, -0.00, -1.00, 1394.7, 224.0)">W</text><text xml:space="preserve" font-family="Helvetica-Light" font-size="50.0" fill="#A6AAA8" transform="matrix(1.00, 0.00, -0.00, -1.00, 1439.1, 224.0)">I</text><text xml:space="preserve" font-family="Helvetica-Light" font-size="50.0" fill="#A6AAA8" transform="matrix(1.00, 0.00, -0.00, -1.00, 1453.0, 224.0)">S</text><text xml:space="preserve" font-family="Helvetica-Light" font-size="50.0" fill="#A6AAA8" transform="matrix(1.00, 0.00, -0.00, -1.00, 1483.5, 224.0)">E</text><text xml:space="preserve" font-family="Helvetica-Light" font-size="50.0" fill="#A6AAA8" transform="matrix(1.00, 0.00, -0.00, -1.00, 1514.1, 224.0)">)</text><text xml:space="preserve" font-family="LucidaGrande" font-size="50.0" fill="#A6AAA8" transform="matrix(1.00, 0.00, -0.00, -1.00, 1530.8, 224.0)"> </text><text xml:space="preserve" font-family="Helvetica-Light" font-size="50.0" fill="#A6AAA8" transform="matrix(1.00, 0.00, -0.00, -1.00, 1140.0, 164.0)">N</text><text xml:space="preserve" font-family="Helvetica-Light" font-size="50.0" fill="#A6AAA8" transform="matrix(1.00, 0.00, -0.00, -1.00, 1176.1, 164.0)">T</text><text xml:space="preserve" font-family="Helvetica-Light" font-size="50.0" fill="#A6AAA8" transform="matrix(1.00, 0.00, -0.00, -1.00, 1203.9, 164.0)">T</text><text xml:space="preserve" font-family="Helvetica-Light" font-size="50.0" fill="#A6AAA8" transform="matrix(1.00, 0.00, -0.00, -1.00, 1231.7, 164.0)">/</text><text xml:space="preserve" font-family="Helvetica-Light" font-size="50.0" fill="#A6AAA8" transform="matrix(1.00, 0.00, -0.00, -1.00, 1245.6, 164.0)">E</text><text xml:space="preserve" font-family="Helvetica-Light" font-size="50.0" fill="#A6AAA8" transform="matrix(1.00, 0.00, -0.00, -1.00, 1276.2, 164.0)">F</text><text xml:space="preserve" font-family="Helvetica-Light" font-size="50.0" fill="#A6AAA8" transform="matrix(1.00, 0.00, -0.00, -1.00, 1304.0, 164.0)">O</text><text xml:space="preserve" font-family="Helvetica-Light" font-size="50.0" fill="#A6AAA8" transform="matrix(1.00, 0.00, -0.00, -1.00, 1342.8, 164.0)">S</text><text xml:space="preserve" font-family="Helvetica-Light" font-size="50.0" fill="#A6AAA8" transform="matrix(1.00, 0.00, -0.00, -1.00, 1373.4, 164.0)">C</text><text xml:space="preserve" font-family="Helvetica-Light" font-size="50.0" fill="#A6AAA8" transform="matrix(1.00, 0.00, -0.00, -1.00, 1409.5, 164.0)">,</text><text xml:space="preserve" font-family="Helvetica-Light" font-size="50.0" fill="#A6AAA8" transform="matrix(1.00, 0.00, -0.00, -1.00, 1423.4, 164.0)"> </text><text xml:space="preserve" font-family="Helvetica-Light" font-size="50.0" fill="#A6AAA8" transform="matrix(1.00, 0.00, -0.00, -1.00, 1437.3, 164.0)">C</text><text xml:space="preserve" font-family="Helvetica-Light" font-size="50.0" fill="#A6AAA8" transform="matrix(1.00, 0.00, -0.00, -1.00, 1473.4, 164.0)">A</text><text xml:space="preserve" font-family="Helvetica-Light" font-size="50.0" fill="#A6AAA8" transform="matrix(1.00, 0.00, -0.00, -1.00, 1506.8, 164.0)">H</text><text xml:space="preserve" font-family="Helvetica-Light" font-size="50.0" fill="#A6AAA8" transform="matrix(1.00, 0.00, -0.00, -1.00, 1542.9, 164.0)">A</text><text xml:space="preserve" font-family="Helvetica-Light" font-size="50.0" fill="#A6AAA8" transform="matrix(1.00, 0.00, -0.00, -1.00, 1576.2, 164.0)">/</text><text xml:space="preserve" font-family="Helvetica-Light" font-size="50.0" fill="#A6AAA8" transform="matrix(1.00, 0.00, -0.00, -1.00, 1590.1, 164.0)">T</text><text xml:space="preserve" font-family="Helvetica-Light" font-size="50.0" fill="#A6AAA8" transform="matrix(1.00, 0.00, -0.00, -1.00, 1617.9, 164.0)">W</text><text xml:space="preserve" font-family="Helvetica-Light" font-size="50.0" fill="#A6AAA8" transform="matrix(1.00, 0.00, -0.00, -1.00, 1662.4, 164.0)">I</text><text xml:space="preserve" font-family="Helvetica-Light" font-size="50.0" fill="#A6AAA8" transform="matrix(1.00, 0.00, -0.00, -1.00, 1676.2, 164.0)">N</text><text xml:space="preserve" font-family="Helvetica-Light" font-size="50.0" fill="#A6AAA8" transform="matrix(1.00, 0.00, -0.00, -1.00, 1712.4, 164.0)"> </text><text xml:space="preserve" font-family="Helvetica-Light" font-size="50.0" fill="#A6AAA8" transform="matrix(1.00, 0.00, -0.00, -1.00, 1140.0, 104.0)">(</text><text xml:space="preserve" font-family="Helvetica-Light" font-size="50.0" fill="#A6AAA8" transform="matrix(1.00, 0.00, -0.00, -1.00, 1156.7, 104.0)">1</text><text xml:space="preserve" font-family="Helvetica-Light" font-size="50.0" fill="#A6AAA8" transform="matrix(1.00, 0.00, -0.00, -1.00, 1184.5, 104.0)">0</text><text xml:space="preserve" font-family="Helvetica-Light" font-size="50.0" fill="#A6AAA8" transform="matrix(1.00, 0.00, -0.00, -1.00, 1212.2, 104.0)"> </text><text xml:space="preserve" font-family="Helvetica-Light" font-size="50.0" fill="#A6AAA8" transform="matrix(1.00, 0.00, -0.00, -1.00, 1226.2, 104.0)">≤</text><text xml:space="preserve" font-family="Helvetica-Light" font-size="50.0" fill="#A6AAA8" transform="matrix(1.00, 0.00, -0.00, -1.00, 1254.5, 104.0)"> </text><text xml:space="preserve" font-family="Helvetica-Light" font-size="50.0" fill="#A6AAA8" transform="matrix(1.00, 0.00, -0.00, -1.00, 1268.5, 104.0)">Δ</text><text xml:space="preserve" font-family="Helvetica-Light" font-size="50.0" fill="#A6AAA8" transform="matrix(1.00, 0.00, -0.00, -1.00, 1302.2, 104.0)">Θ</text><text xml:space="preserve" font-family="Helvetica-Light" font-size="50.0" fill="#A6AAA8" transform="matrix(1.00, 0.00, -0.00, -1.00, 1339.2, 104.0)"> </text><text xml:space="preserve" font-family="Helvetica-Light" font-size="50.0" fill="#A6AAA8" transform="matrix(1.00, 0.00, -0.00, -1.00, 1353.1, 104.0)">≤</text><text xml:space="preserve" font-family="Helvetica-Light" font-size="50.0" fill="#A6AAA8" transform="matrix(1.00, 0.00, -0.00, -1.00, 1381.5, 104.0)"> </text><text xml:space="preserve" font-family="Helvetica-Light" font-size="50.0" fill="#A6AAA8" transform="matrix(1.00, 0.00, -0.00, -1.00, 1395.4, 104.0)">9</text><text xml:space="preserve" font-family="Helvetica-Light" font-size="50.0" fill="#A6AAA8" transform="matrix(1.00, 0.00, -0.00, -1.00, 1423.2, 104.0)">0</text><text xml:space="preserve" font-family="Helvetica-Light" font-size="50.0" fill="#A6AAA8" transform="matrix(1.00, 0.00, -0.00, -1.00, 1451.0, 104.0)">’</text><text xml:space="preserve" font-family="Helvetica-Light" font-size="50.0" fill="#A6AAA8" transform="matrix(1.00, 0.00, -0.00, -1.00, 1462.1, 104.0)">)</text><image xlink:href="../../BE28019E-2B97-427A-A634-F5FDB80897B3/assets/3583C15C2CFFB71670E3B397C769C1C8.png" width="750.00" height="493.00" transform="matrix(1.00, 0.00, -0.00, -1.00, 1134.0, 860.0)"></image><text xml:space="preserve" font-family="Helvetica-Bold" font-weight="bold" font-size="30.0" fill="#0065C0" transform="matrix(1.00, 0.00, -0.00, -1.00, 783.1, 812.1)">V</text><text xml:space="preserve" font-family="Helvetica-Bold" font-weight="bold" font-size="30.0" fill="#0065C0" transform="matrix(1.00, 0.00, -0.00, -1.00, 803.1, 812.1)">I</text><text xml:space="preserve" font-family="Helvetica-Bold" font-weight="bold" font-size="30.0" fill="#0065C0" transform="matrix(1.00, 0.00, -0.00, -1.00, 811.4, 812.1)">M</text><text xml:space="preserve" font-family="Helvetica-Bold" font-weight="bold" font-size="30.0" fill="#0065C0" transform="matrix(1.00, 0.00, -0.00, -1.00, 836.4, 812.1)">O</text><text xml:space="preserve" font-family="Helvetica-Bold" font-weight="bold" font-size="30.0" fill="#0065C0" transform="matrix(1.00, 0.00, -0.00, -1.00, 859.7, 812.1)">S</text><text xml:space="preserve" font-family="Helvetica-Bold" font-weight="bold" font-size="30.0" fill="#0065C0" transform="matrix(1.00, 0.00, -0.00, -1.00, 596.4, 776.1)">3</text><text xml:space="preserve" font-family="Helvetica-Bold" font-weight="bold" font-size="30.0" fill="#0065C0" transform="matrix(1.00, 0.00, -0.00, -1.00, 613.1, 776.1)">2</text><text xml:space="preserve" font-family="Helvetica-Bold" font-weight="bold" font-size="30.0" fill="#0065C0" transform="matrix(1.00, 0.00, -0.00, -1.00, 629.7, 776.1)"> </text><text xml:space="preserve" font-family="Helvetica-Bold" font-weight="bold" font-size="30.0" fill="#0065C0" transform="matrix(1.00, 0.00, -0.00, -1.00, 638.1, 776.1)">o</text><text xml:space="preserve" font-family="Helvetica-Bold" font-weight="bold" font-size="30.0" fill="#0065C0" transform="matrix(1.00, 0.00, -0.00, -1.00, 656.4, 776.1)">b</text><text xml:space="preserve" font-family="Helvetica-Bold" font-weight="bold" font-size="30.0" fill="#0065C0" transform="matrix(1.00, 0.00, -0.00, -1.00, 674.7, 776.1)">j</text><text xml:space="preserve" font-family="Helvetica-Bold" font-weight="bold" font-size="30.0" fill="#0065C0" transform="matrix(1.00, 0.00, -0.00, -1.00, 683.0, 776.1)">e</text><text xml:space="preserve" font-family="Helvetica-Bold" font-weight="bold" font-size="30.0" fill="#0065C0" transform="matrix(1.00, 0.00, -0.00, -1.00, 699.7, 776.1)">c</text><text xml:space="preserve" font-family="Helvetica-Bold" font-weight="bold" font-size="30.0" fill="#0065C0" transform="matrix(1.00, 0.00, -0.00, -1.00, 716.4, 776.1)">t</text><text xml:space="preserve" font-family="Helvetica-Bold" font-weight="bold" font-size="30.0" fill="#0065C0" transform="matrix(1.00, 0.00, -0.00, -1.00, 726.4, 776.1)">s</text><text xml:space="preserve" font-family="Helvetica-Bold" font-weight="bold" font-size="30.0" fill="#0065C0" transform="matrix(1.00, 0.00, -0.00, -1.00, 743.1, 776.1)">/</text><text xml:space="preserve" font-family="Helvetica-Bold" font-weight="bold" font-size="30.0" fill="#0065C0" transform="matrix(1.00, 0.00, -0.00, -1.00, 751.4, 776.1)">q</text><text xml:space="preserve" font-family="Helvetica-Bold" font-weight="bold" font-size="30.0" fill="#0065C0" transform="matrix(1.00, 0.00, -0.00, -1.00, 769.8, 776.1)">u</text><text xml:space="preserve" font-family="Helvetica-Bold" font-weight="bold" font-size="30.0" fill="#0065C0" transform="matrix(1.00, 0.00, -0.00, -1.00, 788.1, 776.1)">a</text><text xml:space="preserve" font-family="Helvetica-Bold" font-weight="bold" font-size="30.0" fill="#0065C0" transform="matrix(1.00, 0.00, -0.00, -1.00, 804.8, 776.1)">d</text><text xml:space="preserve" font-family="Helvetica-Bold" font-weight="bold" font-size="30.0" fill="#0065C0" transform="matrix(1.00, 0.00, -0.00, -1.00, 823.1, 776.1)">r</text><text xml:space="preserve" font-family="Helvetica-Bold" font-weight="bold" font-size="30.0" fill="#0065C0" transform="matrix(1.00, 0.00, -0.00, -1.00, 834.8, 776.1)">a</text><text xml:space="preserve" font-family="Helvetica-Bold" font-weight="bold" font-size="30.0" fill="#0065C0" transform="matrix(1.00, 0.00, -0.00, -1.00, 851.5, 776.1)">n</text><text xml:space="preserve" font-family="Helvetica-Bold" font-weight="bold" font-size="30.0" fill="#0065C0" transform="matrix(1.00, 0.00, -0.00, -1.00, 869.8, 776.1)">t</text></g></svg>