<?xml version="1.0" encoding="UTF-8" standalone="no"?><svg xmlns="http://www.w3.org/2000/svg" xmlns:xlink="http://www.w3.org/1999/xlink" clip-rule="evenodd" stroke-miterlimit="4.00" viewBox="0 0 204 37"><desc>SVG generated by Keynote</desc><defs></defs><g transform="matrix(1.00, 0.00, -0.00, -1.00, 0.0, 37.0)"><text xml:space="preserve" font-family="HelveticaNeue" font-size="36.0" fill="#FEFFFF" transform="matrix(1.00, 0.00, -0.00, -1.00, 2.0, 9.0)">T</text><text xml:space="preserve" font-family="HelveticaNeue" font-size="36.0" fill="#FEFFFF" transform="matrix(1.00, 0.00, -0.00, -1.00, 18.7, 9.0)">e</text><text xml:space="preserve" font-family="HelveticaNeue" font-size="36.0" fill="#FEFFFF" transform="matrix(1.00, 0.00, -0.00, -1.00, 38.0, 9.0)">m</text><text xml:space="preserve" font-family="HelveticaNeue" font-size="36.0" fill="#FEFFFF" transform="matrix(1.00, 0.00, -0.00, -1.00, 68.7, 9.0)">p</text><text xml:space="preserve" font-family="HelveticaNeue" font-size="36.0" fill="#FEFFFF" transform="matrix(1.00, 0.00, -0.00, -1.00, 90.1, 9.0)">e</text><text xml:space="preserve" font-family="HelveticaNeue" font-size="36.0" fill="#FEFFFF" transform="matrix(1.00, 0.00, -0.00, -1.00, 109.4, 9.0)">r</text><text xml:space="preserve" font-family="HelveticaNeue" font-size="36.0" fill="#FEFFFF" transform="matrix(1.00, 0.00, -0.00, -1.00, 121.4, 9.0)">a</text><text xml:space="preserve" font-family="HelveticaNeue" font-size="36.0" fill="#FEFFFF" transform="matrix(1.00, 0.00, -0.00, -1.00, 140.7, 9.0)">t</text><text xml:space="preserve" font-family="HelveticaNeue" font-size="36.0" fill="#FEFFFF" transform="matrix(1.00, 0.00, -0.00, -1.00, 152.0, 9.0)">u</text><text xml:space="preserve" font-family="HelveticaNeue" font-size="36.0" fill="#FEFFFF" transform="matrix(1.00, 0.00, -0.00, -1.00, 172.1, 9.0)">r</text><text xml:space="preserve" font-family="HelveticaNeue" font-size="36.0" fill="#FEFFFF" transform="matrix(1.00, 0.00, -0.00, -1.00, 183.4, 9.0)">e</text></g></svg>