<?xml version="1.0" encoding="UTF-8" standalone="no"?><svg xmlns="http://www.w3.org/2000/svg" xmlns:xlink="http://www.w3.org/1999/xlink" clip-rule="evenodd" stroke-miterlimit="4.00" viewBox="0 0 1024 768"><desc>SVG generated by Keynote</desc><defs></defs><g transform="matrix(1.00, 0.00, -0.00, -1.00, 0.0, 768.0)"><path d="M 0.0 768.0 L 1024.0 768.0 L 1024.0 0.0 L 0.0 0.0 Z M 0.0 768.0 " fill="#000000"></path><text xml:space="preserve" font-family="Helvetica-Light" font-size="18.0" fill="#FEFFFF" transform="matrix(1.00, 0.00, -0.00, -1.00, 506.0, 17.0)">4</text><g><clipPath id="clip-186"><path d="M 122.0 670.0 L 902.0 670.0 L 902.0 67.0 L 122.0 67.0 Z M 122.1 670.1 "></path></clipPath><g clip-path="url(#clip-186)"><image xlink:href="../../39451CEE-E280-41CA-872D-216C9FC86FAF/assets/10A10264639072BB412C539169A6ABF1.png" width="356.00" height="540.00" transform="matrix(2.19, 0.00, -0.00, -2.19, 122.0, 670.0)"></image></g></g><text xml:space="preserve" font-family="Helvetica-Light" font-size="15.0" fill="#FEFFFF" transform="matrix(1.00, 0.00, -0.00, -1.00, 82.0, 40.0)">X</text><text xml:space="preserve" font-family="Helvetica-Light" font-size="15.0" fill="#FEFFFF" transform="matrix(1.00, 0.00, -0.00, -1.00, 91.2, 40.0)">-</text><text xml:space="preserve" font-family="Helvetica-Light" font-size="15.0" fill="#FEFFFF" transform="matrix(1.00, 0.00, -0.00, -1.00, 96.2, 40.0)">r</text><text xml:space="preserve" font-family="Helvetica-Light" font-size="15.0" fill="#FEFFFF" transform="matrix(1.00, 0.00, -0.00, -1.00, 101.2, 40.0)">a</text><text xml:space="preserve" font-family="Helvetica-Light" font-size="15.0" fill="#FEFFFF" transform="matrix(1.00, 0.00, -0.00, -1.00, 109.5, 40.0)">y</text><text xml:space="preserve" font-family="Helvetica-Light" font-size="15.0" fill="#FEFFFF" transform="matrix(1.00, 0.00, -0.00, -1.00, 117.0, 40.0)"> </text><text xml:space="preserve" font-family="Helvetica-Light" font-size="15.0" fill="#FEFFFF" transform="matrix(1.00, 0.00, -0.00, -1.00, 121.2, 40.0)">i</text><text xml:space="preserve" font-family="Helvetica-Light" font-size="15.0" fill="#FEFFFF" transform="matrix(1.00, 0.00, -0.00, -1.00, 124.5, 40.0)">m</text><text xml:space="preserve" font-family="Helvetica-Light" font-size="15.0" fill="#FEFFFF" transform="matrix(1.00, 0.00, -0.00, -1.00, 137.0, 40.0)">a</text><text xml:space="preserve" font-family="Helvetica-Light" font-size="15.0" fill="#FEFFFF" transform="matrix(1.00, 0.00, -0.00, -1.00, 145.3, 40.0)">g</text><text xml:space="preserve" font-family="Helvetica-Light" font-size="15.0" fill="#FEFFFF" transform="matrix(1.00, 0.00, -0.00, -1.00, 154.5, 40.0)">e</text><text xml:space="preserve" font-family="Helvetica-Light" font-size="15.0" fill="#FEFFFF" transform="matrix(1.00, 0.00, -0.00, -1.00, 162.8, 40.0)"> </text><text xml:space="preserve" font-family="Helvetica-Light" font-size="15.0" fill="#FEFFFF" transform="matrix(1.00, 0.00, -0.00, -1.00, 167.0, 40.0)">o</text><text xml:space="preserve" font-family="Helvetica-Light" font-size="15.0" fill="#FEFFFF" transform="matrix(1.00, 0.00, -0.00, -1.00, 175.3, 40.0)">f</text><text xml:space="preserve" font-family="Helvetica-Light" font-size="15.0" fill="#FEFFFF" transform="matrix(1.00, 0.00, -0.00, -1.00, 179.5, 40.0)"> </text><text xml:space="preserve" font-family="Helvetica-Light" font-size="15.0" fill="#FEFFFF" transform="matrix(1.00, 0.00, -0.00, -1.00, 183.7, 40.0)">t</text><text xml:space="preserve" font-family="Helvetica-Light" font-size="15.0" fill="#FEFFFF" transform="matrix(1.00, 0.00, -0.00, -1.00, 187.9, 40.0)">h</text><text xml:space="preserve" font-family="Helvetica-Light" font-size="15.0" fill="#FEFFFF" transform="matrix(1.00, 0.00, -0.00, -1.00, 196.2, 40.0)">e</text><text xml:space="preserve" font-family="Helvetica-Light" font-size="15.0" fill="#FEFFFF" transform="matrix(1.00, 0.00, -0.00, -1.00, 204.5, 40.0)"> </text><text xml:space="preserve" font-family="Helvetica-Light" font-size="15.0" fill="#FEFFFF" transform="matrix(1.00, 0.00, -0.00, -1.00, 208.7, 40.0)">c</text><text xml:space="preserve" font-family="Helvetica-Light" font-size="15.0" fill="#FEFFFF" transform="matrix(1.00, 0.00, -0.00, -1.00, 217.0, 40.0)">e</text><text xml:space="preserve" font-family="Helvetica-Light" font-size="15.0" fill="#FEFFFF" transform="matrix(1.00, 0.00, -0.00, -1.00, 225.4, 40.0)">n</text><text xml:space="preserve" font-family="Helvetica-Light" font-size="15.0" fill="#FEFFFF" transform="matrix(1.00, 0.00, -0.00, -1.00, 233.7, 40.0)">t</text><text xml:space="preserve" font-family="Helvetica-Light" font-size="15.0" fill="#FEFFFF" transform="matrix(1.00, 0.00, -0.00, -1.00, 237.9, 40.0)">r</text><text xml:space="preserve" font-family="Helvetica-Light" font-size="15.0" fill="#FEFFFF" transform="matrix(1.00, 0.00, -0.00, -1.00, 242.9, 40.0)">a</text><text xml:space="preserve" font-family="Helvetica-Light" font-size="15.0" fill="#FEFFFF" transform="matrix(1.00, 0.00, -0.00, -1.00, 251.2, 40.0)">l</text><text xml:space="preserve" font-family="Helvetica-Light" font-size="15.0" fill="#FEFFFF" transform="matrix(1.00, 0.00, -0.00, -1.00, 254.6, 40.0)"> </text><text xml:space="preserve" font-family="Helvetica-Light" font-size="15.0" fill="#FEFFFF" transform="matrix(1.00, 0.00, -0.00, -1.00, 258.7, 40.0)">1</text><text xml:space="preserve" font-family="Helvetica-Light" font-size="15.0" fill="#FEFFFF" transform="matrix(1.00, 0.00, -0.00, -1.00, 267.1, 40.0)">3</text><text xml:space="preserve" font-family="Helvetica-Light" font-size="15.0" fill="#FEFFFF" transform="matrix(1.00, 0.00, -0.00, -1.00, 275.4, 40.0)">0</text><text xml:space="preserve" font-family="Helvetica-Light" font-size="15.0" fill="#FEFFFF" transform="matrix(1.00, 0.00, -0.00, -1.00, 283.8, 40.0)"> </text><text xml:space="preserve" font-family="Helvetica-Light" font-size="15.0" fill="#FEFFFF" transform="matrix(1.00, 0.00, -0.00, -1.00, 287.9, 40.0)">×</text><text xml:space="preserve" font-family="Helvetica-Light" font-size="15.0" fill="#FEFFFF" transform="matrix(1.00, 0.00, -0.00, -1.00, 297.8, 40.0)"> </text><text xml:space="preserve" font-family="Helvetica-Light" font-size="15.0" fill="#FEFFFF" transform="matrix(1.00, 0.00, -0.00, -1.00, 302.0, 40.0)">1</text><text xml:space="preserve" font-family="Helvetica-Light" font-size="15.0" fill="#FEFFFF" transform="matrix(1.00, 0.00, -0.00, -1.00, 310.3, 40.0)">0</text><text xml:space="preserve" font-family="Helvetica-Light" font-size="15.0" fill="#FEFFFF" transform="matrix(1.00, 0.00, -0.00, -1.00, 318.7, 40.0)">0</text><text xml:space="preserve" font-family="Helvetica-Light" font-size="15.0" fill="#FEFFFF" transform="matrix(1.00, 0.00, -0.00, -1.00, 327.0, 40.0)"> </text><text xml:space="preserve" font-family="Helvetica-Light" font-size="15.0" fill="#FEFFFF" transform="matrix(1.00, 0.00, -0.00, -1.00, 331.2, 40.0)">k</text><text xml:space="preserve" font-family="Helvetica-Light" font-size="15.0" fill="#FEFFFF" transform="matrix(1.00, 0.00, -0.00, -1.00, 338.7, 40.0)">p</text><text xml:space="preserve" font-family="Helvetica-Light" font-size="15.0" fill="#FEFFFF" transform="matrix(1.00, 0.00, -0.00, -1.00, 347.8, 40.0)">c</text><text xml:space="preserve" font-family="Helvetica-Light" font-size="15.0" fill="#FEFFFF" transform="matrix(1.00, 0.00, -0.00, -1.00, 356.2, 40.0)"> </text><text xml:space="preserve" font-family="Helvetica-Light" font-size="15.0" fill="#FEFFFF" transform="matrix(1.00, 0.00, -0.00, -1.00, 360.4, 40.0)">o</text><text xml:space="preserve" font-family="Helvetica-Light" font-size="15.0" fill="#FEFFFF" transform="matrix(1.00, 0.00, -0.00, -1.00, 368.7, 40.0)">f</text><text xml:space="preserve" font-family="Helvetica-Light" font-size="15.0" fill="#FEFFFF" transform="matrix(1.00, 0.00, -0.00, -1.00, 372.9, 40.0)"> </text><text xml:space="preserve" font-family="Helvetica-Light" font-size="15.0" fill="#FEFFFF" transform="matrix(1.00, 0.00, -0.00, -1.00, 377.0, 40.0)">t</text><text xml:space="preserve" font-family="Helvetica-Light" font-size="15.0" fill="#FEFFFF" transform="matrix(1.00, 0.00, -0.00, -1.00, 381.2, 40.0)">h</text><text xml:space="preserve" font-family="Helvetica-Light" font-size="15.0" fill="#FEFFFF" transform="matrix(1.00, 0.00, -0.00, -1.00, 389.5, 40.0)">e</text><text xml:space="preserve" font-family="Helvetica-Light" font-size="15.0" fill="#FEFFFF" transform="matrix(1.00, 0.00, -0.00, -1.00, 397.9, 40.0)"> </text><text xml:space="preserve" font-family="Helvetica-Light" font-size="15.0" fill="#FEFFFF" transform="matrix(1.00, 0.00, -0.00, -1.00, 402.1, 40.0)">c</text><text xml:space="preserve" font-family="Helvetica-Light" font-size="15.0" fill="#FEFFFF" transform="matrix(1.00, 0.00, -0.00, -1.00, 410.4, 40.0)">l</text><text xml:space="preserve" font-family="Helvetica-Light" font-size="15.0" fill="#FEFFFF" transform="matrix(1.00, 0.00, -0.00, -1.00, 413.7, 40.0)">u</text><text xml:space="preserve" font-family="Helvetica-Light" font-size="15.0" fill="#FEFFFF" transform="matrix(1.00, 0.00, -0.00, -1.00, 422.1, 40.0)">s</text><text xml:space="preserve" font-family="Helvetica-Light" font-size="15.0" fill="#FEFFFF" transform="matrix(1.00, 0.00, -0.00, -1.00, 429.6, 40.0)">t</text><text xml:space="preserve" font-family="Helvetica-Light" font-size="15.0" fill="#FEFFFF" transform="matrix(1.00, 0.00, -0.00, -1.00, 433.7, 40.0)">e</text><text xml:space="preserve" font-family="Helvetica-Light" font-size="15.0" fill="#FEFFFF" transform="matrix(1.00, 0.00, -0.00, -1.00, 442.1, 40.0)">r</text><text xml:space="preserve" font-family="Helvetica-Light" font-size="15.0" fill="#FEFFFF" transform="matrix(1.00, 0.00, -0.00, -1.00, 445.7, 40.0)">.</text><text xml:space="preserve" font-family="Helvetica-Light" font-size="15.0" fill="#FEFFFF" transform="matrix(1.00, 0.00, -0.00, -1.00, 449.9, 40.0)"> </text><text xml:space="preserve" font-family="Helvetica-Light" font-size="15.0" fill="#FEFFFF" transform="matrix(1.00, 0.00, -0.00, -1.00, 454.0, 40.0)">T</text><text xml:space="preserve" font-family="Helvetica-Light" font-size="15.0" fill="#FEFFFF" transform="matrix(1.00, 0.00, -0.00, -1.00, 462.4, 40.0)">h</text><text xml:space="preserve" font-family="Helvetica-Light" font-size="15.0" fill="#FEFFFF" transform="matrix(1.00, 0.00, -0.00, -1.00, 470.7, 40.0)">e</text><text xml:space="preserve" font-family="Helvetica-Light" font-size="15.0" fill="#FEFFFF" transform="matrix(1.00, 0.00, -0.00, -1.00, 479.0, 40.0)"> </text><text xml:space="preserve" font-family="Helvetica-Light" font-size="15.0" fill="#FEFFFF" transform="matrix(1.00, 0.00, -0.00, -1.00, 483.2, 40.0)">0</text><text xml:space="preserve" font-family="Helvetica-Light" font-size="15.0" fill="#FEFFFF" transform="matrix(1.00, 0.00, -0.00, -1.00, 491.6, 40.0)">.</text><text xml:space="preserve" font-family="Helvetica-Light" font-size="15.0" fill="#FEFFFF" transform="matrix(1.00, 0.00, -0.00, -1.00, 495.7, 40.0)">5</text><text xml:space="preserve" font-family="Helvetica-Light" font-size="15.0" fill="#FEFFFF" transform="matrix(1.00, 0.00, -0.00, -1.00, 504.1, 40.0)">–</text><text xml:space="preserve" font-family="Helvetica-Light" font-size="15.0" fill="#FEFFFF" transform="matrix(1.00, 0.00, -0.00, -1.00, 511.6, 40.0)">7</text><text xml:space="preserve" font-family="Helvetica-Light" font-size="15.0" fill="#FEFFFF" transform="matrix(1.00, 0.00, -0.00, -1.00, 519.9, 40.0)"> </text><text xml:space="preserve" font-family="Helvetica-Light" font-size="15.0" fill="#FEFFFF" transform="matrix(1.00, 0.00, -0.00, -1.00, 524.1, 40.0)">k</text><text xml:space="preserve" font-family="Helvetica-Light" font-size="15.0" fill="#FEFFFF" transform="matrix(1.00, 0.00, -0.00, -1.00, 531.6, 40.0)">e</text><text xml:space="preserve" font-family="Helvetica-Light" font-size="15.0" fill="#FEFFFF" transform="matrix(1.00, 0.00, -0.00, -1.00, 539.9, 40.0)">V</text><text xml:space="preserve" font-family="Helvetica-Light" font-size="15.0" fill="#FEFFFF" transform="matrix(1.00, 0.00, -0.00, -1.00, 549.1, 40.0)"> </text><text xml:space="preserve" font-family="Helvetica-Light" font-size="15.0" fill="#FEFFFF" transform="matrix(1.00, 0.00, -0.00, -1.00, 553.3, 40.0)">i</text><text xml:space="preserve" font-family="Helvetica-Light" font-size="15.0" fill="#FEFFFF" transform="matrix(1.00, 0.00, -0.00, -1.00, 556.6, 40.0)">m</text><text xml:space="preserve" font-family="Helvetica-Light" font-size="15.0" fill="#FEFFFF" transform="matrix(1.00, 0.00, -0.00, -1.00, 569.1, 40.0)">a</text><text xml:space="preserve" font-family="Helvetica-Light" font-size="15.0" fill="#FEFFFF" transform="matrix(1.00, 0.00, -0.00, -1.00, 577.4, 40.0)">g</text><text xml:space="preserve" font-family="Helvetica-Light" font-size="15.0" fill="#FEFFFF" transform="matrix(1.00, 0.00, -0.00, -1.00, 586.6, 40.0)">e</text><text xml:space="preserve" font-family="Helvetica-Light" font-size="15.0" fill="#FEFFFF" transform="matrix(1.00, 0.00, -0.00, -1.00, 594.9, 40.0)"> </text><text xml:space="preserve" font-family="Helvetica-Light" font-size="15.0" fill="#FEFFFF" transform="matrix(1.00, 0.00, -0.00, -1.00, 599.1, 40.0)">i</text><text xml:space="preserve" font-family="Helvetica-Light" font-size="15.0" fill="#FEFFFF" transform="matrix(1.00, 0.00, -0.00, -1.00, 602.4, 40.0)">s</text><text xml:space="preserve" font-family="Helvetica-Light" font-size="15.0" fill="#FEFFFF" transform="matrix(1.00, 0.00, -0.00, -1.00, 609.9, 40.0)"> </text><text xml:space="preserve" font-family="Helvetica-Light" font-size="15.0" fill="#FEFFFF" transform="matrix(1.00, 0.00, -0.00, -1.00, 614.1, 40.0)">b</text><text xml:space="preserve" font-family="Helvetica-Light" font-size="15.0" fill="#FEFFFF" transform="matrix(1.00, 0.00, -0.00, -1.00, 623.3, 40.0)">a</text><text xml:space="preserve" font-family="Helvetica-Light" font-size="15.0" fill="#FEFFFF" transform="matrix(1.00, 0.00, -0.00, -1.00, 631.6, 40.0)">c</text><text xml:space="preserve" font-family="Helvetica-Light" font-size="15.0" fill="#FEFFFF" transform="matrix(1.00, 0.00, -0.00, -1.00, 639.9, 40.0)">k</text><text xml:space="preserve" font-family="Helvetica-Light" font-size="15.0" fill="#FEFFFF" transform="matrix(1.00, 0.00, -0.00, -1.00, 647.4, 40.0)">g</text><text xml:space="preserve" font-family="Helvetica-Light" font-size="15.0" fill="#FEFFFF" transform="matrix(1.00, 0.00, -0.00, -1.00, 656.6, 40.0)">r</text><text xml:space="preserve" font-family="Helvetica-Light" font-size="15.0" fill="#FEFFFF" transform="matrix(1.00, 0.00, -0.00, -1.00, 661.3, 40.0)">o</text><text xml:space="preserve" font-family="Helvetica-Light" font-size="15.0" fill="#FEFFFF" transform="matrix(1.00, 0.00, -0.00, -1.00, 669.7, 40.0)">u</text><text xml:space="preserve" font-family="Helvetica-Light" font-size="15.0" fill="#FEFFFF" transform="matrix(1.00, 0.00, -0.00, -1.00, 678.0, 40.0)">n</text><text xml:space="preserve" font-family="Helvetica-Light" font-size="15.0" fill="#FEFFFF" transform="matrix(1.00, 0.00, -0.00, -1.00, 686.3, 40.0)">d</text><text xml:space="preserve" font-family="Helvetica-Light" font-size="15.0" fill="#FEFFFF" transform="matrix(1.00, 0.00, -0.00, -1.00, 695.5, 40.0)"> </text><text xml:space="preserve" font-family="Helvetica-Light" font-size="15.0" fill="#FEFFFF" transform="matrix(1.00, 0.00, -0.00, -1.00, 699.7, 40.0)">s</text><text xml:space="preserve" font-family="Helvetica-Light" font-size="15.0" fill="#FEFFFF" transform="matrix(1.00, 0.00, -0.00, -1.00, 707.2, 40.0)">u</text><text xml:space="preserve" font-family="Helvetica-Light" font-size="15.0" fill="#FEFFFF" transform="matrix(1.00, 0.00, -0.00, -1.00, 715.5, 40.0)">b</text><text xml:space="preserve" font-family="Helvetica-Light" font-size="15.0" fill="#FEFFFF" transform="matrix(1.00, 0.00, -0.00, -1.00, 724.7, 40.0)">t</text><text xml:space="preserve" font-family="Helvetica-Light" font-size="15.0" fill="#FEFFFF" transform="matrix(1.00, 0.00, -0.00, -1.00, 728.9, 40.0)">r</text><text xml:space="preserve" font-family="Helvetica-Light" font-size="15.0" fill="#FEFFFF" transform="matrix(1.00, 0.00, -0.00, -1.00, 733.9, 40.0)">a</text><text xml:space="preserve" font-family="Helvetica-Light" font-size="15.0" fill="#FEFFFF" transform="matrix(1.00, 0.00, -0.00, -1.00, 742.2, 40.0)">c</text><text xml:space="preserve" font-family="Helvetica-Light" font-size="15.0" fill="#FEFFFF" transform="matrix(1.00, 0.00, -0.00, -1.00, 750.5, 40.0)">t</text><text xml:space="preserve" font-family="Helvetica-Light" font-size="15.0" fill="#FEFFFF" transform="matrix(1.00, 0.00, -0.00, -1.00, 754.7, 40.0)">e</text><text xml:space="preserve" font-family="Helvetica-Light" font-size="15.0" fill="#FEFFFF" transform="matrix(1.00, 0.00, -0.00, -1.00, 763.0, 40.0)">d</text><text xml:space="preserve" font-family="Helvetica-Light" font-size="15.0" fill="#FEFFFF" transform="matrix(1.00, 0.00, -0.00, -1.00, 772.2, 40.0)"> </text><text xml:space="preserve" font-family="Helvetica-Light" font-size="15.0" fill="#FEFFFF" transform="matrix(1.00, 0.00, -0.00, -1.00, 776.4, 40.0)">a</text><text xml:space="preserve" font-family="Helvetica-Light" font-size="15.0" fill="#FEFFFF" transform="matrix(1.00, 0.00, -0.00, -1.00, 784.7, 40.0)">n</text><text xml:space="preserve" font-family="Helvetica-Light" font-size="15.0" fill="#FEFFFF" transform="matrix(1.00, 0.00, -0.00, -1.00, 793.1, 40.0)">d</text><text xml:space="preserve" font-family="Helvetica-Light" font-size="15.0" fill="#FEFFFF" transform="matrix(1.00, 0.00, -0.00, -1.00, 802.2, 40.0)"> </text><text xml:space="preserve" font-family="Helvetica-Light" font-size="15.0" fill="#FEFFFF" transform="matrix(1.00, 0.00, -0.00, -1.00, 806.4, 40.0)">e</text><text xml:space="preserve" font-family="Helvetica-Light" font-size="15.0" fill="#FEFFFF" transform="matrix(1.00, 0.00, -0.00, -1.00, 814.7, 40.0)">x</text><text xml:space="preserve" font-family="Helvetica-Light" font-size="15.0" fill="#FEFFFF" transform="matrix(1.00, 0.00, -0.00, -1.00, 822.2, 40.0)">p</text><text xml:space="preserve" font-family="Helvetica-Light" font-size="15.0" fill="#FEFFFF" transform="matrix(1.00, 0.00, -0.00, -1.00, 831.4, 40.0)">o</text><text xml:space="preserve" font-family="Helvetica-Light" font-size="15.0" fill="#FEFFFF" transform="matrix(1.00, 0.00, -0.00, -1.00, 839.7, 40.0)">s</text><text xml:space="preserve" font-family="Helvetica-Light" font-size="15.0" fill="#FEFFFF" transform="matrix(1.00, 0.00, -0.00, -1.00, 847.2, 40.0)">u</text><text xml:space="preserve" font-family="Helvetica-Light" font-size="15.0" fill="#FEFFFF" transform="matrix(1.00, 0.00, -0.00, -1.00, 855.6, 40.0)">r</text><text xml:space="preserve" font-family="Helvetica-Light" font-size="15.0" fill="#FEFFFF" transform="matrix(1.00, 0.00, -0.00, -1.00, 860.3, 40.0)">e</text><text xml:space="preserve" font-family="Helvetica-Light" font-size="15.0" fill="#FEFFFF" transform="matrix(1.00, 0.00, -0.00, -1.00, 868.6, 40.0)"> </text><text xml:space="preserve" font-family="Helvetica-Light" font-size="15.0" fill="#FEFFFF" transform="matrix(1.00, 0.00, -0.00, -1.00, 872.8, 40.0)">c</text><text xml:space="preserve" font-family="Helvetica-Light" font-size="15.0" fill="#FEFFFF" transform="matrix(1.00, 0.00, -0.00, -1.00, 881.2, 40.0)">o</text><text xml:space="preserve" font-family="Helvetica-Light" font-size="15.0" fill="#FEFFFF" transform="matrix(1.00, 0.00, -0.00, -1.00, 889.5, 40.0)">r</text><text xml:space="preserve" font-family="Helvetica-Light" font-size="15.0" fill="#FEFFFF" transform="matrix(1.00, 0.00, -0.00, -1.00, 894.5, 40.0)">r</text><text xml:space="preserve" font-family="Helvetica-Light" font-size="15.0" fill="#FEFFFF" transform="matrix(1.00, 0.00, -0.00, -1.00, 899.2, 40.0)">e</text><text xml:space="preserve" font-family="Helvetica-Light" font-size="15.0" fill="#FEFFFF" transform="matrix(1.00, 0.00, -0.00, -1.00, 907.6, 40.0)">c</text><text xml:space="preserve" font-family="Helvetica-Light" font-size="15.0" fill="#FEFFFF" transform="matrix(1.00, 0.00, -0.00, -1.00, 915.9, 40.0)">t</text><text xml:space="preserve" font-family="Helvetica-Light" font-size="15.0" fill="#FEFFFF" transform="matrix(1.00, 0.00, -0.00, -1.00, 920.1, 40.0)">e</text><text xml:space="preserve" font-family="Helvetica-Light" font-size="15.0" fill="#FEFFFF" transform="matrix(1.00, 0.00, -0.00, -1.00, 928.4, 40.0)">d</text><text xml:space="preserve" font-family="Helvetica-Light" font-size="15.0" fill="#FEFFFF" transform="matrix(1.00, 0.00, -0.00, -1.00, 937.6, 40.0)">.</text><text xml:space="preserve" font-family="Helvetica-Light" font-size="48.0" fill="#FEFFFF" transform="matrix(1.00, 0.00, -0.00, -1.00, 381.0, 701.0)">X</text><text xml:space="preserve" font-family="Helvetica-Light" font-size="48.0" fill="#FEFFFF" transform="matrix(1.00, 0.00, -0.00, -1.00, 410.3, 701.0)">-</text><text xml:space="preserve" font-family="Helvetica-Light" font-size="48.0" fill="#FEFFFF" transform="matrix(1.00, 0.00, -0.00, -1.00, 426.3, 701.0)">r</text><text xml:space="preserve" font-family="Helvetica-Light" font-size="48.0" fill="#FEFFFF" transform="matrix(1.00, 0.00, -0.00, -1.00, 442.3, 701.0)">a</text><text xml:space="preserve" font-family="Helvetica-Light" font-size="48.0" fill="#FEFFFF" transform="matrix(1.00, 0.00, -0.00, -1.00, 469.0, 701.0)">y</text><text xml:space="preserve" font-family="Helvetica-Light" font-size="48.0" fill="#FEFFFF" transform="matrix(1.00, 0.00, -0.00, -1.00, 493.0, 701.0)"> </text><text xml:space="preserve" font-family="Helvetica-Light" font-size="48.0" fill="#FEFFFF" transform="matrix(1.00, 0.00, -0.00, -1.00, 506.3, 701.0)">I</text><text xml:space="preserve" font-family="Helvetica-Light" font-size="48.0" fill="#FEFFFF" transform="matrix(1.00, 0.00, -0.00, -1.00, 519.7, 701.0)">m</text><text xml:space="preserve" font-family="Helvetica-Light" font-size="48.0" fill="#FEFFFF" transform="matrix(1.00, 0.00, -0.00, -1.00, 559.7, 701.0)">a</text><text xml:space="preserve" font-family="Helvetica-Light" font-size="48.0" fill="#FEFFFF" transform="matrix(1.00, 0.00, -0.00, -1.00, 586.3, 701.0)">g</text><text xml:space="preserve" font-family="Helvetica-Light" font-size="48.0" fill="#FEFFFF" transform="matrix(1.00, 0.00, -0.00, -1.00, 615.7, 701.0)">e</text><text xml:space="preserve" font-family="Helvetica-Light" font-size="25.0" fill="#FEFFFF" transform="matrix(1.00, 0.00, -0.00, -1.00, 166.0, 627.0)">8</text><text xml:space="preserve" font-family="Helvetica-Light" font-size="25.0" fill="#FEFFFF" transform="matrix(1.00, 0.00, -0.00, -1.00, 179.9, 627.0)">x</text><text xml:space="preserve" font-family="Helvetica-Light" font-size="25.0" fill="#FEFFFF" transform="matrix(1.00, 0.00, -0.00, -1.00, 192.4, 627.0)">1</text><text xml:space="preserve" font-family="Helvetica-Light" font-size="25.0" fill="#FEFFFF" transform="matrix(1.00, 0.00, -0.00, -1.00, 206.3, 627.0)">0</text><text xml:space="preserve" font-family="Helvetica-Light" font-size="16.7" fill="#FEFFFF" transform="matrix(1.00, 0.00, -0.00, -1.00, 220.2, 633.4)">6</text><text xml:space="preserve" font-family="Helvetica-Light" font-size="25.0" fill="#FEFFFF" transform="matrix(1.00, 0.00, -0.00, -1.00, 229.5, 627.0)"> </text><text xml:space="preserve" font-family="Helvetica-Light" font-size="25.0" fill="#FEFFFF" transform="matrix(1.00, 0.00, -0.00, -1.00, 236.4, 627.0)">c</text><text xml:space="preserve" font-family="Helvetica-Light" font-size="25.0" fill="#FEFFFF" transform="matrix(1.00, 0.00, -0.00, -1.00, 250.3, 627.0)">o</text><text xml:space="preserve" font-family="Helvetica-Light" font-size="25.0" fill="#FEFFFF" transform="matrix(1.00, 0.00, -0.00, -1.00, 264.2, 627.0)">u</text><text xml:space="preserve" font-family="Helvetica-Light" font-size="25.0" fill="#FEFFFF" transform="matrix(1.00, 0.00, -0.00, -1.00, 278.1, 627.0)">n</text><text xml:space="preserve" font-family="Helvetica-Light" font-size="25.0" fill="#FEFFFF" transform="matrix(1.00, 0.00, -0.00, -1.00, 292.0, 627.0)">t</text><text xml:space="preserve" font-family="Helvetica-Light" font-size="25.0" fill="#FEFFFF" transform="matrix(1.00, 0.00, -0.00, -1.00, 299.0, 627.0)">s</text><g><clipPath id="clip-187"><path d="M 790.1 136.2 L 1006.0 136.2 L 1006.0 355.9 L 790.1 355.9 Z M 790.1 136.2 "></path></clipPath><g clip-path="url(#clip-187)"><image xlink:href="ED9A5BF786AFC4F2B3759925ABDE7FFE.png" width="216.00" height="220.00" transform="matrix(1.00, 0.00, -0.00, -1.00, 790.0, 356.0)"></image></g></g><g><clipPath id="clip-188"><path d="M 814.8 159.2 L 981.3 159.2 L 981.3 185.2 L 814.8 185.2 Z M 814.8 159.2 "></path></clipPath><g clip-path="url(#clip-188)"><text xml:space="preserve" font-family="Helvetica-Light" font-size="15.0" fill="#FEFFFF" transform="matrix(1.00, 0.00, -0.00, -1.00, 819.0, 167.0)">M</text><text xml:space="preserve" font-family="Helvetica-Light" font-size="15.0" fill="#FEFFFF" transform="matrix(1.00, 0.00, -0.00, -1.00, 831.5, 167.0)">a</text><text xml:space="preserve" font-family="Helvetica-Light" font-size="15.0" fill="#FEFFFF" transform="matrix(1.00, 0.00, -0.00, -1.00, 839.8, 167.0)">r</text><text xml:space="preserve" font-family="Helvetica-Light" font-size="15.0" fill="#FEFFFF" transform="matrix(1.00, 0.00, -0.00, -1.00, 844.8, 167.0)">k</text><text xml:space="preserve" font-family="Helvetica-Light" font-size="15.0" fill="#FEFFFF" transform="matrix(1.00, 0.00, -0.00, -1.00, 852.3, 167.0)">e</text><text xml:space="preserve" font-family="Helvetica-Light" font-size="15.0" fill="#FEFFFF" transform="matrix(1.00, 0.00, -0.00, -1.00, 860.7, 167.0)">v</text><text xml:space="preserve" font-family="Helvetica-Light" font-size="15.0" fill="#FEFFFF" transform="matrix(1.00, 0.00, -0.00, -1.00, 868.2, 167.0)">i</text><text xml:space="preserve" font-family="Helvetica-Light" font-size="15.0" fill="#FEFFFF" transform="matrix(1.00, 0.00, -0.00, -1.00, 871.5, 167.0)">t</text><text xml:space="preserve" font-family="Helvetica-Light" font-size="15.0" fill="#FEFFFF" transform="matrix(1.00, 0.00, -0.00, -1.00, 875.7, 167.0)">c</text><text xml:space="preserve" font-family="Helvetica-Light" font-size="15.0" fill="#FEFFFF" transform="matrix(1.00, 0.00, -0.00, -1.00, 884.0, 167.0)">h</text><text xml:space="preserve" font-family="Helvetica-Light" font-size="15.0" fill="#FEFFFF" transform="matrix(1.00, 0.00, -0.00, -1.00, 892.4, 167.0)"> </text><text xml:space="preserve" font-family="Helvetica-Light" font-size="15.0" fill="#FEFFFF" transform="matrix(1.00, 0.00, -0.00, -1.00, 896.5, 167.0)">e</text><text xml:space="preserve" font-family="Helvetica-Light" font-size="15.0" fill="#FEFFFF" transform="matrix(1.00, 0.00, -0.00, -1.00, 904.9, 167.0)">t</text><text xml:space="preserve" font-family="Helvetica-Light" font-size="15.0" fill="#FEFFFF" transform="matrix(1.00, 0.00, -0.00, -1.00, 909.0, 167.0)"> </text><text xml:space="preserve" font-family="Helvetica-Light" font-size="15.0" fill="#FEFFFF" transform="matrix(1.00, 0.00, -0.00, -1.00, 913.2, 167.0)">a</text><text xml:space="preserve" font-family="Helvetica-Light" font-size="15.0" fill="#FEFFFF" transform="matrix(1.00, 0.00, -0.00, -1.00, 921.5, 167.0)">l</text><text xml:space="preserve" font-family="Helvetica-Light" font-size="15.0" fill="#FEFFFF" transform="matrix(1.00, 0.00, -0.00, -1.00, 924.9, 167.0)">.</text><text xml:space="preserve" font-family="Helvetica-Light" font-size="15.0" fill="#FEFFFF" transform="matrix(1.00, 0.00, -0.00, -1.00, 929.0, 167.0)"> </text><text xml:space="preserve" font-family="Helvetica-Light" font-size="15.0" fill="#FEFFFF" transform="matrix(1.00, 0.00, -0.00, -1.00, 933.2, 167.0)">(</text><text xml:space="preserve" font-family="Helvetica-Light" font-size="15.0" fill="#FEFFFF" transform="matrix(1.00, 0.00, -0.00, -1.00, 938.2, 167.0)">2</text><text xml:space="preserve" font-family="Helvetica-Light" font-size="15.0" fill="#FEFFFF" transform="matrix(1.00, 0.00, -0.00, -1.00, 946.5, 167.0)">0</text><text xml:space="preserve" font-family="Helvetica-Light" font-size="15.0" fill="#FEFFFF" transform="matrix(1.00, 0.00, -0.00, -1.00, 954.9, 167.0)">0</text><text xml:space="preserve" font-family="Helvetica-Light" font-size="15.0" fill="#FEFFFF" transform="matrix(1.00, 0.00, -0.00, -1.00, 963.2, 167.0)">7</text><text xml:space="preserve" font-family="Helvetica-Light" font-size="15.0" fill="#FEFFFF" transform="matrix(1.00, 0.00, -0.00, -1.00, 971.6, 167.0)">)</text></g></g></g></svg>