<?xml version="1.0" encoding="UTF-8" standalone="no"?><svg xmlns="http://www.w3.org/2000/svg" xmlns:xlink="http://www.w3.org/1999/xlink" clip-rule="evenodd" stroke-miterlimit="4.00" viewBox="0 0 74 15"><desc>SVG generated by Keynote</desc><defs></defs><g transform="matrix(1.00, 0.00, -0.00, -1.00, 0.0, 15.0)"><text xml:space="preserve" font-family="Helvetica-Light" font-size="15.0" fill="#FEFFFF" transform="matrix(1.00, 0.00, -0.00, -1.00, 0.0, 2.0)">1</text><text xml:space="preserve" font-family="Helvetica-Light" font-size="15.0" fill="#FEFFFF" transform="matrix(1.00, 0.00, -0.00, -1.00, 8.3, 2.0)">E</text><text xml:space="preserve" font-family="Helvetica-Light" font-size="15.0" fill="#FEFFFF" transform="matrix(1.00, 0.00, -0.00, -1.00, 17.5, 2.0)">0</text><text xml:space="preserve" font-family="Helvetica-Light" font-size="15.0" fill="#FEFFFF" transform="matrix(1.00, 0.00, -0.00, -1.00, 25.8, 2.0)">6</text><text xml:space="preserve" font-family="Helvetica-Light" font-size="15.0" fill="#FEFFFF" transform="matrix(1.00, 0.00, -0.00, -1.00, 34.2, 2.0)">5</text><text xml:space="preserve" font-family="Helvetica-Light" font-size="15.0" fill="#FEFFFF" transform="matrix(1.00, 0.00, -0.00, -1.00, 42.5, 2.0)">7</text><text xml:space="preserve" font-family="Helvetica-Light" font-size="15.0" fill="#FEFFFF" transform="matrix(1.00, 0.00, -0.00, -1.00, 50.9, 2.0)">-</text><text xml:space="preserve" font-family="Helvetica-Light" font-size="15.0" fill="#FEFFFF" transform="matrix(1.00, 0.00, -0.00, -1.00, 55.9, 2.0)">5</text><text xml:space="preserve" font-family="Helvetica-Light" font-size="15.0" fill="#FEFFFF" transform="matrix(1.00, 0.00, -0.00, -1.00, 64.2, 2.0)">6</text></g></svg>