<?xml version="1.0" encoding="UTF-8" standalone="no"?><svg xmlns="http://www.w3.org/2000/svg" xmlns:xlink="http://www.w3.org/1999/xlink" clip-rule="evenodd" stroke-miterlimit="4.00" viewBox="0 0 1024 768"><desc>SVG generated by Keynote</desc><defs></defs><g transform="matrix(1.00, 0.00, -0.00, -1.00, 0.0, 768.0)"><path d="M 0.0 768.0 L 1024.0 768.0 L 1024.0 0.0 L 0.0 0.0 Z M 0.0 768.0 " fill="#000000"></path><text xml:space="preserve" font-family="Helvetica-Light" font-size="59.2" fill="#FEFFFF" transform="matrix(1.00, 0.00, -0.00, -1.00, 80.0, 684.0)">T</text><text xml:space="preserve" font-family="Helvetica-Light" font-size="59.2" fill="#FEFFFF" transform="matrix(1.00, 0.00, -0.00, -1.00, 106.3, 684.0)">e</text><text xml:space="preserve" font-family="Helvetica-Light" font-size="59.2" fill="#FEFFFF" transform="matrix(1.00, 0.00, -0.00, -1.00, 139.3, 684.0)">m</text><text xml:space="preserve" font-family="Helvetica-Light" font-size="59.2" fill="#FEFFFF" transform="matrix(1.00, 0.00, -0.00, -1.00, 188.6, 684.0)">p</text><text xml:space="preserve" font-family="Helvetica-Light" font-size="59.2" fill="#FEFFFF" transform="matrix(1.00, 0.00, -0.00, -1.00, 224.7, 684.0)">e</text><text xml:space="preserve" font-family="Helvetica-Light" font-size="59.2" fill="#FEFFFF" transform="matrix(1.00, 0.00, -0.00, -1.00, 257.7, 684.0)">r</text><text xml:space="preserve" font-family="Helvetica-Light" font-size="59.2" fill="#FEFFFF" transform="matrix(1.00, 0.00, -0.00, -1.00, 277.4, 684.0)">a</text><text xml:space="preserve" font-family="Helvetica-Light" font-size="59.2" fill="#FEFFFF" transform="matrix(1.00, 0.00, -0.00, -1.00, 310.3, 684.0)">t</text><text xml:space="preserve" font-family="Helvetica-Light" font-size="59.2" fill="#FEFFFF" transform="matrix(1.00, 0.00, -0.00, -1.00, 326.7, 684.0)">u</text><text xml:space="preserve" font-family="Helvetica-Light" font-size="59.2" fill="#FEFFFF" transform="matrix(1.00, 0.00, -0.00, -1.00, 359.7, 684.0)">r</text><text xml:space="preserve" font-family="Helvetica-Light" font-size="59.2" fill="#FEFFFF" transform="matrix(1.00, 0.00, -0.00, -1.00, 378.3, 684.0)">e</text><text xml:space="preserve" font-family="Helvetica-Light" font-size="59.2" fill="#FEFFFF" transform="matrix(1.00, 0.00, -0.00, -1.00, 411.2, 684.0)"> </text><text xml:space="preserve" font-family="Helvetica-Light" font-size="59.2" fill="#FEFFFF" transform="matrix(1.00, 0.00, -0.00, -1.00, 427.7, 684.0)">a</text><text xml:space="preserve" font-family="Helvetica-Light" font-size="59.2" fill="#FEFFFF" transform="matrix(1.00, 0.00, -0.00, -1.00, 460.6, 684.0)">n</text><text xml:space="preserve" font-family="Helvetica-Light" font-size="59.2" fill="#FEFFFF" transform="matrix(1.00, 0.00, -0.00, -1.00, 493.5, 684.0)">d</text><text xml:space="preserve" font-family="Helvetica-Light" font-size="59.2" fill="#FEFFFF" transform="matrix(1.00, 0.00, -0.00, -1.00, 529.7, 684.0)"> </text><text xml:space="preserve" font-family="Helvetica-Light" font-size="59.2" fill="#FEFFFF" transform="matrix(1.00, 0.00, -0.00, -1.00, 546.1, 684.0)">M</text><text xml:space="preserve" font-family="Helvetica-Light" font-size="59.2" fill="#FEFFFF" transform="matrix(1.00, 0.00, -0.00, -1.00, 595.5, 684.0)">e</text><text xml:space="preserve" font-family="Helvetica-Light" font-size="59.2" fill="#FEFFFF" transform="matrix(1.00, 0.00, -0.00, -1.00, 628.4, 684.0)">t</text><text xml:space="preserve" font-family="Helvetica-Light" font-size="59.2" fill="#FEFFFF" transform="matrix(1.00, 0.00, -0.00, -1.00, 644.8, 684.0)">a</text><text xml:space="preserve" font-family="Helvetica-Light" font-size="59.2" fill="#FEFFFF" transform="matrix(1.00, 0.00, -0.00, -1.00, 677.7, 684.0)">l</text><text xml:space="preserve" font-family="Helvetica-Light" font-size="59.2" fill="#FEFFFF" transform="matrix(1.00, 0.00, -0.00, -1.00, 690.9, 684.0)">l</text><text xml:space="preserve" font-family="Helvetica-Light" font-size="59.2" fill="#FEFFFF" transform="matrix(1.00, 0.00, -0.00, -1.00, 704.0, 684.0)">i</text><text xml:space="preserve" font-family="Helvetica-Light" font-size="59.2" fill="#FEFFFF" transform="matrix(1.00, 0.00, -0.00, -1.00, 717.2, 684.0)">c</text><text xml:space="preserve" font-family="Helvetica-Light" font-size="59.2" fill="#FEFFFF" transform="matrix(1.00, 0.00, -0.00, -1.00, 750.1, 684.0)">i</text><text xml:space="preserve" font-family="Helvetica-Light" font-size="59.2" fill="#FEFFFF" transform="matrix(1.00, 0.00, -0.00, -1.00, 763.2, 684.0)">t</text><text xml:space="preserve" font-family="Helvetica-Light" font-size="59.2" fill="#FEFFFF" transform="matrix(1.00, 0.00, -0.00, -1.00, 779.7, 684.0)">y</text><text xml:space="preserve" font-family="Helvetica-Light" font-size="59.2" fill="#FEFFFF" transform="matrix(1.00, 0.00, -0.00, -1.00, 809.3, 684.0)"> </text><text xml:space="preserve" font-family="Helvetica-Light" font-size="59.2" fill="#FEFFFF" transform="matrix(1.00, 0.00, -0.00, -1.00, 825.7, 684.0)">M</text><text xml:space="preserve" font-family="Helvetica-Light" font-size="59.2" fill="#FEFFFF" transform="matrix(1.00, 0.00, -0.00, -1.00, 875.1, 684.0)">a</text><text xml:space="preserve" font-family="Helvetica-Light" font-size="59.2" fill="#FEFFFF" transform="matrix(1.00, 0.00, -0.00, -1.00, 908.0, 684.0)">p</text><text xml:space="preserve" font-family="Helvetica-Light" font-size="18.0" fill="#FEFFFF" transform="matrix(1.00, 0.00, -0.00, -1.00, 501.0, 17.0)">1</text><text xml:space="preserve" font-family="Helvetica-Light" font-size="18.0" fill="#FEFFFF" transform="matrix(1.00, 0.00, -0.00, -1.00, 511.0, 17.0)">4</text><g><clipPath id="clip-219"><path d="M 514.0 658.0 L 1011.0 658.0 L 1011.0 254.0 L 514.0 254.0 Z M 513.9 657.8 "></path></clipPath><g clip-path="url(#clip-219)"><image xlink:href="2662F7EE6257A1F21A1D692CB8F437F0.png" width="469.00" height="769.00" transform="matrix(1.06, 0.00, -0.00, -1.06, 514.0, 1071.0)"></image></g></g><image xlink:href="026591C9D0EBF8048F879DF8263E1438.png" width="490.00" height="401.00" transform="matrix(1.00, 0.00, -0.00, -1.00, 13.0, 658.0)"></image><text xml:space="preserve" font-family="HelveticaNeue" font-size="36.0" fill="#FEFFFF" transform="matrix(1.00, 0.00, -0.00, -1.00, 158.0, 214.0)">T</text><text xml:space="preserve" font-family="HelveticaNeue" font-size="36.0" fill="#FEFFFF" transform="matrix(1.00, 0.00, -0.00, -1.00, 174.7, 214.0)">e</text><text xml:space="preserve" font-family="HelveticaNeue" font-size="36.0" fill="#FEFFFF" transform="matrix(1.00, 0.00, -0.00, -1.00, 194.0, 214.0)">m</text><text xml:space="preserve" font-family="HelveticaNeue" font-size="36.0" fill="#FEFFFF" transform="matrix(1.00, 0.00, -0.00, -1.00, 224.7, 214.0)">p</text><text xml:space="preserve" font-family="HelveticaNeue" font-size="36.0" fill="#FEFFFF" transform="matrix(1.00, 0.00, -0.00, -1.00, 246.1, 214.0)">e</text><text xml:space="preserve" font-family="HelveticaNeue" font-size="36.0" fill="#FEFFFF" transform="matrix(1.00, 0.00, -0.00, -1.00, 265.4, 214.0)">r</text><text xml:space="preserve" font-family="HelveticaNeue" font-size="36.0" fill="#FEFFFF" transform="matrix(1.00, 0.00, -0.00, -1.00, 277.4, 214.0)">a</text><text xml:space="preserve" font-family="HelveticaNeue" font-size="36.0" fill="#FEFFFF" transform="matrix(1.00, 0.00, -0.00, -1.00, 296.7, 214.0)">t</text><text xml:space="preserve" font-family="HelveticaNeue" font-size="36.0" fill="#FEFFFF" transform="matrix(1.00, 0.00, -0.00, -1.00, 308.0, 214.0)">u</text><text xml:space="preserve" font-family="HelveticaNeue" font-size="36.0" fill="#FEFFFF" transform="matrix(1.00, 0.00, -0.00, -1.00, 328.1, 214.0)">r</text><text xml:space="preserve" font-family="HelveticaNeue" font-size="36.0" fill="#FEFFFF" transform="matrix(1.00, 0.00, -0.00, -1.00, 339.4, 214.0)">e</text><text xml:space="preserve" font-family="HelveticaNeue" font-size="36.0" fill="#FEFFFF" transform="matrix(1.00, 0.00, -0.00, -1.00, 681.0, 214.0)">M</text><text xml:space="preserve" font-family="HelveticaNeue" font-size="36.0" fill="#FEFFFF" transform="matrix(1.00, 0.00, -0.00, -1.00, 712.4, 214.0)">e</text><text xml:space="preserve" font-family="HelveticaNeue" font-size="36.0" fill="#FEFFFF" transform="matrix(1.00, 0.00, -0.00, -1.00, 731.7, 214.0)">t</text><text xml:space="preserve" font-family="HelveticaNeue" font-size="36.0" fill="#FEFFFF" transform="matrix(1.00, 0.00, -0.00, -1.00, 743.0, 214.0)">a</text><text xml:space="preserve" font-family="HelveticaNeue" font-size="36.0" fill="#FEFFFF" transform="matrix(1.00, 0.00, -0.00, -1.00, 762.4, 214.0)">l</text><text xml:space="preserve" font-family="HelveticaNeue" font-size="36.0" fill="#FEFFFF" transform="matrix(1.00, 0.00, -0.00, -1.00, 770.4, 214.0)">l</text><text xml:space="preserve" font-family="HelveticaNeue" font-size="36.0" fill="#FEFFFF" transform="matrix(1.00, 0.00, -0.00, -1.00, 778.3, 214.0)">i</text><text xml:space="preserve" font-family="HelveticaNeue" font-size="36.0" fill="#FEFFFF" transform="matrix(1.00, 0.00, -0.00, -1.00, 786.3, 214.0)">c</text><text xml:space="preserve" font-family="HelveticaNeue" font-size="36.0" fill="#FEFFFF" transform="matrix(1.00, 0.00, -0.00, -1.00, 805.7, 214.0)">i</text><text xml:space="preserve" font-family="HelveticaNeue" font-size="36.0" fill="#FEFFFF" transform="matrix(1.00, 0.00, -0.00, -1.00, 813.7, 214.0)">t</text><text xml:space="preserve" font-family="HelveticaNeue" font-size="36.0" fill="#FEFFFF" transform="matrix(1.00, 0.00, -0.00, -1.00, 825.0, 214.0)">y</text><g><clipPath id="clip-220"><path d="M 879.0 227.0 L 993.0 227.0 L 993.0 138.0 L 879.0 138.0 Z M 879.2 226.7 "></path></clipPath><g clip-path="url(#clip-220)"><g><clipPath id="clip-221"><path d="M 879.2 138.3 L 993.5 138.3 L 993.5 226.7 L 879.2 226.7 Z M 879.2 138.3 "></path></clipPath><g clip-path="url(#clip-221)"><image xlink:href="../../39451CEE-E280-41CA-872D-216C9FC86FAF/assets/10A10264639072BB412C539169A6ABF1.png" width="356.00" height="540.00" transform="matrix(0.32, 0.00, -0.00, -0.32, 879.0, 227.0)"></image></g></g></g></g><g><clipPath id="clip-222"><path d="M 875.3 121.6 L 997.4 121.6 L 997.4 243.4 L 875.3 243.4 Z M 875.3 121.6 "></path></clipPath><g clip-path="url(#clip-222)"><path d="M 0.0 0.0 L 118.0 0.0 L 118.0 117.8 L 0.0 117.8 Z M 0.0 0.0 " fill="none" stroke="#FEFFFE" stroke-width="2.00" transform="matrix(1.00, 0.00, 0.00, -1.00, 877.3, 241.4)"></path></g></g></g></svg>