<?xml version="1.0" encoding="UTF-8" standalone="no"?><svg xmlns="http://www.w3.org/2000/svg" xmlns:xlink="http://www.w3.org/1999/xlink" clip-rule="evenodd" stroke-miterlimit="4.00" viewBox="0 0 369 27"><desc>SVG generated by Keynote</desc><defs></defs><g transform="matrix(1.00, 0.00, -0.00, -1.00, 0.0, 27.0)"><text xml:space="preserve" font-family="Helvetica-Light" font-size="24.0" fill="#FEFFFF" transform="matrix(1.00, 0.00, -0.00, -1.00, 1.0, 7.0)">A</text><text xml:space="preserve" font-family="Helvetica-Light" font-size="24.0" fill="#FEFFFF" transform="matrix(1.00, 0.00, -0.00, -1.00, 17.0, 7.0)">b</text><text xml:space="preserve" font-family="Helvetica-Light" font-size="24.0" fill="#FEFFFF" transform="matrix(1.00, 0.00, -0.00, -1.00, 31.7, 7.0)">e</text><text xml:space="preserve" font-family="Helvetica-Light" font-size="24.0" fill="#FEFFFF" transform="matrix(1.00, 0.00, -0.00, -1.00, 45.0, 7.0)">l</text><text xml:space="preserve" font-family="Helvetica-Light" font-size="24.0" fill="#FEFFFF" transform="matrix(1.00, 0.00, -0.00, -1.00, 50.3, 7.0)">l</text><text xml:space="preserve" font-family="Helvetica-Light" font-size="24.0" fill="#FEFFFF" transform="matrix(1.00, 0.00, -0.00, -1.00, 55.7, 7.0)"> </text><text xml:space="preserve" font-family="Helvetica-Light" font-size="24.0" fill="#FEFFFF" transform="matrix(1.00, 0.00, -0.00, -1.00, 62.3, 7.0)">2</text><text xml:space="preserve" font-family="Helvetica-Light" font-size="24.0" fill="#FEFFFF" transform="matrix(1.00, 0.00, -0.00, -1.00, 75.7, 7.0)">1</text><text xml:space="preserve" font-family="Helvetica-Light" font-size="24.0" fill="#FEFFFF" transform="matrix(1.00, 0.00, -0.00, -1.00, 89.0, 7.0)">4</text><text xml:space="preserve" font-family="Helvetica-Light" font-size="24.0" fill="#FEFFFF" transform="matrix(1.00, 0.00, -0.00, -1.00, 102.4, 7.0)">2</text><text xml:space="preserve" font-family="Helvetica-Light" font-size="24.0" fill="#FEFFFF" transform="matrix(1.00, 0.00, -0.00, -1.00, 115.7, 7.0)">:</text><text xml:space="preserve" font-family="Helvetica-Light" font-size="24.0" fill="#FEFFFF" transform="matrix(1.00, 0.00, -0.00, -1.00, 122.4, 7.0)"> </text><text xml:space="preserve" font-family="Helvetica-Light" font-size="24.0" fill="#FEFFFF" transform="matrix(1.00, 0.00, -0.00, -1.00, 129.1, 7.0)">E</text><text xml:space="preserve" font-family="Helvetica-Light" font-size="24.0" fill="#FEFFFF" transform="matrix(1.00, 0.00, -0.00, -1.00, 143.7, 7.0)">x</text><text xml:space="preserve" font-family="Helvetica-Light" font-size="24.0" fill="#FEFFFF" transform="matrix(1.00, 0.00, -0.00, -1.00, 155.7, 7.0)">a</text><text xml:space="preserve" font-family="Helvetica-Light" font-size="24.0" fill="#FEFFFF" transform="matrix(1.00, 0.00, -0.00, -1.00, 169.1, 7.0)">m</text><text xml:space="preserve" font-family="Helvetica-Light" font-size="24.0" fill="#FEFFFF" transform="matrix(1.00, 0.00, -0.00, -1.00, 189.1, 7.0)">p</text><text xml:space="preserve" font-family="Helvetica-Light" font-size="24.0" fill="#FEFFFF" transform="matrix(1.00, 0.00, -0.00, -1.00, 203.7, 7.0)">l</text><text xml:space="preserve" font-family="Helvetica-Light" font-size="24.0" fill="#FEFFFF" transform="matrix(1.00, 0.00, -0.00, -1.00, 209.1, 7.0)">e</text><text xml:space="preserve" font-family="Helvetica-Light" font-size="24.0" fill="#FEFFFF" transform="matrix(1.00, 0.00, -0.00, -1.00, 222.4, 7.0)"> </text><text xml:space="preserve" font-family="Helvetica-Light" font-size="24.0" fill="#FEFFFF" transform="matrix(1.00, 0.00, -0.00, -1.00, 229.1, 7.0)">o</text><text xml:space="preserve" font-family="Helvetica-Light" font-size="24.0" fill="#FEFFFF" transform="matrix(1.00, 0.00, -0.00, -1.00, 242.4, 7.0)">f</text><text xml:space="preserve" font-family="Helvetica-Light" font-size="24.0" fill="#FEFFFF" transform="matrix(1.00, 0.00, -0.00, -1.00, 249.1, 7.0)"> </text><text xml:space="preserve" font-family="Helvetica-Light" font-size="24.0" fill="#FEFFFF" transform="matrix(1.00, 0.00, -0.00, -1.00, 255.8, 7.0)">C</text><text xml:space="preserve" font-family="Helvetica-Light" font-size="24.0" fill="#FEFFFF" transform="matrix(1.00, 0.00, -0.00, -1.00, 273.1, 7.0)">o</text><text xml:space="preserve" font-family="Helvetica-Light" font-size="24.0" fill="#FEFFFF" transform="matrix(1.00, 0.00, -0.00, -1.00, 286.4, 7.0)">l</text><text xml:space="preserve" font-family="Helvetica-Light" font-size="24.0" fill="#FEFFFF" transform="matrix(1.00, 0.00, -0.00, -1.00, 291.8, 7.0)">d</text><text xml:space="preserve" font-family="Helvetica-Light" font-size="24.0" fill="#FEFFFF" transform="matrix(1.00, 0.00, -0.00, -1.00, 306.4, 7.0)"> </text><text xml:space="preserve" font-family="Helvetica-Light" font-size="24.0" fill="#FEFFFF" transform="matrix(1.00, 0.00, -0.00, -1.00, 313.1, 7.0)">F</text><text xml:space="preserve" font-family="Helvetica-Light" font-size="24.0" fill="#FEFFFF" transform="matrix(1.00, 0.00, -0.00, -1.00, 326.4, 7.0)">r</text><text xml:space="preserve" font-family="Helvetica-Light" font-size="24.0" fill="#FEFFFF" transform="matrix(1.00, 0.00, -0.00, -1.00, 334.0, 7.0)">o</text><text xml:space="preserve" font-family="Helvetica-Light" font-size="24.0" fill="#FEFFFF" transform="matrix(1.00, 0.00, -0.00, -1.00, 347.3, 7.0)">n</text><text xml:space="preserve" font-family="Helvetica-Light" font-size="24.0" fill="#FEFFFF" transform="matrix(1.00, 0.00, -0.00, -1.00, 360.7, 7.0)">t</text></g></svg>