<?xml version="1.0" encoding="UTF-8" standalone="no"?><svg xmlns="http://www.w3.org/2000/svg" xmlns:xlink="http://www.w3.org/1999/xlink" clip-rule="evenodd" stroke-miterlimit="4.00" viewBox="0 0 1920 1080"><desc>SVG generated by Keynote</desc><defs></defs><g transform="matrix(1.00, 0.00, -0.00, -1.00, 0.0, 1080.0)"><path d="M 0.0 1080.0 L 1920.0 1080.0 L 1920.0 0.0 L 0.0 0.0 Z M 0.0 1080.0 " fill="#000000"></path><text xml:space="preserve" font-family="Helvetica-Light" font-size="20.0" fill="#DCDDE0" transform="matrix(1.00, 0.00, -0.00, -1.00, 37.0, 27.0)">T</text><text xml:space="preserve" font-family="Helvetica-Light" font-size="20.0" fill="#DCDDE0" transform="matrix(1.00, 0.00, -0.00, -1.00, 45.9, 27.0)">a</text><text xml:space="preserve" font-family="Helvetica-Light" font-size="20.0" fill="#DCDDE0" transform="matrix(1.00, 0.00, -0.00, -1.00, 57.0, 27.0)">w</text><text xml:space="preserve" font-family="Helvetica-Light" font-size="20.0" fill="#DCDDE0" transform="matrix(1.00, 0.00, -0.00, -1.00, 71.5, 27.0)">e</text><text xml:space="preserve" font-family="Helvetica-Light" font-size="20.0" fill="#DCDDE0" transform="matrix(1.00, 0.00, -0.00, -1.00, 82.6, 27.0)">e</text><text xml:space="preserve" font-family="Helvetica-Light" font-size="20.0" fill="#DCDDE0" transform="matrix(1.00, 0.00, -0.00, -1.00, 93.7, 27.0)">w</text><text xml:space="preserve" font-family="Helvetica-Light" font-size="20.0" fill="#DCDDE0" transform="matrix(1.00, 0.00, -0.00, -1.00, 108.1, 27.0)">a</text><text xml:space="preserve" font-family="Helvetica-Light" font-size="20.0" fill="#DCDDE0" transform="matrix(1.00, 0.00, -0.00, -1.00, 119.3, 27.0)">t</text><text xml:space="preserve" font-family="Helvetica-Light" font-size="20.0" fill="#DCDDE0" transform="matrix(1.00, 0.00, -0.00, -1.00, 124.8, 27.0)"> </text><text xml:space="preserve" font-family="Helvetica-Light" font-size="20.0" fill="#DCDDE0" transform="matrix(1.00, 0.00, -0.00, -1.00, 130.4, 27.0)">S</text><text xml:space="preserve" font-family="Helvetica-Light" font-size="20.0" fill="#DCDDE0" transform="matrix(1.00, 0.00, -0.00, -1.00, 142.6, 27.0)">o</text><text xml:space="preserve" font-family="Helvetica-Light" font-size="20.0" fill="#DCDDE0" transform="matrix(1.00, 0.00, -0.00, -1.00, 153.7, 27.0)">m</text><text xml:space="preserve" font-family="Helvetica-Light" font-size="20.0" fill="#DCDDE0" transform="matrix(1.00, 0.00, -0.00, -1.00, 170.4, 27.0)">b</text><text xml:space="preserve" font-family="Helvetica-Light" font-size="20.0" fill="#DCDDE0" transform="matrix(1.00, 0.00, -0.00, -1.00, 182.6, 27.0)">o</text><text xml:space="preserve" font-family="Helvetica-Light" font-size="20.0" fill="#DCDDE0" transform="matrix(1.00, 0.00, -0.00, -1.00, 193.7, 27.0)">o</text><text xml:space="preserve" font-family="Helvetica-Light" font-size="20.0" fill="#DCDDE0" transform="matrix(1.00, 0.00, -0.00, -1.00, 204.8, 27.0)">n</text><text xml:space="preserve" font-family="Helvetica-Light" font-size="20.0" fill="#DCDDE0" transform="matrix(1.00, 0.00, -0.00, -1.00, 216.0, 27.0)">p</text><text xml:space="preserve" font-family="Helvetica-Light" font-size="20.0" fill="#DCDDE0" transform="matrix(1.00, 0.00, -0.00, -1.00, 228.2, 27.0)">a</text><text xml:space="preserve" font-family="Helvetica-Light" font-size="20.0" fill="#DCDDE0" transform="matrix(1.00, 0.00, -0.00, -1.00, 239.3, 27.0)">n</text><text xml:space="preserve" font-family="Helvetica-Light" font-size="20.0" fill="#DCDDE0" transform="matrix(1.00, 0.00, -0.00, -1.00, 250.4, 27.0)">y</text><text xml:space="preserve" font-family="Helvetica-Light" font-size="20.0" fill="#DCDDE0" transform="matrix(1.00, 0.00, -0.00, -1.00, 260.4, 27.0)">a</text><text xml:space="preserve" font-family="Helvetica-Light" font-size="20.0" fill="#DCDDE0" transform="matrix(1.00, 0.00, -0.00, -1.00, 271.5, 27.0)">k</text><text xml:space="preserve" font-family="Helvetica-Light" font-size="20.0" fill="#DCDDE0" transform="matrix(1.00, 0.00, -0.00, -1.00, 281.5, 27.0)">u</text><text xml:space="preserve" font-family="Helvetica-Light" font-size="20.0" fill="#DCDDE0" transform="matrix(1.00, 0.00, -0.00, -1.00, 292.7, 27.0)">l</text><text xml:space="preserve" font-family="Helvetica-Light" font-size="20.0" fill="#DCDDE0" transform="matrix(1.00, 0.00, -0.00, -1.00, 297.1, 27.0)"> </text><text xml:space="preserve" font-family="Helvetica-Light" font-size="20.0" fill="#DCDDE0" transform="matrix(1.00, 0.00, -0.00, -1.00, 302.7, 27.0)">|</text><text xml:space="preserve" font-family="Helvetica-Light" font-size="20.0" fill="#DCDDE0" transform="matrix(1.00, 0.00, -0.00, -1.00, 307.1, 27.0)"> </text><text xml:space="preserve" font-family="Helvetica-Light" font-size="20.0" fill="#DCDDE0" transform="matrix(1.00, 0.00, -0.00, -1.00, 312.7, 27.0)">j</text><text xml:space="preserve" font-family="Helvetica-Light" font-size="20.0" fill="#DCDDE0" transform="matrix(1.00, 0.00, -0.00, -1.00, 317.1, 27.0)">o</text><text xml:space="preserve" font-family="Helvetica-Light" font-size="20.0" fill="#DCDDE0" transform="matrix(1.00, 0.00, -0.00, -1.00, 328.2, 27.0)">u</text><text xml:space="preserve" font-family="Helvetica-Light" font-size="20.0" fill="#DCDDE0" transform="matrix(1.00, 0.00, -0.00, -1.00, 339.3, 27.0)">r</text><text xml:space="preserve" font-family="Helvetica-Light" font-size="20.0" fill="#DCDDE0" transform="matrix(1.00, 0.00, -0.00, -1.00, 346.4, 27.0)">n</text><text xml:space="preserve" font-family="Helvetica-Light" font-size="20.0" fill="#DCDDE0" transform="matrix(1.00, 0.00, -0.00, -1.00, 357.5, 27.0)">a</text><text xml:space="preserve" font-family="Helvetica-Light" font-size="20.0" fill="#DCDDE0" transform="matrix(1.00, 0.00, -0.00, -1.00, 368.6, 27.0)">l</text><text xml:space="preserve" font-family="Helvetica-Light" font-size="20.0" fill="#DCDDE0" transform="matrix(1.00, 0.00, -0.00, -1.00, 373.0, 27.0)"> </text><text xml:space="preserve" font-family="Helvetica-Light" font-size="20.0" fill="#DCDDE0" transform="matrix(1.00, 0.00, -0.00, -1.00, 378.6, 27.0)">c</text><text xml:space="preserve" font-family="Helvetica-Light" font-size="20.0" fill="#DCDDE0" transform="matrix(1.00, 0.00, -0.00, -1.00, 389.7, 27.0)">l</text><text xml:space="preserve" font-family="Helvetica-Light" font-size="20.0" fill="#DCDDE0" transform="matrix(1.00, 0.00, -0.00, -1.00, 394.2, 27.0)">u</text><text xml:space="preserve" font-family="Helvetica-Light" font-size="20.0" fill="#DCDDE0" transform="matrix(1.00, 0.00, -0.00, -1.00, 405.3, 27.0)">b</text><text xml:space="preserve" font-family="Helvetica-Light" font-size="20.0" fill="#DCDDE0" transform="matrix(1.00, 0.00, -0.00, -1.00, 417.5, 27.0)"> </text><text xml:space="preserve" font-family="Helvetica-Light" font-size="20.0" fill="#DCDDE0" transform="matrix(1.00, 0.00, -0.00, -1.00, 423.1, 27.0)">|</text><text xml:space="preserve" font-family="Helvetica-Light" font-size="20.0" fill="#DCDDE0" transform="matrix(1.00, 0.00, -0.00, -1.00, 427.5, 27.0)"> </text><text xml:space="preserve" font-family="Helvetica-Light" font-size="20.0" fill="#DCDDE0" transform="matrix(1.00, 0.00, -0.00, -1.00, 433.1, 27.0)">0</text><text xml:space="preserve" font-family="Helvetica-Light" font-size="20.0" fill="#DCDDE0" transform="matrix(1.00, 0.00, -0.00, -1.00, 444.2, 27.0)">4</text><text xml:space="preserve" font-family="Helvetica-Light" font-size="20.0" fill="#DCDDE0" transform="matrix(1.00, 0.00, -0.00, -1.00, 455.3, 27.0)">.</text><text xml:space="preserve" font-family="Helvetica-Light" font-size="20.0" fill="#DCDDE0" transform="matrix(1.00, 0.00, -0.00, -1.00, 460.9, 27.0)">2</text><text xml:space="preserve" font-family="Helvetica-Light" font-size="20.0" fill="#DCDDE0" transform="matrix(1.00, 0.00, -0.00, -1.00, 472.0, 27.0)">1</text><text xml:space="preserve" font-family="Helvetica-Light" font-size="20.0" fill="#DCDDE0" transform="matrix(1.00, 0.00, -0.00, -1.00, 483.1, 27.0)">.</text><text xml:space="preserve" font-family="Helvetica-Light" font-size="20.0" fill="#DCDDE0" transform="matrix(1.00, 0.00, -0.00, -1.00, 488.7, 27.0)">2</text><text xml:space="preserve" font-family="Helvetica-Light" font-size="20.0" fill="#DCDDE0" transform="matrix(1.00, 0.00, -0.00, -1.00, 499.8, 27.0)">0</text><text xml:space="preserve" font-family="Helvetica-Light" font-size="20.0" fill="#DCDDE0" transform="matrix(1.00, 0.00, -0.00, -1.00, 510.9, 27.0)">1</text><text xml:space="preserve" font-family="Helvetica-Light" font-size="20.0" fill="#DCDDE0" transform="matrix(1.00, 0.00, -0.00, -1.00, 522.0, 27.0)">7</text><text xml:space="preserve" font-family="Helvetica-Light" font-size="24.0" fill="#DCDDE0" transform="matrix(1.00, 0.00, -0.00, -1.00, 946.0, 26.0)">2</text><text xml:space="preserve" font-family="Helvetica-Light" font-size="24.0" fill="#DCDDE0" transform="matrix(1.00, 0.00, -0.00, -1.00, 959.3, 26.0)">0</text><image xlink:href="../../5DBA5B7C-CB9E-4599-9336-30388945CA9E/assets/57E6386C3F971477ADDC14052ED1B794.png" width="487.00" height="540.00" transform="matrix(2.00, 0.00, -0.00, -2.00, 0.0, 1080.0)"></image><g opacity="0.71"><g><clipPath id="clip-151"><path d="M 482.0 609.0 L 546.0 609.0 L 546.0 738.0 L 482.0 738.0 Z M 482.0 609.0 "></path></clipPath><g clip-path="url(#clip-151)"><path d="M 516.4 733.7 C 516.9 733.7 519.0 733.1 519.0 733.0 C 518.2 733.3 516.5 733.6 516.4 733.7 C 516.4 733.7 516.4 733.7 516.4 733.7 Z M 512.1 733.8 C 512.8 734.0 514.6 734.0 515.1 733.9 C 514.2 734.0 512.4 733.8 512.1 733.8 C 512.1 733.8 512.1 733.8 512.1 733.8 Z M 518.5 732.9 C 519.6 732.5 521.6 731.5 522.0 731.2 C 521.0 731.8 519.0 732.6 518.5 732.9 C 518.5 732.9 518.5 732.9 518.5 732.9 Z M 484.3 679.3 C 484.2 679.9 484.4 682.5 484.5 682.5 C 484.4 681.6 484.4 679.5 484.3 679.3 C 484.3 679.3 484.3 679.3 484.3 679.3 Z M 486.0 693.8 C 486.1 694.8 486.5 696.8 486.7 697.4 C 486.5 696.4 486.1 694.2 486.0 693.8 C 486.0 693.8 486.0 693.8 486.0 693.8 Z M 487.6 701.9 C 488.0 703.8 488.6 705.7 488.6 705.3 C 488.3 704.7 487.8 702.1 487.6 701.9 C 487.6 701.9 487.6 701.9 487.6 701.9 Z M 516.2 729.1 C 515.0 729.4 514.2 729.3 513.4 729.3 C 509.5 729.1 515.5 729.4 516.2 729.1 C 516.2 729.1 516.2 729.1 516.2 729.1 Z M 492.2 714.9 C 491.7 713.7 491.3 712.8 491.0 712.2 C 491.5 713.3 492.0 714.9 492.2 714.9 C 492.2 714.9 492.2 714.9 492.2 714.9 Z M 499.7 727.2 C 499.8 727.5 505.3 732.6 508.7 733.8 C 507.3 733.2 504.8 731.9 502.9 730.4 C 501.0 728.8 499.6 727.0 499.7 727.2 C 499.7 727.2 499.7 727.2 499.7 727.2 Z M 506.7 726.3 C 505.3 725.3 503.4 723.4 501.7 721.0 C 500.9 719.8 500.1 718.4 499.4 717.2 C 498.7 715.9 498.0 714.3 497.7 713.7 C 497.1 712.5 497.5 713.7 499.1 716.8 C 500.8 719.9 503.4 723.8 506.0 726.0 C 508.6 728.3 508.8 728.0 508.7 727.8 C 508.6 727.7 508.1 727.4 509.1 727.9 C 511.1 728.9 507.2 726.8 505.1 724.8 C 503.0 722.8 506.5 726.1 506.7 726.3 C 506.7 726.3 506.7 726.3 506.7 726.3 Z M 507.0 726.1 C 508.0 726.9 508.8 727.4 509.4 727.6 C 508.5 727.1 507.5 726.4 507.0 726.1 C 507.0 726.1 507.0 726.1 507.0 726.1 Z M 532.6 714.0 C 533.8 713.9 536.0 711.0 537.8 707.3 C 538.3 706.3 538.7 705.4 539.1 704.4 C 541.6 697.0 543.1 688.7 543.7 680.3 C 543.8 678.6 543.9 676.9 543.9 675.2 C 544.0 670.0 543.8 664.7 543.3 659.6 C 543.1 657.9 542.9 656.2 542.7 654.4 C 541.9 648.3 540.5 642.7 538.7 637.4 C 538.3 636.1 537.8 634.8 537.3 633.4 C 536.8 632.1 536.5 631.1 535.6 629.1 C 534.7 627.1 530.3 620.0 528.4 618.1 C 529.3 619.0 527.8 617.1 525.8 615.5 C 523.9 613.9 521.6 612.7 521.8 612.8 C 520.7 612.3 519.6 611.9 518.4 611.6 C 517.2 611.3 518.7 611.7 520.1 612.3 C 518.8 611.8 517.5 611.5 516.2 611.3 C 514.8 611.1 513.3 611.1 511.9 611.3 C 507.1 611.8 502.4 615.0 499.0 619.2 C 497.8 620.6 496.4 622.4 495.0 624.8 C 493.6 627.2 492.1 630.3 491.2 632.5 C 489.5 636.7 488.0 641.7 486.9 646.4 C 484.9 655.7 484.5 663.4 484.8 660.1 C 485.6 652.7 485.4 656.5 485.2 658.5 C 485.0 659.7 484.9 661.2 484.7 663.0 C 484.7 662.9 484.7 662.8 484.7 662.5 C 484.4 665.9 484.0 670.6 484.2 675.2 C 484.2 674.4 484.2 673.3 484.3 672.9 C 484.3 675.2 484.4 673.3 484.4 674.9 C 484.5 679.2 484.6 681.2 484.5 676.3 C 484.7 680.8 485.1 683.8 485.7 688.2 C 485.9 689.8 485.8 688.9 485.7 688.4 C 486.0 691.4 487.2 697.9 487.2 698.5 C 487.3 698.8 486.3 694.5 485.8 690.3 C 485.2 686.1 485.0 682.1 485.1 683.8 C 485.1 685.2 485.4 688.1 485.5 689.1 C 485.2 686.8 485.0 683.8 484.8 682.2 C 484.9 683.9 485.1 686.3 485.2 687.6 C 485.1 686.0 485.0 684.9 484.9 684.4 C 485.1 686.8 485.2 688.5 485.6 691.3 C 485.8 692.5 485.6 690.2 486.0 692.8 C 486.1 693.3 485.7 691.1 485.8 691.3 C 486.1 693.4 486.9 697.5 487.1 698.5 C 487.3 699.4 486.6 696.0 486.6 695.9 C 488.1 703.8 491.0 711.9 492.0 714.3 C 493.0 716.7 492.1 714.4 491.7 713.4 C 492.3 714.8 492.8 716.0 493.7 717.9 C 494.6 719.7 495.7 721.6 497.0 723.6 C 498.7 726.1 498.0 725.0 497.4 724.1 C 497.9 724.7 498.3 725.3 498.6 725.6 C 498.8 725.9 499.3 726.5 499.7 726.9 C 498.6 725.6 496.6 722.8 495.8 721.4 C 497.4 723.9 501.2 728.7 502.8 729.9 C 500.4 727.8 498.0 724.9 495.7 720.9 C 500.2 728.5 505.8 733.1 510.6 734.0 C 509.8 733.8 509.4 733.6 508.7 733.3 C 510.5 734.0 513.2 734.5 514.9 734.3 C 515.8 734.2 517.5 733.9 519.3 733.2 C 516.2 734.3 514.1 734.3 511.9 734.0 C 512.0 734.0 512.2 734.0 512.6 734.1 C 507.7 733.4 505.0 731.8 502.0 728.9 C 501.8 728.7 501.5 728.5 501.3 728.2 C 500.4 727.2 503.8 730.4 504.2 730.6 C 499.6 727.1 495.4 720.1 493.7 716.3 C 497.9 725.3 502.6 730.0 506.9 732.1 C 505.8 731.5 501.7 728.3 500.0 726.1 C 504.1 731.0 506.7 731.9 508.2 732.6 C 509.8 733.2 510.2 733.3 510.6 733.3 C 509.9 733.1 509.1 732.9 508.4 732.6 C 508.6 732.6 508.8 732.7 509.0 732.7 C 513.1 734.3 518.1 733.0 517.8 733.1 C 517.6 733.1 513.8 734.2 509.8 732.9 C 510.2 733.0 510.6 733.1 511.1 733.1 C 515.7 734.1 521.0 732.2 525.2 728.3 C 524.5 728.9 524.8 728.6 525.6 727.7 C 524.3 728.9 522.4 730.4 520.9 731.2 C 521.4 730.8 522.3 730.3 522.6 730.0 C 521.8 730.5 520.7 731.2 520.3 731.3 C 522.3 730.2 524.4 728.6 526.4 726.3 C 526.7 725.8 525.5 727.2 525.6 727.1 C 527.5 725.1 530.0 721.5 531.1 719.3 C 529.7 721.8 526.7 725.7 525.7 726.7 C 526.3 726.0 526.9 725.3 527.5 724.5 C 528.7 722.9 529.3 722.1 527.9 723.9 C 527.1 724.8 527.2 724.8 527.3 724.6 C 528.1 723.4 530.9 719.0 530.7 719.1 C 530.0 720.3 527.2 724.4 526.4 725.3 C 526.9 724.5 528.4 722.6 528.4 722.3 C 525.3 726.9 525.3 726.2 524.5 727.1 C 524.9 726.8 525.8 725.7 525.9 725.8 C 523.8 728.1 521.7 729.7 519.5 730.8 C 519.5 730.8 519.5 730.8 519.5 730.8 C 519.5 730.8 519.5 730.8 519.5 730.8 C 519.5 730.8 519.5 730.8 519.5 730.8 C 519.6 730.6 519.5 730.6 519.3 730.6 C 520.2 730.2 521.2 729.7 522.9 728.3 C 522.3 728.6 520.8 729.7 519.4 730.5 C 519.4 730.4 519.4 730.4 519.4 730.4 C 521.7 729.3 525.3 726.2 527.4 723.1 C 526.4 724.4 522.5 728.6 519.8 730.1 C 519.8 730.0 519.9 729.9 520.0 729.8 C 516.6 731.7 512.5 731.9 508.6 730.1 C 510.5 730.8 512.7 731.5 515.0 731.3 C 516.1 731.2 517.1 730.9 518.2 730.4 C 519.7 729.8 522.7 728.1 525.3 725.2 C 528.0 722.2 530.1 718.2 530.5 717.3 C 531.0 716.4 529.3 719.8 527.3 722.5 C 525.3 725.3 523.1 727.2 523.0 727.2 C 523.0 727.2 527.0 723.0 525.1 725.1 C 524.1 726.2 521.9 728.2 520.3 729.2 C 520.2 729.1 520.1 729.1 520.0 729.1 C 521.4 728.3 523.0 726.8 523.2 726.9 C 523.9 726.2 525.3 724.8 525.5 724.5 C 525.2 724.7 524.9 725.1 524.9 725.1 C 525.2 724.7 525.7 724.2 525.7 724.1 C 524.1 726.0 521.7 728.0 519.9 729.1 C 519.7 729.1 519.6 729.2 519.4 729.2 C 519.4 729.2 520.8 728.4 522.0 727.4 C 523.2 726.4 520.6 728.6 518.5 729.5 C 518.2 729.6 517.8 729.7 517.5 729.8 C 518.2 729.5 519.0 729.2 520.0 728.6 C 521.1 727.9 521.0 727.8 522.1 726.8 C 520.0 728.5 517.5 729.7 515.6 730.0 C 514.8 730.1 514.1 730.0 513.4 729.9 C 515.0 729.9 516.4 729.5 517.3 729.2 C 518.0 728.9 518.8 728.6 519.0 728.4 C 518.3 728.7 520.0 727.7 519.7 727.8 C 518.8 728.5 517.0 729.2 516.3 729.5 C 514.9 729.8 513.3 729.8 511.9 729.5 C 511.7 729.5 511.5 729.4 511.4 729.3 C 512.6 729.7 513.7 729.7 514.9 729.6 C 514.3 729.5 511.0 729.4 508.4 727.9 C 505.7 726.2 502.9 723.5 500.2 719.3 C 498.9 717.2 497.5 714.5 496.7 712.8 C 495.9 711.1 495.2 709.3 494.6 707.5 C 494.5 707.2 494.4 706.8 494.2 706.3 C 494.1 705.7 494.0 705.1 493.8 704.6 C 494.4 706.4 494.9 708.0 495.4 709.2 C 494.5 706.7 495.2 708.5 496.2 711.0 C 496.7 712.2 497.2 713.4 498.0 715.0 C 498.8 716.7 499.4 717.8 499.6 718.1 C 496.8 712.9 494.8 707.4 493.2 700.7 C 491.5 694.0 490.6 686.5 490.3 680.7 C 490.5 683.5 490.6 684.4 490.4 681.4 C 490.4 680.6 490.4 679.7 490.3 678.9 C 490.9 690.7 493.2 702.5 496.2 709.9 C 494.6 705.4 492.7 697.8 492.4 695.5 C 492.7 697.1 493.1 699.3 493.3 699.6 C 492.8 696.9 491.2 687.8 491.0 685.0 C 491.7 691.8 493.1 699.5 495.1 706.0 C 496.2 709.2 496.9 711.4 498.8 715.2 C 500.7 718.9 502.5 721.5 504.1 723.3 C 502.9 721.9 501.7 720.3 500.5 718.3 C 499.4 716.3 498.2 713.8 497.5 712.1 C 496.1 708.8 494.9 705.1 493.9 701.2 C 491.9 693.4 491.0 685.0 490.7 678.5 C 490.7 680.8 490.7 680.8 490.6 679.6 C 490.4 675.5 490.3 671.4 490.5 667.2 C 490.6 666.4 490.6 666.6 490.5 668.7 C 490.5 670.3 490.5 671.3 490.5 671.9 C 490.6 670.7 491.1 657.8 490.7 668.1 C 490.3 678.4 492.3 695.9 491.3 685.7 C 490.3 675.5 490.7 671.2 490.9 676.9 C 491.1 682.6 493.8 699.8 492.8 694.2 C 491.8 688.5 491.0 675.9 491.2 668.7 C 491.5 661.6 490.3 673.5 491.2 663.0 C 492.0 652.6 491.4 661.3 491.7 659.3 C 492.0 656.2 492.9 650.6 494.1 645.6 C 495.0 642.1 496.4 638.0 497.3 636.0 C 497.3 636.2 494.0 646.1 495.3 642.1 C 496.0 639.6 496.9 637.2 497.7 635.1 C 498.6 632.9 500.1 629.9 501.2 628.1 C 503.5 624.3 504.6 623.1 503.0 625.2 C 507.2 619.6 510.3 618.6 512.6 618.2 C 516.3 617.7 520.8 620.9 521.3 621.3 C 521.6 621.6 524.6 624.0 527.9 629.9 C 531.1 635.8 532.4 640.5 533.0 643.7 C 533.2 644.1 535.7 655.9 535.9 656.9 C 536.7 662.8 536.7 665.4 536.8 668.0 C 536.8 670.6 537.0 673.2 536.7 679.2 C 536.3 689.1 535.6 692.0 535.3 693.6 C 533.7 703.5 533.2 703.2 532.3 707.6 C 532.0 709.0 531.3 710.9 531.3 711.6 C 531.3 713.1 531.6 714.0 532.6 714.0 C 532.6 714.0 532.6 714.0 532.6 714.0 Z M 518.5 731.4 C 519.9 730.9 522.3 729.4 523.7 728.3 C 522.2 729.7 520.2 731.0 518.1 731.6 C 518.2 731.5 518.4 731.5 518.5 731.4 C 518.5 731.4 518.5 731.4 518.5 731.4 Z M 508.7 729.2 C 509.5 729.6 510.5 730.1 511.4 730.3 C 512.2 730.5 513.1 730.7 514.4 730.6 C 514.3 730.5 512.2 730.4 510.6 729.9 C 510.6 729.9 510.6 729.8 510.6 729.8 C 511.4 730.0 512.3 730.2 513.4 730.3 C 513.8 730.3 514.2 730.3 514.5 730.3 C 514.6 730.4 514.0 730.4 513.8 730.4 C 514.0 730.5 515.0 730.6 516.3 730.3 C 516.5 730.3 516.7 730.2 516.8 730.2 C 517.0 730.3 516.0 730.6 517.1 730.2 C 516.4 730.6 514.4 730.8 513.1 730.7 C 514.5 730.6 509.2 729.7 507.9 728.8 C 508.2 729.0 508.4 729.1 508.7 729.2 Z M 495.5 720.4 C 494.8 719.2 494.1 717.9 493.4 716.4 C 494.4 718.5 495.2 719.9 496.0 721.2 C 495.8 720.9 495.6 720.7 495.5 720.4 Z M 492.7 629.9 C 491.7 632.1 491.3 633.4 490.6 635.4 C 489.8 637.4 489.1 639.5 488.5 641.6 C 487.4 645.8 486.6 649.5 486.6 650.0 C 486.3 651.4 486.1 652.9 485.8 654.4 C 486.5 649.6 487.5 644.9 488.7 640.7 C 489.3 638.6 490.0 636.7 490.6 634.9 C 491.3 633.1 491.7 632.1 492.7 629.9 C 492.7 629.9 492.7 629.9 492.7 629.9 Z M 492.1 653.0 C 492.0 653.5 492.1 653.3 492.3 652.0 C 493.4 645.2 494.5 641.5 493.5 645.6 C 492.6 649.1 491.3 657.2 491.6 654.8 C 492.1 651.6 492.7 648.5 493.4 645.4 C 494.0 643.1 494.8 640.9 495.6 638.9 C 494.1 643.5 492.9 648.3 492.1 653.0 C 492.1 653.0 492.1 653.0 492.1 653.0 Z M 496.7 636.4 C 496.1 638.0 495.4 639.9 494.8 642.0 C 495.3 640.2 495.9 638.4 496.5 636.7 C 496.6 636.6 496.6 636.5 496.7 636.4 Z M 497.6 634.4 C 496.3 637.5 495.2 640.9 496.3 637.6 C 496.6 636.8 496.9 636.1 497.2 635.4 C 497.3 635.1 497.5 634.8 497.6 634.4 Z M 498.7 632.2 C 498.6 632.3 498.2 633.1 497.8 634.1 C 498.2 633.1 499.3 630.6 500.3 628.9 C 501.2 627.3 502.0 626.2 502.0 626.3 C 500.9 627.9 499.8 629.9 498.7 632.2 C 498.7 632.2 498.7 632.2 498.7 632.2 Z M 495.4 624.6 C 494.2 626.5 493.1 628.3 495.0 625.1 C 495.7 623.9 496.4 622.7 497.2 621.6 C 496.5 622.5 495.9 623.5 495.4 624.6 Z M 498.5 715.0 C 498.1 714.1 497.1 711.8 496.5 710.4 C 496.4 710.4 496.8 711.7 497.4 712.8 C 497.9 714.0 498.8 715.6 498.5 715.0 C 498.5 715.0 498.5 715.0 498.5 715.0 Z M 505.0 724.5 C 504.5 724.0 502.8 722.0 501.8 720.5 C 501.4 720.5 505.5 725.2 505.0 724.5 C 505.0 724.5 505.0 724.5 505.0 724.5 Z M 533.0 643.7 C 533.0 643.7 533.0 643.7 533.0 643.7 C 533.0 643.7 533.0 643.7 533.0 643.7 C 533.0 643.7 533.0 643.7 533.0 643.7 Z M 533.0 643.7 " fill="#0065C0"></path></g></g></g><image xlink:href="../../AAA1286E-40FE-4D27-8E9E-F9492BD7E8A0/assets/67BBEFE04B8BD5E78B713BD3F3E06B91.png" width="960.00" height="456.00" transform="matrix(2.00, 0.00, -0.00, -2.00, -45.0, 996.0)"></image><g opacity="0.75"><g><clipPath id="clip-152"><path d="M 313.0 473.0 L 1516.0 473.0 L 1516.0 607.0 L 313.0 607.0 Z M 313.0 473.0 "></path></clipPath><g clip-path="url(#clip-152)"><path d="M 314.3 605.6 L 1514.7 605.6 L 1514.7 474.4 L 314.3 474.4 Z M 314.3 605.6 " fill="#000000"></path><text xml:space="preserve" font-family="Helvetica-Light" font-size="50.0" fill="#DCDDE0" transform="matrix(1.00, 0.00, -0.00, -1.00, 434.0, 551.0)">A</text><text xml:space="preserve" font-family="Helvetica-Light" font-size="50.0" fill="#DCDDE0" transform="matrix(1.00, 0.00, -0.00, -1.00, 467.4, 551.0)">p</text><text xml:space="preserve" font-family="Helvetica-Light" font-size="50.0" fill="#DCDDE0" transform="matrix(1.00, 0.00, -0.00, -1.00, 497.9, 551.0)">a</text><text xml:space="preserve" font-family="Helvetica-Light" font-size="50.0" fill="#DCDDE0" transform="matrix(1.00, 0.00, -0.00, -1.00, 525.7, 551.0)">r</text><text xml:space="preserve" font-family="Helvetica-Light" font-size="50.0" fill="#DCDDE0" transform="matrix(1.00, 0.00, -0.00, -1.00, 543.2, 551.0)">t</text><text xml:space="preserve" font-family="Helvetica-Light" font-size="50.0" fill="#DCDDE0" transform="matrix(1.00, 0.00, -0.00, -1.00, 557.1, 551.0)"> </text><text xml:space="preserve" font-family="Helvetica-Light" font-size="50.0" fill="#DCDDE0" transform="matrix(1.00, 0.00, -0.00, -1.00, 571.0, 551.0)">f</text><text xml:space="preserve" font-family="Helvetica-Light" font-size="50.0" fill="#DCDDE0" transform="matrix(1.00, 0.00, -0.00, -1.00, 585.0, 551.0)">r</text><text xml:space="preserve" font-family="Helvetica-Light" font-size="50.0" fill="#DCDDE0" transform="matrix(1.00, 0.00, -0.00, -1.00, 600.7, 551.0)">o</text><text xml:space="preserve" font-family="Helvetica-Light" font-size="50.0" fill="#DCDDE0" transform="matrix(1.00, 0.00, -0.00, -1.00, 628.5, 551.0)">m</text><text xml:space="preserve" font-family="Helvetica-Light" font-size="50.0" fill="#DCDDE0" transform="matrix(1.00, 0.00, -0.00, -1.00, 670.2, 551.0)"> </text><text xml:space="preserve" font-family="Helvetica-Light" font-size="50.0" fill="#DCDDE0" transform="matrix(1.00, 0.00, -0.00, -1.00, 684.1, 551.0)">Q</text><text xml:space="preserve" font-family="Helvetica-Light" font-size="50.0" fill="#DCDDE0" transform="matrix(1.00, 0.00, -0.00, -1.00, 723.0, 551.0)">0</text><text xml:space="preserve" font-family="Helvetica-Light" font-size="50.0" fill="#DCDDE0" transform="matrix(1.00, 0.00, -0.00, -1.00, 750.8, 551.0)">3</text><text xml:space="preserve" font-family="Helvetica-Light" font-size="50.0" fill="#DCDDE0" transform="matrix(1.00, 0.00, -0.00, -1.00, 778.6, 551.0)">0</text><text xml:space="preserve" font-family="Helvetica-Light" font-size="50.0" fill="#DCDDE0" transform="matrix(1.00, 0.00, -0.00, -1.00, 806.4, 551.0)">2</text><text xml:space="preserve" font-family="Helvetica-Light" font-size="50.0" fill="#DCDDE0" transform="matrix(1.00, 0.00, -0.00, -1.00, 834.2, 551.0)">,</text><text xml:space="preserve" font-family="Helvetica-Light" font-size="50.0" fill="#DCDDE0" transform="matrix(1.00, 0.00, -0.00, -1.00, 848.1, 551.0)"> </text><text xml:space="preserve" font-family="Helvetica-Light" font-size="50.0" fill="#DCDDE0" transform="matrix(1.00, 0.00, -0.00, -1.00, 862.0, 551.0)">n</text><text xml:space="preserve" font-family="Helvetica-Light" font-size="50.0" fill="#DCDDE0" transform="matrix(1.00, 0.00, -0.00, -1.00, 889.8, 551.0)">o</text><text xml:space="preserve" font-family="Helvetica-Light" font-size="50.0" fill="#DCDDE0" transform="matrix(1.00, 0.00, -0.00, -1.00, 917.6, 551.0)"> </text><text xml:space="preserve" font-family="Helvetica-Light" font-size="50.0" fill="#DCDDE0" transform="matrix(1.00, 0.00, -0.00, -1.00, 931.5, 551.0)">r</text><text xml:space="preserve" font-family="Helvetica-Light" font-size="50.0" fill="#DCDDE0" transform="matrix(1.00, 0.00, -0.00, -1.00, 947.2, 551.0)">e</text><text xml:space="preserve" font-family="Helvetica-Light" font-size="50.0" fill="#DCDDE0" transform="matrix(1.00, 0.00, -0.00, -1.00, 975.0, 551.0)">l</text><text xml:space="preserve" font-family="Helvetica-Light" font-size="50.0" fill="#DCDDE0" transform="matrix(1.00, 0.00, -0.00, -1.00, 986.1, 551.0)">a</text><text xml:space="preserve" font-family="Helvetica-Light" font-size="50.0" fill="#DCDDE0" transform="matrix(1.00, 0.00, -0.00, -1.00, 1013.9, 551.0)">t</text><text xml:space="preserve" font-family="Helvetica-Light" font-size="50.0" fill="#DCDDE0" transform="matrix(1.00, 0.00, -0.00, -1.00, 1027.8, 551.0)">i</text><text xml:space="preserve" font-family="Helvetica-Light" font-size="50.0" fill="#DCDDE0" transform="matrix(1.00, 0.00, -0.00, -1.00, 1038.9, 551.0)">o</text><text xml:space="preserve" font-family="Helvetica-Light" font-size="50.0" fill="#DCDDE0" transform="matrix(1.00, 0.00, -0.00, -1.00, 1066.7, 551.0)">n</text><text xml:space="preserve" font-family="Helvetica-Light" font-size="50.0" fill="#DCDDE0" transform="matrix(1.00, 0.00, -0.00, -1.00, 1094.5, 551.0)">s</text><text xml:space="preserve" font-family="Helvetica-Light" font-size="50.0" fill="#DCDDE0" transform="matrix(1.00, 0.00, -0.00, -1.00, 1119.5, 551.0)">h</text><text xml:space="preserve" font-family="Helvetica-Light" font-size="50.0" fill="#DCDDE0" transform="matrix(1.00, 0.00, -0.00, -1.00, 1147.3, 551.0)">i</text><text xml:space="preserve" font-family="Helvetica-Light" font-size="50.0" fill="#DCDDE0" transform="matrix(1.00, 0.00, -0.00, -1.00, 1158.4, 551.0)">p</text><text xml:space="preserve" font-family="Helvetica-Light" font-size="50.0" fill="#DCDDE0" transform="matrix(1.00, 0.00, -0.00, -1.00, 1188.9, 551.0)"> </text><text xml:space="preserve" font-family="Helvetica-Light" font-size="50.0" fill="#DCDDE0" transform="matrix(1.00, 0.00, -0.00, -1.00, 1202.8, 551.0)">b</text><text xml:space="preserve" font-family="Helvetica-Light" font-size="50.0" fill="#DCDDE0" transform="matrix(1.00, 0.00, -0.00, -1.00, 1233.4, 551.0)">e</text><text xml:space="preserve" font-family="Helvetica-Light" font-size="50.0" fill="#DCDDE0" transform="matrix(1.00, 0.00, -0.00, -1.00, 1261.2, 551.0)">t</text><text xml:space="preserve" font-family="Helvetica-Light" font-size="50.0" fill="#DCDDE0" transform="matrix(1.00, 0.00, -0.00, -1.00, 1275.1, 551.0)">w</text><text xml:space="preserve" font-family="Helvetica-Light" font-size="50.0" fill="#DCDDE0" transform="matrix(1.00, 0.00, -0.00, -1.00, 1311.2, 551.0)">e</text><text xml:space="preserve" font-family="Helvetica-Light" font-size="50.0" fill="#DCDDE0" transform="matrix(1.00, 0.00, -0.00, -1.00, 1339.0, 551.0)">e</text><text xml:space="preserve" font-family="Helvetica-Light" font-size="50.0" fill="#DCDDE0" transform="matrix(1.00, 0.00, -0.00, -1.00, 1366.8, 551.0)">n</text><text xml:space="preserve" font-family="Helvetica-Light" font-size="50.0" fill="#DCDDE0" transform="matrix(1.00, 0.00, -0.00, -1.00, 1394.6, 551.0)"> </text><text xml:space="preserve" font-family="Helvetica-Light" font-size="50.0" fill="#DCDDE0" transform="matrix(1.00, 0.00, -0.00, -1.00, 412.0, 491.0)">t</text><text xml:space="preserve" font-family="Helvetica-Light" font-size="50.0" fill="#DCDDE0" transform="matrix(1.00, 0.00, -0.00, -1.00, 425.9, 491.0)">r</text><text xml:space="preserve" font-family="Helvetica-Light" font-size="50.0" fill="#DCDDE0" transform="matrix(1.00, 0.00, -0.00, -1.00, 442.6, 491.0)">a</text><text xml:space="preserve" font-family="Helvetica-Light" font-size="50.0" fill="#DCDDE0" transform="matrix(1.00, 0.00, -0.00, -1.00, 470.4, 491.0)">n</text><text xml:space="preserve" font-family="Helvetica-Light" font-size="50.0" fill="#DCDDE0" transform="matrix(1.00, 0.00, -0.00, -1.00, 498.1, 491.0)">s</text><text xml:space="preserve" font-family="Helvetica-Light" font-size="50.0" fill="#DCDDE0" transform="matrix(1.00, 0.00, -0.00, -1.00, 523.1, 491.0)">m</text><text xml:space="preserve" font-family="Helvetica-Light" font-size="50.0" fill="#DCDDE0" transform="matrix(1.00, 0.00, -0.00, -1.00, 564.8, 491.0)">i</text><text xml:space="preserve" font-family="Helvetica-Light" font-size="50.0" fill="#DCDDE0" transform="matrix(1.00, 0.00, -0.00, -1.00, 575.9, 491.0)">s</text><text xml:space="preserve" font-family="Helvetica-Light" font-size="50.0" fill="#DCDDE0" transform="matrix(1.00, 0.00, -0.00, -1.00, 600.9, 491.0)">s</text><text xml:space="preserve" font-family="Helvetica-Light" font-size="50.0" fill="#DCDDE0" transform="matrix(1.00, 0.00, -0.00, -1.00, 625.9, 491.0)">i</text><text xml:space="preserve" font-family="Helvetica-Light" font-size="50.0" fill="#DCDDE0" transform="matrix(1.00, 0.00, -0.00, -1.00, 637.0, 491.0)">o</text><text xml:space="preserve" font-family="Helvetica-Light" font-size="50.0" fill="#DCDDE0" transform="matrix(1.00, 0.00, -0.00, -1.00, 664.8, 491.0)">n</text><text xml:space="preserve" font-family="Helvetica-Light" font-size="50.0" fill="#DCDDE0" transform="matrix(1.00, 0.00, -0.00, -1.00, 692.6, 491.0)"> </text><text xml:space="preserve" font-family="Helvetica-Light" font-size="50.0" fill="#DCDDE0" transform="matrix(1.00, 0.00, -0.00, -1.00, 706.5, 491.0)">s</text><text xml:space="preserve" font-family="Helvetica-Light" font-size="50.0" fill="#DCDDE0" transform="matrix(1.00, 0.00, -0.00, -1.00, 731.5, 491.0)">p</text><text xml:space="preserve" font-family="Helvetica-Light" font-size="50.0" fill="#DCDDE0" transform="matrix(1.00, 0.00, -0.00, -1.00, 762.0, 491.0)">i</text><text xml:space="preserve" font-family="Helvetica-Light" font-size="50.0" fill="#DCDDE0" transform="matrix(1.00, 0.00, -0.00, -1.00, 773.2, 491.0)">k</text><text xml:space="preserve" font-family="Helvetica-Light" font-size="50.0" fill="#DCDDE0" transform="matrix(1.00, 0.00, -0.00, -1.00, 798.2, 491.0)">e</text><text xml:space="preserve" font-family="Helvetica-Light" font-size="50.0" fill="#DCDDE0" transform="matrix(1.00, 0.00, -0.00, -1.00, 826.0, 491.0)">s</text><text xml:space="preserve" font-family="Helvetica-Light" font-size="50.0" fill="#DCDDE0" transform="matrix(1.00, 0.00, -0.00, -1.00, 851.0, 491.0)"> </text><text xml:space="preserve" font-family="Helvetica-Light" font-size="50.0" fill="#DCDDE0" transform="matrix(1.00, 0.00, -0.00, -1.00, 864.9, 491.0)">a</text><text xml:space="preserve" font-family="Helvetica-Light" font-size="50.0" fill="#DCDDE0" transform="matrix(1.00, 0.00, -0.00, -1.00, 892.7, 491.0)">n</text><text xml:space="preserve" font-family="Helvetica-Light" font-size="50.0" fill="#DCDDE0" transform="matrix(1.00, 0.00, -0.00, -1.00, 920.5, 491.0)">d</text><text xml:space="preserve" font-family="Helvetica-Light" font-size="50.0" fill="#DCDDE0" transform="matrix(1.00, 0.00, -0.00, -1.00, 951.0, 491.0)"> </text><text xml:space="preserve" font-family="Helvetica-Light" font-size="50.0" fill="#DCDDE0" transform="matrix(1.00, 0.00, -0.00, -1.00, 964.9, 491.0)">p</text><text xml:space="preserve" font-family="Helvetica-Light" font-size="50.0" fill="#DCDDE0" transform="matrix(1.00, 0.00, -0.00, -1.00, 995.4, 491.0)">h</text><text xml:space="preserve" font-family="Helvetica-Light" font-size="50.0" fill="#DCDDE0" transform="matrix(1.00, 0.00, -0.00, -1.00, 1023.2, 491.0)">o</text><text xml:space="preserve" font-family="Helvetica-Light" font-size="50.0" fill="#DCDDE0" transform="matrix(1.00, 0.00, -0.00, -1.00, 1051.0, 491.0)">t</text><text xml:space="preserve" font-family="Helvetica-Light" font-size="50.0" fill="#DCDDE0" transform="matrix(1.00, 0.00, -0.00, -1.00, 1064.9, 491.0)">o</text><text xml:space="preserve" font-family="Helvetica-Light" font-size="50.0" fill="#DCDDE0" transform="matrix(1.00, 0.00, -0.00, -1.00, 1092.7, 491.0)">i</text><text xml:space="preserve" font-family="Helvetica-Light" font-size="50.0" fill="#DCDDE0" transform="matrix(1.00, 0.00, -0.00, -1.00, 1103.8, 491.0)">o</text><text xml:space="preserve" font-family="Helvetica-Light" font-size="50.0" fill="#DCDDE0" transform="matrix(1.00, 0.00, -0.00, -1.00, 1131.6, 491.0)">n</text><text xml:space="preserve" font-family="Helvetica-Light" font-size="50.0" fill="#DCDDE0" transform="matrix(1.00, 0.00, -0.00, -1.00, 1159.4, 491.0)">i</text><text xml:space="preserve" font-family="Helvetica-Light" font-size="50.0" fill="#DCDDE0" transform="matrix(1.00, 0.00, -0.00, -1.00, 1170.5, 491.0)">z</text><text xml:space="preserve" font-family="Helvetica-Light" font-size="50.0" fill="#DCDDE0" transform="matrix(1.00, 0.00, -0.00, -1.00, 1195.5, 491.0)">a</text><text xml:space="preserve" font-family="Helvetica-Light" font-size="50.0" fill="#DCDDE0" transform="matrix(1.00, 0.00, -0.00, -1.00, 1223.3, 491.0)">t</text><text xml:space="preserve" font-family="Helvetica-Light" font-size="50.0" fill="#DCDDE0" transform="matrix(1.00, 0.00, -0.00, -1.00, 1237.2, 491.0)">i</text><text xml:space="preserve" font-family="Helvetica-Light" font-size="50.0" fill="#DCDDE0" transform="matrix(1.00, 0.00, -0.00, -1.00, 1248.3, 491.0)">o</text><text xml:space="preserve" font-family="Helvetica-Light" font-size="50.0" fill="#DCDDE0" transform="matrix(1.00, 0.00, -0.00, -1.00, 1276.1, 491.0)">n</text><text xml:space="preserve" font-family="Helvetica-Light" font-size="50.0" fill="#DCDDE0" transform="matrix(1.00, 0.00, -0.00, -1.00, 1303.9, 491.0)"> </text><text xml:space="preserve" font-family="Helvetica-Light" font-size="50.0" fill="#DCDDE0" transform="matrix(1.00, 0.00, -0.00, -1.00, 1317.8, 491.0)">r</text><text xml:space="preserve" font-family="Helvetica-Light" font-size="50.0" fill="#DCDDE0" transform="matrix(1.00, 0.00, -0.00, -1.00, 1334.5, 491.0)">a</text><text xml:space="preserve" font-family="Helvetica-Light" font-size="50.0" fill="#DCDDE0" transform="matrix(1.00, 0.00, -0.00, -1.00, 1362.3, 491.0)">t</text><text xml:space="preserve" font-family="Helvetica-Light" font-size="50.0" fill="#DCDDE0" transform="matrix(1.00, 0.00, -0.00, -1.00, 1376.2, 491.0)">e</text><text xml:space="preserve" font-family="Helvetica-Light" font-size="50.0" fill="#DCDDE0" transform="matrix(1.00, 0.00, -0.00, -1.00, 1404.0, 491.0)">.</text></g></g></g></g></svg>