<?xml version="1.0" encoding="UTF-8" standalone="no"?><svg xmlns="http://www.w3.org/2000/svg" xmlns:xlink="http://www.w3.org/1999/xlink" clip-rule="evenodd" stroke-miterlimit="4.00" viewBox="0 0 1920 1080"><desc>SVG generated by Keynote</desc><defs><linearGradient id="gradSh2.2" x1="0.0" y1="0.0" x2="100.0" y2="0.0" gradientUnits="userSpaceOnUse" gradientTransform="matrix(4.32, 0.00, 0.00, -4.08, 665.2, 522.2)"><stop offset="0.00000" stop-color="#DCDEE0"></stop><stop offset="0.00220" stop-color="#DCDDE0"></stop><stop offset="0.42229" stop-color="#7F8081"></stop><stop offset="0.42595" stop-color="#7F7F81"></stop><stop offset="0.42669" stop-color="#7E7F80"></stop><stop offset="0.71408" stop-color="#3F3F40"></stop><stop offset="0.71701" stop-color="#3E3F3F"></stop><stop offset="0.71848" stop-color="#3E3E3F"></stop><stop offset="0.85777" stop-color="#1F2020"></stop><stop offset="0.85850" stop-color="#1F1F20"></stop><stop offset="0.85997" stop-color="#1F1F1F"></stop><stop offset="0.86217" stop-color="#1E1F1F"></stop><stop offset="0.93035" stop-color="#0F0F10"></stop><stop offset="0.93109" stop-color="#0F0F0F"></stop><stop offset="0.93475" stop-color="#0E0E0F"></stop><stop offset="0.96701" stop-color="#070707"></stop><stop offset="0.97067" stop-color="#060707"></stop><stop offset="0.98460" stop-color="#030303"></stop><stop offset="0.98974" stop-color="#020202"></stop><stop offset="0.99340" stop-color="#010101"></stop><stop offset="0.99853" stop-color="#000000"></stop><stop offset="1.00000" stop-color="#000000"></stop></linearGradient><linearGradient id="gradSh1.3" x1="0.0" y1="0.0" x2="100.0" y2="0.0" gradientUnits="userSpaceOnUse" gradientTransform="matrix(1.12, 0.00, 0.00, -4.08, 1135.1, 522.8)"><stop offset="0.00000" stop-color="#DCDEE0"></stop><stop offset="0.00220" stop-color="#DCDDE0"></stop><stop offset="0.42229" stop-color="#7F8081"></stop><stop offset="0.42595" stop-color="#7F7F81"></stop><stop offset="0.42669" stop-color="#7E7F80"></stop><stop offset="0.71408" stop-color="#3F3F40"></stop><stop offset="0.71701" stop-color="#3E3F3F"></stop><stop offset="0.71848" stop-color="#3E3E3F"></stop><stop offset="0.85777" stop-color="#1F2020"></stop><stop offset="0.85850" stop-color="#1F1F20"></stop><stop offset="0.85997" stop-color="#1F1F1F"></stop><stop offset="0.86217" stop-color="#1E1F1F"></stop><stop offset="0.93035" stop-color="#0F0F10"></stop><stop offset="0.93109" stop-color="#0F0F0F"></stop><stop offset="0.93475" stop-color="#0E0E0F"></stop><stop offset="0.96701" stop-color="#070707"></stop><stop offset="0.97067" stop-color="#060707"></stop><stop offset="0.98460" stop-color="#030303"></stop><stop offset="0.98974" stop-color="#020202"></stop><stop offset="0.99340" stop-color="#010101"></stop><stop offset="0.99853" stop-color="#000000"></stop><stop offset="1.00000" stop-color="#000000"></stop></linearGradient></defs><g transform="matrix(1.00, 0.00, -0.00, -1.00, 0.0, 1080.0)"><path d="M 0.0 1080.0 L 1920.0 1080.0 L 1920.0 0.0 L 0.0 0.0 Z M 0.0 1080.0 " fill="#000000"></path><text xml:space="preserve" font-family="Helvetica-Light" font-size="20.0" fill="#DCDDE0" transform="matrix(1.00, 0.00, -0.00, -1.00, 37.0, 27.0)">T</text><text xml:space="preserve" font-family="Helvetica-Light" font-size="20.0" fill="#DCDDE0" transform="matrix(1.00, 0.00, -0.00, -1.00, 45.9, 27.0)">a</text><text xml:space="preserve" font-family="Helvetica-Light" font-size="20.0" fill="#DCDDE0" transform="matrix(1.00, 0.00, -0.00, -1.00, 57.0, 27.0)">w</text><text xml:space="preserve" font-family="Helvetica-Light" font-size="20.0" fill="#DCDDE0" transform="matrix(1.00, 0.00, -0.00, -1.00, 71.5, 27.0)">e</text><text xml:space="preserve" font-family="Helvetica-Light" font-size="20.0" fill="#DCDDE0" transform="matrix(1.00, 0.00, -0.00, -1.00, 82.6, 27.0)">e</text><text xml:space="preserve" font-family="Helvetica-Light" font-size="20.0" fill="#DCDDE0" transform="matrix(1.00, 0.00, -0.00, -1.00, 93.7, 27.0)">w</text><text xml:space="preserve" font-family="Helvetica-Light" font-size="20.0" fill="#DCDDE0" transform="matrix(1.00, 0.00, -0.00, -1.00, 108.1, 27.0)">a</text><text xml:space="preserve" font-family="Helvetica-Light" font-size="20.0" fill="#DCDDE0" transform="matrix(1.00, 0.00, -0.00, -1.00, 119.3, 27.0)">t</text><text xml:space="preserve" font-family="Helvetica-Light" font-size="20.0" fill="#DCDDE0" transform="matrix(1.00, 0.00, -0.00, -1.00, 124.8, 27.0)"> </text><text xml:space="preserve" font-family="Helvetica-Light" font-size="20.0" fill="#DCDDE0" transform="matrix(1.00, 0.00, -0.00, -1.00, 130.4, 27.0)">S</text><text xml:space="preserve" font-family="Helvetica-Light" font-size="20.0" fill="#DCDDE0" transform="matrix(1.00, 0.00, -0.00, -1.00, 142.6, 27.0)">o</text><text xml:space="preserve" font-family="Helvetica-Light" font-size="20.0" fill="#DCDDE0" transform="matrix(1.00, 0.00, -0.00, -1.00, 153.7, 27.0)">m</text><text xml:space="preserve" font-family="Helvetica-Light" font-size="20.0" fill="#DCDDE0" transform="matrix(1.00, 0.00, -0.00, -1.00, 170.4, 27.0)">b</text><text xml:space="preserve" font-family="Helvetica-Light" font-size="20.0" fill="#DCDDE0" transform="matrix(1.00, 0.00, -0.00, -1.00, 182.6, 27.0)">o</text><text xml:space="preserve" font-family="Helvetica-Light" font-size="20.0" fill="#DCDDE0" transform="matrix(1.00, 0.00, -0.00, -1.00, 193.7, 27.0)">o</text><text xml:space="preserve" font-family="Helvetica-Light" font-size="20.0" fill="#DCDDE0" transform="matrix(1.00, 0.00, -0.00, -1.00, 204.8, 27.0)">n</text><text xml:space="preserve" font-family="Helvetica-Light" font-size="20.0" fill="#DCDDE0" transform="matrix(1.00, 0.00, -0.00, -1.00, 216.0, 27.0)">p</text><text xml:space="preserve" font-family="Helvetica-Light" font-size="20.0" fill="#DCDDE0" transform="matrix(1.00, 0.00, -0.00, -1.00, 228.2, 27.0)">a</text><text xml:space="preserve" font-family="Helvetica-Light" font-size="20.0" fill="#DCDDE0" transform="matrix(1.00, 0.00, -0.00, -1.00, 239.3, 27.0)">n</text><text xml:space="preserve" font-family="Helvetica-Light" font-size="20.0" fill="#DCDDE0" transform="matrix(1.00, 0.00, -0.00, -1.00, 250.4, 27.0)">y</text><text xml:space="preserve" font-family="Helvetica-Light" font-size="20.0" fill="#DCDDE0" transform="matrix(1.00, 0.00, -0.00, -1.00, 260.4, 27.0)">a</text><text xml:space="preserve" font-family="Helvetica-Light" font-size="20.0" fill="#DCDDE0" transform="matrix(1.00, 0.00, -0.00, -1.00, 271.5, 27.0)">k</text><text xml:space="preserve" font-family="Helvetica-Light" font-size="20.0" fill="#DCDDE0" transform="matrix(1.00, 0.00, -0.00, -1.00, 281.5, 27.0)">u</text><text xml:space="preserve" font-family="Helvetica-Light" font-size="20.0" fill="#DCDDE0" transform="matrix(1.00, 0.00, -0.00, -1.00, 292.7, 27.0)">l</text><text xml:space="preserve" font-family="Helvetica-Light" font-size="20.0" fill="#DCDDE0" transform="matrix(1.00, 0.00, -0.00, -1.00, 297.1, 27.0)"> </text><text xml:space="preserve" font-family="Helvetica-Light" font-size="20.0" fill="#DCDDE0" transform="matrix(1.00, 0.00, -0.00, -1.00, 302.7, 27.0)">|</text><text xml:space="preserve" font-family="Helvetica-Light" font-size="20.0" fill="#DCDDE0" transform="matrix(1.00, 0.00, -0.00, -1.00, 307.1, 27.0)"> </text><text xml:space="preserve" font-family="Helvetica-Light" font-size="20.0" fill="#DCDDE0" transform="matrix(1.00, 0.00, -0.00, -1.00, 312.7, 27.0)">j</text><text xml:space="preserve" font-family="Helvetica-Light" font-size="20.0" fill="#DCDDE0" transform="matrix(1.00, 0.00, -0.00, -1.00, 317.1, 27.0)">o</text><text xml:space="preserve" font-family="Helvetica-Light" font-size="20.0" fill="#DCDDE0" transform="matrix(1.00, 0.00, -0.00, -1.00, 328.2, 27.0)">u</text><text xml:space="preserve" font-family="Helvetica-Light" font-size="20.0" fill="#DCDDE0" transform="matrix(1.00, 0.00, -0.00, -1.00, 339.3, 27.0)">r</text><text xml:space="preserve" font-family="Helvetica-Light" font-size="20.0" fill="#DCDDE0" transform="matrix(1.00, 0.00, -0.00, -1.00, 346.4, 27.0)">n</text><text xml:space="preserve" font-family="Helvetica-Light" font-size="20.0" fill="#DCDDE0" transform="matrix(1.00, 0.00, -0.00, -1.00, 357.5, 27.0)">a</text><text xml:space="preserve" font-family="Helvetica-Light" font-size="20.0" fill="#DCDDE0" transform="matrix(1.00, 0.00, -0.00, -1.00, 368.6, 27.0)">l</text><text xml:space="preserve" font-family="Helvetica-Light" font-size="20.0" fill="#DCDDE0" transform="matrix(1.00, 0.00, -0.00, -1.00, 373.0, 27.0)"> </text><text xml:space="preserve" font-family="Helvetica-Light" font-size="20.0" fill="#DCDDE0" transform="matrix(1.00, 0.00, -0.00, -1.00, 378.6, 27.0)">c</text><text xml:space="preserve" font-family="Helvetica-Light" font-size="20.0" fill="#DCDDE0" transform="matrix(1.00, 0.00, -0.00, -1.00, 389.7, 27.0)">l</text><text xml:space="preserve" font-family="Helvetica-Light" font-size="20.0" fill="#DCDDE0" transform="matrix(1.00, 0.00, -0.00, -1.00, 394.2, 27.0)">u</text><text xml:space="preserve" font-family="Helvetica-Light" font-size="20.0" fill="#DCDDE0" transform="matrix(1.00, 0.00, -0.00, -1.00, 405.3, 27.0)">b</text><text xml:space="preserve" font-family="Helvetica-Light" font-size="20.0" fill="#DCDDE0" transform="matrix(1.00, 0.00, -0.00, -1.00, 417.5, 27.0)"> </text><text xml:space="preserve" font-family="Helvetica-Light" font-size="20.0" fill="#DCDDE0" transform="matrix(1.00, 0.00, -0.00, -1.00, 423.1, 27.0)">|</text><text xml:space="preserve" font-family="Helvetica-Light" font-size="20.0" fill="#DCDDE0" transform="matrix(1.00, 0.00, -0.00, -1.00, 427.5, 27.0)"> </text><text xml:space="preserve" font-family="Helvetica-Light" font-size="20.0" fill="#DCDDE0" transform="matrix(1.00, 0.00, -0.00, -1.00, 433.1, 27.0)">0</text><text xml:space="preserve" font-family="Helvetica-Light" font-size="20.0" fill="#DCDDE0" transform="matrix(1.00, 0.00, -0.00, -1.00, 444.2, 27.0)">4</text><text xml:space="preserve" font-family="Helvetica-Light" font-size="20.0" fill="#DCDDE0" transform="matrix(1.00, 0.00, -0.00, -1.00, 455.3, 27.0)">.</text><text xml:space="preserve" font-family="Helvetica-Light" font-size="20.0" fill="#DCDDE0" transform="matrix(1.00, 0.00, -0.00, -1.00, 460.9, 27.0)">2</text><text xml:space="preserve" font-family="Helvetica-Light" font-size="20.0" fill="#DCDDE0" transform="matrix(1.00, 0.00, -0.00, -1.00, 472.0, 27.0)">1</text><text xml:space="preserve" font-family="Helvetica-Light" font-size="20.0" fill="#DCDDE0" transform="matrix(1.00, 0.00, -0.00, -1.00, 483.1, 27.0)">.</text><text xml:space="preserve" font-family="Helvetica-Light" font-size="20.0" fill="#DCDDE0" transform="matrix(1.00, 0.00, -0.00, -1.00, 488.7, 27.0)">2</text><text xml:space="preserve" font-family="Helvetica-Light" font-size="20.0" fill="#DCDDE0" transform="matrix(1.00, 0.00, -0.00, -1.00, 499.8, 27.0)">0</text><text xml:space="preserve" font-family="Helvetica-Light" font-size="20.0" fill="#DCDDE0" transform="matrix(1.00, 0.00, -0.00, -1.00, 510.9, 27.0)">1</text><text xml:space="preserve" font-family="Helvetica-Light" font-size="20.0" fill="#DCDDE0" transform="matrix(1.00, 0.00, -0.00, -1.00, 522.0, 27.0)">7</text><text xml:space="preserve" font-family="Helvetica-Light" font-size="24.0" fill="#DCDDE0" transform="matrix(1.00, 0.00, -0.00, -1.00, 953.0, 26.0)">4</text><g><clipPath id="clip-8"><path d="M -1.0 852.0 L 1919.0 852.0 L 1919.0 228.0 L -1.0 228.0 Z M -0.7 852.4 "></path></clipPath><g clip-path="url(#clip-8)"><image xlink:href="../../20306054-8261-4296-B828-9DA37401CF71/assets/CD13A2646238B27D90D985EB1B9D0626.png" width="960.00" height="346.00" transform="matrix(2.06, 0.00, -0.00, -2.06, -20.0, 891.0)"></image></g></g><g opacity="0.37"><g><clipPath id="clip-9"><path d="M 666.2 725.0 L 1096.2 725.0 L 1096.2 319.4 L 666.2 319.4 Z M 666.2 725.0 "></path></clipPath><g clip-path="url(#clip-9)"><g><clipPath id="clip-10"><path d="M 665.0 318.0 L 1098.0 318.0 L 1098.0 726.0 L 665.0 726.0 Z M 665.0 318.0 "></path></clipPath><g clip-path="url(#clip-10)"><path d="M 665.0 318.0 L 1098.0 318.0 L 1098.0 726.0 L 665.0 726.0 Z M 665.0 318.0 " fill="url(#gradSh2.2)"></path></g></g></g></g></g><path d="M 791.1 570.8 L 971.4 570.8 L 971.4 473.6 L 791.1 473.6 Z M 791.1 570.8 " fill="#000000"></path><g><clipPath id="clip-11"><path d="M 787.7 470.2 L 1107.2 470.2 L 1107.2 574.2 L 787.7 574.2 Z M 787.7 470.2 "></path></clipPath><g clip-path="url(#clip-11)"><text xml:space="preserve" font-family="Helvetica-Bold" font-weight="bold" font-size="36.0" fill="#710C04" transform="matrix(1.00, 0.00, -0.00, -1.00, 819.0, 530.0)">N</text><text xml:space="preserve" font-family="Helvetica-Bold" font-weight="bold" font-size="36.0" fill="#710C04" transform="matrix(1.00, 0.00, -0.00, -1.00, 845.0, 530.0)">e</text><text xml:space="preserve" font-family="Helvetica-Bold" font-weight="bold" font-size="36.0" fill="#710C04" transform="matrix(1.00, 0.00, -0.00, -1.00, 865.0, 530.0)">u</text><text xml:space="preserve" font-family="Helvetica-Bold" font-weight="bold" font-size="36.0" fill="#710C04" transform="matrix(1.00, 0.00, -0.00, -1.00, 887.0, 530.0)">t</text><text xml:space="preserve" font-family="Helvetica-Bold" font-weight="bold" font-size="36.0" fill="#710C04" transform="matrix(1.00, 0.00, -0.00, -1.00, 899.0, 530.0)">r</text><text xml:space="preserve" font-family="Helvetica-Bold" font-weight="bold" font-size="36.0" fill="#710C04" transform="matrix(1.00, 0.00, -0.00, -1.00, 913.0, 530.0)">a</text><text xml:space="preserve" font-family="Helvetica-Bold" font-weight="bold" font-size="36.0" fill="#710C04" transform="matrix(1.00, 0.00, -0.00, -1.00, 933.1, 530.0)">l</text><text xml:space="preserve" font-family="Helvetica-Bold" font-weight="bold" font-size="36.0" fill="#710C04" transform="matrix(1.00, 0.00, -0.00, -1.00, 943.0, 530.0)"> </text><text xml:space="preserve" font-family="Helvetica-Bold" font-weight="bold" font-size="36.0" fill="#710C04" transform="matrix(1.00, 0.00, -0.00, -1.00, 797.0, 487.0)">H</text><text xml:space="preserve" font-family="Helvetica-Bold" font-weight="bold" font-size="36.0" fill="#710C04" transform="matrix(1.00, 0.00, -0.00, -1.00, 823.0, 487.0)">y</text><text xml:space="preserve" font-family="Helvetica-Bold" font-weight="bold" font-size="36.0" fill="#710C04" transform="matrix(1.00, 0.00, -0.00, -1.00, 843.0, 487.0)">d</text><text xml:space="preserve" font-family="Helvetica-Bold" font-weight="bold" font-size="36.0" fill="#710C04" transform="matrix(1.00, 0.00, -0.00, -1.00, 865.0, 487.0)">r</text><text xml:space="preserve" font-family="Helvetica-Bold" font-weight="bold" font-size="36.0" fill="#710C04" transform="matrix(1.00, 0.00, -0.00, -1.00, 879.0, 487.0)">o</text><text xml:space="preserve" font-family="Helvetica-Bold" font-weight="bold" font-size="36.0" fill="#710C04" transform="matrix(1.00, 0.00, -0.00, -1.00, 901.0, 487.0)">g</text><text xml:space="preserve" font-family="Helvetica-Bold" font-weight="bold" font-size="36.0" fill="#710C04" transform="matrix(1.00, 0.00, -0.00, -1.00, 923.0, 487.0)">e</text><text xml:space="preserve" font-family="Helvetica-Bold" font-weight="bold" font-size="36.0" fill="#710C04" transform="matrix(1.00, 0.00, -0.00, -1.00, 943.1, 487.0)">n</text></g></g><text xml:space="preserve" font-family="ComicSansMS" font-size="21.0" fill="#DCDDE0" transform="matrix(1.00, 0.00, -0.00, -1.00, 1242.0, 288.0)">3</text><path d="M 0.0 0.0 L 406.2 0.0 " fill="none" stroke="#FEF614" stroke-width="2.00" transform="matrix(0.00, 1.00, 1.00, 0.00, 1099.4, 319.1)"></path><path d="M 0.0 0.0 L 406.2 0.0 " fill="none" stroke="#FEF614" stroke-width="2.00" transform="matrix(0.00, 1.00, 1.00, 0.00, 1247.6, 319.7)"></path><path d="M 0.0 0.0 L 156.4 0.0 L 157.4 0.0 " fill="none" stroke="#A6AAA8" stroke-width="2.00" transform="matrix(0.47, 0.88, 0.88, -0.47, 1191.5, 700.0)"></path><path d="M 1268.6 836.1 L 1268.8 846.9 L 1260.1 840.6 Z M 1268.6 836.1 " fill="#A6AAA8"></path><text xml:space="preserve" font-family="Helvetica-Light" font-size="36.0" fill="#A6AAA8" transform="matrix(1.00, 0.00, -0.00, -1.00, 1263.0, 868.0)">I</text><text xml:space="preserve" font-family="Helvetica-Light" font-size="36.0" fill="#A6AAA8" transform="matrix(1.00, 0.00, -0.00, -1.00, 1273.0, 868.0)">o</text><text xml:space="preserve" font-family="Helvetica-Light" font-size="36.0" fill="#A6AAA8" transform="matrix(1.00, 0.00, -0.00, -1.00, 1293.0, 868.0)">n</text><text xml:space="preserve" font-family="Helvetica-Light" font-size="36.0" fill="#A6AAA8" transform="matrix(1.00, 0.00, -0.00, -1.00, 1313.0, 868.0)">i</text><text xml:space="preserve" font-family="Helvetica-Light" font-size="36.0" fill="#A6AAA8" transform="matrix(1.00, 0.00, -0.00, -1.00, 1321.0, 868.0)">z</text><text xml:space="preserve" font-family="Helvetica-Light" font-size="36.0" fill="#A6AAA8" transform="matrix(1.00, 0.00, -0.00, -1.00, 1339.0, 868.0)">e</text><text xml:space="preserve" font-family="Helvetica-Light" font-size="36.0" fill="#A6AAA8" transform="matrix(1.00, 0.00, -0.00, -1.00, 1359.0, 868.0)">d</text><text xml:space="preserve" font-family="Helvetica-Light" font-size="36.0" fill="#A6AAA8" transform="matrix(1.00, 0.00, -0.00, -1.00, 1381.0, 868.0)"> </text><text xml:space="preserve" font-family="Helvetica-Light" font-size="36.0" fill="#A6AAA8" transform="matrix(1.00, 0.00, -0.00, -1.00, 1391.1, 868.0)">b</text><text xml:space="preserve" font-family="Helvetica-Light" font-size="36.0" fill="#A6AAA8" transform="matrix(1.00, 0.00, -0.00, -1.00, 1413.0, 868.0)">y</text><text xml:space="preserve" font-family="Helvetica-Light" font-size="36.0" fill="#A6AAA8" transform="matrix(1.00, 0.00, -0.00, -1.00, 1431.0, 868.0)"> </text><text xml:space="preserve" font-family="Helvetica-Light" font-size="36.0" fill="#A6AAA8" transform="matrix(1.00, 0.00, -0.00, -1.00, 1441.1, 868.0)">q</text><text xml:space="preserve" font-family="Helvetica-Light" font-size="36.0" fill="#A6AAA8" transform="matrix(1.00, 0.00, -0.00, -1.00, 1463.1, 868.0)">u</text><text xml:space="preserve" font-family="Helvetica-Light" font-size="36.0" fill="#A6AAA8" transform="matrix(1.00, 0.00, -0.00, -1.00, 1483.1, 868.0)">a</text><text xml:space="preserve" font-family="Helvetica-Light" font-size="36.0" fill="#A6AAA8" transform="matrix(1.00, 0.00, -0.00, -1.00, 1503.1, 868.0)">s</text><text xml:space="preserve" font-family="Helvetica-Light" font-size="36.0" fill="#A6AAA8" transform="matrix(1.00, 0.00, -0.00, -1.00, 1521.1, 868.0)">a</text><text xml:space="preserve" font-family="Helvetica-Light" font-size="36.0" fill="#A6AAA8" transform="matrix(1.00, 0.00, -0.00, -1.00, 1541.1, 868.0)">r</text><text xml:space="preserve" font-family="Helvetica-Light" font-size="36.0" fill="#A6AAA8" transform="matrix(1.00, 0.00, -0.00, -1.00, 1553.1, 868.0)">s</text><text xml:space="preserve" font-family="Helvetica-Light" font-size="36.0" fill="#A6AAA8" transform="matrix(1.00, 0.00, -0.00, -1.00, 1571.1, 868.0)"> </text><text xml:space="preserve" font-family="Helvetica-Light" font-size="36.0" fill="#A6AAA8" transform="matrix(1.00, 0.00, -0.00, -1.00, 1581.1, 868.0)">(</text><text xml:space="preserve" font-family="Helvetica-Light" font-size="36.0" fill="#A6AAA8" transform="matrix(1.00, 0.00, -0.00, -1.00, 1593.1, 868.0)">p</text><text xml:space="preserve" font-family="Helvetica-Light" font-size="36.0" fill="#A6AAA8" transform="matrix(1.00, 0.00, -0.00, -1.00, 1615.1, 868.0)">a</text><text xml:space="preserve" font-family="Helvetica-Light" font-size="36.0" fill="#A6AAA8" transform="matrix(1.00, 0.00, -0.00, -1.00, 1635.1, 868.0)">t</text><text xml:space="preserve" font-family="Helvetica-Light" font-size="36.0" fill="#A6AAA8" transform="matrix(1.00, 0.00, -0.00, -1.00, 1645.1, 868.0)">c</text><text xml:space="preserve" font-family="Helvetica-Light" font-size="36.0" fill="#A6AAA8" transform="matrix(1.00, 0.00, -0.00, -1.00, 1665.1, 868.0)">h</text><text xml:space="preserve" font-family="Helvetica-Light" font-size="36.0" fill="#A6AAA8" transform="matrix(1.00, 0.00, -0.00, -1.00, 1685.1, 868.0)">y</text><text xml:space="preserve" font-family="Helvetica-Light" font-size="36.0" fill="#A6AAA8" transform="matrix(1.00, 0.00, -0.00, -1.00, 1703.1, 868.0)">)</text><path d="M 0.0 0.0 L 156.4 0.0 L 157.4 0.0 " fill="none" stroke="#A6AAA8" stroke-width="2.00" transform="matrix(0.47, 0.88, 0.88, -0.47, 779.6, 700.0)"></path><path d="M 856.7 836.1 L 857.0 846.9 L 848.2 840.6 Z M 856.7 836.1 " fill="#A6AAA8"></path><text xml:space="preserve" font-family="Helvetica-Light" font-size="36.0" fill="#A6AAA8" transform="matrix(1.00, 0.00, -0.00, -1.00, 861.0, 868.0)">I</text><text xml:space="preserve" font-family="Helvetica-Light" font-size="36.0" fill="#A6AAA8" transform="matrix(1.00, 0.00, -0.00, -1.00, 871.0, 868.0)">o</text><text xml:space="preserve" font-family="Helvetica-Light" font-size="36.0" fill="#A6AAA8" transform="matrix(1.00, 0.00, -0.00, -1.00, 891.0, 868.0)">n</text><text xml:space="preserve" font-family="Helvetica-Light" font-size="36.0" fill="#A6AAA8" transform="matrix(1.00, 0.00, -0.00, -1.00, 911.0, 868.0)">i</text><text xml:space="preserve" font-family="Helvetica-Light" font-size="36.0" fill="#A6AAA8" transform="matrix(1.00, 0.00, -0.00, -1.00, 919.0, 868.0)">z</text><text xml:space="preserve" font-family="Helvetica-Light" font-size="36.0" fill="#A6AAA8" transform="matrix(1.00, 0.00, -0.00, -1.00, 937.0, 868.0)">e</text><text xml:space="preserve" font-family="Helvetica-Light" font-size="36.0" fill="#A6AAA8" transform="matrix(1.00, 0.00, -0.00, -1.00, 957.0, 868.0)">d</text><text xml:space="preserve" font-family="Helvetica-Light" font-size="36.0" fill="#A6AAA8" transform="matrix(1.00, 0.00, -0.00, -1.00, 979.0, 868.0)"> </text><text xml:space="preserve" font-family="Helvetica-Light" font-size="36.0" fill="#A6AAA8" transform="matrix(1.00, 0.00, -0.00, -1.00, 989.1, 868.0)">b</text><text xml:space="preserve" font-family="Helvetica-Light" font-size="36.0" fill="#A6AAA8" transform="matrix(1.00, 0.00, -0.00, -1.00, 1011.0, 868.0)">y</text><text xml:space="preserve" font-family="Helvetica-Light" font-size="36.0" fill="#A6AAA8" transform="matrix(1.00, 0.00, -0.00, -1.00, 1029.0, 868.0)"> </text><text xml:space="preserve" font-family="Helvetica-Light" font-size="36.0" fill="#A6AAA8" transform="matrix(1.00, 0.00, -0.00, -1.00, 1039.1, 868.0)">s</text><text xml:space="preserve" font-family="Helvetica-Light" font-size="36.0" fill="#A6AAA8" transform="matrix(1.00, 0.00, -0.00, -1.00, 1057.1, 868.0)">t</text><text xml:space="preserve" font-family="Helvetica-Light" font-size="36.0" fill="#A6AAA8" transform="matrix(1.00, 0.00, -0.00, -1.00, 1067.1, 868.0)">a</text><text xml:space="preserve" font-family="Helvetica-Light" font-size="36.0" fill="#A6AAA8" transform="matrix(1.00, 0.00, -0.00, -1.00, 1087.1, 868.0)">r</text><text xml:space="preserve" font-family="Helvetica-Light" font-size="36.0" fill="#A6AAA8" transform="matrix(1.00, 0.00, -0.00, -1.00, 1099.1, 868.0)">s</text><g opacity="0.48"><g><clipPath id="clip-12"><path d="M 1137.4 725.6 L 1247.3 725.6 L 1247.3 320.0 L 1137.4 320.0 Z M 1137.4 725.6 "></path></clipPath><g clip-path="url(#clip-12)"><g><clipPath id="clip-13"><path d="M 1136.0 319.0 L 1249.0 319.0 L 1249.0 727.0 L 1136.0 727.0 Z M 1136.0 319.0 "></path></clipPath><g clip-path="url(#clip-13)"><image xlink:href="../../158E7F1E-EDA4-48C2-9D8F-B85F720CF086/assets/C2E6FBB4C3857A0E73F6D4A465A166F0.jpeg" width="256.00" height="256.00" transform="matrix(1.74, 0.00, -0.00, -1.74, 1137.4, 725.6)"></image></g></g></g></g></g><g opacity="0.37"><g><clipPath id="clip-14"><path d="M 1136.1 725.6 L 1246.1 725.6 L 1246.1 320.0 L 1136.1 320.0 Z M 1136.1 725.6 "></path></clipPath><g clip-path="url(#clip-14)"><g><clipPath id="clip-15"><path d="M 1135.0 319.0 L 1248.0 319.0 L 1248.0 727.0 L 1135.0 727.0 Z M 1135.0 319.0 "></path></clipPath><g clip-path="url(#clip-15)"><path d="M 1135.0 319.0 L 1248.0 319.0 L 1248.0 727.0 L 1135.0 727.0 Z M 1135.0 319.0 " fill="url(#gradSh1.3)"></path></g></g></g></g></g><path d="M 1151.9 549.9 L 1230.2 549.9 L 1230.2 495.7 L 1151.9 495.7 Z M 1151.9 549.9 " fill="#000000"></path><g><clipPath id="clip-16"><path d="M 1148.6 492.3 L 1234.6 492.3 L 1234.6 553.3 L 1148.6 553.3 Z M 1148.6 492.3 "></path></clipPath><g clip-path="url(#clip-16)"><text xml:space="preserve" font-family="Helvetica-Bold" font-weight="bold" font-size="36.0" fill="#710C04" transform="matrix(1.00, 0.00, -0.00, -1.00, 1158.0, 510.0)">H</text><text xml:space="preserve" font-family="Helvetica-Bold" font-weight="bold" font-size="36.0" fill="#710C04" transform="matrix(1.00, 0.00, -0.00, -1.00, 1184.0, 510.0)">e</text><text xml:space="preserve" font-family="Helvetica-Bold" font-weight="bold" font-size="36.0" fill="#710C04" transform="matrix(1.00, 0.00, -0.00, -1.00, 1204.0, 510.0)">I</text><text xml:space="preserve" font-family="Helvetica-Bold" font-weight="bold" font-size="36.0" fill="#710C04" transform="matrix(1.00, 0.00, -0.00, -1.00, 1214.0, 510.0)">I</text></g></g></g></svg>