<?xml version="1.0" encoding="UTF-8" standalone="no"?><svg xmlns="http://www.w3.org/2000/svg" xmlns:xlink="http://www.w3.org/1999/xlink" clip-rule="evenodd" stroke-miterlimit="4.00" viewBox="0 0 183 100"><desc>SVG generated by Keynote</desc><defs></defs><g transform="matrix(1.00, 0.00, -0.00, -1.00, 0.0, 100.0)"><path d="M 1.1 98.8 L 181.4 98.8 L 181.4 1.6 L 1.1 1.6 Z M 1.1 98.8 " fill="#000000"></path><g><clipPath id="clip-4"><path d="M -2.3 -1.8 L 317.2 -1.8 L 317.2 102.2 L -2.3 102.2 Z M -2.3 -1.8 "></path></clipPath><g clip-path="url(#clip-4)"><text xml:space="preserve" font-family="Helvetica-Bold" font-weight="bold" font-size="36.0" fill="#710C04" transform="matrix(1.00, 0.00, -0.00, -1.00, 29.0, 58.0)">N</text><text xml:space="preserve" font-family="Helvetica-Bold" font-weight="bold" font-size="36.0" fill="#710C04" transform="matrix(1.00, 0.00, -0.00, -1.00, 55.0, 58.0)">e</text><text xml:space="preserve" font-family="Helvetica-Bold" font-weight="bold" font-size="36.0" fill="#710C04" transform="matrix(1.00, 0.00, -0.00, -1.00, 75.0, 58.0)">u</text><text xml:space="preserve" font-family="Helvetica-Bold" font-weight="bold" font-size="36.0" fill="#710C04" transform="matrix(1.00, 0.00, -0.00, -1.00, 97.0, 58.0)">t</text><text xml:space="preserve" font-family="Helvetica-Bold" font-weight="bold" font-size="36.0" fill="#710C04" transform="matrix(1.00, 0.00, -0.00, -1.00, 109.0, 58.0)">r</text><text xml:space="preserve" font-family="Helvetica-Bold" font-weight="bold" font-size="36.0" fill="#710C04" transform="matrix(1.00, 0.00, -0.00, -1.00, 123.0, 58.0)">a</text><text xml:space="preserve" font-family="Helvetica-Bold" font-weight="bold" font-size="36.0" fill="#710C04" transform="matrix(1.00, 0.00, -0.00, -1.00, 143.1, 58.0)">l</text><text xml:space="preserve" font-family="Helvetica-Bold" font-weight="bold" font-size="36.0" fill="#710C04" transform="matrix(1.00, 0.00, -0.00, -1.00, 153.0, 58.0)"> </text><text xml:space="preserve" font-family="Helvetica-Bold" font-weight="bold" font-size="36.0" fill="#710C04" transform="matrix(1.00, 0.00, -0.00, -1.00, 7.0, 15.0)">H</text><text xml:space="preserve" font-family="Helvetica-Bold" font-weight="bold" font-size="36.0" fill="#710C04" transform="matrix(1.00, 0.00, -0.00, -1.00, 33.0, 15.0)">y</text><text xml:space="preserve" font-family="Helvetica-Bold" font-weight="bold" font-size="36.0" fill="#710C04" transform="matrix(1.00, 0.00, -0.00, -1.00, 53.0, 15.0)">d</text><text xml:space="preserve" font-family="Helvetica-Bold" font-weight="bold" font-size="36.0" fill="#710C04" transform="matrix(1.00, 0.00, -0.00, -1.00, 75.0, 15.0)">r</text><text xml:space="preserve" font-family="Helvetica-Bold" font-weight="bold" font-size="36.0" fill="#710C04" transform="matrix(1.00, 0.00, -0.00, -1.00, 89.0, 15.0)">o</text><text xml:space="preserve" font-family="Helvetica-Bold" font-weight="bold" font-size="36.0" fill="#710C04" transform="matrix(1.00, 0.00, -0.00, -1.00, 111.0, 15.0)">g</text><text xml:space="preserve" font-family="Helvetica-Bold" font-weight="bold" font-size="36.0" fill="#710C04" transform="matrix(1.00, 0.00, -0.00, -1.00, 133.0, 15.0)">e</text><text xml:space="preserve" font-family="Helvetica-Bold" font-weight="bold" font-size="36.0" fill="#710C04" transform="matrix(1.00, 0.00, -0.00, -1.00, 153.1, 15.0)">n</text></g></g></g></svg>