<?xml version="1.0" encoding="UTF-8" standalone="no"?><svg xmlns="http://www.w3.org/2000/svg" xmlns:xlink="http://www.w3.org/1999/xlink" clip-rule="evenodd" stroke-miterlimit="4.00" viewBox="0 0 172 49"><desc>SVG generated by Keynote</desc><defs></defs><g transform="matrix(1.00, 0.00, -0.00, -1.00, 0.0, 49.0)"><text xml:space="preserve" font-family="Helvetica-Bold" font-weight="bold" font-size="50.0" fill="#0065C0" transform="matrix(1.00, 0.00, -0.00, -1.00, 2.0, 13.0)">t</text><text xml:space="preserve" font-family="Helvetica-Bold" font-weight="bold" font-size="33.3" fill="#0065C0" transform="matrix(1.00, 0.00, -0.00, -1.00, 18.7, 9.2)">a</text><text xml:space="preserve" font-family="Helvetica-Bold" font-weight="bold" font-size="33.3" fill="#0065C0" transform="matrix(1.00, 0.00, -0.00, -1.00, 37.2, 9.2)">g</text><text xml:space="preserve" font-family="Helvetica-Bold" font-weight="bold" font-size="33.3" fill="#0065C0" transform="matrix(1.00, 0.00, -0.00, -1.00, 57.6, 9.2)">e</text><text xml:space="preserve" font-family="Helvetica-Bold" font-weight="bold" font-size="33.3" fill="#0065C0" transform="matrix(1.00, 0.00, -0.00, -1.00, 76.1, 9.2)"> </text><text xml:space="preserve" font-family="Helvetica-Bold" font-weight="bold" font-size="50.0" fill="#DCDDE0" transform="matrix(1.00, 0.00, -0.00, -1.00, 85.3, 13.0)">&lt;</text><text xml:space="preserve" font-family="Helvetica-Light" font-size="50.0" fill="#DCDDE0" transform="matrix(1.00, 0.00, -0.00, -1.00, 114.5, 13.0)"> </text><text xml:space="preserve" font-family="Helvetica-Bold" font-weight="bold" font-size="50.0" fill="#0065C0" transform="matrix(1.00, 0.00, -0.00, -1.00, 128.4, 13.0)">t</text><text xml:space="preserve" font-family="Helvetica-Bold" font-weight="bold" font-size="33.3" fill="#0065C0" transform="matrix(1.00, 0.00, -0.00, -1.00, 145.1, 9.2)">Q</text></g></svg>