<?xml version="1.0" encoding="UTF-8" standalone="no"?><svg xmlns="http://www.w3.org/2000/svg" xmlns:xlink="http://www.w3.org/1999/xlink" clip-rule="evenodd" stroke-miterlimit="4.00" viewBox="0 0 711 56"><desc>SVG generated by Keynote</desc><defs></defs><g transform="matrix(1.00, 0.00, -0.00, -1.00, 0.0, 56.0)"><text xml:space="preserve" font-family="Helvetica-Light" font-size="70.0" fill="#A6AAA8" transform="matrix(1.00, 0.00, -0.00, -1.00, -4.0, 3.0)">D</text><text xml:space="preserve" font-family="Helvetica-Light" font-size="70.0" fill="#A6AAA8" transform="matrix(1.00, 0.00, -0.00, -1.00, 46.5, 3.0)">i</text><text xml:space="preserve" font-family="Helvetica-Light" font-size="70.0" fill="#A6AAA8" transform="matrix(1.00, 0.00, -0.00, -1.00, 62.1, 3.0)">f</text><text xml:space="preserve" font-family="Helvetica-Light" font-size="70.0" fill="#A6AAA8" transform="matrix(1.00, 0.00, -0.00, -1.00, 80.3, 3.0)">f</text><text xml:space="preserve" font-family="Helvetica-Light" font-size="70.0" fill="#A6AAA8" transform="matrix(1.00, 0.00, -0.00, -1.00, 99.7, 3.0)">e</text><text xml:space="preserve" font-family="Helvetica-Light" font-size="70.0" fill="#A6AAA8" transform="matrix(1.00, 0.00, -0.00, -1.00, 138.7, 3.0)">r</text><text xml:space="preserve" font-family="Helvetica-Light" font-size="70.0" fill="#A6AAA8" transform="matrix(1.00, 0.00, -0.00, -1.00, 160.7, 3.0)">e</text><text xml:space="preserve" font-family="Helvetica-Light" font-size="70.0" fill="#A6AAA8" transform="matrix(1.00, 0.00, -0.00, -1.00, 199.6, 3.0)">n</text><text xml:space="preserve" font-family="Helvetica-Light" font-size="70.0" fill="#A6AAA8" transform="matrix(1.00, 0.00, -0.00, -1.00, 238.6, 3.0)">t</text><text xml:space="preserve" font-family="Helvetica-Light" font-size="70.0" fill="#A6AAA8" transform="matrix(1.00, 0.00, -0.00, -1.00, 258.0, 3.0)"> </text><text xml:space="preserve" font-family="Helvetica-Light" font-size="70.0" fill="#A6AAA8" transform="matrix(1.00, 0.00, -0.00, -1.00, 277.5, 3.0)">t</text><text xml:space="preserve" font-family="Helvetica-Light" font-size="70.0" fill="#A6AAA8" transform="matrix(1.00, 0.00, -0.00, -1.00, 296.9, 3.0)">i</text><text xml:space="preserve" font-family="Helvetica-Light" font-size="70.0" fill="#A6AAA8" transform="matrix(1.00, 0.00, -0.00, -1.00, 312.5, 3.0)">m</text><text xml:space="preserve" font-family="Helvetica-Light" font-size="70.0" fill="#A6AAA8" transform="matrix(1.00, 0.00, -0.00, -1.00, 370.8, 3.0)">e</text><text xml:space="preserve" font-family="Helvetica-Light" font-size="70.0" fill="#A6AAA8" transform="matrix(1.00, 0.00, -0.00, -1.00, 409.7, 3.0)"> </text><text xml:space="preserve" font-family="Helvetica-Light" font-size="70.0" fill="#A6AAA8" transform="matrix(1.00, 0.00, -0.00, -1.00, 429.2, 3.0)">d</text><text xml:space="preserve" font-family="Helvetica-Light" font-size="70.0" fill="#A6AAA8" transform="matrix(1.00, 0.00, -0.00, -1.00, 471.9, 3.0)">e</text><text xml:space="preserve" font-family="Helvetica-Light" font-size="70.0" fill="#A6AAA8" transform="matrix(1.00, 0.00, -0.00, -1.00, 510.9, 3.0)">ï¬</text><text xml:space="preserve" font-family="Helvetica-Light" font-size="70.0" fill="#A6AAA8" transform="matrix(1.00, 0.00, -0.00, -1.00, 545.9, 3.0)">n</text><text xml:space="preserve" font-family="Helvetica-Light" font-size="70.0" fill="#A6AAA8" transform="matrix(1.00, 0.00, -0.00, -1.00, 584.8, 3.0)">i</text><text xml:space="preserve" font-family="Helvetica-Light" font-size="70.0" fill="#A6AAA8" transform="matrix(1.00, 0.00, -0.00, -1.00, 600.3, 3.0)">t</text><text xml:space="preserve" font-family="Helvetica-Light" font-size="70.0" fill="#A6AAA8" transform="matrix(1.00, 0.00, -0.00, -1.00, 619.8, 3.0)">i</text><text xml:space="preserve" font-family="Helvetica-Light" font-size="70.0" fill="#A6AAA8" transform="matrix(1.00, 0.00, -0.00, -1.00, 635.3, 3.0)">o</text><text xml:space="preserve" font-family="Helvetica-Light" font-size="70.0" fill="#A6AAA8" transform="matrix(1.00, 0.00, -0.00, -1.00, 674.2, 3.0)">n</text></g></svg>