<?xml version="1.0" encoding="UTF-8" standalone="no"?><svg xmlns="http://www.w3.org/2000/svg" xmlns:xlink="http://www.w3.org/1999/xlink" clip-rule="evenodd" stroke-miterlimit="4.00" viewBox="0 0 1254 52"><desc>SVG generated by Keynote</desc><defs></defs><g transform="matrix(1.00, 0.00, -0.00, -1.00, 0.0, 52.0)"><text xml:space="preserve" font-family="Helvetica-Light" font-size="50.0" fill="#DCDDE0" transform="matrix(1.00, 0.00, -0.00, -1.00, -3.0, 13.0)">I</text><text xml:space="preserve" font-family="Helvetica-Light" font-size="50.0" fill="#DCDDE0" transform="matrix(1.00, 0.00, -0.00, -1.00, 10.9, 13.0)">n</text><text xml:space="preserve" font-family="Helvetica-Light" font-size="50.0" fill="#DCDDE0" transform="matrix(1.00, 0.00, -0.00, -1.00, 38.7, 13.0)">ﬂ</text><text xml:space="preserve" font-family="Helvetica-Light" font-size="50.0" fill="#DCDDE0" transform="matrix(1.00, 0.00, -0.00, -1.00, 63.7, 13.0)">u</text><text xml:space="preserve" font-family="Helvetica-Light" font-size="50.0" fill="#DCDDE0" transform="matrix(1.00, 0.00, -0.00, -1.00, 91.5, 13.0)">e</text><text xml:space="preserve" font-family="Helvetica-Light" font-size="50.0" fill="#DCDDE0" transform="matrix(1.00, 0.00, -0.00, -1.00, 119.3, 13.0)">n</text><text xml:space="preserve" font-family="Helvetica-Light" font-size="50.0" fill="#DCDDE0" transform="matrix(1.00, 0.00, -0.00, -1.00, 147.1, 13.0)">c</text><text xml:space="preserve" font-family="Helvetica-Light" font-size="50.0" fill="#DCDDE0" transform="matrix(1.00, 0.00, -0.00, -1.00, 174.9, 13.0)">e</text><text xml:space="preserve" font-family="Helvetica-Light" font-size="50.0" fill="#DCDDE0" transform="matrix(1.00, 0.00, -0.00, -1.00, 202.7, 13.0)"> </text><text xml:space="preserve" font-family="Helvetica-Light" font-size="50.0" fill="#DCDDE0" transform="matrix(1.00, 0.00, -0.00, -1.00, 216.6, 13.0)">o</text><text xml:space="preserve" font-family="Helvetica-Light" font-size="50.0" fill="#DCDDE0" transform="matrix(1.00, 0.00, -0.00, -1.00, 244.4, 13.0)">n</text><text xml:space="preserve" font-family="Helvetica-Light" font-size="50.0" fill="#DCDDE0" transform="matrix(1.00, 0.00, -0.00, -1.00, 272.2, 13.0)"> </text><text xml:space="preserve" font-family="Helvetica-Light" font-size="50.0" fill="#DCDDE0" transform="matrix(1.00, 0.00, -0.00, -1.00, 286.1, 13.0)">t</text><text xml:space="preserve" font-family="Helvetica-Light" font-size="50.0" fill="#DCDDE0" transform="matrix(1.00, 0.00, -0.00, -1.00, 300.0, 13.0)">h</text><text xml:space="preserve" font-family="Helvetica-Light" font-size="50.0" fill="#DCDDE0" transform="matrix(1.00, 0.00, -0.00, -1.00, 327.8, 13.0)">e</text><text xml:space="preserve" font-family="Helvetica-Light" font-size="50.0" fill="#DCDDE0" transform="matrix(1.00, 0.00, -0.00, -1.00, 355.6, 13.0)">i</text><text xml:space="preserve" font-family="Helvetica-Light" font-size="50.0" fill="#DCDDE0" transform="matrix(1.00, 0.00, -0.00, -1.00, 366.7, 13.0)">r</text><text xml:space="preserve" font-family="Helvetica-Light" font-size="50.0" fill="#DCDDE0" transform="matrix(1.00, 0.00, -0.00, -1.00, 383.4, 13.0)"> </text><text xml:space="preserve" font-family="Helvetica-Bold" font-weight="bold" font-size="50.0" fill="#0065C0" transform="matrix(1.00, 0.00, -0.00, -1.00, 397.2, 13.0)">h</text><text xml:space="preserve" font-family="Helvetica-Bold" font-weight="bold" font-size="50.0" fill="#0065C0" transform="matrix(1.00, 0.00, -0.00, -1.00, 427.8, 13.0)">o</text><text xml:space="preserve" font-family="Helvetica-Bold" font-weight="bold" font-size="50.0" fill="#0065C0" transform="matrix(1.00, 0.00, -0.00, -1.00, 458.3, 13.0)">s</text><text xml:space="preserve" font-family="Helvetica-Bold" font-weight="bold" font-size="50.0" fill="#0065C0" transform="matrix(1.00, 0.00, -0.00, -1.00, 486.1, 13.0)">t</text><text xml:space="preserve" font-family="Helvetica-Bold" font-weight="bold" font-size="50.0" fill="#0065C0" transform="matrix(1.00, 0.00, -0.00, -1.00, 502.8, 13.0)"> </text><text xml:space="preserve" font-family="Helvetica-Bold" font-weight="bold" font-size="50.0" fill="#0065C0" transform="matrix(1.00, 0.00, -0.00, -1.00, 516.7, 13.0)">g</text><text xml:space="preserve" font-family="Helvetica-Bold" font-weight="bold" font-size="50.0" fill="#0065C0" transform="matrix(1.00, 0.00, -0.00, -1.00, 547.2, 13.0)">a</text><text xml:space="preserve" font-family="Helvetica-Bold" font-weight="bold" font-size="50.0" fill="#0065C0" transform="matrix(1.00, 0.00, -0.00, -1.00, 575.0, 13.0)">l</text><text xml:space="preserve" font-family="Helvetica-Bold" font-weight="bold" font-size="50.0" fill="#0065C0" transform="matrix(1.00, 0.00, -0.00, -1.00, 588.9, 13.0)">a</text><text xml:space="preserve" font-family="Helvetica-Bold" font-weight="bold" font-size="50.0" fill="#0065C0" transform="matrix(1.00, 0.00, -0.00, -1.00, 616.7, 13.0)">x</text><text xml:space="preserve" font-family="Helvetica-Bold" font-weight="bold" font-size="50.0" fill="#0065C0" transform="matrix(1.00, 0.00, -0.00, -1.00, 644.5, 13.0)">i</text><text xml:space="preserve" font-family="Helvetica-Bold" font-weight="bold" font-size="50.0" fill="#0065C0" transform="matrix(1.00, 0.00, -0.00, -1.00, 658.4, 13.0)">e</text><text xml:space="preserve" font-family="Helvetica-Bold" font-weight="bold" font-size="50.0" fill="#0065C0" transform="matrix(1.00, 0.00, -0.00, -1.00, 686.2, 13.0)">s</text><text xml:space="preserve" font-family="Helvetica-Light" font-size="50.0" fill="#DCDDE0" transform="matrix(1.00, 0.00, -0.00, -1.00, 714.0, 13.0)"> </text><text xml:space="preserve" font-family="Helvetica-Light" font-size="50.0" fill="#DCDDE0" transform="matrix(1.00, 0.00, -0.00, -1.00, 727.9, 13.0)">w</text><text xml:space="preserve" font-family="Helvetica-Light" font-size="50.0" fill="#DCDDE0" transform="matrix(1.00, 0.00, -0.00, -1.00, 764.0, 13.0)">i</text><text xml:space="preserve" font-family="Helvetica-Light" font-size="50.0" fill="#DCDDE0" transform="matrix(1.00, 0.00, -0.00, -1.00, 775.1, 13.0)">t</text><text xml:space="preserve" font-family="Helvetica-Light" font-size="50.0" fill="#DCDDE0" transform="matrix(1.00, 0.00, -0.00, -1.00, 789.0, 13.0)">h</text><text xml:space="preserve" font-family="Helvetica-Light" font-size="50.0" fill="#DCDDE0" transform="matrix(1.00, 0.00, -0.00, -1.00, 816.8, 13.0)"> </text><text xml:space="preserve" font-family="Helvetica-Light" font-size="50.0" fill="#DCDDE0" transform="matrix(1.00, 0.00, -0.00, -1.00, 830.7, 13.0)">a</text><text xml:space="preserve" font-family="Helvetica-Light" font-size="50.0" fill="#DCDDE0" transform="matrix(1.00, 0.00, -0.00, -1.00, 858.5, 13.0)"> </text><text xml:space="preserve" font-family="Helvetica-Light" font-size="50.0" fill="#DCDDE0" transform="matrix(1.00, 0.00, -0.00, -1.00, 872.4, 13.0)">q</text><text xml:space="preserve" font-family="Helvetica-Light" font-size="50.0" fill="#DCDDE0" transform="matrix(1.00, 0.00, -0.00, -1.00, 903.0, 13.0)">u</text><text xml:space="preserve" font-family="Helvetica-Light" font-size="50.0" fill="#DCDDE0" transform="matrix(1.00, 0.00, -0.00, -1.00, 930.8, 13.0)">a</text><text xml:space="preserve" font-family="Helvetica-Light" font-size="50.0" fill="#DCDDE0" transform="matrix(1.00, 0.00, -0.00, -1.00, 958.6, 13.0)">s</text><text xml:space="preserve" font-family="Helvetica-Light" font-size="50.0" fill="#DCDDE0" transform="matrix(1.00, 0.00, -0.00, -1.00, 983.6, 13.0)">a</text><text xml:space="preserve" font-family="Helvetica-Light" font-size="50.0" fill="#DCDDE0" transform="matrix(1.00, 0.00, -0.00, -1.00, 1011.4, 13.0)">r</text><text xml:space="preserve" font-family="Helvetica-Light" font-size="50.0" fill="#DCDDE0" transform="matrix(1.00, 0.00, -0.00, -1.00, 1028.0, 13.0)"> </text><text xml:space="preserve" font-family="Helvetica-Light" font-size="50.0" fill="#DCDDE0" transform="matrix(1.00, 0.00, -0.00, -1.00, 1041.9, 13.0)">f</text><text xml:space="preserve" font-family="Helvetica-Light" font-size="50.0" fill="#DCDDE0" transform="matrix(1.00, 0.00, -0.00, -1.00, 1055.8, 13.0)">e</text><text xml:space="preserve" font-family="Helvetica-Light" font-size="50.0" fill="#DCDDE0" transform="matrix(1.00, 0.00, -0.00, -1.00, 1083.6, 13.0)">e</text><text xml:space="preserve" font-family="Helvetica-Light" font-size="50.0" fill="#DCDDE0" transform="matrix(1.00, 0.00, -0.00, -1.00, 1111.4, 13.0)">d</text><text xml:space="preserve" font-family="Helvetica-Light" font-size="50.0" fill="#DCDDE0" transform="matrix(1.00, 0.00, -0.00, -1.00, 1142.0, 13.0)">b</text><text xml:space="preserve" font-family="Helvetica-Light" font-size="50.0" fill="#DCDDE0" transform="matrix(1.00, 0.00, -0.00, -1.00, 1172.5, 13.0)">a</text><text xml:space="preserve" font-family="Helvetica-Light" font-size="50.0" fill="#DCDDE0" transform="matrix(1.00, 0.00, -0.00, -1.00, 1200.3, 13.0)">c</text><text xml:space="preserve" font-family="Helvetica-Light" font-size="50.0" fill="#DCDDE0" transform="matrix(1.00, 0.00, -0.00, -1.00, 1228.1, 13.0)">k</text></g></svg>