<?xml version="1.0" encoding="UTF-8" standalone="no"?><svg xmlns="http://www.w3.org/2000/svg" xmlns:xlink="http://www.w3.org/1999/xlink" clip-rule="evenodd" stroke-miterlimit="4.00" viewBox="0 0 1080 69"><desc>SVG generated by Keynote</desc><defs></defs><g transform="matrix(1.00, 0.00, -0.00, -1.00, 0.0, 69.0)"><text xml:space="preserve" font-family="Helvetica-Light" font-size="70.0" fill="#A6AAA8" transform="matrix(1.00, 0.00, -0.00, -1.00, 1.0, 16.0)">W</text><text xml:space="preserve" font-family="Helvetica-Light" font-size="70.0" fill="#A6AAA8" transform="matrix(1.00, 0.00, -0.00, -1.00, 63.2, 16.0)">h</text><text xml:space="preserve" font-family="Helvetica-Light" font-size="70.0" fill="#A6AAA8" transform="matrix(1.00, 0.00, -0.00, -1.00, 102.2, 16.0)">y</text><text xml:space="preserve" font-family="Helvetica-Light" font-size="70.0" fill="#A6AAA8" transform="matrix(1.00, 0.00, -0.00, -1.00, 137.2, 16.0)"> </text><text xml:space="preserve" font-family="Helvetica-Light" font-size="70.0" fill="#A6AAA8" transform="matrix(1.00, 0.00, -0.00, -1.00, 156.6, 16.0)">w</text><text xml:space="preserve" font-family="Helvetica-Light" font-size="70.0" fill="#A6AAA8" transform="matrix(1.00, 0.00, -0.00, -1.00, 207.2, 16.0)">e</text><text xml:space="preserve" font-family="Helvetica-Light" font-size="70.0" fill="#A6AAA8" transform="matrix(1.00, 0.00, -0.00, -1.00, 246.1, 16.0)"> </text><text xml:space="preserve" font-family="Helvetica-Light" font-size="70.0" fill="#A6AAA8" transform="matrix(1.00, 0.00, -0.00, -1.00, 265.5, 16.0)">c</text><text xml:space="preserve" font-family="Helvetica-Light" font-size="70.0" fill="#A6AAA8" transform="matrix(1.00, 0.00, -0.00, -1.00, 304.5, 16.0)">a</text><text xml:space="preserve" font-family="Helvetica-Light" font-size="70.0" fill="#A6AAA8" transform="matrix(1.00, 0.00, -0.00, -1.00, 343.4, 16.0)">r</text><text xml:space="preserve" font-family="Helvetica-Light" font-size="70.0" fill="#A6AAA8" transform="matrix(1.00, 0.00, -0.00, -1.00, 365.4, 16.0)">e</text><text xml:space="preserve" font-family="Helvetica-Light" font-size="70.0" fill="#A6AAA8" transform="matrix(1.00, 0.00, -0.00, -1.00, 404.3, 16.0)"> </text><text xml:space="preserve" font-family="Helvetica-Light" font-size="70.0" fill="#A6AAA8" transform="matrix(1.00, 0.00, -0.00, -1.00, 423.8, 16.0)">a</text><text xml:space="preserve" font-family="Helvetica-Light" font-size="70.0" fill="#A6AAA8" transform="matrix(1.00, 0.00, -0.00, -1.00, 462.7, 16.0)">b</text><text xml:space="preserve" font-family="Helvetica-Light" font-size="70.0" fill="#A6AAA8" transform="matrix(1.00, 0.00, -0.00, -1.00, 505.5, 16.0)">o</text><text xml:space="preserve" font-family="Helvetica-Light" font-size="70.0" fill="#A6AAA8" transform="matrix(1.00, 0.00, -0.00, -1.00, 544.4, 16.0)">u</text><text xml:space="preserve" font-family="Helvetica-Light" font-size="70.0" fill="#A6AAA8" transform="matrix(1.00, 0.00, -0.00, -1.00, 583.3, 16.0)">t</text><text xml:space="preserve" font-family="Helvetica-Light" font-size="70.0" fill="#A6AAA8" transform="matrix(1.00, 0.00, -0.00, -1.00, 602.8, 16.0)"> </text><text xml:space="preserve" font-family="Helvetica-Light" font-size="70.0" fill="#A6AAA8" transform="matrix(1.00, 0.00, -0.00, -1.00, 622.3, 16.0)">q</text><text xml:space="preserve" font-family="Helvetica-Light" font-size="70.0" fill="#A6AAA8" transform="matrix(1.00, 0.00, -0.00, -1.00, 665.0, 16.0)">u</text><text xml:space="preserve" font-family="Helvetica-Light" font-size="70.0" fill="#A6AAA8" transform="matrix(1.00, 0.00, -0.00, -1.00, 703.9, 16.0)">a</text><text xml:space="preserve" font-family="Helvetica-Light" font-size="70.0" fill="#A6AAA8" transform="matrix(1.00, 0.00, -0.00, -1.00, 742.9, 16.0)">s</text><text xml:space="preserve" font-family="Helvetica-Light" font-size="70.0" fill="#A6AAA8" transform="matrix(1.00, 0.00, -0.00, -1.00, 777.9, 16.0)">a</text><text xml:space="preserve" font-family="Helvetica-Light" font-size="70.0" fill="#A6AAA8" transform="matrix(1.00, 0.00, -0.00, -1.00, 816.8, 16.0)">r</text><text xml:space="preserve" font-family="Helvetica-Light" font-size="70.0" fill="#A6AAA8" transform="matrix(1.00, 0.00, -0.00, -1.00, 840.1, 16.0)"> </text><text xml:space="preserve" font-family="Helvetica-Light" font-size="70.0" fill="#A6AAA8" transform="matrix(1.00, 0.00, -0.00, -1.00, 859.5, 16.0)">l</text><text xml:space="preserve" font-family="Helvetica-Light" font-size="70.0" fill="#A6AAA8" transform="matrix(1.00, 0.00, -0.00, -1.00, 875.1, 16.0)">i</text><text xml:space="preserve" font-family="Helvetica-Light" font-size="70.0" fill="#A6AAA8" transform="matrix(1.00, 0.00, -0.00, -1.00, 890.6, 16.0)">f</text><text xml:space="preserve" font-family="Helvetica-Light" font-size="70.0" fill="#A6AAA8" transform="matrix(1.00, 0.00, -0.00, -1.00, 910.1, 16.0)">e</text><text xml:space="preserve" font-family="Helvetica-Light" font-size="70.0" fill="#A6AAA8" transform="matrix(1.00, 0.00, -0.00, -1.00, 949.0, 16.0)">t</text><text xml:space="preserve" font-family="Helvetica-Light" font-size="70.0" fill="#A6AAA8" transform="matrix(1.00, 0.00, -0.00, -1.00, 968.5, 16.0)">i</text><text xml:space="preserve" font-family="Helvetica-Light" font-size="70.0" fill="#A6AAA8" transform="matrix(1.00, 0.00, -0.00, -1.00, 984.0, 16.0)">m</text><text xml:space="preserve" font-family="Helvetica-Light" font-size="70.0" fill="#A6AAA8" transform="matrix(1.00, 0.00, -0.00, -1.00, 1042.3, 16.0)">e</text></g></svg>