<?xml version="1.0" encoding="UTF-8" standalone="no"?><svg xmlns="http://www.w3.org/2000/svg" xmlns:xlink="http://www.w3.org/1999/xlink" clip-rule="evenodd" stroke-miterlimit="4.00" viewBox="0 0 174 134"><desc>SVG generated by Keynote</desc><defs></defs><g transform="matrix(1.00, 0.00, -0.00, -1.00, 0.0, 134.0)"><g><clipPath id="clip-275"><path d="M 1.0 134.0 L 173.0 134.0 L 173.0 0.0 L 1.0 0.0 Z M 0.8 133.9 "></path></clipPath><g clip-path="url(#clip-275)"><g><clipPath id="clip-276"><path d="M 0.8 0.4 L 173.4 0.4 L 173.4 133.9 L 0.8 133.9 Z M 0.8 0.4 "></path></clipPath><g clip-path="url(#clip-276)"><image xlink:href="../../39451CEE-E280-41CA-872D-216C9FC86FAF/assets/10A10264639072BB412C539169A6ABF1.png" width="356.00" height="540.00" transform="matrix(0.48, 0.00, -0.00, -0.49, 1.0, 134.0)"></image></g></g></g></g><g><clipPath id="clip-277"><path d="M 81.9 61.9 L 95.0 61.9 L 95.0 75.2 L 81.9 75.2 Z M 81.9 61.9 "></path></clipPath><g clip-path="url(#clip-277)"><path d="M 0.0 0.0 L 9.1 0.0 L 9.1 9.3 L 0.0 9.3 Z M 0.0 0.0 " fill="none" stroke="#FEFFFE" stroke-width="2.00" transform="matrix(1.00, 0.00, 0.00, -1.00, 83.9, 73.2)"></path></g></g></g></svg>