<?xml version="1.0" encoding="UTF-8" standalone="no"?><svg xmlns="http://www.w3.org/2000/svg" xmlns:xlink="http://www.w3.org/1999/xlink" clip-rule="evenodd" stroke-miterlimit="4.00" viewBox="0 0 1024 768"><desc>SVG generated by Keynote</desc><defs></defs><g transform="matrix(1.00, 0.00, -0.00, -1.00, 0.0, 768.0)"><path d="M 0.0 768.0 L 1024.0 768.0 L 1024.0 0.0 L 0.0 0.0 Z M 0.0 768.0 " fill="#000000"></path><text xml:space="preserve" font-family="Helvetica-Light" font-size="18.0" fill="#FEFFFF" transform="matrix(1.00, 0.00, -0.00, -1.00, 501.0, 17.0)">1</text><text xml:space="preserve" font-family="Helvetica-Light" font-size="18.0" fill="#FEFFFF" transform="matrix(1.00, 0.00, -0.00, -1.00, 511.0, 17.0)">3</text><g><clipPath id="clip-206"><path d="M 324.0 720.0 L 1001.0 720.0 L 1001.0 74.0 L 324.0 74.0 Z M 324.1 720.2 "></path></clipPath><g clip-path="url(#clip-206)"><image xlink:href="7022B6F32F43B3B5F8C8CB053F27CAC1.png" width="566.00" height="540.00" transform="matrix(1.20, 0.00, -0.00, -1.20, 324.0, 720.0)"></image></g></g><text xml:space="preserve" font-family="Helvetica-Light" font-size="24.0" fill="#FEFFFF" transform="matrix(1.00, 0.00, -0.00, -1.00, 23.0, 31.0)">A</text><text xml:space="preserve" font-family="Helvetica-Light" font-size="24.0" fill="#FEFFFF" transform="matrix(1.00, 0.00, -0.00, -1.00, 39.0, 31.0)">b</text><text xml:space="preserve" font-family="Helvetica-Light" font-size="24.0" fill="#FEFFFF" transform="matrix(1.00, 0.00, -0.00, -1.00, 53.7, 31.0)">e</text><text xml:space="preserve" font-family="Helvetica-Light" font-size="24.0" fill="#FEFFFF" transform="matrix(1.00, 0.00, -0.00, -1.00, 67.0, 31.0)">l</text><text xml:space="preserve" font-family="Helvetica-Light" font-size="24.0" fill="#FEFFFF" transform="matrix(1.00, 0.00, -0.00, -1.00, 72.3, 31.0)">l</text><text xml:space="preserve" font-family="Helvetica-Light" font-size="24.0" fill="#FEFFFF" transform="matrix(1.00, 0.00, -0.00, -1.00, 77.7, 31.0)"> </text><text xml:space="preserve" font-family="Helvetica-Light" font-size="24.0" fill="#FEFFFF" transform="matrix(1.00, 0.00, -0.00, -1.00, 84.3, 31.0)">2</text><text xml:space="preserve" font-family="Helvetica-Light" font-size="24.0" fill="#FEFFFF" transform="matrix(1.00, 0.00, -0.00, -1.00, 97.7, 31.0)">1</text><text xml:space="preserve" font-family="Helvetica-Light" font-size="24.0" fill="#FEFFFF" transform="matrix(1.00, 0.00, -0.00, -1.00, 111.0, 31.0)">4</text><text xml:space="preserve" font-family="Helvetica-Light" font-size="24.0" fill="#FEFFFF" transform="matrix(1.00, 0.00, -0.00, -1.00, 124.4, 31.0)">2</text><text xml:space="preserve" font-family="Helvetica-Light" font-size="24.0" fill="#FEFFFF" transform="matrix(1.00, 0.00, -0.00, -1.00, 137.7, 31.0)">:</text><text xml:space="preserve" font-family="Helvetica-Light" font-size="24.0" fill="#FEFFFF" transform="matrix(1.00, 0.00, -0.00, -1.00, 144.4, 31.0)"> </text><text xml:space="preserve" font-family="Helvetica-Light" font-size="24.0" fill="#FEFFFF" transform="matrix(1.00, 0.00, -0.00, -1.00, 151.1, 31.0)">E</text><text xml:space="preserve" font-family="Helvetica-Light" font-size="24.0" fill="#FEFFFF" transform="matrix(1.00, 0.00, -0.00, -1.00, 165.7, 31.0)">x</text><text xml:space="preserve" font-family="Helvetica-Light" font-size="24.0" fill="#FEFFFF" transform="matrix(1.00, 0.00, -0.00, -1.00, 177.7, 31.0)">a</text><text xml:space="preserve" font-family="Helvetica-Light" font-size="24.0" fill="#FEFFFF" transform="matrix(1.00, 0.00, -0.00, -1.00, 191.1, 31.0)">m</text><text xml:space="preserve" font-family="Helvetica-Light" font-size="24.0" fill="#FEFFFF" transform="matrix(1.00, 0.00, -0.00, -1.00, 211.1, 31.0)">p</text><text xml:space="preserve" font-family="Helvetica-Light" font-size="24.0" fill="#FEFFFF" transform="matrix(1.00, 0.00, -0.00, -1.00, 225.7, 31.0)">l</text><text xml:space="preserve" font-family="Helvetica-Light" font-size="24.0" fill="#FEFFFF" transform="matrix(1.00, 0.00, -0.00, -1.00, 231.1, 31.0)">e</text><text xml:space="preserve" font-family="Helvetica-Light" font-size="24.0" fill="#FEFFFF" transform="matrix(1.00, 0.00, -0.00, -1.00, 244.4, 31.0)"> </text><text xml:space="preserve" font-family="Helvetica-Light" font-size="24.0" fill="#FEFFFF" transform="matrix(1.00, 0.00, -0.00, -1.00, 251.1, 31.0)">o</text><text xml:space="preserve" font-family="Helvetica-Light" font-size="24.0" fill="#FEFFFF" transform="matrix(1.00, 0.00, -0.00, -1.00, 264.4, 31.0)">f</text><text xml:space="preserve" font-family="Helvetica-Light" font-size="24.0" fill="#FEFFFF" transform="matrix(1.00, 0.00, -0.00, -1.00, 271.1, 31.0)"> </text><text xml:space="preserve" font-family="Helvetica-Light" font-size="24.0" fill="#FEFFFF" transform="matrix(1.00, 0.00, -0.00, -1.00, 277.8, 31.0)">C</text><text xml:space="preserve" font-family="Helvetica-Light" font-size="24.0" fill="#FEFFFF" transform="matrix(1.00, 0.00, -0.00, -1.00, 295.1, 31.0)">o</text><text xml:space="preserve" font-family="Helvetica-Light" font-size="24.0" fill="#FEFFFF" transform="matrix(1.00, 0.00, -0.00, -1.00, 308.4, 31.0)">l</text><text xml:space="preserve" font-family="Helvetica-Light" font-size="24.0" fill="#FEFFFF" transform="matrix(1.00, 0.00, -0.00, -1.00, 313.8, 31.0)">d</text><text xml:space="preserve" font-family="Helvetica-Light" font-size="24.0" fill="#FEFFFF" transform="matrix(1.00, 0.00, -0.00, -1.00, 328.4, 31.0)"> </text><text xml:space="preserve" font-family="Helvetica-Light" font-size="24.0" fill="#FEFFFF" transform="matrix(1.00, 0.00, -0.00, -1.00, 335.1, 31.0)">F</text><text xml:space="preserve" font-family="Helvetica-Light" font-size="24.0" fill="#FEFFFF" transform="matrix(1.00, 0.00, -0.00, -1.00, 348.4, 31.0)">r</text><text xml:space="preserve" font-family="Helvetica-Light" font-size="24.0" fill="#FEFFFF" transform="matrix(1.00, 0.00, -0.00, -1.00, 356.0, 31.0)">o</text><text xml:space="preserve" font-family="Helvetica-Light" font-size="24.0" fill="#FEFFFF" transform="matrix(1.00, 0.00, -0.00, -1.00, 369.3, 31.0)">n</text><text xml:space="preserve" font-family="Helvetica-Light" font-size="24.0" fill="#FEFFFF" transform="matrix(1.00, 0.00, -0.00, -1.00, 382.7, 31.0)">t</text><text xml:space="preserve" font-family="Helvetica-Light" font-size="15.0" fill="#FEFFFF" transform="matrix(1.00, 0.00, -0.00, -1.00, 841.0, 54.0)">M</text><text xml:space="preserve" font-family="Helvetica-Light" font-size="15.0" fill="#FEFFFF" transform="matrix(1.00, 0.00, -0.00, -1.00, 853.5, 54.0)">a</text><text xml:space="preserve" font-family="Helvetica-Light" font-size="15.0" fill="#FEFFFF" transform="matrix(1.00, 0.00, -0.00, -1.00, 861.8, 54.0)">r</text><text xml:space="preserve" font-family="Helvetica-Light" font-size="15.0" fill="#FEFFFF" transform="matrix(1.00, 0.00, -0.00, -1.00, 866.8, 54.0)">k</text><text xml:space="preserve" font-family="Helvetica-Light" font-size="15.0" fill="#FEFFFF" transform="matrix(1.00, 0.00, -0.00, -1.00, 874.3, 54.0)">e</text><text xml:space="preserve" font-family="Helvetica-Light" font-size="15.0" fill="#FEFFFF" transform="matrix(1.00, 0.00, -0.00, -1.00, 882.7, 54.0)">v</text><text xml:space="preserve" font-family="Helvetica-Light" font-size="15.0" fill="#FEFFFF" transform="matrix(1.00, 0.00, -0.00, -1.00, 890.2, 54.0)">i</text><text xml:space="preserve" font-family="Helvetica-Light" font-size="15.0" fill="#FEFFFF" transform="matrix(1.00, 0.00, -0.00, -1.00, 893.5, 54.0)">t</text><text xml:space="preserve" font-family="Helvetica-Light" font-size="15.0" fill="#FEFFFF" transform="matrix(1.00, 0.00, -0.00, -1.00, 897.7, 54.0)">c</text><text xml:space="preserve" font-family="Helvetica-Light" font-size="15.0" fill="#FEFFFF" transform="matrix(1.00, 0.00, -0.00, -1.00, 906.0, 54.0)">h</text><text xml:space="preserve" font-family="Helvetica-Light" font-size="15.0" fill="#FEFFFF" transform="matrix(1.00, 0.00, -0.00, -1.00, 914.4, 54.0)"> </text><text xml:space="preserve" font-family="Helvetica-Light" font-size="15.0" fill="#FEFFFF" transform="matrix(1.00, 0.00, -0.00, -1.00, 918.5, 54.0)">e</text><text xml:space="preserve" font-family="Helvetica-Light" font-size="15.0" fill="#FEFFFF" transform="matrix(1.00, 0.00, -0.00, -1.00, 926.9, 54.0)">t</text><text xml:space="preserve" font-family="Helvetica-Light" font-size="15.0" fill="#FEFFFF" transform="matrix(1.00, 0.00, -0.00, -1.00, 931.0, 54.0)"> </text><text xml:space="preserve" font-family="Helvetica-Light" font-size="15.0" fill="#FEFFFF" transform="matrix(1.00, 0.00, -0.00, -1.00, 935.2, 54.0)">a</text><text xml:space="preserve" font-family="Helvetica-Light" font-size="15.0" fill="#FEFFFF" transform="matrix(1.00, 0.00, -0.00, -1.00, 943.5, 54.0)">l</text><text xml:space="preserve" font-family="Helvetica-Light" font-size="15.0" fill="#FEFFFF" transform="matrix(1.00, 0.00, -0.00, -1.00, 946.9, 54.0)">.</text><text xml:space="preserve" font-family="Helvetica-Light" font-size="15.0" fill="#FEFFFF" transform="matrix(1.00, 0.00, -0.00, -1.00, 951.0, 54.0)"> </text><text xml:space="preserve" font-family="Helvetica-Light" font-size="15.0" fill="#FEFFFF" transform="matrix(1.00, 0.00, -0.00, -1.00, 955.2, 54.0)">(</text><text xml:space="preserve" font-family="Helvetica-Light" font-size="15.0" fill="#FEFFFF" transform="matrix(1.00, 0.00, -0.00, -1.00, 960.2, 54.0)">2</text><text xml:space="preserve" font-family="Helvetica-Light" font-size="15.0" fill="#FEFFFF" transform="matrix(1.00, 0.00, -0.00, -1.00, 968.5, 54.0)">0</text><text xml:space="preserve" font-family="Helvetica-Light" font-size="15.0" fill="#FEFFFF" transform="matrix(1.00, 0.00, -0.00, -1.00, 976.9, 54.0)">0</text><text xml:space="preserve" font-family="Helvetica-Light" font-size="15.0" fill="#FEFFFF" transform="matrix(1.00, 0.00, -0.00, -1.00, 985.2, 54.0)">7</text><text xml:space="preserve" font-family="Helvetica-Light" font-size="15.0" fill="#FEFFFF" transform="matrix(1.00, 0.00, -0.00, -1.00, 993.6, 54.0)">)</text><image xlink:href="D9F062AFC2050C759E0D380CA544A5EB.png" width="219.00" height="223.00" transform="matrix(1.00, 0.00, -0.00, -1.00, 39.0, 726.0)"></image><path d="M 309.5 133.7 L 309.5 264.1 L 346.5 264.1 L 346.5 133.7 Z M 309.5 133.7 " fill="#FEFFFE"></path><g><clipPath id="clip-207"><path d="M 307.5 131.7 L 307.5 266.1 L 348.5 266.1 L 348.5 131.7 Z M 307.5 131.7 "></path></clipPath><g clip-path="url(#clip-207)"><text xml:space="preserve" font-family="Helvetica-Light" font-size="24.0" fill="#000000" transform="matrix(0.00, 1.00, 1.00, -0.00, 337.0, 138.0)">T</text><text xml:space="preserve" font-family="Helvetica-Light" font-size="24.0" fill="#000000" transform="matrix(0.00, 1.00, 1.00, -0.00, 337.0, 148.7)">e</text><text xml:space="preserve" font-family="Helvetica-Light" font-size="24.0" fill="#000000" transform="matrix(0.00, 1.00, 1.00, -0.00, 337.0, 162.0)">m</text><text xml:space="preserve" font-family="Helvetica-Light" font-size="24.0" fill="#000000" transform="matrix(0.00, 1.00, 1.00, -0.00, 337.0, 182.0)">p</text><text xml:space="preserve" font-family="Helvetica-Light" font-size="24.0" fill="#000000" transform="matrix(0.00, 1.00, 1.00, -0.00, 337.0, 196.7)"> </text><text xml:space="preserve" font-family="Helvetica-Light" font-size="24.0" fill="#000000" transform="matrix(0.00, 1.00, 1.00, -0.00, 337.0, 203.4)">(</text><text xml:space="preserve" font-family="Helvetica-Light" font-size="24.0" fill="#000000" transform="matrix(0.00, 1.00, 1.00, -0.00, 337.0, 211.3)">k</text><text xml:space="preserve" font-family="Helvetica-Light" font-size="24.0" fill="#000000" transform="matrix(0.00, 1.00, 1.00, -0.00, 337.0, 223.3)">e</text><text xml:space="preserve" font-family="Helvetica-Light" font-size="24.0" fill="#000000" transform="matrix(0.00, 1.00, 1.00, -0.00, 337.0, 236.7)">V</text><text xml:space="preserve" font-family="Helvetica-Light" font-size="24.0" fill="#000000" transform="matrix(0.00, 1.00, 1.00, -0.00, 337.0, 251.4)">)</text></g></g><path d="M 648.1 76.8 L 648.1 321.0 L 685.1 321.0 L 685.1 76.8 Z M 648.1 76.8 " fill="#FEFFFE"></path><g><clipPath id="clip-208"><path d="M 646.1 74.8 L 646.1 323.0 L 687.1 323.0 L 687.1 74.8 Z M 646.1 74.8 "></path></clipPath><g clip-path="url(#clip-208)"><text xml:space="preserve" font-family="Helvetica-Light" font-size="24.0" fill="#000000" transform="matrix(0.00, 1.00, 1.00, -0.00, 676.0, 81.0)">D</text><text xml:space="preserve" font-family="Helvetica-Light" font-size="24.0" fill="#000000" transform="matrix(0.00, 1.00, 1.00, -0.00, 676.0, 98.3)">e</text><text xml:space="preserve" font-family="Helvetica-Light" font-size="24.0" fill="#000000" transform="matrix(0.00, 1.00, 1.00, -0.00, 676.0, 111.7)">n</text><text xml:space="preserve" font-family="Helvetica-Light" font-size="24.0" fill="#000000" transform="matrix(0.00, 1.00, 1.00, -0.00, 676.0, 125.0)">s</text><text xml:space="preserve" font-family="Helvetica-Light" font-size="24.0" fill="#000000" transform="matrix(0.00, 1.00, 1.00, -0.00, 676.0, 137.0)">i</text><text xml:space="preserve" font-family="Helvetica-Light" font-size="24.0" fill="#000000" transform="matrix(0.00, 1.00, 1.00, -0.00, 676.0, 142.3)">t</text><text xml:space="preserve" font-family="Helvetica-Light" font-size="24.0" fill="#000000" transform="matrix(0.00, 1.00, 1.00, -0.00, 676.0, 149.0)">y</text><text xml:space="preserve" font-family="Helvetica-Light" font-size="24.0" fill="#000000" transform="matrix(0.00, 1.00, 1.00, -0.00, 676.0, 161.0)"> </text><text xml:space="preserve" font-family="Helvetica-Light" font-size="24.0" fill="#000000" transform="matrix(0.00, 1.00, 1.00, -0.00, 676.0, 167.7)">(</text><text xml:space="preserve" font-family="Helvetica-Light" font-size="24.0" fill="#000000" transform="matrix(0.00, 1.00, 1.00, -0.00, 676.0, 175.7)">h</text><text xml:space="preserve" font-family="Helvetica-Light" font-size="16.0" fill="#000000" transform="matrix(0.00, 1.00, 1.00, -0.00, 669.8, 189.0)">1</text><text xml:space="preserve" font-family="Helvetica-Light" font-size="16.0" fill="#000000" transform="matrix(0.00, 1.00, 1.00, -0.00, 669.8, 197.9)">/</text><text xml:space="preserve" font-family="Helvetica-Light" font-size="16.0" fill="#000000" transform="matrix(0.00, 1.00, 1.00, -0.00, 669.8, 202.4)">2</text><text xml:space="preserve" font-family="Helvetica-Light" font-size="24.0" fill="#000000" transform="matrix(0.00, 1.00, 1.00, -0.00, 676.0, 211.3)"> </text><text xml:space="preserve" font-family="Helvetica-Light" font-size="24.0" fill="#000000" transform="matrix(0.00, 1.00, 1.00, -0.00, 676.0, 217.9)">e</text><text xml:space="preserve" font-family="Helvetica-Light" font-size="24.0" fill="#000000" transform="matrix(0.00, 1.00, 1.00, -0.00, 676.0, 231.3)">r</text><text xml:space="preserve" font-family="Helvetica-Light" font-size="24.0" fill="#000000" transform="matrix(0.00, 1.00, 1.00, -0.00, 676.0, 239.3)">g</text><text xml:space="preserve" font-family="Helvetica-Light" font-size="24.0" fill="#000000" transform="matrix(0.00, 1.00, 1.00, -0.00, 676.0, 253.9)"> </text><text xml:space="preserve" font-family="Helvetica-Light" font-size="24.0" fill="#000000" transform="matrix(0.00, 1.00, 1.00, -0.00, 676.0, 260.6)">c</text><text xml:space="preserve" font-family="Helvetica-Light" font-size="24.0" fill="#000000" transform="matrix(0.00, 1.00, 1.00, -0.00, 676.0, 274.0)">m</text><text xml:space="preserve" font-family="Helvetica-Light" font-size="16.0" fill="#000000" transform="matrix(0.00, 1.00, 1.00, -0.00, 669.8, 293.9)">-</text><text xml:space="preserve" font-family="Helvetica-Light" font-size="16.0" fill="#000000" transform="matrix(0.00, 1.00, 1.00, -0.00, 669.8, 299.3)">3</text><text xml:space="preserve" font-family="Helvetica-Light" font-size="24.0" fill="#000000" transform="matrix(0.00, 1.00, 1.00, -0.00, 676.0, 308.2)">)</text></g></g></g></svg>