<?xml version="1.0" encoding="UTF-8" standalone="no"?><svg xmlns="http://www.w3.org/2000/svg" xmlns:xlink="http://www.w3.org/1999/xlink" clip-rule="evenodd" stroke-miterlimit="4.00" viewBox="0 0 1920 1080"><desc>SVG generated by Keynote</desc><defs><pattern id="652F4823-1992-465B-9680-2853CC9E85FE" patternUnits="userSpaceOnUse" width="256" height="256" viewBox="0 0 256 256" patternTransform="matrix(0.500000, 0.000000, 0.000000, -0.500000, 476.970000, 915.323700)"><image xlink:href="../../158E7F1E-EDA4-48C2-9D8F-B85F720CF086/assets/C2E6FBB4C3857A0E73F6D4A465A166F0.jpeg" width="256.00" height="256.00"></image></pattern></defs><g transform="matrix(1.00, 0.00, -0.00, -1.00, 0.0, 1080.0)"><path d="M 0.0 1080.0 L 1920.0 1080.0 L 1920.0 0.0 L 0.0 0.0 Z M 0.0 1080.0 " fill="#000000"></path><text xml:space="preserve" font-family="Helvetica-Light" font-size="20.0" fill="#DCDDE0" transform="matrix(1.00, 0.00, -0.00, -1.00, 37.0, 27.0)">T</text><text xml:space="preserve" font-family="Helvetica-Light" font-size="20.0" fill="#DCDDE0" transform="matrix(1.00, 0.00, -0.00, -1.00, 45.9, 27.0)">a</text><text xml:space="preserve" font-family="Helvetica-Light" font-size="20.0" fill="#DCDDE0" transform="matrix(1.00, 0.00, -0.00, -1.00, 57.0, 27.0)">w</text><text xml:space="preserve" font-family="Helvetica-Light" font-size="20.0" fill="#DCDDE0" transform="matrix(1.00, 0.00, -0.00, -1.00, 71.5, 27.0)">e</text><text xml:space="preserve" font-family="Helvetica-Light" font-size="20.0" fill="#DCDDE0" transform="matrix(1.00, 0.00, -0.00, -1.00, 82.6, 27.0)">e</text><text xml:space="preserve" font-family="Helvetica-Light" font-size="20.0" fill="#DCDDE0" transform="matrix(1.00, 0.00, -0.00, -1.00, 93.7, 27.0)">w</text><text xml:space="preserve" font-family="Helvetica-Light" font-size="20.0" fill="#DCDDE0" transform="matrix(1.00, 0.00, -0.00, -1.00, 108.1, 27.0)">a</text><text xml:space="preserve" font-family="Helvetica-Light" font-size="20.0" fill="#DCDDE0" transform="matrix(1.00, 0.00, -0.00, -1.00, 119.3, 27.0)">t</text><text xml:space="preserve" font-family="Helvetica-Light" font-size="20.0" fill="#DCDDE0" transform="matrix(1.00, 0.00, -0.00, -1.00, 124.8, 27.0)"> </text><text xml:space="preserve" font-family="Helvetica-Light" font-size="20.0" fill="#DCDDE0" transform="matrix(1.00, 0.00, -0.00, -1.00, 130.4, 27.0)">S</text><text xml:space="preserve" font-family="Helvetica-Light" font-size="20.0" fill="#DCDDE0" transform="matrix(1.00, 0.00, -0.00, -1.00, 142.6, 27.0)">o</text><text xml:space="preserve" font-family="Helvetica-Light" font-size="20.0" fill="#DCDDE0" transform="matrix(1.00, 0.00, -0.00, -1.00, 153.7, 27.0)">m</text><text xml:space="preserve" font-family="Helvetica-Light" font-size="20.0" fill="#DCDDE0" transform="matrix(1.00, 0.00, -0.00, -1.00, 170.4, 27.0)">b</text><text xml:space="preserve" font-family="Helvetica-Light" font-size="20.0" fill="#DCDDE0" transform="matrix(1.00, 0.00, -0.00, -1.00, 182.6, 27.0)">o</text><text xml:space="preserve" font-family="Helvetica-Light" font-size="20.0" fill="#DCDDE0" transform="matrix(1.00, 0.00, -0.00, -1.00, 193.7, 27.0)">o</text><text xml:space="preserve" font-family="Helvetica-Light" font-size="20.0" fill="#DCDDE0" transform="matrix(1.00, 0.00, -0.00, -1.00, 204.8, 27.0)">n</text><text xml:space="preserve" font-family="Helvetica-Light" font-size="20.0" fill="#DCDDE0" transform="matrix(1.00, 0.00, -0.00, -1.00, 216.0, 27.0)">p</text><text xml:space="preserve" font-family="Helvetica-Light" font-size="20.0" fill="#DCDDE0" transform="matrix(1.00, 0.00, -0.00, -1.00, 228.2, 27.0)">a</text><text xml:space="preserve" font-family="Helvetica-Light" font-size="20.0" fill="#DCDDE0" transform="matrix(1.00, 0.00, -0.00, -1.00, 239.3, 27.0)">n</text><text xml:space="preserve" font-family="Helvetica-Light" font-size="20.0" fill="#DCDDE0" transform="matrix(1.00, 0.00, -0.00, -1.00, 250.4, 27.0)">y</text><text xml:space="preserve" font-family="Helvetica-Light" font-size="20.0" fill="#DCDDE0" transform="matrix(1.00, 0.00, -0.00, -1.00, 260.4, 27.0)">a</text><text xml:space="preserve" font-family="Helvetica-Light" font-size="20.0" fill="#DCDDE0" transform="matrix(1.00, 0.00, -0.00, -1.00, 271.5, 27.0)">k</text><text xml:space="preserve" font-family="Helvetica-Light" font-size="20.0" fill="#DCDDE0" transform="matrix(1.00, 0.00, -0.00, -1.00, 281.5, 27.0)">u</text><text xml:space="preserve" font-family="Helvetica-Light" font-size="20.0" fill="#DCDDE0" transform="matrix(1.00, 0.00, -0.00, -1.00, 292.7, 27.0)">l</text><text xml:space="preserve" font-family="Helvetica-Light" font-size="20.0" fill="#DCDDE0" transform="matrix(1.00, 0.00, -0.00, -1.00, 297.1, 27.0)"> </text><text xml:space="preserve" font-family="Helvetica-Light" font-size="20.0" fill="#DCDDE0" transform="matrix(1.00, 0.00, -0.00, -1.00, 302.7, 27.0)">|</text><text xml:space="preserve" font-family="Helvetica-Light" font-size="20.0" fill="#DCDDE0" transform="matrix(1.00, 0.00, -0.00, -1.00, 307.1, 27.0)"> </text><text xml:space="preserve" font-family="Helvetica-Light" font-size="20.0" fill="#DCDDE0" transform="matrix(1.00, 0.00, -0.00, -1.00, 312.7, 27.0)">j</text><text xml:space="preserve" font-family="Helvetica-Light" font-size="20.0" fill="#DCDDE0" transform="matrix(1.00, 0.00, -0.00, -1.00, 317.1, 27.0)">o</text><text xml:space="preserve" font-family="Helvetica-Light" font-size="20.0" fill="#DCDDE0" transform="matrix(1.00, 0.00, -0.00, -1.00, 328.2, 27.0)">u</text><text xml:space="preserve" font-family="Helvetica-Light" font-size="20.0" fill="#DCDDE0" transform="matrix(1.00, 0.00, -0.00, -1.00, 339.3, 27.0)">r</text><text xml:space="preserve" font-family="Helvetica-Light" font-size="20.0" fill="#DCDDE0" transform="matrix(1.00, 0.00, -0.00, -1.00, 346.4, 27.0)">n</text><text xml:space="preserve" font-family="Helvetica-Light" font-size="20.0" fill="#DCDDE0" transform="matrix(1.00, 0.00, -0.00, -1.00, 357.5, 27.0)">a</text><text xml:space="preserve" font-family="Helvetica-Light" font-size="20.0" fill="#DCDDE0" transform="matrix(1.00, 0.00, -0.00, -1.00, 368.6, 27.0)">l</text><text xml:space="preserve" font-family="Helvetica-Light" font-size="20.0" fill="#DCDDE0" transform="matrix(1.00, 0.00, -0.00, -1.00, 373.0, 27.0)"> </text><text xml:space="preserve" font-family="Helvetica-Light" font-size="20.0" fill="#DCDDE0" transform="matrix(1.00, 0.00, -0.00, -1.00, 378.6, 27.0)">c</text><text xml:space="preserve" font-family="Helvetica-Light" font-size="20.0" fill="#DCDDE0" transform="matrix(1.00, 0.00, -0.00, -1.00, 389.7, 27.0)">l</text><text xml:space="preserve" font-family="Helvetica-Light" font-size="20.0" fill="#DCDDE0" transform="matrix(1.00, 0.00, -0.00, -1.00, 394.2, 27.0)">u</text><text xml:space="preserve" font-family="Helvetica-Light" font-size="20.0" fill="#DCDDE0" transform="matrix(1.00, 0.00, -0.00, -1.00, 405.3, 27.0)">b</text><text xml:space="preserve" font-family="Helvetica-Light" font-size="20.0" fill="#DCDDE0" transform="matrix(1.00, 0.00, -0.00, -1.00, 417.5, 27.0)"> </text><text xml:space="preserve" font-family="Helvetica-Light" font-size="20.0" fill="#DCDDE0" transform="matrix(1.00, 0.00, -0.00, -1.00, 423.1, 27.0)">|</text><text xml:space="preserve" font-family="Helvetica-Light" font-size="20.0" fill="#DCDDE0" transform="matrix(1.00, 0.00, -0.00, -1.00, 427.5, 27.0)"> </text><text xml:space="preserve" font-family="Helvetica-Light" font-size="20.0" fill="#DCDDE0" transform="matrix(1.00, 0.00, -0.00, -1.00, 433.1, 27.0)">0</text><text xml:space="preserve" font-family="Helvetica-Light" font-size="20.0" fill="#DCDDE0" transform="matrix(1.00, 0.00, -0.00, -1.00, 444.2, 27.0)">4</text><text xml:space="preserve" font-family="Helvetica-Light" font-size="20.0" fill="#DCDDE0" transform="matrix(1.00, 0.00, -0.00, -1.00, 455.3, 27.0)">.</text><text xml:space="preserve" font-family="Helvetica-Light" font-size="20.0" fill="#DCDDE0" transform="matrix(1.00, 0.00, -0.00, -1.00, 460.9, 27.0)">2</text><text xml:space="preserve" font-family="Helvetica-Light" font-size="20.0" fill="#DCDDE0" transform="matrix(1.00, 0.00, -0.00, -1.00, 472.0, 27.0)">1</text><text xml:space="preserve" font-family="Helvetica-Light" font-size="20.0" fill="#DCDDE0" transform="matrix(1.00, 0.00, -0.00, -1.00, 483.1, 27.0)">.</text><text xml:space="preserve" font-family="Helvetica-Light" font-size="20.0" fill="#DCDDE0" transform="matrix(1.00, 0.00, -0.00, -1.00, 488.7, 27.0)">2</text><text xml:space="preserve" font-family="Helvetica-Light" font-size="20.0" fill="#DCDDE0" transform="matrix(1.00, 0.00, -0.00, -1.00, 499.8, 27.0)">0</text><text xml:space="preserve" font-family="Helvetica-Light" font-size="20.0" fill="#DCDDE0" transform="matrix(1.00, 0.00, -0.00, -1.00, 510.9, 27.0)">1</text><text xml:space="preserve" font-family="Helvetica-Light" font-size="20.0" fill="#DCDDE0" transform="matrix(1.00, 0.00, -0.00, -1.00, 522.0, 27.0)">7</text><g><clipPath id="clip-77"><path d="M 477.0 915.3 L 1407.1 915.3 L 1407.1 292.3 L 477.0 292.3 Z M 477.0 915.3 "></path></clipPath><g clip-path="url(#clip-77)"><path d="M 477.0 292.3 L 1407.1 292.3 L 1407.1 915.3 L 477.0 915.3 Z M 477.0 292.3 " fill="url(#652F4823-1992-465B-9680-2853CC9E85FE)"></path><path d="M 477.0 915.3 L 1407.1 915.3 L 1407.1 292.3 L 477.0 292.3 Z M 477.0 915.3 " fill="#002451" fill-opacity="0.85"></path></g></g><text xml:space="preserve" font-family="Helvetica-Light" font-size="24.0" fill="#DCDDE0" transform="matrix(1.00, 0.00, -0.00, -1.00, 946.0, 49.0)">1</text><text xml:space="preserve" font-family="Helvetica-Light" font-size="24.0" fill="#DCDDE0" transform="matrix(1.00, 0.00, -0.00, -1.00, 959.3, 49.0)">0</text><text xml:space="preserve" font-family="Helvetica-Light" font-size="70.0" fill="#A6AAA8" transform="matrix(1.00, 0.00, -0.00, -1.00, 540.0, 973.0)">T</text><text xml:space="preserve" font-family="Helvetica-Light" font-size="70.0" fill="#A6AAA8" transform="matrix(1.00, 0.00, -0.00, -1.00, 572.5, 973.0)">r</text><text xml:space="preserve" font-family="Helvetica-Light" font-size="70.0" fill="#A6AAA8" transform="matrix(1.00, 0.00, -0.00, -1.00, 595.8, 973.0)">a</text><text xml:space="preserve" font-family="Helvetica-Light" font-size="70.0" fill="#A6AAA8" transform="matrix(1.00, 0.00, -0.00, -1.00, 634.7, 973.0)">n</text><text xml:space="preserve" font-family="Helvetica-Light" font-size="70.0" fill="#A6AAA8" transform="matrix(1.00, 0.00, -0.00, -1.00, 673.6, 973.0)">s</text><text xml:space="preserve" font-family="Helvetica-Light" font-size="70.0" fill="#A6AAA8" transform="matrix(1.00, 0.00, -0.00, -1.00, 708.6, 973.0)">v</text><text xml:space="preserve" font-family="Helvetica-Light" font-size="70.0" fill="#A6AAA8" transform="matrix(1.00, 0.00, -0.00, -1.00, 743.6, 973.0)">e</text><text xml:space="preserve" font-family="Helvetica-Light" font-size="70.0" fill="#A6AAA8" transform="matrix(1.00, 0.00, -0.00, -1.00, 782.5, 973.0)">r</text><text xml:space="preserve" font-family="Helvetica-Light" font-size="70.0" fill="#A6AAA8" transform="matrix(1.00, 0.00, -0.00, -1.00, 805.9, 973.0)">s</text><text xml:space="preserve" font-family="Helvetica-Light" font-size="70.0" fill="#A6AAA8" transform="matrix(1.00, 0.00, -0.00, -1.00, 840.9, 973.0)">e</text><text xml:space="preserve" font-family="Helvetica-Light" font-size="70.0" fill="#A6AAA8" transform="matrix(1.00, 0.00, -0.00, -1.00, 879.8, 973.0)"> </text><text xml:space="preserve" font-family="Helvetica-Light" font-size="70.0" fill="#A6AAA8" transform="matrix(1.00, 0.00, -0.00, -1.00, 899.2, 973.0)">P</text><text xml:space="preserve" font-family="Helvetica-Light" font-size="70.0" fill="#A6AAA8" transform="matrix(1.00, 0.00, -0.00, -1.00, 942.0, 973.0)">r</text><text xml:space="preserve" font-family="Helvetica-Light" font-size="70.0" fill="#A6AAA8" transform="matrix(1.00, 0.00, -0.00, -1.00, 964.1, 973.0)">o</text><text xml:space="preserve" font-family="Helvetica-Light" font-size="70.0" fill="#A6AAA8" transform="matrix(1.00, 0.00, -0.00, -1.00, 1003.0, 973.0)">x</text><text xml:space="preserve" font-family="Helvetica-Light" font-size="70.0" fill="#A6AAA8" transform="matrix(1.00, 0.00, -0.00, -1.00, 1038.0, 973.0)">i</text><text xml:space="preserve" font-family="Helvetica-Light" font-size="70.0" fill="#A6AAA8" transform="matrix(1.00, 0.00, -0.00, -1.00, 1053.5, 973.0)">m</text><text xml:space="preserve" font-family="Helvetica-Light" font-size="70.0" fill="#A6AAA8" transform="matrix(1.00, 0.00, -0.00, -1.00, 1111.8, 973.0)">i</text><text xml:space="preserve" font-family="Helvetica-Light" font-size="70.0" fill="#A6AAA8" transform="matrix(1.00, 0.00, -0.00, -1.00, 1127.4, 973.0)">t</text><text xml:space="preserve" font-family="Helvetica-Light" font-size="70.0" fill="#A6AAA8" transform="matrix(1.00, 0.00, -0.00, -1.00, 1146.8, 973.0)">y</text><text xml:space="preserve" font-family="Helvetica-Light" font-size="70.0" fill="#A6AAA8" transform="matrix(1.00, 0.00, -0.00, -1.00, 1181.8, 973.0)"> </text><text xml:space="preserve" font-family="Helvetica-Light" font-size="70.0" fill="#A6AAA8" transform="matrix(1.00, 0.00, -0.00, -1.00, 1201.3, 973.0)">E</text><text xml:space="preserve" font-family="Helvetica-Light" font-size="70.0" fill="#A6AAA8" transform="matrix(1.00, 0.00, -0.00, -1.00, 1244.1, 973.0)">f</text><text xml:space="preserve" font-family="Helvetica-Light" font-size="70.0" fill="#A6AAA8" transform="matrix(1.00, 0.00, -0.00, -1.00, 1262.3, 973.0)">f</text><text xml:space="preserve" font-family="Helvetica-Light" font-size="70.0" fill="#A6AAA8" transform="matrix(1.00, 0.00, -0.00, -1.00, 1281.7, 973.0)">e</text><text xml:space="preserve" font-family="Helvetica-Light" font-size="70.0" fill="#A6AAA8" transform="matrix(1.00, 0.00, -0.00, -1.00, 1320.6, 973.0)">c</text><text xml:space="preserve" font-family="Helvetica-Light" font-size="70.0" fill="#A6AAA8" transform="matrix(1.00, 0.00, -0.00, -1.00, 1359.6, 973.0)">t</text><path d="M 941.5 617.3 L 945.5 605.2 L 958.2 605.2 L 947.9 597.7 L 951.8 585.6 L 941.5 593.1 L 931.2 585.6 L 935.1 597.7 L 924.8 605.2 L 937.6 605.2 Z M 941.5 617.3 " fill="#603704"></path><text xml:space="preserve" font-family="Helvetica-Light" font-size="40.0" fill="#DCDDE0" transform="matrix(1.00, 0.00, -0.00, -1.00, 1329.0, 868.0)">H</text><text xml:space="preserve" font-family="Helvetica-Light" font-size="40.0" fill="#DCDDE0" transform="matrix(1.00, 0.00, -0.00, -1.00, 1357.9, 868.0)">e</text><text xml:space="preserve" font-family="Helvetica-Light" font-size="40.0" fill="#DCDDE0" transform="matrix(1.00, 0.00, -0.00, -1.00, 1380.1, 868.0)">I</text><text xml:space="preserve" font-family="Helvetica-Light" font-size="40.0" fill="#DCDDE0" transform="matrix(1.00, 0.00, -0.00, -1.00, 1391.2, 868.0)">I</text><text xml:space="preserve" font-family="Helvetica-Light" font-size="40.0" fill="#DCDDE0" transform="matrix(1.00, 0.00, -0.00, -1.00, 1080.0, 821.0)">i</text><text xml:space="preserve" font-family="Helvetica-Light" font-size="40.0" fill="#DCDDE0" transform="matrix(1.00, 0.00, -0.00, -1.00, 1088.9, 821.0)">o</text><text xml:space="preserve" font-family="Helvetica-Light" font-size="40.0" fill="#DCDDE0" transform="matrix(1.00, 0.00, -0.00, -1.00, 1111.1, 821.0)">n</text><text xml:space="preserve" font-family="Helvetica-Light" font-size="40.0" fill="#DCDDE0" transform="matrix(1.00, 0.00, -0.00, -1.00, 1133.4, 821.0)">i</text><text xml:space="preserve" font-family="Helvetica-Light" font-size="40.0" fill="#DCDDE0" transform="matrix(1.00, 0.00, -0.00, -1.00, 1142.2, 821.0)">z</text><text xml:space="preserve" font-family="Helvetica-Light" font-size="40.0" fill="#DCDDE0" transform="matrix(1.00, 0.00, -0.00, -1.00, 1162.2, 821.0)">e</text><text xml:space="preserve" font-family="Helvetica-Light" font-size="40.0" fill="#DCDDE0" transform="matrix(1.00, 0.00, -0.00, -1.00, 1184.5, 821.0)">d</text><text xml:space="preserve" font-family="Helvetica-Light" font-size="40.0" fill="#DCDDE0" transform="matrix(1.00, 0.00, -0.00, -1.00, 1208.9, 821.0)"> </text><text xml:space="preserve" font-family="Helvetica-Light" font-size="40.0" fill="#DCDDE0" transform="matrix(1.00, 0.00, -0.00, -1.00, 1220.0, 821.0)">H</text><text xml:space="preserve" font-family="Helvetica-Light" font-size="40.0" fill="#DCDDE0" transform="matrix(1.00, 0.00, -0.00, -1.00, 1248.9, 821.0)">e</text><text xml:space="preserve" font-family="Helvetica-Light" font-size="40.0" fill="#DCDDE0" transform="matrix(1.00, 0.00, -0.00, -1.00, 1271.2, 821.0)">I</text><text xml:space="preserve" font-family="Helvetica-Light" font-size="40.0" fill="#DCDDE0" transform="matrix(1.00, 0.00, -0.00, -1.00, 1282.3, 821.0)">I</text><g><clipPath id="clip-78"><path d="M 0.8 0.9 L 742.5 0.9 L 742.5 50.0 L 0.8 50.0 Z M 0.8 0.9 "></path></clipPath><g clip-path="url(#clip-78)"><path d="M 1.8 49.0 L 741.5 49.0 L 741.5 1.9 L 1.8 1.9 Z M 1.8 49.0 " fill="#000000"></path></g></g><g><clipPath id="clip-79"><path d="M -0.4 34.2 L 1919.6 34.2 L 1919.6 311.6 L -0.4 311.6 Z M -0.4 34.2 "></path></clipPath><g clip-path="url(#clip-79)"><image xlink:href="../../9E4D9BC1-AF27-4099-86F3-C0DB7A2595F6/assets/76896448808D93C5DEEAE9E845A1DD8D.jpeg" width="1365.00" height="197.00" transform="matrix(1.41, 0.00, -0.00, -1.41, 0.0, 312.0)"></image></g></g><g><clipPath id="clip-80"><path d="M 884.3 -0.0 L 1000.8 -0.0 L 1000.8 51.0 L 884.3 51.0 Z M 884.3 -0.0 "></path></clipPath><g clip-path="url(#clip-80)"><text xml:space="preserve" font-family="Helvetica-Light" font-size="30.0" fill="#DCDDE0" transform="matrix(1.00, 0.00, -0.00, -1.00, 892.0, 14.0)">r</text><text xml:space="preserve" font-family="Helvetica-Light" font-size="30.0" fill="#DCDDE0" transform="matrix(1.00, 0.00, -0.00, -1.00, 901.5, 14.0)">e</text><text xml:space="preserve" font-family="Helvetica-Light" font-size="30.0" fill="#DCDDE0" transform="matrix(1.00, 0.00, -0.00, -1.00, 918.1, 14.0)">d</text><text xml:space="preserve" font-family="Helvetica-Light" font-size="30.0" fill="#DCDDE0" transform="matrix(1.00, 0.00, -0.00, -1.00, 936.5, 14.0)">s</text><text xml:space="preserve" font-family="Helvetica-Light" font-size="30.0" fill="#DCDDE0" transform="matrix(1.00, 0.00, -0.00, -1.00, 951.5, 14.0)">h</text><text xml:space="preserve" font-family="Helvetica-Light" font-size="30.0" fill="#DCDDE0" transform="matrix(1.00, 0.00, -0.00, -1.00, 968.1, 14.0)">i</text><text xml:space="preserve" font-family="Helvetica-Light" font-size="30.0" fill="#DCDDE0" transform="matrix(1.00, 0.00, -0.00, -1.00, 974.8, 14.0)">f</text><text xml:space="preserve" font-family="Helvetica-Light" font-size="30.0" fill="#DCDDE0" transform="matrix(1.00, 0.00, -0.00, -1.00, 983.1, 14.0)">t</text></g></g><path d="M 1148.6 702.7 C 1154.7 696.6 1154.7 686.8 1148.6 680.7 C 1142.5 674.6 1132.7 674.6 1126.6 680.7 C 1120.5 686.8 1120.5 696.6 1126.6 702.7 C 1132.7 708.8 1142.5 708.8 1148.6 702.7 Z M 1148.6 702.7 " fill="#BC8027"></path><g opacity="0.37"><g><clipPath id="clip-81"><path d="M 897.0 451.0 L 1378.0 451.0 L 1378.0 933.0 L 897.0 933.0 Z M 897.0 451.0 "></path></clipPath><g clip-path="url(#clip-81)"><path d="M 1306.8 860.9 C 1400.3 767.5 1400.3 616.0 1306.8 522.5 C 1213.4 429.0 1061.8 429.0 968.4 522.5 C 874.9 616.0 874.9 767.5 968.4 860.9 C 1061.8 954.4 1213.4 954.4 1306.8 860.9 Z M 1306.8 860.9 " fill="#D35854"></path></g></g></g></g></svg>