<?xml version="1.0" encoding="UTF-8" standalone="no"?><svg xmlns="http://www.w3.org/2000/svg" xmlns:xlink="http://www.w3.org/1999/xlink" clip-rule="evenodd" stroke-miterlimit="4.00" viewBox="0 0 1921 312"><desc>SVG generated by Keynote</desc><defs></defs><g transform="matrix(1.00, 0.00, -0.00, -1.00, 0.0, 312.0)"><g><clipPath id="clip-74"><path d="M 1.8 0.9 L 743.5 0.9 L 743.5 50.0 L 1.8 50.0 Z M 1.8 0.9 "></path></clipPath><g clip-path="url(#clip-74)"><path d="M 2.8 49.0 L 742.5 49.0 L 742.5 1.9 L 2.8 1.9 Z M 2.8 49.0 " fill="#000000"></path></g></g><g><clipPath id="clip-75"><path d="M 0.6 34.2 L 1920.6 34.2 L 1920.6 311.6 L 0.6 311.6 Z M 0.6 34.2 "></path></clipPath><g clip-path="url(#clip-75)"><image xlink:href="../../9E4D9BC1-AF27-4099-86F3-C0DB7A2595F6/assets/76896448808D93C5DEEAE9E845A1DD8D.jpeg" width="1365.00" height="197.00" transform="matrix(1.41, 0.00, -0.00, -1.41, 1.0, 312.0)"></image></g></g><g><clipPath id="clip-76"><path d="M 885.3 -0.0 L 1001.8 -0.0 L 1001.8 51.0 L 885.3 51.0 Z M 885.3 -0.0 "></path></clipPath><g clip-path="url(#clip-76)"><text xml:space="preserve" font-family="Helvetica-Light" font-size="30.0" fill="#DCDDE0" transform="matrix(1.00, 0.00, -0.00, -1.00, 893.0, 14.0)">r</text><text xml:space="preserve" font-family="Helvetica-Light" font-size="30.0" fill="#DCDDE0" transform="matrix(1.00, 0.00, -0.00, -1.00, 902.5, 14.0)">e</text><text xml:space="preserve" font-family="Helvetica-Light" font-size="30.0" fill="#DCDDE0" transform="matrix(1.00, 0.00, -0.00, -1.00, 919.1, 14.0)">d</text><text xml:space="preserve" font-family="Helvetica-Light" font-size="30.0" fill="#DCDDE0" transform="matrix(1.00, 0.00, -0.00, -1.00, 937.5, 14.0)">s</text><text xml:space="preserve" font-family="Helvetica-Light" font-size="30.0" fill="#DCDDE0" transform="matrix(1.00, 0.00, -0.00, -1.00, 952.5, 14.0)">h</text><text xml:space="preserve" font-family="Helvetica-Light" font-size="30.0" fill="#DCDDE0" transform="matrix(1.00, 0.00, -0.00, -1.00, 969.1, 14.0)">i</text><text xml:space="preserve" font-family="Helvetica-Light" font-size="30.0" fill="#DCDDE0" transform="matrix(1.00, 0.00, -0.00, -1.00, 975.8, 14.0)">f</text><text xml:space="preserve" font-family="Helvetica-Light" font-size="30.0" fill="#DCDDE0" transform="matrix(1.00, 0.00, -0.00, -1.00, 984.1, 14.0)">t</text></g></g></g></svg>