<?xml version="1.0" encoding="UTF-8" standalone="no"?><svg xmlns="http://www.w3.org/2000/svg" xmlns:xlink="http://www.w3.org/1999/xlink" clip-rule="evenodd" stroke-miterlimit="4.00" viewBox="0 0 1920 1080"><desc>SVG generated by Keynote</desc><defs><pattern id="F046444D-3EF2-4A0D-9394-583DEF75A531" patternUnits="userSpaceOnUse" width="256" height="256" viewBox="0 0 256 256" patternTransform="matrix(0.500000, 0.000000, 0.000000, -0.500000, 222.081600, 786.494300)"><image xlink:href="../../158E7F1E-EDA4-48C2-9D8F-B85F720CF086/assets/C2E6FBB4C3857A0E73F6D4A465A166F0.jpeg" width="256.00" height="256.00"></image></pattern><pattern id="0D9E556C-8EEE-49E6-88EA-4B63EAF6D039" patternUnits="userSpaceOnUse" width="256" height="256" viewBox="0 0 256 256" patternTransform="matrix(0.500000, 0.000000, 0.000000, -0.500000, 1131.102000, 794.414500)"><image xlink:href="../../158E7F1E-EDA4-48C2-9D8F-B85F720CF086/assets/C2E6FBB4C3857A0E73F6D4A465A166F0.jpeg" width="256.00" height="256.00"></image></pattern></defs><g transform="matrix(1.00, 0.00, -0.00, -1.00, 0.0, 1080.0)"><path d="M 0.0 1080.0 L 1920.0 1080.0 L 1920.0 0.0 L 0.0 0.0 Z M 0.0 1080.0 " fill="#000000"></path><text xml:space="preserve" font-family="Helvetica-Light" font-size="20.0" fill="#DCDDE0" transform="matrix(1.00, 0.00, -0.00, -1.00, 37.0, 27.0)">T</text><text xml:space="preserve" font-family="Helvetica-Light" font-size="20.0" fill="#DCDDE0" transform="matrix(1.00, 0.00, -0.00, -1.00, 45.9, 27.0)">a</text><text xml:space="preserve" font-family="Helvetica-Light" font-size="20.0" fill="#DCDDE0" transform="matrix(1.00, 0.00, -0.00, -1.00, 57.0, 27.0)">w</text><text xml:space="preserve" font-family="Helvetica-Light" font-size="20.0" fill="#DCDDE0" transform="matrix(1.00, 0.00, -0.00, -1.00, 71.5, 27.0)">e</text><text xml:space="preserve" font-family="Helvetica-Light" font-size="20.0" fill="#DCDDE0" transform="matrix(1.00, 0.00, -0.00, -1.00, 82.6, 27.0)">e</text><text xml:space="preserve" font-family="Helvetica-Light" font-size="20.0" fill="#DCDDE0" transform="matrix(1.00, 0.00, -0.00, -1.00, 93.7, 27.0)">w</text><text xml:space="preserve" font-family="Helvetica-Light" font-size="20.0" fill="#DCDDE0" transform="matrix(1.00, 0.00, -0.00, -1.00, 108.1, 27.0)">a</text><text xml:space="preserve" font-family="Helvetica-Light" font-size="20.0" fill="#DCDDE0" transform="matrix(1.00, 0.00, -0.00, -1.00, 119.3, 27.0)">t</text><text xml:space="preserve" font-family="Helvetica-Light" font-size="20.0" fill="#DCDDE0" transform="matrix(1.00, 0.00, -0.00, -1.00, 124.8, 27.0)"> </text><text xml:space="preserve" font-family="Helvetica-Light" font-size="20.0" fill="#DCDDE0" transform="matrix(1.00, 0.00, -0.00, -1.00, 130.4, 27.0)">S</text><text xml:space="preserve" font-family="Helvetica-Light" font-size="20.0" fill="#DCDDE0" transform="matrix(1.00, 0.00, -0.00, -1.00, 142.6, 27.0)">o</text><text xml:space="preserve" font-family="Helvetica-Light" font-size="20.0" fill="#DCDDE0" transform="matrix(1.00, 0.00, -0.00, -1.00, 153.7, 27.0)">m</text><text xml:space="preserve" font-family="Helvetica-Light" font-size="20.0" fill="#DCDDE0" transform="matrix(1.00, 0.00, -0.00, -1.00, 170.4, 27.0)">b</text><text xml:space="preserve" font-family="Helvetica-Light" font-size="20.0" fill="#DCDDE0" transform="matrix(1.00, 0.00, -0.00, -1.00, 182.6, 27.0)">o</text><text xml:space="preserve" font-family="Helvetica-Light" font-size="20.0" fill="#DCDDE0" transform="matrix(1.00, 0.00, -0.00, -1.00, 193.7, 27.0)">o</text><text xml:space="preserve" font-family="Helvetica-Light" font-size="20.0" fill="#DCDDE0" transform="matrix(1.00, 0.00, -0.00, -1.00, 204.8, 27.0)">n</text><text xml:space="preserve" font-family="Helvetica-Light" font-size="20.0" fill="#DCDDE0" transform="matrix(1.00, 0.00, -0.00, -1.00, 216.0, 27.0)">p</text><text xml:space="preserve" font-family="Helvetica-Light" font-size="20.0" fill="#DCDDE0" transform="matrix(1.00, 0.00, -0.00, -1.00, 228.2, 27.0)">a</text><text xml:space="preserve" font-family="Helvetica-Light" font-size="20.0" fill="#DCDDE0" transform="matrix(1.00, 0.00, -0.00, -1.00, 239.3, 27.0)">n</text><text xml:space="preserve" font-family="Helvetica-Light" font-size="20.0" fill="#DCDDE0" transform="matrix(1.00, 0.00, -0.00, -1.00, 250.4, 27.0)">y</text><text xml:space="preserve" font-family="Helvetica-Light" font-size="20.0" fill="#DCDDE0" transform="matrix(1.00, 0.00, -0.00, -1.00, 260.4, 27.0)">a</text><text xml:space="preserve" font-family="Helvetica-Light" font-size="20.0" fill="#DCDDE0" transform="matrix(1.00, 0.00, -0.00, -1.00, 271.5, 27.0)">k</text><text xml:space="preserve" font-family="Helvetica-Light" font-size="20.0" fill="#DCDDE0" transform="matrix(1.00, 0.00, -0.00, -1.00, 281.5, 27.0)">u</text><text xml:space="preserve" font-family="Helvetica-Light" font-size="20.0" fill="#DCDDE0" transform="matrix(1.00, 0.00, -0.00, -1.00, 292.7, 27.0)">l</text><text xml:space="preserve" font-family="Helvetica-Light" font-size="20.0" fill="#DCDDE0" transform="matrix(1.00, 0.00, -0.00, -1.00, 297.1, 27.0)"> </text><text xml:space="preserve" font-family="Helvetica-Light" font-size="20.0" fill="#DCDDE0" transform="matrix(1.00, 0.00, -0.00, -1.00, 302.7, 27.0)">|</text><text xml:space="preserve" font-family="Helvetica-Light" font-size="20.0" fill="#DCDDE0" transform="matrix(1.00, 0.00, -0.00, -1.00, 307.1, 27.0)"> </text><text xml:space="preserve" font-family="Helvetica-Light" font-size="20.0" fill="#DCDDE0" transform="matrix(1.00, 0.00, -0.00, -1.00, 312.7, 27.0)">j</text><text xml:space="preserve" font-family="Helvetica-Light" font-size="20.0" fill="#DCDDE0" transform="matrix(1.00, 0.00, -0.00, -1.00, 317.1, 27.0)">o</text><text xml:space="preserve" font-family="Helvetica-Light" font-size="20.0" fill="#DCDDE0" transform="matrix(1.00, 0.00, -0.00, -1.00, 328.2, 27.0)">u</text><text xml:space="preserve" font-family="Helvetica-Light" font-size="20.0" fill="#DCDDE0" transform="matrix(1.00, 0.00, -0.00, -1.00, 339.3, 27.0)">r</text><text xml:space="preserve" font-family="Helvetica-Light" font-size="20.0" fill="#DCDDE0" transform="matrix(1.00, 0.00, -0.00, -1.00, 346.4, 27.0)">n</text><text xml:space="preserve" font-family="Helvetica-Light" font-size="20.0" fill="#DCDDE0" transform="matrix(1.00, 0.00, -0.00, -1.00, 357.5, 27.0)">a</text><text xml:space="preserve" font-family="Helvetica-Light" font-size="20.0" fill="#DCDDE0" transform="matrix(1.00, 0.00, -0.00, -1.00, 368.6, 27.0)">l</text><text xml:space="preserve" font-family="Helvetica-Light" font-size="20.0" fill="#DCDDE0" transform="matrix(1.00, 0.00, -0.00, -1.00, 373.0, 27.0)"> </text><text xml:space="preserve" font-family="Helvetica-Light" font-size="20.0" fill="#DCDDE0" transform="matrix(1.00, 0.00, -0.00, -1.00, 378.6, 27.0)">c</text><text xml:space="preserve" font-family="Helvetica-Light" font-size="20.0" fill="#DCDDE0" transform="matrix(1.00, 0.00, -0.00, -1.00, 389.7, 27.0)">l</text><text xml:space="preserve" font-family="Helvetica-Light" font-size="20.0" fill="#DCDDE0" transform="matrix(1.00, 0.00, -0.00, -1.00, 394.2, 27.0)">u</text><text xml:space="preserve" font-family="Helvetica-Light" font-size="20.0" fill="#DCDDE0" transform="matrix(1.00, 0.00, -0.00, -1.00, 405.3, 27.0)">b</text><text xml:space="preserve" font-family="Helvetica-Light" font-size="20.0" fill="#DCDDE0" transform="matrix(1.00, 0.00, -0.00, -1.00, 417.5, 27.0)"> </text><text xml:space="preserve" font-family="Helvetica-Light" font-size="20.0" fill="#DCDDE0" transform="matrix(1.00, 0.00, -0.00, -1.00, 423.1, 27.0)">|</text><text xml:space="preserve" font-family="Helvetica-Light" font-size="20.0" fill="#DCDDE0" transform="matrix(1.00, 0.00, -0.00, -1.00, 427.5, 27.0)"> </text><text xml:space="preserve" font-family="Helvetica-Light" font-size="20.0" fill="#DCDDE0" transform="matrix(1.00, 0.00, -0.00, -1.00, 433.1, 27.0)">0</text><text xml:space="preserve" font-family="Helvetica-Light" font-size="20.0" fill="#DCDDE0" transform="matrix(1.00, 0.00, -0.00, -1.00, 444.2, 27.0)">4</text><text xml:space="preserve" font-family="Helvetica-Light" font-size="20.0" fill="#DCDDE0" transform="matrix(1.00, 0.00, -0.00, -1.00, 455.3, 27.0)">.</text><text xml:space="preserve" font-family="Helvetica-Light" font-size="20.0" fill="#DCDDE0" transform="matrix(1.00, 0.00, -0.00, -1.00, 460.9, 27.0)">2</text><text xml:space="preserve" font-family="Helvetica-Light" font-size="20.0" fill="#DCDDE0" transform="matrix(1.00, 0.00, -0.00, -1.00, 472.0, 27.0)">1</text><text xml:space="preserve" font-family="Helvetica-Light" font-size="20.0" fill="#DCDDE0" transform="matrix(1.00, 0.00, -0.00, -1.00, 483.1, 27.0)">.</text><text xml:space="preserve" font-family="Helvetica-Light" font-size="20.0" fill="#DCDDE0" transform="matrix(1.00, 0.00, -0.00, -1.00, 488.7, 27.0)">2</text><text xml:space="preserve" font-family="Helvetica-Light" font-size="20.0" fill="#DCDDE0" transform="matrix(1.00, 0.00, -0.00, -1.00, 499.8, 27.0)">0</text><text xml:space="preserve" font-family="Helvetica-Light" font-size="20.0" fill="#DCDDE0" transform="matrix(1.00, 0.00, -0.00, -1.00, 510.9, 27.0)">1</text><text xml:space="preserve" font-family="Helvetica-Light" font-size="20.0" fill="#DCDDE0" transform="matrix(1.00, 0.00, -0.00, -1.00, 522.0, 27.0)">7</text><text xml:space="preserve" font-family="Helvetica-Light" font-size="24.0" fill="#DCDDE0" transform="matrix(1.00, 0.00, -0.00, -1.00, 953.0, 26.0)">5</text><text xml:space="preserve" font-family="Helvetica-Light" font-size="70.0" fill="#A6AAA8" transform="matrix(1.00, 0.00, -0.00, -1.00, 539.0, 941.0)">Q</text><text xml:space="preserve" font-family="Helvetica-Light" font-size="70.0" fill="#A6AAA8" transform="matrix(1.00, 0.00, -0.00, -1.00, 593.5, 941.0)">u</text><text xml:space="preserve" font-family="Helvetica-Light" font-size="70.0" fill="#A6AAA8" transform="matrix(1.00, 0.00, -0.00, -1.00, 632.4, 941.0)">a</text><text xml:space="preserve" font-family="Helvetica-Light" font-size="70.0" fill="#A6AAA8" transform="matrix(1.00, 0.00, -0.00, -1.00, 671.3, 941.0)">s</text><text xml:space="preserve" font-family="Helvetica-Light" font-size="70.0" fill="#A6AAA8" transform="matrix(1.00, 0.00, -0.00, -1.00, 706.3, 941.0)">a</text><text xml:space="preserve" font-family="Helvetica-Light" font-size="70.0" fill="#A6AAA8" transform="matrix(1.00, 0.00, -0.00, -1.00, 745.2, 941.0)">r</text><text xml:space="preserve" font-family="Helvetica-Light" font-size="70.0" fill="#A6AAA8" transform="matrix(1.00, 0.00, -0.00, -1.00, 768.5, 941.0)">s</text><text xml:space="preserve" font-family="Helvetica-Light" font-size="70.0" fill="#A6AAA8" transform="matrix(1.00, 0.00, -0.00, -1.00, 803.5, 941.0)"> </text><text xml:space="preserve" font-family="Helvetica-Light" font-size="70.0" fill="#A6AAA8" transform="matrix(1.00, 0.00, -0.00, -1.00, 823.0, 941.0)">A</text><text xml:space="preserve" font-family="Helvetica-Light" font-size="70.0" fill="#A6AAA8" transform="matrix(1.00, 0.00, -0.00, -1.00, 869.7, 941.0)">c</text><text xml:space="preserve" font-family="Helvetica-Light" font-size="70.0" fill="#A6AAA8" transform="matrix(1.00, 0.00, -0.00, -1.00, 908.6, 941.0)">t</text><text xml:space="preserve" font-family="Helvetica-Light" font-size="70.0" fill="#A6AAA8" transform="matrix(1.00, 0.00, -0.00, -1.00, 928.1, 941.0)">i</text><text xml:space="preserve" font-family="Helvetica-Light" font-size="70.0" fill="#A6AAA8" transform="matrix(1.00, 0.00, -0.00, -1.00, 943.6, 941.0)">v</text><text xml:space="preserve" font-family="Helvetica-Light" font-size="70.0" fill="#A6AAA8" transform="matrix(1.00, 0.00, -0.00, -1.00, 978.6, 941.0)">i</text><text xml:space="preserve" font-family="Helvetica-Light" font-size="70.0" fill="#A6AAA8" transform="matrix(1.00, 0.00, -0.00, -1.00, 994.1, 941.0)">t</text><text xml:space="preserve" font-family="Helvetica-Light" font-size="70.0" fill="#A6AAA8" transform="matrix(1.00, 0.00, -0.00, -1.00, 1013.6, 941.0)">y</text><text xml:space="preserve" font-family="Helvetica-Light" font-size="70.0" fill="#A6AAA8" transform="matrix(1.00, 0.00, -0.00, -1.00, 1048.6, 941.0)"> </text><text xml:space="preserve" font-family="Helvetica-Light" font-size="70.0" fill="#A6AAA8" transform="matrix(1.00, 0.00, -0.00, -1.00, 1068.1, 941.0)">S</text><text xml:space="preserve" font-family="Helvetica-Light" font-size="70.0" fill="#A6AAA8" transform="matrix(1.00, 0.00, -0.00, -1.00, 1110.8, 941.0)">c</text><text xml:space="preserve" font-family="Helvetica-Light" font-size="70.0" fill="#A6AAA8" transform="matrix(1.00, 0.00, -0.00, -1.00, 1149.8, 941.0)">e</text><text xml:space="preserve" font-family="Helvetica-Light" font-size="70.0" fill="#A6AAA8" transform="matrix(1.00, 0.00, -0.00, -1.00, 1188.7, 941.0)">n</text><text xml:space="preserve" font-family="Helvetica-Light" font-size="70.0" fill="#A6AAA8" transform="matrix(1.00, 0.00, -0.00, -1.00, 1227.6, 941.0)">a</text><text xml:space="preserve" font-family="Helvetica-Light" font-size="70.0" fill="#A6AAA8" transform="matrix(1.00, 0.00, -0.00, -1.00, 1266.5, 941.0)">r</text><text xml:space="preserve" font-family="Helvetica-Light" font-size="70.0" fill="#A6AAA8" transform="matrix(1.00, 0.00, -0.00, -1.00, 1289.8, 941.0)">i</text><text xml:space="preserve" font-family="Helvetica-Light" font-size="70.0" fill="#A6AAA8" transform="matrix(1.00, 0.00, -0.00, -1.00, 1305.4, 941.0)">o</text><text xml:space="preserve" font-family="Helvetica-Light" font-size="70.0" fill="#A6AAA8" transform="matrix(1.00, 0.00, -0.00, -1.00, 1344.3, 941.0)">s</text><g><clipPath id="clip-20"><path d="M 222.1 786.5 L 801.2 786.5 L 801.2 193.4 L 222.1 193.4 Z M 222.1 786.5 "></path></clipPath><g clip-path="url(#clip-20)"><path d="M 222.1 193.4 L 801.2 193.4 L 801.2 786.5 L 222.1 786.5 Z M 222.1 193.4 " fill="url(#F046444D-3EF2-4A0D-9394-583DEF75A531)"></path><path d="M 222.1 786.5 L 801.2 786.5 L 801.2 193.4 L 222.1 193.4 Z M 222.1 786.5 " fill="#00397A" fill-opacity="0.85"></path></g></g><path d="M 0.0 0.0 L 579.1 0.0 L 579.1 593.1 L 0.0 593.1 Z M 0.0 0.0 " fill="none" stroke="#0065C0" stroke-width="3.00" transform="matrix(1.00, 0.00, 0.00, -1.00, 222.1, 786.5)"></path><g opacity="0.48"><g><clipPath id="clip-21"><path d="M 383.0 441.0 L 446.0 441.0 L 446.0 504.0 L 383.0 504.0 Z M 383.0 441.0 "></path></clipPath><g clip-path="url(#clip-21)"><path d="M 435.8 493.7 C 447.5 482.0 447.5 463.0 435.8 451.3 C 424.1 439.6 405.1 439.6 393.4 451.3 C 381.7 463.0 381.7 482.0 393.4 493.7 C 405.1 505.4 424.1 505.4 435.8 493.7 Z M 435.8 493.7 " fill="#DCDDE0"></path></g></g></g><g opacity="0.48"><g><clipPath id="clip-22"><path d="M 520.0 313.0 L 583.0 313.0 L 583.0 376.0 L 520.0 376.0 Z M 520.0 313.0 "></path></clipPath><g clip-path="url(#clip-22)"><path d="M 572.7 366.2 C 584.4 354.5 584.4 335.5 572.7 323.8 C 561.0 312.1 542.0 312.1 530.3 323.8 C 518.6 335.5 518.6 354.5 530.3 366.2 C 542.0 377.9 561.0 377.9 572.7 366.2 Z M 572.7 366.2 " fill="#DCDDE0"></path></g></g></g><g opacity="0.48"><g><clipPath id="clip-23"><path d="M 638.0 419.0 L 701.0 419.0 L 701.0 482.0 L 638.0 482.0 Z M 638.0 419.0 "></path></clipPath><g clip-path="url(#clip-23)"><path d="M 690.9 471.4 C 702.7 459.7 702.7 440.7 690.9 429.0 C 679.2 417.3 660.3 417.3 648.5 429.0 C 636.8 440.7 636.8 459.7 648.5 471.4 C 660.3 483.1 679.2 483.1 690.9 471.4 Z M 690.9 471.4 " fill="#DCDDE0"></path></g></g></g><g opacity="0.48"><g><clipPath id="clip-24"><path d="M 352.0 599.0 L 415.0 599.0 L 415.0 662.0 L 352.0 662.0 Z M 352.0 599.0 "></path></clipPath><g clip-path="url(#clip-24)"><path d="M 404.5 652.0 C 416.3 640.3 416.3 621.3 404.5 609.6 C 392.8 597.9 373.9 597.9 362.1 609.6 C 350.4 621.3 350.4 640.3 362.1 652.0 C 373.9 663.7 392.8 663.7 404.5 652.0 Z M 404.5 652.0 " fill="#DCDDE0"></path></g></g></g><g opacity="0.48"><g><clipPath id="clip-25"><path d="M 520.0 672.0 L 583.0 672.0 L 583.0 735.0 L 520.0 735.0 Z M 520.0 672.0 "></path></clipPath><g clip-path="url(#clip-25)"><path d="M 572.7 724.6 C 584.4 712.9 584.4 693.9 572.7 682.2 C 561.0 670.5 542.0 670.5 530.3 682.2 C 518.6 693.9 518.6 712.9 530.3 724.6 C 542.0 736.3 561.0 736.3 572.7 724.6 Z M 572.7 724.6 " fill="#DCDDE0"></path></g></g></g><g opacity="0.48"><g><clipPath id="clip-26"><path d="M 294.0 350.0 L 357.0 350.0 L 357.0 412.0 L 294.0 412.0 Z M 294.0 350.0 "></path></clipPath><g clip-path="url(#clip-26)"><path d="M 346.5 402.2 C 358.2 390.5 358.2 371.5 346.5 359.8 C 334.8 348.1 315.8 348.1 304.1 359.8 C 292.4 371.5 292.4 390.5 304.1 402.2 C 315.8 413.9 334.8 413.9 346.5 402.2 Z M 346.5 402.2 " fill="#DCDDE0"></path></g></g></g><g opacity="0.48"><g><clipPath id="clip-27"><path d="M 646.0 517.0 L 709.0 517.0 L 709.0 580.0 L 646.0 580.0 Z M 646.0 517.0 "></path></clipPath><g clip-path="url(#clip-27)"><path d="M 698.7 569.8 C 710.4 558.1 710.4 539.1 698.7 527.4 C 687.0 515.7 668.0 515.7 656.3 527.4 C 644.6 539.1 644.6 558.1 656.3 569.8 C 668.0 581.5 687.0 581.5 698.7 569.8 Z M 698.7 569.8 " fill="#DCDDE0"></path></g></g></g><g opacity="0.48"><g><clipPath id="clip-28"><path d="M 547.0 474.0 L 610.0 474.0 L 610.0 537.0 L 547.0 537.0 Z M 547.0 474.0 "></path></clipPath><g clip-path="url(#clip-28)"><path d="M 600.0 526.5 C 611.7 514.8 611.7 495.8 600.0 484.1 C 588.3 472.4 569.3 472.4 557.6 484.1 C 545.9 495.8 545.9 514.8 557.6 526.5 C 569.3 538.2 588.3 538.2 600.0 526.5 Z M 600.0 526.5 " fill="#DCDDE0"></path></g></g></g><g opacity="0.48"><g><clipPath id="clip-29"><path d="M 666.0 249.0 L 729.0 249.0 L 729.0 312.0 L 666.0 312.0 Z M 666.0 249.0 "></path></clipPath><g clip-path="url(#clip-29)"><path d="M 719.2 301.6 C 730.9 289.9 730.9 271.0 719.2 259.2 C 707.5 247.5 688.5 247.5 676.8 259.2 C 665.1 271.0 665.1 289.9 676.8 301.6 C 688.5 313.4 707.5 313.4 719.2 301.6 Z M 719.2 301.6 " fill="#DCDDE0"></path></g></g></g><g opacity="0.48"><g><clipPath id="clip-30"><path d="M 453.0 640.0 L 516.0 640.0 L 516.0 703.0 L 453.0 703.0 Z M 453.0 640.0 "></path></clipPath><g clip-path="url(#clip-30)"><path d="M 505.4 692.7 C 517.1 681.0 517.1 662.0 505.4 650.3 C 493.7 638.6 474.7 638.6 463.0 650.3 C 451.3 662.0 451.3 681.0 463.0 692.7 C 474.7 704.4 493.7 704.4 505.4 692.7 Z M 505.4 692.7 " fill="#DCDDE0"></path></g></g></g><g opacity="0.48"><g><clipPath id="clip-31"><path d="M 411.0 531.0 L 474.0 531.0 L 474.0 594.0 L 411.0 594.0 Z M 411.0 531.0 "></path></clipPath><g clip-path="url(#clip-31)"><path d="M 463.5 583.8 C 475.2 572.1 475.2 553.1 463.5 541.4 C 451.8 529.7 432.8 529.7 421.1 541.4 C 409.4 553.1 409.4 572.1 421.1 583.8 C 432.8 595.5 451.8 595.5 463.5 583.8 Z M 463.5 583.8 " fill="#DCDDE0"></path></g></g></g><g opacity="0.48"><g><clipPath id="clip-32"><path d="M 266.0 595.0 L 329.0 595.0 L 329.0 658.0 L 266.0 658.0 Z M 266.0 595.0 "></path></clipPath><g clip-path="url(#clip-32)"><path d="M 319.2 648.0 C 330.9 636.3 330.9 617.3 319.2 605.6 C 307.5 593.9 288.5 593.9 276.8 605.6 C 265.1 617.3 265.1 636.3 276.8 648.0 C 288.5 659.7 307.5 659.7 319.2 648.0 Z M 319.2 648.0 " fill="#DCDDE0"></path></g></g></g><g opacity="0.48"><g><clipPath id="clip-33"><path d="M 488.0 382.0 L 551.0 382.0 L 551.0 445.0 L 488.0 445.0 Z M 488.0 382.0 "></path></clipPath><g clip-path="url(#clip-33)"><path d="M 540.6 434.8 C 552.3 423.1 552.3 404.1 540.6 392.4 C 528.9 380.7 509.9 380.7 498.2 392.4 C 486.5 404.1 486.5 423.1 498.2 434.8 C 509.9 446.5 528.9 446.5 540.6 434.8 Z M 540.6 434.8 " fill="#DCDDE0"></path></g></g></g><g opacity="0.48"><g><clipPath id="clip-34"><path d="M 666.0 668.0 L 729.0 668.0 L 729.0 731.0 L 666.0 731.0 Z M 666.0 668.0 "></path></clipPath><g clip-path="url(#clip-34)"><path d="M 719.2 720.6 C 730.9 708.9 730.9 689.9 719.2 678.2 C 707.5 666.5 688.5 666.5 676.8 678.2 C 665.1 689.9 665.1 708.9 676.8 720.6 C 688.5 732.3 707.5 732.3 719.2 720.6 Z M 719.2 720.6 " fill="#DCDDE0"></path></g></g></g><g opacity="0.48"><g><clipPath id="clip-35"><path d="M 299.0 668.0 L 362.0 668.0 L 362.0 731.0 L 299.0 731.0 Z M 299.0 668.0 "></path></clipPath><g clip-path="url(#clip-35)"><path d="M 352.1 720.6 C 363.8 708.9 363.8 689.9 352.1 678.2 C 340.4 666.5 321.4 666.5 309.7 678.2 C 298.0 689.9 298.0 708.9 309.7 720.6 C 321.4 732.3 340.4 732.3 352.1 720.6 Z M 352.1 720.6 " fill="#DCDDE0"></path></g></g></g><g opacity="0.48"><g><clipPath id="clip-36"><path d="M 389.0 343.0 L 452.0 343.0 L 452.0 406.0 L 389.0 406.0 Z M 389.0 343.0 "></path></clipPath><g clip-path="url(#clip-36)"><path d="M 442.1 395.7 C 453.8 384.0 453.8 365.0 442.1 353.3 C 430.4 341.6 411.4 341.6 399.7 353.3 C 388.0 365.0 388.0 384.0 399.7 395.7 C 411.4 407.4 430.4 407.4 442.1 395.7 Z M 442.1 395.7 " fill="#DCDDE0"></path></g></g></g><g opacity="0.48"><g><clipPath id="clip-37"><path d="M 563.0 600.0 L 626.0 600.0 L 626.0 663.0 L 563.0 663.0 Z M 563.0 600.0 "></path></clipPath><g clip-path="url(#clip-37)"><path d="M 615.8 652.4 C 627.5 640.7 627.5 621.7 615.8 610.0 C 604.1 598.3 585.1 598.3 573.4 610.0 C 561.7 621.7 561.7 640.7 573.4 652.4 C 585.1 664.1 604.1 664.1 615.8 652.4 Z M 615.8 652.4 " fill="#DCDDE0"></path></g></g></g><g opacity="0.48"><g><clipPath id="clip-38"><path d="M 272.0 495.0 L 335.0 495.0 L 335.0 558.0 L 272.0 558.0 Z M 272.0 495.0 "></path></clipPath><g clip-path="url(#clip-38)"><path d="M 325.1 547.5 C 336.8 535.7 336.8 516.8 325.1 505.1 C 313.4 493.3 294.4 493.3 282.7 505.1 C 271.0 516.8 271.0 535.7 282.7 547.5 C 294.4 559.2 313.4 559.2 325.1 547.5 Z M 325.1 547.5 " fill="#DCDDE0"></path></g></g></g><g opacity="0.48"><g><clipPath id="clip-39"><path d="M 590.0 350.0 L 653.0 350.0 L 653.0 412.0 L 590.0 412.0 Z M 590.0 350.0 "></path></clipPath><g clip-path="url(#clip-39)"><path d="M 642.8 402.2 C 654.5 390.5 654.5 371.5 642.8 359.8 C 631.1 348.1 612.1 348.1 600.4 359.8 C 588.7 371.5 588.7 390.5 600.4 402.2 C 612.1 413.9 631.1 413.9 642.8 402.2 Z M 642.8 402.2 " fill="#DCDDE0"></path></g></g></g><g opacity="0.48"><g><clipPath id="clip-40"><path d="M 369.0 249.0 L 432.0 249.0 L 432.0 312.0 L 369.0 312.0 Z M 369.0 249.0 "></path></clipPath><g clip-path="url(#clip-40)"><path d="M 422.1 301.6 C 433.9 289.9 433.9 271.0 422.1 259.2 C 410.4 247.5 391.5 247.5 379.7 259.2 C 368.0 271.0 368.0 289.9 379.7 301.6 C 391.5 313.4 410.4 313.4 422.1 301.6 Z M 422.1 301.6 " fill="#DCDDE0"></path></g></g></g><g opacity="0.48"><g><clipPath id="clip-41"><path d="M 466.0 566.0 L 529.0 566.0 L 529.0 628.0 L 466.0 628.0 Z M 466.0 566.0 "></path></clipPath><g clip-path="url(#clip-41)"><path d="M 519.2 618.2 C 530.9 606.5 530.9 587.5 519.2 575.8 C 507.5 564.1 488.5 564.1 476.8 575.8 C 465.1 587.5 465.1 606.5 476.8 618.2 C 488.5 629.9 507.5 629.9 519.2 618.2 Z M 519.2 618.2 " fill="#DCDDE0"></path></g></g></g><g opacity="0.48"><g><clipPath id="clip-42"><path d="M 688.0 566.0 L 751.0 566.0 L 751.0 628.0 L 688.0 628.0 Z M 688.0 566.0 "></path></clipPath><g clip-path="url(#clip-42)"><path d="M 740.6 618.2 C 752.3 606.5 752.3 587.5 740.6 575.8 C 728.9 564.1 709.9 564.1 698.2 575.8 C 686.5 587.5 686.5 606.5 698.2 618.2 C 709.9 629.9 728.9 629.9 740.6 618.2 Z M 740.6 618.2 " fill="#DCDDE0"></path></g></g></g><g><clipPath id="clip-43"><path d="M 1131.1 794.4 L 1710.2 794.4 L 1710.2 201.3 L 1131.1 201.3 Z M 1131.1 794.4 "></path></clipPath><g clip-path="url(#clip-43)"><path d="M 1131.1 201.3 L 1710.2 201.3 L 1710.2 794.4 L 1131.1 794.4 Z M 1131.1 201.3 " fill="url(#0D9E556C-8EEE-49E6-88EA-4B63EAF6D039)"></path><path d="M 1131.1 794.4 L 1710.2 794.4 L 1710.2 201.3 L 1131.1 201.3 Z M 1131.1 794.4 " fill="#00397A" fill-opacity="0.85"></path></g></g><path d="M 0.0 0.0 L 579.1 0.0 L 579.1 593.1 L 0.0 593.1 Z M 0.0 0.0 " fill="none" stroke="#0065C0" stroke-width="3.00" transform="matrix(1.00, 0.00, 0.00, -1.00, 1131.1, 794.4)"></path><g opacity="0.48"><g><clipPath id="clip-44"><path d="M 1139.0 297.0 L 1507.0 297.0 L 1507.0 665.0 L 1139.0 665.0 Z M 1139.0 297.0 "></path></clipPath><g clip-path="url(#clip-44)"><path d="M 1447.0 603.8 C 1515.2 535.7 1515.2 425.2 1447.0 357.1 C 1378.9 288.9 1268.4 288.9 1200.3 357.1 C 1132.1 425.2 1132.1 535.7 1200.3 603.8 C 1268.4 672.0 1378.9 672.0 1447.0 603.8 Z M 1447.0 603.8 " fill="#DCDDE0"></path></g></g></g><g opacity="0.48"><g><clipPath id="clip-45"><path d="M 1263.0 153.0 L 1657.0 153.0 L 1657.0 547.0 L 1263.0 547.0 Z M 1263.0 153.0 "></path></clipPath><g clip-path="url(#clip-45)"><path d="M 1592.8 485.1 C 1665.8 412.1 1665.8 293.7 1592.8 220.7 C 1519.7 147.6 1401.3 147.6 1328.3 220.7 C 1255.3 293.7 1255.3 412.1 1328.3 485.1 C 1401.3 558.2 1519.7 558.2 1592.8 485.1 Z M 1592.8 485.1 " fill="#DCDDE0"></path></g></g></g><g opacity="0.48"><g><clipPath id="clip-46"><path d="M 1351.0 235.0 L 1802.0 235.0 L 1802.0 687.0 L 1351.0 687.0 Z M 1351.0 235.0 "></path></clipPath><g clip-path="url(#clip-46)"><path d="M 1730.3 609.6 C 1814.0 525.9 1814.0 390.3 1730.3 306.6 C 1646.6 222.9 1510.9 222.9 1427.3 306.6 C 1343.6 390.3 1343.6 525.9 1427.3 609.6 C 1510.9 693.3 1646.6 693.3 1730.3 609.6 Z M 1730.3 609.6 " fill="#DCDDE0"></path></g></g></g><g opacity="0.48"><g><clipPath id="clip-47"><path d="M 1129.0 473.0 L 1457.0 473.0 L 1457.0 802.0 L 1129.0 802.0 Z M 1129.0 473.0 "></path></clipPath><g clip-path="url(#clip-47)"><path d="M 1402.5 748.9 C 1463.3 688.0 1463.3 589.4 1402.5 528.6 C 1341.7 467.8 1243.1 467.8 1182.2 528.6 C 1121.4 589.4 1121.4 688.0 1182.2 748.9 C 1243.1 809.7 1341.7 809.7 1402.5 748.9 Z M 1402.5 748.9 " fill="#DCDDE0"></path></g></g></g><g opacity="0.48"><g><clipPath id="clip-48"><path d="M 1281.0 533.0 L 1640.0 533.0 L 1640.0 891.0 L 1281.0 891.0 Z M 1281.0 533.0 "></path></clipPath><g clip-path="url(#clip-48)"><path d="M 1580.7 831.6 C 1647.1 765.2 1647.1 657.5 1580.7 591.1 C 1514.3 524.7 1406.7 524.7 1340.3 591.1 C 1273.9 657.5 1273.9 765.2 1340.3 831.6 C 1406.7 898.0 1514.3 898.0 1580.7 831.6 Z M 1580.7 831.6 " fill="#DCDDE0"></path></g></g></g><text xml:space="preserve" font-family="Helvetica-Light" font-size="50.0" fill="#DCDDE0" transform="matrix(1.00, 0.00, -0.00, -1.00, 230.0, 836.0)">c</text><text xml:space="preserve" font-family="Helvetica-Light" font-size="50.0" fill="#DCDDE0" transform="matrix(1.00, 0.00, -0.00, -1.00, 257.8, 836.0)">o</text><text xml:space="preserve" font-family="Helvetica-Light" font-size="50.0" fill="#DCDDE0" transform="matrix(1.00, 0.00, -0.00, -1.00, 285.6, 836.0)">m</text><text xml:space="preserve" font-family="Helvetica-Light" font-size="50.0" fill="#DCDDE0" transform="matrix(1.00, 0.00, -0.00, -1.00, 327.2, 836.0)">m</text><text xml:space="preserve" font-family="Helvetica-Light" font-size="50.0" fill="#DCDDE0" transform="matrix(1.00, 0.00, -0.00, -1.00, 368.9, 836.0)">o</text><text xml:space="preserve" font-family="Helvetica-Light" font-size="50.0" fill="#DCDDE0" transform="matrix(1.00, 0.00, -0.00, -1.00, 396.7, 836.0)">n</text><text xml:space="preserve" font-family="Helvetica-Light" font-size="50.0" fill="#DCDDE0" transform="matrix(1.00, 0.00, -0.00, -1.00, 424.5, 836.0)"> </text><text xml:space="preserve" font-family="Helvetica-Light" font-size="50.0" fill="#DCDDE0" transform="matrix(1.00, 0.00, -0.00, -1.00, 438.4, 836.0)">b</text><text xml:space="preserve" font-family="Helvetica-Light" font-size="50.0" fill="#DCDDE0" transform="matrix(1.00, 0.00, -0.00, -1.00, 469.0, 836.0)">u</text><text xml:space="preserve" font-family="Helvetica-Light" font-size="50.0" fill="#DCDDE0" transform="matrix(1.00, 0.00, -0.00, -1.00, 496.8, 836.0)">t</text><text xml:space="preserve" font-family="Helvetica-Light" font-size="50.0" fill="#DCDDE0" transform="matrix(1.00, 0.00, -0.00, -1.00, 510.7, 836.0)"> </text><text xml:space="preserve" font-family="Helvetica-Light" font-size="50.0" fill="#DCDDE0" transform="matrix(1.00, 0.00, -0.00, -1.00, 524.5, 836.0)">s</text><text xml:space="preserve" font-family="Helvetica-Light" font-size="50.0" fill="#DCDDE0" transform="matrix(1.00, 0.00, -0.00, -1.00, 549.5, 836.0)">h</text><text xml:space="preserve" font-family="Helvetica-Light" font-size="50.0" fill="#DCDDE0" transform="matrix(1.00, 0.00, -0.00, -1.00, 577.4, 836.0)">o</text><text xml:space="preserve" font-family="Helvetica-Light" font-size="50.0" fill="#DCDDE0" transform="matrix(1.00, 0.00, -0.00, -1.00, 605.2, 836.0)">r</text><text xml:space="preserve" font-family="Helvetica-Light" font-size="50.0" fill="#DCDDE0" transform="matrix(1.00, 0.00, -0.00, -1.00, 622.7, 836.0)">t</text><text xml:space="preserve" font-family="Helvetica-Light" font-size="50.0" fill="#DCDDE0" transform="matrix(1.00, 0.00, -0.00, -1.00, 636.6, 836.0)"> </text><text xml:space="preserve" font-family="Helvetica-Light" font-size="50.0" fill="#DCDDE0" transform="matrix(1.00, 0.00, -0.00, -1.00, 650.5, 836.0)">l</text><text xml:space="preserve" font-family="Helvetica-Light" font-size="50.0" fill="#DCDDE0" transform="matrix(1.00, 0.00, -0.00, -1.00, 661.6, 836.0)">i</text><text xml:space="preserve" font-family="Helvetica-Light" font-size="50.0" fill="#DCDDE0" transform="matrix(1.00, 0.00, -0.00, -1.00, 672.7, 836.0)">f</text><text xml:space="preserve" font-family="Helvetica-Light" font-size="50.0" fill="#DCDDE0" transform="matrix(1.00, 0.00, -0.00, -1.00, 686.6, 836.0)">e</text><text xml:space="preserve" font-family="Helvetica-Light" font-size="50.0" fill="#DCDDE0" transform="matrix(1.00, 0.00, -0.00, -1.00, 714.4, 836.0)">t</text><text xml:space="preserve" font-family="Helvetica-Light" font-size="50.0" fill="#DCDDE0" transform="matrix(1.00, 0.00, -0.00, -1.00, 728.3, 836.0)">i</text><text xml:space="preserve" font-family="Helvetica-Light" font-size="50.0" fill="#DCDDE0" transform="matrix(1.00, 0.00, -0.00, -1.00, 739.4, 836.0)">m</text><text xml:space="preserve" font-family="Helvetica-Light" font-size="50.0" fill="#DCDDE0" transform="matrix(1.00, 0.00, -0.00, -1.00, 781.0, 836.0)">e</text><text xml:space="preserve" font-family="Helvetica-Light" font-size="50.0" fill="#DCDDE0" transform="matrix(1.00, 0.00, -0.00, -1.00, 1192.0, 836.0)">r</text><text xml:space="preserve" font-family="Helvetica-Light" font-size="50.0" fill="#DCDDE0" transform="matrix(1.00, 0.00, -0.00, -1.00, 1208.7, 836.0)">a</text><text xml:space="preserve" font-family="Helvetica-Light" font-size="50.0" fill="#DCDDE0" transform="matrix(1.00, 0.00, -0.00, -1.00, 1236.5, 836.0)">r</text><text xml:space="preserve" font-family="Helvetica-Light" font-size="50.0" fill="#DCDDE0" transform="matrix(1.00, 0.00, -0.00, -1.00, 1252.2, 836.0)">e</text><text xml:space="preserve" font-family="Helvetica-Light" font-size="50.0" fill="#DCDDE0" transform="matrix(1.00, 0.00, -0.00, -1.00, 1280.0, 836.0)"> </text><text xml:space="preserve" font-family="Helvetica-Light" font-size="50.0" fill="#DCDDE0" transform="matrix(1.00, 0.00, -0.00, -1.00, 1293.9, 836.0)">b</text><text xml:space="preserve" font-family="Helvetica-Light" font-size="50.0" fill="#DCDDE0" transform="matrix(1.00, 0.00, -0.00, -1.00, 1324.5, 836.0)">u</text><text xml:space="preserve" font-family="Helvetica-Light" font-size="50.0" fill="#DCDDE0" transform="matrix(1.00, 0.00, -0.00, -1.00, 1352.2, 836.0)">t</text><text xml:space="preserve" font-family="Helvetica-Light" font-size="50.0" fill="#DCDDE0" transform="matrix(1.00, 0.00, -0.00, -1.00, 1366.2, 836.0)"> </text><text xml:space="preserve" font-family="Helvetica-Light" font-size="50.0" fill="#DCDDE0" transform="matrix(1.00, 0.00, -0.00, -1.00, 1380.0, 836.0)">l</text><text xml:space="preserve" font-family="Helvetica-Light" font-size="50.0" fill="#DCDDE0" transform="matrix(1.00, 0.00, -0.00, -1.00, 1391.2, 836.0)">o</text><text xml:space="preserve" font-family="Helvetica-Light" font-size="50.0" fill="#DCDDE0" transform="matrix(1.00, 0.00, -0.00, -1.00, 1419.0, 836.0)">n</text><text xml:space="preserve" font-family="Helvetica-Light" font-size="50.0" fill="#DCDDE0" transform="matrix(1.00, 0.00, -0.00, -1.00, 1446.8, 836.0)">g</text><text xml:space="preserve" font-family="Helvetica-Light" font-size="50.0" fill="#DCDDE0" transform="matrix(1.00, 0.00, -0.00, -1.00, 1477.3, 836.0)"> </text><text xml:space="preserve" font-family="Helvetica-Light" font-size="50.0" fill="#DCDDE0" transform="matrix(1.00, 0.00, -0.00, -1.00, 1491.2, 836.0)">l</text><text xml:space="preserve" font-family="Helvetica-Light" font-size="50.0" fill="#DCDDE0" transform="matrix(1.00, 0.00, -0.00, -1.00, 1502.3, 836.0)">i</text><text xml:space="preserve" font-family="Helvetica-Light" font-size="50.0" fill="#DCDDE0" transform="matrix(1.00, 0.00, -0.00, -1.00, 1513.4, 836.0)">f</text><text xml:space="preserve" font-family="Helvetica-Light" font-size="50.0" fill="#DCDDE0" transform="matrix(1.00, 0.00, -0.00, -1.00, 1527.3, 836.0)">e</text><text xml:space="preserve" font-family="Helvetica-Light" font-size="50.0" fill="#DCDDE0" transform="matrix(1.00, 0.00, -0.00, -1.00, 1555.1, 836.0)">t</text><text xml:space="preserve" font-family="Helvetica-Light" font-size="50.0" fill="#DCDDE0" transform="matrix(1.00, 0.00, -0.00, -1.00, 1569.0, 836.0)">i</text><text xml:space="preserve" font-family="Helvetica-Light" font-size="50.0" fill="#DCDDE0" transform="matrix(1.00, 0.00, -0.00, -1.00, 1580.1, 836.0)">m</text><text xml:space="preserve" font-family="Helvetica-Light" font-size="50.0" fill="#DCDDE0" transform="matrix(1.00, 0.00, -0.00, -1.00, 1621.8, 836.0)">e</text><text xml:space="preserve" font-family="Helvetica-Light" font-size="40.0" fill="#FEFFFF" transform="matrix(1.00, 0.00, -0.00, -1.00, 229.0, 131.0)">T</text><text xml:space="preserve" font-family="Helvetica-Light" font-size="40.0" fill="#FEFFFF" transform="matrix(1.00, 0.00, -0.00, -1.00, 251.2, 131.0)">h</text><text xml:space="preserve" font-family="Helvetica-Light" font-size="40.0" fill="#FEFFFF" transform="matrix(1.00, 0.00, -0.00, -1.00, 273.5, 131.0)">i</text><text xml:space="preserve" font-family="Helvetica-Light" font-size="40.0" fill="#FEFFFF" transform="matrix(1.00, 0.00, -0.00, -1.00, 282.4, 131.0)">s</text><text xml:space="preserve" font-family="Helvetica-Light" font-size="40.0" fill="#FEFFFF" transform="matrix(1.00, 0.00, -0.00, -1.00, 302.4, 131.0)"> </text><text xml:space="preserve" font-family="Helvetica-Light" font-size="40.0" fill="#FEFFFF" transform="matrix(1.00, 0.00, -0.00, -1.00, 313.5, 131.0)">i</text><text xml:space="preserve" font-family="Helvetica-Light" font-size="40.0" fill="#FEFFFF" transform="matrix(1.00, 0.00, -0.00, -1.00, 322.4, 131.0)">m</text><text xml:space="preserve" font-family="Helvetica-Light" font-size="40.0" fill="#FEFFFF" transform="matrix(1.00, 0.00, -0.00, -1.00, 355.7, 131.0)">p</text><text xml:space="preserve" font-family="Helvetica-Light" font-size="40.0" fill="#FEFFFF" transform="matrix(1.00, 0.00, -0.00, -1.00, 380.1, 131.0)">l</text><text xml:space="preserve" font-family="Helvetica-Light" font-size="40.0" fill="#FEFFFF" transform="matrix(1.00, 0.00, -0.00, -1.00, 389.0, 131.0)">i</text><text xml:space="preserve" font-family="Helvetica-Light" font-size="40.0" fill="#FEFFFF" transform="matrix(1.00, 0.00, -0.00, -1.00, 397.9, 131.0)">e</text><text xml:space="preserve" font-family="Helvetica-Light" font-size="40.0" fill="#FEFFFF" transform="matrix(1.00, 0.00, -0.00, -1.00, 420.1, 131.0)">s</text><text xml:space="preserve" font-family="Helvetica-Light" font-size="40.0" fill="#FEFFFF" transform="matrix(1.00, 0.00, -0.00, -1.00, 440.1, 131.0)"> </text><text xml:space="preserve" font-family="Helvetica-Light" font-size="40.0" fill="#FEFFFF" transform="matrix(1.00, 0.00, -0.00, -1.00, 451.2, 131.0)">t</text><text xml:space="preserve" font-family="Helvetica-Light" font-size="40.0" fill="#FEFFFF" transform="matrix(1.00, 0.00, -0.00, -1.00, 462.4, 131.0)">h</text><text xml:space="preserve" font-family="Helvetica-Light" font-size="40.0" fill="#FEFFFF" transform="matrix(1.00, 0.00, -0.00, -1.00, 484.6, 131.0)">e</text><text xml:space="preserve" font-family="Helvetica-Light" font-size="40.0" fill="#FEFFFF" transform="matrix(1.00, 0.00, -0.00, -1.00, 506.8, 131.0)"> </text><text xml:space="preserve" font-family="Helvetica-Light" font-size="40.0" fill="#FEFFFF" transform="matrix(1.00, 0.00, -0.00, -1.00, 518.0, 131.0)">e</text><text xml:space="preserve" font-family="Helvetica-Light" font-size="40.0" fill="#FEFFFF" transform="matrix(1.00, 0.00, -0.00, -1.00, 540.2, 131.0)">x</text><text xml:space="preserve" font-family="Helvetica-Light" font-size="40.0" fill="#FEFFFF" transform="matrix(1.00, 0.00, -0.00, -1.00, 560.2, 131.0)">a</text><text xml:space="preserve" font-family="Helvetica-Light" font-size="40.0" fill="#FEFFFF" transform="matrix(1.00, 0.00, -0.00, -1.00, 582.4, 131.0)">c</text><text xml:space="preserve" font-family="Helvetica-Light" font-size="40.0" fill="#FEFFFF" transform="matrix(1.00, 0.00, -0.00, -1.00, 604.7, 131.0)">t</text><text xml:space="preserve" font-family="Helvetica-Light" font-size="40.0" fill="#FEFFFF" transform="matrix(1.00, 0.00, -0.00, -1.00, 615.8, 131.0)"> </text><text xml:space="preserve" font-family="Helvetica-Light" font-size="40.0" fill="#FEFFFF" transform="matrix(1.00, 0.00, -0.00, -1.00, 626.9, 131.0)">s</text><text xml:space="preserve" font-family="Helvetica-Light" font-size="40.0" fill="#FEFFFF" transform="matrix(1.00, 0.00, -0.00, -1.00, 646.9, 131.0)">t</text><text xml:space="preserve" font-family="Helvetica-Light" font-size="40.0" fill="#FEFFFF" transform="matrix(1.00, 0.00, -0.00, -1.00, 658.0, 131.0)">r</text><text xml:space="preserve" font-family="Helvetica-Light" font-size="40.0" fill="#FEFFFF" transform="matrix(1.00, 0.00, -0.00, -1.00, 671.4, 131.0)">u</text><text xml:space="preserve" font-family="Helvetica-Light" font-size="40.0" fill="#FEFFFF" transform="matrix(1.00, 0.00, -0.00, -1.00, 693.6, 131.0)">c</text><text xml:space="preserve" font-family="Helvetica-Light" font-size="40.0" fill="#FEFFFF" transform="matrix(1.00, 0.00, -0.00, -1.00, 715.8, 131.0)">t</text><text xml:space="preserve" font-family="Helvetica-Light" font-size="40.0" fill="#FEFFFF" transform="matrix(1.00, 0.00, -0.00, -1.00, 727.0, 131.0)">u</text><text xml:space="preserve" font-family="Helvetica-Light" font-size="40.0" fill="#FEFFFF" transform="matrix(1.00, 0.00, -0.00, -1.00, 749.2, 131.0)">r</text><text xml:space="preserve" font-family="Helvetica-Light" font-size="40.0" fill="#FEFFFF" transform="matrix(1.00, 0.00, -0.00, -1.00, 761.8, 131.0)">e</text><text xml:space="preserve" font-family="Helvetica-Light" font-size="40.0" fill="#FEFFFF" transform="matrix(1.00, 0.00, -0.00, -1.00, 784.0, 131.0)"> </text><text xml:space="preserve" font-family="Helvetica-Light" font-size="40.0" fill="#FEFFFF" transform="matrix(1.00, 0.00, -0.00, -1.00, 795.2, 131.0)">o</text><text xml:space="preserve" font-family="Helvetica-Light" font-size="40.0" fill="#FEFFFF" transform="matrix(1.00, 0.00, -0.00, -1.00, 817.4, 131.0)">f</text><text xml:space="preserve" font-family="Helvetica-Light" font-size="40.0" fill="#FEFFFF" transform="matrix(1.00, 0.00, -0.00, -1.00, 828.5, 131.0)"> </text><text xml:space="preserve" font-family="Helvetica-Light" font-size="40.0" fill="#FEFFFF" transform="matrix(1.00, 0.00, -0.00, -1.00, 839.6, 131.0)">H</text><text xml:space="preserve" font-family="Helvetica-Light" font-size="40.0" fill="#FEFFFF" transform="matrix(1.00, 0.00, -0.00, -1.00, 868.5, 131.0)">e</text><text xml:space="preserve" font-family="Helvetica-Light" font-size="40.0" fill="#FEFFFF" transform="matrix(1.00, 0.00, -0.00, -1.00, 890.8, 131.0)">I</text><text xml:space="preserve" font-family="Helvetica-Light" font-size="40.0" fill="#FEFFFF" transform="matrix(1.00, 0.00, -0.00, -1.00, 901.9, 131.0)">I</text><text xml:space="preserve" font-family="Helvetica-Light" font-size="40.0" fill="#FEFFFF" transform="matrix(1.00, 0.00, -0.00, -1.00, 913.0, 131.0)"> </text><text xml:space="preserve" font-family="Helvetica-Light" font-size="40.0" fill="#FEFFFF" transform="matrix(1.00, 0.00, -0.00, -1.00, 924.1, 131.0)">r</text><text xml:space="preserve" font-family="Helvetica-Light" font-size="40.0" fill="#FEFFFF" transform="matrix(1.00, 0.00, -0.00, -1.00, 936.7, 131.0)">e</text><text xml:space="preserve" font-family="Helvetica-Light" font-size="40.0" fill="#FEFFFF" transform="matrix(1.00, 0.00, -0.00, -1.00, 959.0, 131.0)">i</text><text xml:space="preserve" font-family="Helvetica-Light" font-size="40.0" fill="#FEFFFF" transform="matrix(1.00, 0.00, -0.00, -1.00, 967.8, 131.0)">o</text><text xml:space="preserve" font-family="Helvetica-Light" font-size="40.0" fill="#FEFFFF" transform="matrix(1.00, 0.00, -0.00, -1.00, 990.1, 131.0)">n</text><text xml:space="preserve" font-family="Helvetica-Light" font-size="40.0" fill="#FEFFFF" transform="matrix(1.00, 0.00, -0.00, -1.00, 1012.3, 131.0)">i</text><text xml:space="preserve" font-family="Helvetica-Light" font-size="40.0" fill="#FEFFFF" transform="matrix(1.00, 0.00, -0.00, -1.00, 1021.2, 131.0)">z</text><text xml:space="preserve" font-family="Helvetica-Light" font-size="40.0" fill="#FEFFFF" transform="matrix(1.00, 0.00, -0.00, -1.00, 1041.2, 131.0)">a</text><text xml:space="preserve" font-family="Helvetica-Light" font-size="40.0" fill="#FEFFFF" transform="matrix(1.00, 0.00, -0.00, -1.00, 1063.4, 131.0)">t</text><text xml:space="preserve" font-family="Helvetica-Light" font-size="40.0" fill="#FEFFFF" transform="matrix(1.00, 0.00, -0.00, -1.00, 1074.6, 131.0)">i</text><text xml:space="preserve" font-family="Helvetica-Light" font-size="40.0" fill="#FEFFFF" transform="matrix(1.00, 0.00, -0.00, -1.00, 1083.4, 131.0)">o</text><text xml:space="preserve" font-family="Helvetica-Light" font-size="40.0" fill="#FEFFFF" transform="matrix(1.00, 0.00, -0.00, -1.00, 1105.7, 131.0)">n</text><text xml:space="preserve" font-family="Helvetica-Light" font-size="40.0" fill="#FEFFFF" transform="matrix(1.00, 0.00, -0.00, -1.00, 1127.9, 131.0)"> </text><text xml:space="preserve" font-family="Helvetica-Light" font-size="40.0" fill="#FEFFFF" transform="matrix(1.00, 0.00, -0.00, -1.00, 1139.0, 131.0)">d</text><text xml:space="preserve" font-family="Helvetica-Light" font-size="40.0" fill="#FEFFFF" transform="matrix(1.00, 0.00, -0.00, -1.00, 1163.5, 131.0)">e</text><text xml:space="preserve" font-family="Helvetica-Light" font-size="40.0" fill="#FEFFFF" transform="matrix(1.00, 0.00, -0.00, -1.00, 1185.7, 131.0)">p</text><text xml:space="preserve" font-family="Helvetica-Light" font-size="40.0" fill="#FEFFFF" transform="matrix(1.00, 0.00, -0.00, -1.00, 1210.2, 131.0)">e</text><text xml:space="preserve" font-family="Helvetica-Light" font-size="40.0" fill="#FEFFFF" transform="matrix(1.00, 0.00, -0.00, -1.00, 1232.4, 131.0)">n</text><text xml:space="preserve" font-family="Helvetica-Light" font-size="40.0" fill="#FEFFFF" transform="matrix(1.00, 0.00, -0.00, -1.00, 1254.6, 131.0)">d</text><text xml:space="preserve" font-family="Helvetica-Light" font-size="40.0" fill="#FEFFFF" transform="matrix(1.00, 0.00, -0.00, -1.00, 1279.1, 131.0)">s</text><text xml:space="preserve" font-family="Helvetica-Light" font-size="40.0" fill="#FEFFFF" transform="matrix(1.00, 0.00, -0.00, -1.00, 1299.1, 131.0)"> </text><text xml:space="preserve" font-family="Helvetica-Light" font-size="40.0" fill="#FEFFFF" transform="matrix(1.00, 0.00, -0.00, -1.00, 1310.2, 131.0)">o</text><text xml:space="preserve" font-family="Helvetica-Light" font-size="40.0" fill="#FEFFFF" transform="matrix(1.00, 0.00, -0.00, -1.00, 1332.4, 131.0)">n</text><text xml:space="preserve" font-family="Helvetica-Light" font-size="40.0" fill="#FEFFFF" transform="matrix(1.00, 0.00, -0.00, -1.00, 1354.7, 131.0)"> </text><text xml:space="preserve" font-family="Helvetica-Light" font-size="40.0" fill="#FEFFFF" transform="matrix(1.00, 0.00, -0.00, -1.00, 1365.8, 131.0)">t</text><text xml:space="preserve" font-family="Helvetica-Light" font-size="40.0" fill="#FEFFFF" transform="matrix(1.00, 0.00, -0.00, -1.00, 1376.9, 131.0)">h</text><text xml:space="preserve" font-family="Helvetica-Light" font-size="40.0" fill="#FEFFFF" transform="matrix(1.00, 0.00, -0.00, -1.00, 1399.2, 131.0)">e</text><text xml:space="preserve" font-family="Helvetica-Light" font-size="40.0" fill="#FEFFFF" transform="matrix(1.00, 0.00, -0.00, -1.00, 1421.4, 131.0)"> </text><text xml:space="preserve" font-family="Helvetica-Light" font-size="40.0" fill="#FEFFFF" transform="matrix(1.00, 0.00, -0.00, -1.00, 1432.5, 131.0)">d</text><text xml:space="preserve" font-family="Helvetica-Light" font-size="40.0" fill="#FEFFFF" transform="matrix(1.00, 0.00, -0.00, -1.00, 1457.0, 131.0)">u</text><text xml:space="preserve" font-family="Helvetica-Light" font-size="40.0" fill="#FEFFFF" transform="matrix(1.00, 0.00, -0.00, -1.00, 1479.2, 131.0)">r</text><text xml:space="preserve" font-family="Helvetica-Light" font-size="40.0" fill="#FEFFFF" transform="matrix(1.00, 0.00, -0.00, -1.00, 1492.5, 131.0)">a</text><text xml:space="preserve" font-family="Helvetica-Light" font-size="40.0" fill="#FEFFFF" transform="matrix(1.00, 0.00, -0.00, -1.00, 1514.8, 131.0)">t</text><text xml:space="preserve" font-family="Helvetica-Light" font-size="40.0" fill="#FEFFFF" transform="matrix(1.00, 0.00, -0.00, -1.00, 1525.9, 131.0)">i</text><text xml:space="preserve" font-family="Helvetica-Light" font-size="40.0" fill="#FEFFFF" transform="matrix(1.00, 0.00, -0.00, -1.00, 1534.8, 131.0)">o</text><text xml:space="preserve" font-family="Helvetica-Light" font-size="40.0" fill="#FEFFFF" transform="matrix(1.00, 0.00, -0.00, -1.00, 1557.0, 131.0)">n</text><text xml:space="preserve" font-family="Helvetica-Light" font-size="40.0" fill="#FEFFFF" transform="matrix(1.00, 0.00, -0.00, -1.00, 1579.2, 131.0)"> </text><text xml:space="preserve" font-family="Helvetica-Light" font-size="40.0" fill="#FEFFFF" transform="matrix(1.00, 0.00, -0.00, -1.00, 1590.4, 131.0)">o</text><text xml:space="preserve" font-family="Helvetica-Light" font-size="40.0" fill="#FEFFFF" transform="matrix(1.00, 0.00, -0.00, -1.00, 1612.6, 131.0)">f</text><text xml:space="preserve" font-family="Helvetica-Light" font-size="40.0" fill="#FEFFFF" transform="matrix(1.00, 0.00, -0.00, -1.00, 1623.7, 131.0)"> </text><text xml:space="preserve" font-family="Helvetica-Light" font-size="40.0" fill="#FEFFFF" transform="matrix(1.00, 0.00, -0.00, -1.00, 1634.8, 131.0)">b</text><text xml:space="preserve" font-family="Helvetica-Light" font-size="40.0" fill="#FEFFFF" transform="matrix(1.00, 0.00, -0.00, -1.00, 1659.3, 131.0)">r</text><text xml:space="preserve" font-family="Helvetica-Light" font-size="40.0" fill="#FEFFFF" transform="matrix(1.00, 0.00, -0.00, -1.00, 1672.6, 131.0)">i</text><text xml:space="preserve" font-family="Helvetica-Light" font-size="40.0" fill="#FEFFFF" transform="matrix(1.00, 0.00, -0.00, -1.00, 1681.5, 131.0)">g</text><text xml:space="preserve" font-family="Helvetica-Light" font-size="40.0" fill="#FEFFFF" transform="matrix(1.00, 0.00, -0.00, -1.00, 1705.9, 131.0)">h</text><text xml:space="preserve" font-family="Helvetica-Light" font-size="40.0" fill="#FEFFFF" transform="matrix(1.00, 0.00, -0.00, -1.00, 1728.2, 131.0)">t</text><text xml:space="preserve" font-family="Helvetica-Light" font-size="40.0" fill="#FEFFFF" transform="matrix(1.00, 0.00, -0.00, -1.00, 1739.3, 131.0)"> </text><text xml:space="preserve" font-family="Helvetica-Light" font-size="40.0" fill="#FEFFFF" transform="matrix(1.00, 0.00, -0.00, -1.00, 229.0, 83.0)">q</text><text xml:space="preserve" font-family="Helvetica-Light" font-size="40.0" fill="#FEFFFF" transform="matrix(1.00, 0.00, -0.00, -1.00, 253.4, 83.0)">u</text><text xml:space="preserve" font-family="Helvetica-Light" font-size="40.0" fill="#FEFFFF" transform="matrix(1.00, 0.00, -0.00, -1.00, 275.7, 83.0)">a</text><text xml:space="preserve" font-family="Helvetica-Light" font-size="40.0" fill="#FEFFFF" transform="matrix(1.00, 0.00, -0.00, -1.00, 297.9, 83.0)">s</text><text xml:space="preserve" font-family="Helvetica-Light" font-size="40.0" fill="#FEFFFF" transform="matrix(1.00, 0.00, -0.00, -1.00, 317.9, 83.0)">a</text><text xml:space="preserve" font-family="Helvetica-Light" font-size="40.0" fill="#FEFFFF" transform="matrix(1.00, 0.00, -0.00, -1.00, 340.2, 83.0)">r</text><text xml:space="preserve" font-family="Helvetica-Light" font-size="40.0" fill="#FEFFFF" transform="matrix(1.00, 0.00, -0.00, -1.00, 353.5, 83.0)">s</text><text xml:space="preserve" font-family="Helvetica-Light" font-size="40.0" fill="#FEFFFF" transform="matrix(1.00, 0.00, -0.00, -1.00, 373.5, 83.0)">.</text><text xml:space="preserve" font-family="Helvetica-Light" font-size="40.0" fill="#FEFFFF" transform="matrix(1.00, 0.00, -0.00, -1.00, 384.6, 83.0)"> </text></g></svg>