<?xml version="1.0" encoding="UTF-8" standalone="no"?><svg xmlns="http://www.w3.org/2000/svg" xmlns:xlink="http://www.w3.org/1999/xlink" clip-rule="evenodd" stroke-miterlimit="4.00" viewBox="0 0 124 260"><desc>SVG generated by Keynote</desc><defs></defs><g transform="matrix(1.00, 0.00, -0.00, -1.00, 0.0, 260.0)"><path d="M 66.7 256.2 C 67.7 256.1 71.9 254.9 71.9 254.8 C 70.4 255.3 67.0 256.0 66.7 256.2 C 66.7 256.2 66.7 256.2 66.7 256.2 Z M 58.2 256.4 C 59.8 256.7 63.2 256.7 64.2 256.5 C 62.4 256.7 58.8 256.4 58.2 256.4 C 58.2 256.4 58.2 256.4 58.2 256.4 Z M 71.1 254.8 C 73.3 254.0 77.3 252.0 78.3 251.3 C 76.1 252.7 72.1 254.4 71.1 254.8 C 71.1 254.8 71.1 254.8 71.1 254.8 Z M 2.6 142.3 C 2.6 143.6 3.0 149.2 3.1 149.2 C 2.9 147.1 2.7 142.7 2.6 142.3 C 2.6 142.3 2.6 142.3 2.6 142.3 Z M 6.0 172.9 C 6.2 174.8 7.0 179.0 7.4 180.3 C 6.9 178.1 6.2 173.5 6.0 172.9 C 6.0 172.9 6.0 172.9 6.0 172.9 Z M 9.3 189.8 C 10.3 193.6 11.4 197.6 11.3 196.8 C 10.9 195.6 9.6 190.1 9.3 189.8 C 9.3 189.8 9.3 189.8 9.3 189.8 Z M 67.4 251.4 C 64.6 252.1 62.5 252.0 60.6 251.9 C 55.8 251.6 57.0 251.6 59.7 251.9 C 62.4 252.2 66.5 251.7 67.4 251.4 C 67.4 251.4 67.4 251.4 67.4 251.4 Z M 18.6 216.8 C 17.5 214.5 16.7 212.5 16.2 211.3 C 17.1 213.6 18.4 216.8 18.6 216.8 C 18.6 216.8 18.6 216.8 18.6 216.8 Z M 33.8 242.3 C 34.0 242.6 36.7 245.8 40.3 248.8 C 43.9 251.8 48.5 254.3 51.8 255.5 C 49.0 254.5 44.2 251.9 40.4 248.7 C 36.6 245.5 33.6 242.0 33.8 242.3 C 33.8 242.3 33.8 242.3 33.8 242.3 Z M 44.4 245.0 C 41.2 242.4 37.1 238.1 33.4 232.8 C 31.6 230.1 29.8 227.2 28.3 224.4 C 26.8 221.6 25.2 218.2 24.6 216.9 C 24.0 215.5 23.9 215.5 24.3 216.3 C 24.7 217.2 26.0 220.1 27.8 223.5 C 31.4 230.4 37.2 238.9 43.1 244.1 C 48.9 249.2 49.5 248.6 49.2 248.4 C 48.9 248.1 47.7 247.4 50.1 248.7 C 54.9 251.2 45.5 246.2 40.8 241.5 C 36.1 236.9 43.9 244.4 44.4 245.0 C 44.4 245.0 44.4 245.0 44.4 245.0 Z M 44.9 244.9 C 47.2 246.7 49.2 247.9 50.6 248.5 C 48.2 247.2 46.0 245.5 44.9 244.9 C 44.9 244.9 44.9 244.9 44.9 244.9 Z M 102.2 216.4 C 103.6 215.9 107.3 209.4 110.5 201.3 C 111.3 199.3 112.0 197.2 112.8 195.1 C 117.5 179.5 120.3 162.2 121.4 144.5 C 121.6 141.0 121.7 137.4 121.8 133.8 C 122.0 122.9 121.5 111.9 120.4 101.1 C 120.0 97.5 119.6 94.0 119.1 90.3 C 117.3 77.6 114.5 65.9 110.8 54.9 C 109.9 52.1 108.9 49.4 107.9 46.7 C 106.8 44.0 106.1 41.9 104.2 37.9 C 103.3 35.8 100.7 30.6 97.7 26.0 C 94.8 21.4 91.5 17.4 89.6 15.5 C 91.4 17.3 88.3 13.5 84.5 10.3 C 80.7 7.2 76.3 4.9 76.7 5.1 C 74.7 4.1 72.5 3.3 70.3 2.7 C 68.1 2.1 70.9 2.8 73.6 3.9 C 71.1 3.0 68.7 2.3 66.1 2.0 C 63.5 1.6 60.8 1.6 58.1 2.0 C 49.2 3.1 40.1 9.1 33.2 17.3 C 30.8 20.1 28.0 23.9 25.0 28.8 C 23.6 31.3 22.1 34.1 20.6 37.1 C 19.1 40.2 18.2 42.4 17.3 44.6 C 13.6 53.4 10.5 63.8 8.3 73.5 C 3.9 92.9 3.1 109.0 3.8 102.1 C 5.4 86.6 4.8 94.7 4.3 98.8 C 4.0 101.2 3.7 104.5 3.4 108.2 C 3.4 108.1 3.4 107.8 3.4 107.2 C 2.8 114.2 2.2 124.1 2.5 133.8 C 2.5 132.0 2.5 129.7 2.5 128.9 C 2.5 133.8 2.6 129.9 2.7 133.1 C 2.8 142.1 3.0 146.4 2.8 136.0 C 3.1 145.6 3.7 151.7 4.9 161.0 C 5.3 164.5 5.1 162.6 4.9 161.6 C 5.5 167.7 8.0 181.5 8.2 182.7 C 8.3 183.4 6.4 174.2 5.2 165.4 C 4.0 156.6 3.5 148.3 3.7 151.9 C 3.9 154.8 4.6 160.8 4.8 163.0 C 4.2 158.0 3.6 151.8 3.4 148.6 C 3.6 152.1 4.0 157.0 4.3 159.7 C 3.9 156.4 3.7 154.0 3.6 153.0 C 4.0 158.0 4.4 161.7 5.2 167.5 C 5.6 170.0 4.9 165.3 5.8 170.7 C 6.0 171.7 5.3 167.2 5.4 167.5 C 6.0 171.9 7.6 180.5 8.0 182.5 C 8.5 184.6 7.0 177.4 7.0 177.2 C 10.1 193.9 16.0 210.8 18.1 215.7 C 20.2 220.6 18.3 216.0 17.4 213.8 C 18.0 215.3 18.6 216.6 19.2 217.9 C 19.8 219.2 20.6 221.2 21.6 223.1 C 23.5 227.0 25.6 230.8 28.3 234.9 C 31.8 240.1 30.5 237.9 29.2 236.0 C 30.1 237.3 30.9 238.5 31.5 239.2 C 31.9 239.7 33.0 241.0 33.7 241.8 C 31.4 239.1 27.4 233.4 25.8 230.5 C 27.3 233.1 30.0 237.2 32.8 240.6 C 35.6 244.0 38.4 246.7 40.0 248.0 C 35.1 243.8 30.1 237.8 25.4 229.6 C 34.7 245.5 46.0 254.2 55.4 256.3 C 53.8 255.9 53.0 255.6 51.7 255.0 C 55.2 256.4 60.5 257.2 63.7 256.9 C 65.5 256.8 69.0 256.2 72.4 254.9 C 66.4 257.2 62.3 257.1 58.0 256.6 C 58.1 256.6 58.5 256.6 59.2 256.7 C 49.7 255.5 44.4 252.0 38.2 246.2 C 37.7 245.7 37.2 245.2 36.8 244.7 C 34.9 242.7 41.9 249.3 42.6 249.8 C 38.0 246.2 33.3 241.1 29.5 235.6 C 25.7 230.0 22.7 224.1 20.9 220.2 C 29.7 238.9 39.3 248.5 47.9 253.0 C 46.8 252.3 44.1 250.7 41.3 248.4 C 38.5 246.1 35.5 243.0 33.7 240.7 C 42.2 250.9 47.5 252.7 50.5 254.0 C 53.6 255.3 54.5 255.4 55.2 255.6 C 53.8 255.2 52.3 254.7 50.8 254.1 C 51.2 254.2 51.6 254.3 52.0 254.4 C 60.3 257.6 70.2 255.1 69.7 255.2 C 69.4 255.3 61.6 257.5 53.6 254.9 C 54.4 255.1 55.3 255.3 56.1 255.5 C 65.6 257.5 76.3 253.8 85.0 245.7 C 83.5 246.9 84.2 246.3 86.0 244.5 C 83.2 247.1 79.3 250.2 76.2 251.8 C 77.3 251.2 79.1 250.0 79.7 249.6 C 78.2 250.6 75.8 252.0 75.0 252.3 C 79.3 250.1 83.7 246.6 87.9 242.0 C 88.7 240.9 86.0 243.9 86.2 243.6 C 90.2 239.5 95.5 231.9 98.0 227.2 C 94.9 232.5 88.7 240.9 86.6 243.0 C 87.9 241.5 89.2 240.0 90.5 238.3 C 93.1 235.0 94.3 233.2 91.4 237.1 C 89.8 239.1 89.8 239.0 90.2 238.5 C 91.9 236.2 97.8 226.8 97.5 227.0 C 96.1 229.6 90.1 238.4 88.4 240.2 C 89.5 238.8 92.7 234.6 92.9 234.0 C 89.6 238.9 87.9 240.7 86.9 241.8 C 85.8 242.9 85.5 243.3 84.6 244.2 C 85.4 243.5 87.4 241.3 87.3 241.4 C 83.0 246.2 78.5 249.8 73.7 252.0 C 73.7 252.0 73.7 252.0 73.7 252.0 C 73.7 252.0 73.7 252.0 73.7 252.0 C 73.7 252.0 73.7 252.0 73.7 252.0 C 74.1 251.7 73.9 251.7 73.4 251.9 C 75.5 250.9 77.5 249.9 81.2 247.0 C 80.1 247.6 76.8 250.2 73.6 251.7 C 73.7 251.7 73.7 251.6 73.7 251.6 C 78.8 249.2 86.4 242.5 91.1 236.0 C 90.0 237.4 87.4 240.8 84.3 243.8 C 81.2 246.8 77.6 249.5 74.6 251.0 C 74.8 250.9 74.9 250.8 75.1 250.6 C 67.7 254.7 58.6 255.3 50.2 251.2 C 54.3 253.0 59.1 254.4 64.4 253.9 C 66.8 253.6 69.0 253.0 71.3 252.1 C 74.6 250.9 81.2 247.1 86.9 240.7 C 92.6 234.3 97.3 225.6 98.2 223.8 C 99.2 221.8 95.6 229.0 91.3 235.0 C 87.0 240.9 82.2 245.2 82.1 245.3 C 81.9 245.3 90.7 236.1 86.6 240.7 C 84.5 243.1 79.7 247.5 76.1 249.6 C 75.9 249.6 75.8 249.6 75.6 249.6 C 78.7 247.8 82.3 244.7 82.5 244.7 C 84.0 243.3 87.1 240.0 87.5 239.4 C 87.0 240.0 86.3 240.8 86.3 240.8 C 87.0 240.0 88.0 238.8 88.1 238.6 C 84.5 242.9 79.4 247.4 75.4 249.7 C 75.0 249.8 74.7 250.0 74.3 250.1 C 74.3 250.1 77.5 248.3 80.2 246.2 C 83.0 243.9 77.1 248.8 72.4 250.9 C 71.6 251.2 70.8 251.4 70.1 251.7 C 71.7 251.1 73.6 250.3 75.8 249.0 C 78.3 247.4 78.2 247.4 80.7 245.2 C 76.0 249.1 70.3 251.8 65.7 252.5 C 64.0 252.7 62.3 252.7 60.6 252.5 C 64.4 252.7 67.9 251.8 69.9 251.1 C 71.6 250.5 73.4 249.7 73.9 249.3 C 72.4 250.1 76.4 247.8 75.7 248.1 C 73.6 249.5 69.2 251.2 67.6 251.7 C 64.1 252.6 60.3 252.6 57.0 251.9 C 56.6 251.7 56.1 251.6 55.7 251.5 C 58.5 252.3 61.3 252.5 64.3 252.2 C 63.6 252.2 61.2 252.4 58.2 251.8 C 55.2 251.3 51.6 250.0 48.5 248.2 C 42.4 244.4 36.2 238.1 30.4 228.9 C 27.6 224.2 24.6 218.3 23.0 214.6 C 21.4 210.9 19.9 207.1 18.6 203.1 C 18.4 202.5 18.1 201.5 17.8 200.5 C 17.4 199.3 17.1 198.1 16.8 196.9 C 17.9 200.8 19.1 204.2 20.1 206.9 C 18.2 201.4 19.5 205.4 21.7 210.8 C 22.7 213.5 23.8 216.0 25.5 219.6 C 27.2 223.2 28.7 225.7 29.0 226.2 C 28.2 224.8 27.4 223.3 26.6 221.6 C 25.8 219.9 24.8 217.8 24.2 216.5 C 23.1 214.1 22.0 211.4 21.0 208.4 C 18.8 202.6 16.7 195.8 14.9 188.6 C 11.4 174.2 9.4 158.1 8.8 145.6 C 9.1 151.6 9.3 153.5 8.9 147.1 C 8.8 145.4 8.8 143.6 8.7 141.8 C 9.9 167.2 15.0 192.4 21.3 208.7 C 17.7 198.9 13.7 182.4 12.9 177.6 C 13.5 180.9 14.6 185.6 14.8 186.3 C 13.6 180.6 10.3 160.9 9.9 154.9 C 11.3 169.5 14.3 186.2 18.7 200.3 C 19.8 203.8 21.0 207.1 22.2 210.3 C 23.4 213.4 24.5 216.1 26.6 220.2 C 30.6 228.5 34.7 234.3 38.1 238.2 C 35.6 235.2 32.9 231.6 30.3 227.1 C 29.0 224.9 27.8 222.5 26.5 219.9 C 25.2 217.3 24.4 215.4 23.7 213.6 C 20.7 206.4 18.0 198.4 15.9 189.9 C 11.7 173.1 9.7 155.0 9.0 140.9 C 9.2 145.8 9.2 145.9 9.0 143.3 C 8.6 134.5 8.5 125.7 8.9 116.7 C 9.0 114.9 9.0 115.5 8.9 119.8 C 8.8 123.4 8.7 125.5 8.8 126.7 C 8.8 124.3 9.9 96.4 9.0 118.5 C 8.2 140.6 12.4 178.5 10.2 156.5 C 8.1 134.5 8.8 125.3 9.2 137.6 C 9.4 143.7 10.3 156.4 11.6 165.7 C 12.9 174.9 14.2 180.9 13.1 174.8 C 12.0 168.7 10.7 158.9 10.0 148.6 C 9.3 138.4 9.3 127.6 9.6 119.9 C 10.1 104.5 8.1 130.2 9.9 107.7 C 11.7 85.2 10.3 103.9 10.8 99.7 C 11.6 93.0 13.4 80.8 16.1 70.0 C 18.0 62.5 21.1 53.4 22.9 49.1 C 22.8 49.5 15.7 71.1 18.4 62.3 C 20.0 57.0 21.9 51.7 23.8 47.1 C 24.3 45.9 24.8 44.8 25.2 43.7 C 25.7 42.6 26.6 40.7 27.3 39.2 C 28.8 36.3 30.2 33.7 31.5 31.7 C 36.6 23.3 39.2 20.7 35.6 25.3 C 45.0 12.7 52.5 9.9 58.6 8.9 C 63.3 8.2 68.3 9.2 72.4 11.2 C 76.5 13.2 79.6 15.9 80.2 16.4 C 80.9 17.0 87.9 22.7 95.0 35.8 C 96.8 39.1 98.6 43.0 99.7 45.4 C 100.7 47.8 101.7 50.4 102.6 52.8 C 104.3 57.7 105.7 62.4 106.5 65.8 C 106.7 66.3 108.4 72.6 109.8 79.4 C 111.3 86.2 112.3 93.4 112.6 94.5 C 114.2 107.2 114.3 112.9 114.5 118.4 C 114.7 124.0 115.0 129.6 114.4 142.5 C 113.5 164.0 111.8 170.1 111.3 173.5 C 109.5 184.3 108.1 189.3 107.1 193.0 C 106.1 196.7 105.6 199.1 104.2 203.8 C 103.4 206.7 101.9 210.9 101.5 212.4 C 100.9 215.4 101.0 216.9 102.2 216.4 C 102.2 216.4 102.2 216.4 102.2 216.4 Z M 71.6 253.1 C 74.5 252.0 79.7 248.9 82.6 246.4 C 79.4 249.4 75.1 252.1 70.6 253.5 C 71.0 253.4 71.3 253.2 71.6 253.1 C 71.6 253.1 71.6 253.1 71.6 253.1 Z M 50.0 250.1 C 51.8 251.1 54.0 252.0 56.0 252.5 C 58.0 253.0 60.0 253.4 63.0 253.2 C 62.7 253.2 57.9 253.0 54.1 251.8 C 54.1 251.8 54.1 251.7 54.1 251.7 C 56.0 252.3 58.1 252.8 60.7 252.9 C 61.5 253.0 62.4 253.0 63.3 252.9 C 63.4 253.0 62.0 253.1 61.5 253.1 C 62.2 253.2 64.4 253.3 67.4 252.6 C 67.8 252.6 68.1 252.5 68.5 252.4 C 68.9 252.4 66.7 253.1 69.2 252.3 C 67.5 252.9 62.8 253.6 60.0 253.3 C 61.6 253.4 59.4 253.3 56.4 252.6 C 53.4 251.9 49.7 250.1 48.2 249.2 C 48.8 249.5 49.4 249.8 50.0 250.1 Z M 24.9 228.6 C 23.4 226.0 22.0 223.3 20.6 220.3 C 22.7 224.6 24.3 227.6 25.8 230.2 C 25.5 229.7 25.2 229.1 24.9 228.6 Z M 20.0 39.2 C 18.9 41.4 18.4 42.7 17.7 44.5 C 16.9 46.3 16.2 48.3 15.4 50.4 C 13.9 54.5 12.5 59.1 11.2 63.5 C 8.8 72.2 7.3 80.0 7.2 81.0 C 6.6 83.9 6.1 86.9 5.6 90.1 C 7.1 80.2 9.2 70.3 11.7 61.6 C 13.0 57.2 14.3 53.1 15.7 49.4 C 16.4 47.6 17.1 45.9 17.7 44.2 C 18.4 42.6 18.9 41.4 20.0 39.2 C 20.0 39.2 20.0 39.2 20.0 39.2 Z M 12.3 86.1 C 12.1 87.2 12.2 86.7 12.6 84.0 C 15.2 69.3 17.7 61.4 15.5 70.2 C 13.6 77.7 10.7 95.1 11.4 90.0 C 12.5 83.1 13.8 76.5 15.4 69.9 C 16.7 64.9 18.2 60.2 19.9 55.6 C 16.5 65.6 14.0 76.1 12.3 86.1 C 12.3 86.1 12.3 86.1 12.3 86.1 Z M 22.1 50.1 C 20.7 53.6 19.2 57.8 17.9 62.3 C 19.0 58.4 20.3 54.6 21.7 50.9 C 21.8 50.7 21.9 50.4 22.1 50.1 Z M 23.9 45.9 C 21.1 52.6 18.6 59.9 21.2 52.8 C 21.8 51.1 22.4 49.5 23.0 47.9 C 23.3 47.2 23.6 46.6 23.9 45.9 Z M 26.2 41.0 C 26.1 41.1 25.2 42.9 24.2 45.2 C 25.2 42.9 27.7 37.6 29.8 33.8 C 31.9 30.1 33.6 27.7 33.5 27.9 C 31.1 31.5 28.6 35.9 26.2 41.0 C 26.2 41.0 26.2 41.0 26.2 41.0 Z M 25.6 28.2 C 23.1 32.2 21.1 35.8 24.8 29.3 C 26.3 26.8 27.8 24.5 29.4 22.3 C 28.1 24.1 26.8 26.1 25.6 28.2 Z M 26.2 219.7 C 25.7 218.8 24.7 216.7 24.0 215.0 C 23.2 213.2 22.4 211.3 21.9 209.8 C 21.7 209.7 22.7 212.5 23.8 215.0 C 24.9 217.5 26.7 221.1 26.2 219.7 C 26.2 219.7 26.2 219.7 26.2 219.7 Z M 40.3 240.9 C 39.3 239.9 35.4 235.2 33.2 231.9 C 32.9 231.8 35.0 235.0 37.0 237.4 C 39.1 239.9 41.0 241.7 40.3 240.9 C 40.3 240.9 40.3 240.9 40.3 240.9 Z M 106.5 65.9 C 106.5 65.8 106.5 65.8 106.5 65.8 C 106.5 65.8 106.5 65.8 106.5 65.9 C 106.5 65.9 106.5 65.9 106.5 65.9 Z M 106.5 65.9 " fill="#0065C0"></path></g></svg>