<?xml version="1.0" encoding="UTF-8" standalone="no"?><svg xmlns="http://www.w3.org/2000/svg" xmlns:xlink="http://www.w3.org/1999/xlink" clip-rule="evenodd" stroke-miterlimit="4.00" viewBox="0 0 435 50"><desc>SVG generated by Keynote</desc><defs></defs><g transform="matrix(1.00, 0.00, -0.00, -1.00, 0.0, 50.0)"><text xml:space="preserve" font-family="Helvetica-Bold" font-weight="bold" font-size="50.0" fill="#DCDDE0" transform="matrix(1.00, 0.00, -0.00, -1.00, 1.0, 12.0)">t</text><text xml:space="preserve" font-family="Helvetica-Bold" font-weight="bold" font-size="33.3" fill="#DCDDE0" transform="matrix(1.00, 0.00, -0.00, -1.00, 17.7, 8.2)">Q</text><text xml:space="preserve" font-family="Helvetica-Light" font-size="50.0" fill="#DCDDE0" transform="matrix(1.00, 0.00, -0.00, -1.00, 43.6, 12.0)"> </text><text xml:space="preserve" font-family="Helvetica-Light" font-size="50.0" fill="#DCDDE0" transform="matrix(1.00, 0.00, -0.00, -1.00, 57.5, 12.0)">&gt;</text><text xml:space="preserve" font-family="Helvetica-Light" font-size="50.0" fill="#DCDDE0" transform="matrix(1.00, 0.00, -0.00, -1.00, 90.5, 12.0)"> </text><text xml:space="preserve" font-family="Helvetica-Light" font-size="50.0" fill="#DCDDE0" transform="matrix(1.00, 0.00, -0.00, -1.00, 104.4, 12.0)">1</text><text xml:space="preserve" font-family="Helvetica-Light" font-size="50.0" fill="#DCDDE0" transform="matrix(1.00, 0.00, -0.00, -1.00, 132.2, 12.0)">0</text><text xml:space="preserve" font-family="Helvetica-Light" font-size="50.0" fill="#DCDDE0" transform="matrix(1.00, 0.00, -0.00, -1.00, 160.0, 12.0)"> </text><text xml:space="preserve" font-family="Helvetica-Light" font-size="50.0" fill="#DCDDE0" transform="matrix(1.00, 0.00, -0.00, -1.00, 173.9, 12.0)">M</text><text xml:space="preserve" font-family="Helvetica-Light" font-size="50.0" fill="#DCDDE0" transform="matrix(1.00, 0.00, -0.00, -1.00, 215.5, 12.0)">y</text><text xml:space="preserve" font-family="Helvetica-Light" font-size="50.0" fill="#DCDDE0" transform="matrix(1.00, 0.00, -0.00, -1.00, 240.5, 12.0)">r</text><text xml:space="preserve" font-family="Helvetica-Light" font-size="50.0" fill="#DCDDE0" transform="matrix(1.00, 0.00, -0.00, -1.00, 252.6, 12.0)">,</text><text xml:space="preserve" font-family="Helvetica-Light" font-size="50.0" fill="#DCDDE0" transform="matrix(1.00, 0.00, -0.00, -1.00, 266.5, 12.0)"> </text><text xml:space="preserve" font-family="Helvetica-Light" font-size="50.0" fill="#DCDDE0" transform="matrix(1.00, 0.00, -0.00, -1.00, 280.4, 12.0)">1</text><text xml:space="preserve" font-family="Helvetica-Light" font-size="50.0" fill="#DCDDE0" transform="matrix(1.00, 0.00, -0.00, -1.00, 308.2, 12.0)">7</text><text xml:space="preserve" font-family="Helvetica-Light" font-size="50.0" fill="#DCDDE0" transform="matrix(1.00, 0.00, -0.00, -1.00, 336.0, 12.0)"> </text><text xml:space="preserve" font-family="Helvetica-Light" font-size="50.0" fill="#DCDDE0" transform="matrix(1.00, 0.00, -0.00, -1.00, 349.9, 12.0)">M</text><text xml:space="preserve" font-family="Helvetica-Light" font-size="50.0" fill="#DCDDE0" transform="matrix(1.00, 0.00, -0.00, -1.00, 391.5, 12.0)">y</text><text xml:space="preserve" font-family="Helvetica-Light" font-size="50.0" fill="#DCDDE0" transform="matrix(1.00, 0.00, -0.00, -1.00, 416.5, 12.0)">r</text></g></svg>