<?xml version="1.0" encoding="UTF-8" standalone="no"?><svg xmlns="http://www.w3.org/2000/svg" xmlns:xlink="http://www.w3.org/1999/xlink" clip-rule="evenodd" stroke-miterlimit="4.00" viewBox="0 0 348 60"><desc>SVG generated by Keynote</desc><defs></defs><g transform="matrix(1.00, 0.00, -0.00, -1.00, 0.0, 60.0)"><text xml:space="preserve" font-family="Helvetica-Light" font-size="70.0" fill="#DCDDE0" transform="matrix(1.00, 0.00, -0.00, -1.00, -2.0, 6.0)">Q</text><text xml:space="preserve" font-family="Helvetica-Light" font-size="70.0" fill="#DCDDE0" transform="matrix(1.00, 0.00, -0.00, -1.00, 52.5, 6.0)">0</text><text xml:space="preserve" font-family="Helvetica-Light" font-size="70.0" fill="#DCDDE0" transform="matrix(1.00, 0.00, -0.00, -1.00, 91.4, 6.0)">3</text><text xml:space="preserve" font-family="Helvetica-Light" font-size="70.0" fill="#DCDDE0" transform="matrix(1.00, 0.00, -0.00, -1.00, 130.3, 6.0)">0</text><text xml:space="preserve" font-family="Helvetica-Light" font-size="70.0" fill="#DCDDE0" transform="matrix(1.00, 0.00, -0.00, -1.00, 169.2, 6.0)">2</text><text xml:space="preserve" font-family="Helvetica-Light" font-size="70.0" fill="#DCDDE0" transform="matrix(1.00, 0.00, -0.00, -1.00, 208.1, 6.0)">-</text><text xml:space="preserve" font-family="Helvetica-Light" font-size="70.0" fill="#DCDDE0" transform="matrix(1.00, 0.00, -0.00, -1.00, 231.5, 6.0)">0</text><text xml:space="preserve" font-family="Helvetica-Light" font-size="70.0" fill="#DCDDE0" transform="matrix(1.00, 0.00, -0.00, -1.00, 270.4, 6.0)">0</text><text xml:space="preserve" font-family="Helvetica-Light" font-size="70.0" fill="#DCDDE0" transform="matrix(1.00, 0.00, -0.00, -1.00, 309.3, 6.0)">3</text></g></svg>