<?xml version="1.0" encoding="UTF-8" standalone="no"?><svg xmlns="http://www.w3.org/2000/svg" xmlns:xlink="http://www.w3.org/1999/xlink" clip-rule="evenodd" stroke-miterlimit="4.00" viewBox="0 0 1024 768"><desc>SVG generated by Keynote</desc><defs></defs><g transform="matrix(1.00, 0.00, -0.00, -1.00, 0.0, 768.0)"><path d="M 0.0 768.0 L 1024.0 768.0 L 1024.0 0.0 L 0.0 0.0 Z M 0.0 768.0 " fill="#000000"></path><text xml:space="preserve" font-family="Helvetica-Light" font-size="18.0" fill="#FEFFFF" transform="matrix(1.00, 0.00, -0.00, -1.00, 501.0, 17.0)">1</text><text xml:space="preserve" font-family="Helvetica-Light" font-size="18.0" fill="#FEFFFF" transform="matrix(1.00, 0.00, -0.00, -1.00, 511.0, 17.0)">1</text><text xml:space="preserve" font-family="Helvetica-Light" font-size="15.0" fill="#FEFFFF" transform="matrix(1.00, 0.00, -0.00, -1.00, 156.0, 70.0)">T</text><text xml:space="preserve" font-family="Helvetica-Light" font-size="15.0" fill="#FEFFFF" transform="matrix(1.00, 0.00, -0.00, -1.00, 164.3, 70.0)">h</text><text xml:space="preserve" font-family="Helvetica-Light" font-size="15.0" fill="#FEFFFF" transform="matrix(1.00, 0.00, -0.00, -1.00, 172.7, 70.0)">e</text><text xml:space="preserve" font-family="Helvetica-Light" font-size="15.0" fill="#FEFFFF" transform="matrix(1.00, 0.00, -0.00, -1.00, 181.0, 70.0)"> </text><text xml:space="preserve" font-family="Helvetica-Light" font-size="15.0" fill="#FEFFFF" transform="matrix(1.00, 0.00, -0.00, -1.00, 185.2, 70.0)">s</text><text xml:space="preserve" font-family="Helvetica-Light" font-size="15.0" fill="#FEFFFF" transform="matrix(1.00, 0.00, -0.00, -1.00, 192.7, 70.0)">a</text><text xml:space="preserve" font-family="Helvetica-Light" font-size="15.0" fill="#FEFFFF" transform="matrix(1.00, 0.00, -0.00, -1.00, 201.0, 70.0)">m</text><text xml:space="preserve" font-family="Helvetica-Light" font-size="15.0" fill="#FEFFFF" transform="matrix(1.00, 0.00, -0.00, -1.00, 213.5, 70.0)">e</text><text xml:space="preserve" font-family="Helvetica-Light" font-size="15.0" fill="#FEFFFF" transform="matrix(1.00, 0.00, -0.00, -1.00, 221.9, 70.0)"> </text><text xml:space="preserve" font-family="Helvetica-Light" font-size="15.0" fill="#FEFFFF" transform="matrix(1.00, 0.00, -0.00, -1.00, 226.0, 70.0)">r</text><text xml:space="preserve" font-family="Helvetica-Light" font-size="15.0" fill="#FEFFFF" transform="matrix(1.00, 0.00, -0.00, -1.00, 230.8, 70.0)">e</text><text xml:space="preserve" font-family="Helvetica-Light" font-size="15.0" fill="#FEFFFF" transform="matrix(1.00, 0.00, -0.00, -1.00, 239.1, 70.0)">g</text><text xml:space="preserve" font-family="Helvetica-Light" font-size="15.0" fill="#FEFFFF" transform="matrix(1.00, 0.00, -0.00, -1.00, 248.3, 70.0)">i</text><text xml:space="preserve" font-family="Helvetica-Light" font-size="15.0" fill="#FEFFFF" transform="matrix(1.00, 0.00, -0.00, -1.00, 251.6, 70.0)">o</text><text xml:space="preserve" font-family="Helvetica-Light" font-size="15.0" fill="#FEFFFF" transform="matrix(1.00, 0.00, -0.00, -1.00, 259.9, 70.0)">n</text><text xml:space="preserve" font-family="Helvetica-Light" font-size="15.0" fill="#FEFFFF" transform="matrix(1.00, 0.00, -0.00, -1.00, 268.3, 70.0)"> </text><text xml:space="preserve" font-family="Helvetica-Light" font-size="15.0" fill="#FEFFFF" transform="matrix(1.00, 0.00, -0.00, -1.00, 272.4, 70.0)">a</text><text xml:space="preserve" font-family="Helvetica-Light" font-size="15.0" fill="#FEFFFF" transform="matrix(1.00, 0.00, -0.00, -1.00, 280.8, 70.0)">f</text><text xml:space="preserve" font-family="Helvetica-Light" font-size="15.0" fill="#FEFFFF" transform="matrix(1.00, 0.00, -0.00, -1.00, 285.0, 70.0)">t</text><text xml:space="preserve" font-family="Helvetica-Light" font-size="15.0" fill="#FEFFFF" transform="matrix(1.00, 0.00, -0.00, -1.00, 289.1, 70.0)">e</text><text xml:space="preserve" font-family="Helvetica-Light" font-size="15.0" fill="#FEFFFF" transform="matrix(1.00, 0.00, -0.00, -1.00, 297.5, 70.0)">r</text><text xml:space="preserve" font-family="Helvetica-Light" font-size="15.0" fill="#FEFFFF" transform="matrix(1.00, 0.00, -0.00, -1.00, 302.5, 70.0)"> </text><text xml:space="preserve" font-family="Helvetica-Light" font-size="15.0" fill="#FEFFFF" transform="matrix(1.00, 0.00, -0.00, -1.00, 306.6, 70.0)">a</text><text xml:space="preserve" font-family="Helvetica-Light" font-size="15.0" fill="#FEFFFF" transform="matrix(1.00, 0.00, -0.00, -1.00, 315.0, 70.0)">p</text><text xml:space="preserve" font-family="Helvetica-Light" font-size="15.0" fill="#FEFFFF" transform="matrix(1.00, 0.00, -0.00, -1.00, 324.1, 70.0)">p</text><text xml:space="preserve" font-family="Helvetica-Light" font-size="15.0" fill="#FEFFFF" transform="matrix(1.00, 0.00, -0.00, -1.00, 333.3, 70.0)">l</text><text xml:space="preserve" font-family="Helvetica-Light" font-size="15.0" fill="#FEFFFF" transform="matrix(1.00, 0.00, -0.00, -1.00, 336.6, 70.0)">y</text><text xml:space="preserve" font-family="Helvetica-Light" font-size="15.0" fill="#FEFFFF" transform="matrix(1.00, 0.00, -0.00, -1.00, 344.1, 70.0)">i</text><text xml:space="preserve" font-family="Helvetica-Light" font-size="15.0" fill="#FEFFFF" transform="matrix(1.00, 0.00, -0.00, -1.00, 347.5, 70.0)">n</text><text xml:space="preserve" font-family="Helvetica-Light" font-size="15.0" fill="#FEFFFF" transform="matrix(1.00, 0.00, -0.00, -1.00, 355.8, 70.0)">g</text><text xml:space="preserve" font-family="Helvetica-Light" font-size="15.0" fill="#FEFFFF" transform="matrix(1.00, 0.00, -0.00, -1.00, 365.0, 70.0)"> </text><text xml:space="preserve" font-family="Helvetica-Light" font-size="15.0" fill="#FEFFFF" transform="matrix(1.00, 0.00, -0.00, -1.00, 369.1, 70.0)">G</text><text xml:space="preserve" font-family="Helvetica-Light" font-size="15.0" fill="#FEFFFF" transform="matrix(1.00, 0.00, -0.00, -1.00, 380.8, 70.0)">G</text><text xml:space="preserve" font-family="Helvetica-Light" font-size="15.0" fill="#FEFFFF" transform="matrix(1.00, 0.00, -0.00, -1.00, 392.5, 70.0)">M</text><text xml:space="preserve" font-family="Helvetica-Light" font-size="15.0" fill="#FEFFFF" transform="matrix(1.00, 0.00, -0.00, -1.00, 405.0, 70.0)"> </text><text xml:space="preserve" font-family="Helvetica-Light" font-size="15.0" fill="#FEFFFF" transform="matrix(1.00, 0.00, -0.00, -1.00, 409.1, 70.0)">g</text><text xml:space="preserve" font-family="Helvetica-Light" font-size="15.0" fill="#FEFFFF" transform="matrix(1.00, 0.00, -0.00, -1.00, 418.3, 70.0)">r</text><text xml:space="preserve" font-family="Helvetica-Light" font-size="15.0" fill="#FEFFFF" transform="matrix(1.00, 0.00, -0.00, -1.00, 423.3, 70.0)">a</text><text xml:space="preserve" font-family="Helvetica-Light" font-size="15.0" fill="#FEFFFF" transform="matrix(1.00, 0.00, -0.00, -1.00, 431.6, 70.0)">d</text><text xml:space="preserve" font-family="Helvetica-Light" font-size="15.0" fill="#FEFFFF" transform="matrix(1.00, 0.00, -0.00, -1.00, 440.8, 70.0)">i</text><text xml:space="preserve" font-family="Helvetica-Light" font-size="15.0" fill="#FEFFFF" transform="matrix(1.00, 0.00, -0.00, -1.00, 444.1, 70.0)">e</text><text xml:space="preserve" font-family="Helvetica-Light" font-size="15.0" fill="#FEFFFF" transform="matrix(1.00, 0.00, -0.00, -1.00, 452.5, 70.0)">n</text><text xml:space="preserve" font-family="Helvetica-Light" font-size="15.0" fill="#FEFFFF" transform="matrix(1.00, 0.00, -0.00, -1.00, 460.8, 70.0)">t</text><text xml:space="preserve" font-family="Helvetica-Light" font-size="15.0" fill="#FEFFFF" transform="matrix(1.00, 0.00, -0.00, -1.00, 465.0, 70.0)"> </text><text xml:space="preserve" font-family="Helvetica-Light" font-size="15.0" fill="#FEFFFF" transform="matrix(1.00, 0.00, -0.00, -1.00, 469.2, 70.0)">ï¬</text><text xml:space="preserve" font-family="Helvetica-Light" font-size="15.0" fill="#FEFFFF" transform="matrix(1.00, 0.00, -0.00, -1.00, 476.7, 70.0)">l</text><text xml:space="preserve" font-family="Helvetica-Light" font-size="15.0" fill="#FEFFFF" transform="matrix(1.00, 0.00, -0.00, -1.00, 480.0, 70.0)">t</text><text xml:space="preserve" font-family="Helvetica-Light" font-size="15.0" fill="#FEFFFF" transform="matrix(1.00, 0.00, -0.00, -1.00, 484.2, 70.0)">e</text><text xml:space="preserve" font-family="Helvetica-Light" font-size="15.0" fill="#FEFFFF" transform="matrix(1.00, 0.00, -0.00, -1.00, 492.5, 70.0)">r</text><text xml:space="preserve" font-family="Helvetica-Light" font-size="15.0" fill="#FEFFFF" transform="matrix(1.00, 0.00, -0.00, -1.00, 497.5, 70.0)">s</text><text xml:space="preserve" font-family="Helvetica-Light" font-size="15.0" fill="#FEFFFF" transform="matrix(1.00, 0.00, -0.00, -1.00, 505.0, 70.0)"> </text><text xml:space="preserve" font-family="Helvetica-Light" font-size="15.0" fill="#FEFFFF" transform="matrix(1.00, 0.00, -0.00, -1.00, 509.2, 70.0)">w</text><text xml:space="preserve" font-family="Helvetica-Light" font-size="15.0" fill="#FEFFFF" transform="matrix(1.00, 0.00, -0.00, -1.00, 520.0, 70.0)">i</text><text xml:space="preserve" font-family="Helvetica-Light" font-size="15.0" fill="#FEFFFF" transform="matrix(1.00, 0.00, -0.00, -1.00, 523.3, 70.0)">t</text><text xml:space="preserve" font-family="Helvetica-Light" font-size="15.0" fill="#FEFFFF" transform="matrix(1.00, 0.00, -0.00, -1.00, 527.5, 70.0)">h</text><text xml:space="preserve" font-family="Helvetica-Light" font-size="15.0" fill="#FEFFFF" transform="matrix(1.00, 0.00, -0.00, -1.00, 535.8, 70.0)"> </text><text xml:space="preserve" font-family="Helvetica-Light" font-size="15.0" fill="#FEFFFF" transform="matrix(1.00, 0.00, -0.00, -1.00, 540.0, 70.0)">d</text><text xml:space="preserve" font-family="Helvetica-Light" font-size="15.0" fill="#FEFFFF" transform="matrix(1.00, 0.00, -0.00, -1.00, 549.2, 70.0)">i</text><text xml:space="preserve" font-family="Helvetica-Light" font-size="15.0" fill="#FEFFFF" transform="matrix(1.00, 0.00, -0.00, -1.00, 552.5, 70.0)">f</text><text xml:space="preserve" font-family="Helvetica-Light" font-size="15.0" fill="#FEFFFF" transform="matrix(1.00, 0.00, -0.00, -1.00, 556.4, 70.0)">f</text><text xml:space="preserve" font-family="Helvetica-Light" font-size="15.0" fill="#FEFFFF" transform="matrix(1.00, 0.00, -0.00, -1.00, 560.6, 70.0)">e</text><text xml:space="preserve" font-family="Helvetica-Light" font-size="15.0" fill="#FEFFFF" transform="matrix(1.00, 0.00, -0.00, -1.00, 568.9, 70.0)">r</text><text xml:space="preserve" font-family="Helvetica-Light" font-size="15.0" fill="#FEFFFF" transform="matrix(1.00, 0.00, -0.00, -1.00, 573.6, 70.0)">e</text><text xml:space="preserve" font-family="Helvetica-Light" font-size="15.0" fill="#FEFFFF" transform="matrix(1.00, 0.00, -0.00, -1.00, 582.0, 70.0)">n</text><text xml:space="preserve" font-family="Helvetica-Light" font-size="15.0" fill="#FEFFFF" transform="matrix(1.00, 0.00, -0.00, -1.00, 590.3, 70.0)">t</text><text xml:space="preserve" font-family="Helvetica-Light" font-size="15.0" fill="#FEFFFF" transform="matrix(1.00, 0.00, -0.00, -1.00, 594.5, 70.0)"> </text><text xml:space="preserve" font-family="Helvetica-Light" font-size="15.0" fill="#FEFFFF" transform="matrix(1.00, 0.00, -0.00, -1.00, 598.6, 70.0)">s</text><text xml:space="preserve" font-family="Helvetica-Light" font-size="15.0" fill="#FEFFFF" transform="matrix(1.00, 0.00, -0.00, -1.00, 606.1, 70.0)">c</text><text xml:space="preserve" font-family="Helvetica-Light" font-size="15.0" fill="#FEFFFF" transform="matrix(1.00, 0.00, -0.00, -1.00, 614.5, 70.0)">a</text><text xml:space="preserve" font-family="Helvetica-Light" font-size="15.0" fill="#FEFFFF" transform="matrix(1.00, 0.00, -0.00, -1.00, 622.8, 70.0)">l</text><text xml:space="preserve" font-family="Helvetica-Light" font-size="15.0" fill="#FEFFFF" transform="matrix(1.00, 0.00, -0.00, -1.00, 626.2, 70.0)">e</text><text xml:space="preserve" font-family="Helvetica-Light" font-size="15.0" fill="#FEFFFF" transform="matrix(1.00, 0.00, -0.00, -1.00, 634.5, 70.0)">s</text><text xml:space="preserve" font-family="Helvetica-Light" font-size="15.0" fill="#FEFFFF" transform="matrix(1.00, 0.00, -0.00, -1.00, 642.0, 70.0)"> </text><text xml:space="preserve" font-family="Helvetica-Light" font-size="15.0" fill="#FEFFFF" transform="matrix(1.00, 0.00, -0.00, -1.00, 646.2, 70.0)">a</text><text xml:space="preserve" font-family="Helvetica-Light" font-size="15.0" fill="#FEFFFF" transform="matrix(1.00, 0.00, -0.00, -1.00, 654.5, 70.0)">n</text><text xml:space="preserve" font-family="Helvetica-Light" font-size="15.0" fill="#FEFFFF" transform="matrix(1.00, 0.00, -0.00, -1.00, 662.8, 70.0)">d</text><text xml:space="preserve" font-family="Helvetica-Light" font-size="15.0" fill="#FEFFFF" transform="matrix(1.00, 0.00, -0.00, -1.00, 672.0, 70.0)"> </text><text xml:space="preserve" font-family="Helvetica-Light" font-size="15.0" fill="#FEFFFF" transform="matrix(1.00, 0.00, -0.00, -1.00, 676.2, 70.0)">s</text><text xml:space="preserve" font-family="Helvetica-Light" font-size="15.0" fill="#FEFFFF" transform="matrix(1.00, 0.00, -0.00, -1.00, 683.7, 70.0)">u</text><text xml:space="preserve" font-family="Helvetica-Light" font-size="15.0" fill="#FEFFFF" transform="matrix(1.00, 0.00, -0.00, -1.00, 692.0, 70.0)">m</text><text xml:space="preserve" font-family="Helvetica-Light" font-size="15.0" fill="#FEFFFF" transform="matrix(1.00, 0.00, -0.00, -1.00, 704.5, 70.0)">m</text><text xml:space="preserve" font-family="Helvetica-Light" font-size="15.0" fill="#FEFFFF" transform="matrix(1.00, 0.00, -0.00, -1.00, 717.0, 70.0)">i</text><text xml:space="preserve" font-family="Helvetica-Light" font-size="15.0" fill="#FEFFFF" transform="matrix(1.00, 0.00, -0.00, -1.00, 720.3, 70.0)">n</text><text xml:space="preserve" font-family="Helvetica-Light" font-size="15.0" fill="#FEFFFF" transform="matrix(1.00, 0.00, -0.00, -1.00, 728.7, 70.0)">g</text><text xml:space="preserve" font-family="Helvetica-Light" font-size="15.0" fill="#FEFFFF" transform="matrix(1.00, 0.00, -0.00, -1.00, 737.8, 70.0)"> </text><text xml:space="preserve" font-family="Helvetica-Light" font-size="15.0" fill="#FEFFFF" transform="matrix(1.00, 0.00, -0.00, -1.00, 742.0, 70.0)">w</text><text xml:space="preserve" font-family="Helvetica-Light" font-size="15.0" fill="#FEFFFF" transform="matrix(1.00, 0.00, -0.00, -1.00, 752.8, 70.0)">i</text><text xml:space="preserve" font-family="Helvetica-Light" font-size="15.0" fill="#FEFFFF" transform="matrix(1.00, 0.00, -0.00, -1.00, 756.2, 70.0)">t</text><text xml:space="preserve" font-family="Helvetica-Light" font-size="15.0" fill="#FEFFFF" transform="matrix(1.00, 0.00, -0.00, -1.00, 760.3, 70.0)">h</text><text xml:space="preserve" font-family="Helvetica-Light" font-size="15.0" fill="#FEFFFF" transform="matrix(1.00, 0.00, -0.00, -1.00, 768.7, 70.0)"> </text><text xml:space="preserve" font-family="Helvetica-Light" font-size="15.0" fill="#FEFFFF" transform="matrix(1.00, 0.00, -0.00, -1.00, 772.9, 70.0)">r</text><text xml:space="preserve" font-family="Helvetica-Light" font-size="15.0" fill="#FEFFFF" transform="matrix(1.00, 0.00, -0.00, -1.00, 777.9, 70.0)">a</text><text xml:space="preserve" font-family="Helvetica-Light" font-size="15.0" fill="#FEFFFF" transform="matrix(1.00, 0.00, -0.00, -1.00, 786.2, 70.0)">d</text><text xml:space="preserve" font-family="Helvetica-Light" font-size="15.0" fill="#FEFFFF" transform="matrix(1.00, 0.00, -0.00, -1.00, 795.4, 70.0)">i</text><text xml:space="preserve" font-family="Helvetica-Light" font-size="15.0" fill="#FEFFFF" transform="matrix(1.00, 0.00, -0.00, -1.00, 798.7, 70.0)">a</text><text xml:space="preserve" font-family="Helvetica-Light" font-size="15.0" fill="#FEFFFF" transform="matrix(1.00, 0.00, -0.00, -1.00, 807.0, 70.0)">l</text><text xml:space="preserve" font-family="Helvetica-Light" font-size="15.0" fill="#FEFFFF" transform="matrix(1.00, 0.00, -0.00, -1.00, 810.4, 70.0)"> </text><text xml:space="preserve" font-family="Helvetica-Light" font-size="15.0" fill="#FEFFFF" transform="matrix(1.00, 0.00, -0.00, -1.00, 814.5, 70.0)">s</text><text xml:space="preserve" font-family="Helvetica-Light" font-size="15.0" fill="#FEFFFF" transform="matrix(1.00, 0.00, -0.00, -1.00, 822.0, 70.0)">c</text><text xml:space="preserve" font-family="Helvetica-Light" font-size="15.0" fill="#FEFFFF" transform="matrix(1.00, 0.00, -0.00, -1.00, 830.4, 70.0)">a</text><text xml:space="preserve" font-family="Helvetica-Light" font-size="15.0" fill="#FEFFFF" transform="matrix(1.00, 0.00, -0.00, -1.00, 838.7, 70.0)">l</text><text xml:space="preserve" font-family="Helvetica-Light" font-size="15.0" fill="#FEFFFF" transform="matrix(1.00, 0.00, -0.00, -1.00, 842.0, 70.0)">i</text><text xml:space="preserve" font-family="Helvetica-Light" font-size="15.0" fill="#FEFFFF" transform="matrix(1.00, 0.00, -0.00, -1.00, 845.4, 70.0)">n</text><text xml:space="preserve" font-family="Helvetica-Light" font-size="15.0" fill="#FEFFFF" transform="matrix(1.00, 0.00, -0.00, -1.00, 853.7, 70.0)">g</text><text xml:space="preserve" font-family="Helvetica-Light" font-size="15.0" fill="#FEFFFF" transform="matrix(1.00, 0.00, -0.00, -1.00, 862.9, 70.0)">.</text><image xlink:href="../../FA19B73A-5D64-4A51-B3CA-D9CF29A17029/assets/F704A46BD62A62E787FCA0295DF78FE9.png" width="788.00" height="591.00" transform="matrix(1.00, 0.00, -0.00, -1.00, 118.0, 679.0)"></image></g></svg>