<?xml version="1.0" encoding="UTF-8" standalone="no"?><svg xmlns="http://www.w3.org/2000/svg" xmlns:xlink="http://www.w3.org/1999/xlink" clip-rule="evenodd" stroke-miterlimit="4.00" viewBox="0 0 574 32"><desc>SVG generated by Keynote</desc><defs></defs><g transform="matrix(1.00, 0.00, -0.00, -1.00, 0.0, 32.0)"><text xml:space="preserve" font-family="Helvetica-LightOblique" font-style="italic" font-size="30.0" fill="#A6AAA8" transform="matrix(1.00, 0.00, -0.00, -1.00, -1.0, 8.0)">(</text><text xml:space="preserve" font-family="Helvetica-LightOblique" font-style="italic" font-size="30.0" fill="#A6AAA8" transform="matrix(1.00, 0.00, -0.00, -1.00, 9.0, 8.0)">C</text><text xml:space="preserve" font-family="Helvetica-LightOblique" font-style="italic" font-size="30.0" fill="#A6AAA8" transform="matrix(1.00, 0.00, -0.00, -1.00, 30.6, 8.0)">a</text><text xml:space="preserve" font-family="Helvetica-LightOblique" font-style="italic" font-size="30.0" fill="#A6AAA8" transform="matrix(1.00, 0.00, -0.00, -1.00, 47.3, 8.0)">n</text><text xml:space="preserve" font-family="Helvetica-LightOblique" font-style="italic" font-size="30.0" fill="#A6AAA8" transform="matrix(1.00, 0.00, -0.00, -1.00, 64.0, 8.0)">t</text><text xml:space="preserve" font-family="Helvetica-LightOblique" font-style="italic" font-size="30.0" fill="#A6AAA8" transform="matrix(1.00, 0.00, -0.00, -1.00, 72.3, 8.0)">a</text><text xml:space="preserve" font-family="Helvetica-LightOblique" font-style="italic" font-size="30.0" fill="#A6AAA8" transform="matrix(1.00, 0.00, -0.00, -1.00, 89.0, 8.0)">l</text><text xml:space="preserve" font-family="Helvetica-LightOblique" font-style="italic" font-size="30.0" fill="#A6AAA8" transform="matrix(1.00, 0.00, -0.00, -1.00, 95.7, 8.0)">u</text><text xml:space="preserve" font-family="Helvetica-LightOblique" font-style="italic" font-size="30.0" fill="#A6AAA8" transform="matrix(1.00, 0.00, -0.00, -1.00, 112.4, 8.0)">p</text><text xml:space="preserve" font-family="Helvetica-LightOblique" font-style="italic" font-size="30.0" fill="#A6AAA8" transform="matrix(1.00, 0.00, -0.00, -1.00, 130.7, 8.0)">o</text><text xml:space="preserve" font-family="Helvetica-LightOblique" font-style="italic" font-size="30.0" fill="#A6AAA8" transform="matrix(1.00, 0.00, -0.00, -1.00, 147.4, 8.0)"> </text><text xml:space="preserve" font-family="Helvetica-LightOblique" font-style="italic" font-size="30.0" fill="#A6AAA8" transform="matrix(1.00, 0.00, -0.00, -1.00, 155.7, 8.0)">e</text><text xml:space="preserve" font-family="Helvetica-LightOblique" font-style="italic" font-size="30.0" fill="#A6AAA8" transform="matrix(1.00, 0.00, -0.00, -1.00, 172.4, 8.0)">t</text><text xml:space="preserve" font-family="Helvetica-LightOblique" font-style="italic" font-size="30.0" fill="#A6AAA8" transform="matrix(1.00, 0.00, -0.00, -1.00, 180.7, 8.0)"> </text><text xml:space="preserve" font-family="Helvetica-LightOblique" font-style="italic" font-size="30.0" fill="#A6AAA8" transform="matrix(1.00, 0.00, -0.00, -1.00, 189.1, 8.0)">a</text><text xml:space="preserve" font-family="Helvetica-LightOblique" font-style="italic" font-size="30.0" fill="#A6AAA8" transform="matrix(1.00, 0.00, -0.00, -1.00, 205.8, 8.0)">l</text><text xml:space="preserve" font-family="Helvetica-LightOblique" font-style="italic" font-size="30.0" fill="#A6AAA8" transform="matrix(1.00, 0.00, -0.00, -1.00, 212.4, 8.0)">.</text><text xml:space="preserve" font-family="Helvetica-LightOblique" font-style="italic" font-size="30.0" fill="#A6AAA8" transform="matrix(1.00, 0.00, -0.00, -1.00, 220.8, 8.0)"> </text><text xml:space="preserve" font-family="Helvetica-LightOblique" font-style="italic" font-size="30.0" fill="#A6AAA8" transform="matrix(1.00, 0.00, -0.00, -1.00, 229.1, 8.0)">2</text><text xml:space="preserve" font-family="Helvetica-LightOblique" font-style="italic" font-size="30.0" fill="#A6AAA8" transform="matrix(1.00, 0.00, -0.00, -1.00, 245.8, 8.0)">0</text><text xml:space="preserve" font-family="Helvetica-LightOblique" font-style="italic" font-size="30.0" fill="#A6AAA8" transform="matrix(1.00, 0.00, -0.00, -1.00, 262.5, 8.0)">1</text><text xml:space="preserve" font-family="Helvetica-LightOblique" font-style="italic" font-size="30.0" fill="#A6AAA8" transform="matrix(1.00, 0.00, -0.00, -1.00, 279.1, 8.0)">4</text><text xml:space="preserve" font-family="Helvetica-LightOblique" font-style="italic" font-size="30.0" fill="#A6AAA8" transform="matrix(1.00, 0.00, -0.00, -1.00, 295.8, 8.0)">;</text><text xml:space="preserve" font-family="Helvetica-LightOblique" font-style="italic" font-size="30.0" fill="#A6AAA8" transform="matrix(1.00, 0.00, -0.00, -1.00, 304.2, 8.0)"> </text><text xml:space="preserve" font-family="Helvetica-LightOblique" font-style="italic" font-size="30.0" fill="#A6AAA8" transform="matrix(1.00, 0.00, -0.00, -1.00, 312.5, 8.0)">H</text><text xml:space="preserve" font-family="Helvetica-LightOblique" font-style="italic" font-size="30.0" fill="#A6AAA8" transform="matrix(1.00, 0.00, -0.00, -1.00, 334.2, 8.0)">e</text><text xml:space="preserve" font-family="Helvetica-LightOblique" font-style="italic" font-size="30.0" fill="#A6AAA8" transform="matrix(1.00, 0.00, -0.00, -1.00, 350.8, 8.0)">n</text><text xml:space="preserve" font-family="Helvetica-LightOblique" font-style="italic" font-size="30.0" fill="#A6AAA8" transform="matrix(1.00, 0.00, -0.00, -1.00, 367.5, 8.0)">a</text><text xml:space="preserve" font-family="Helvetica-LightOblique" font-style="italic" font-size="30.0" fill="#A6AAA8" transform="matrix(1.00, 0.00, -0.00, -1.00, 384.2, 8.0)">w</text><text xml:space="preserve" font-family="Helvetica-LightOblique" font-style="italic" font-size="30.0" fill="#A6AAA8" transform="matrix(1.00, 0.00, -0.00, -1.00, 405.9, 8.0)">i</text><text xml:space="preserve" font-family="Helvetica-LightOblique" font-style="italic" font-size="30.0" fill="#A6AAA8" transform="matrix(1.00, 0.00, -0.00, -1.00, 412.5, 8.0)"> </text><text xml:space="preserve" font-family="Helvetica-LightOblique" font-style="italic" font-size="30.0" fill="#A6AAA8" transform="matrix(1.00, 0.00, -0.00, -1.00, 420.9, 8.0)">e</text><text xml:space="preserve" font-family="Helvetica-LightOblique" font-style="italic" font-size="30.0" fill="#A6AAA8" transform="matrix(1.00, 0.00, -0.00, -1.00, 437.5, 8.0)">t</text><text xml:space="preserve" font-family="Helvetica-LightOblique" font-style="italic" font-size="30.0" fill="#A6AAA8" transform="matrix(1.00, 0.00, -0.00, -1.00, 445.9, 8.0)"> </text><text xml:space="preserve" font-family="Helvetica-LightOblique" font-style="italic" font-size="30.0" fill="#A6AAA8" transform="matrix(1.00, 0.00, -0.00, -1.00, 454.2, 8.0)">a</text><text xml:space="preserve" font-family="Helvetica-LightOblique" font-style="italic" font-size="30.0" fill="#A6AAA8" transform="matrix(1.00, 0.00, -0.00, -1.00, 470.9, 8.0)">l</text><text xml:space="preserve" font-family="Helvetica-LightOblique" font-style="italic" font-size="30.0" fill="#A6AAA8" transform="matrix(1.00, 0.00, -0.00, -1.00, 477.6, 8.0)">.</text><text xml:space="preserve" font-family="Helvetica-LightOblique" font-style="italic" font-size="30.0" fill="#A6AAA8" transform="matrix(1.00, 0.00, -0.00, -1.00, 485.9, 8.0)"> </text><text xml:space="preserve" font-family="Helvetica-LightOblique" font-style="italic" font-size="30.0" fill="#A6AAA8" transform="matrix(1.00, 0.00, -0.00, -1.00, 494.2, 8.0)">2</text><text xml:space="preserve" font-family="Helvetica-LightOblique" font-style="italic" font-size="30.0" fill="#A6AAA8" transform="matrix(1.00, 0.00, -0.00, -1.00, 510.9, 8.0)">0</text><text xml:space="preserve" font-family="Helvetica-LightOblique" font-style="italic" font-size="30.0" fill="#A6AAA8" transform="matrix(1.00, 0.00, -0.00, -1.00, 527.6, 8.0)">1</text><text xml:space="preserve" font-family="Helvetica-LightOblique" font-style="italic" font-size="30.0" fill="#A6AAA8" transform="matrix(1.00, 0.00, -0.00, -1.00, 544.3, 8.0)">5</text><text xml:space="preserve" font-family="Helvetica-LightOblique" font-style="italic" font-size="30.0" fill="#A6AAA8" transform="matrix(1.00, 0.00, -0.00, -1.00, 561.0, 8.0)">)</text></g></svg>