<?xml version="1.0" encoding="UTF-8" standalone="no"?><svg xmlns="http://www.w3.org/2000/svg" xmlns:xlink="http://www.w3.org/1999/xlink" clip-rule="evenodd" stroke-miterlimit="4.00" viewBox="0 0 1446 51"><desc>SVG generated by Keynote</desc><defs></defs><g transform="matrix(1.00, 0.00, -0.00, -1.00, 0.0, 51.0)"><text xml:space="preserve" font-family="Helvetica-Light" font-size="50.0" fill="#DCDDE0" transform="matrix(1.00, 0.00, -0.00, -1.00, -1.0, 13.0)">M</text><text xml:space="preserve" font-family="Helvetica-Light" font-size="50.0" fill="#DCDDE0" transform="matrix(1.00, 0.00, -0.00, -1.00, 40.7, 13.0)">e</text><text xml:space="preserve" font-family="Helvetica-Light" font-size="50.0" fill="#DCDDE0" transform="matrix(1.00, 0.00, -0.00, -1.00, 68.5, 13.0)">t</text><text xml:space="preserve" font-family="Helvetica-Light" font-size="50.0" fill="#DCDDE0" transform="matrix(1.00, 0.00, -0.00, -1.00, 82.4, 13.0)">h</text><text xml:space="preserve" font-family="Helvetica-Light" font-size="50.0" fill="#DCDDE0" transform="matrix(1.00, 0.00, -0.00, -1.00, 110.2, 13.0)">o</text><text xml:space="preserve" font-family="Helvetica-Light" font-size="50.0" fill="#DCDDE0" transform="matrix(1.00, 0.00, -0.00, -1.00, 138.0, 13.0)">d</text><text xml:space="preserve" font-family="Helvetica-Light" font-size="50.0" fill="#DCDDE0" transform="matrix(1.00, 0.00, -0.00, -1.00, 168.5, 13.0)"> </text><text xml:space="preserve" font-family="Helvetica-Light" font-size="50.0" fill="#DCDDE0" transform="matrix(1.00, 0.00, -0.00, -1.00, 182.4, 13.0)">u</text><text xml:space="preserve" font-family="Helvetica-Light" font-size="50.0" fill="#DCDDE0" transform="matrix(1.00, 0.00, -0.00, -1.00, 210.2, 13.0)">s</text><text xml:space="preserve" font-family="Helvetica-Light" font-size="50.0" fill="#DCDDE0" transform="matrix(1.00, 0.00, -0.00, -1.00, 235.2, 13.0)">i</text><text xml:space="preserve" font-family="Helvetica-Light" font-size="50.0" fill="#DCDDE0" transform="matrix(1.00, 0.00, -0.00, -1.00, 246.3, 13.0)">n</text><text xml:space="preserve" font-family="Helvetica-Light" font-size="50.0" fill="#DCDDE0" transform="matrix(1.00, 0.00, -0.00, -1.00, 274.1, 13.0)">g</text><text xml:space="preserve" font-family="Helvetica-Light" font-size="50.0" fill="#DCDDE0" transform="matrix(1.00, 0.00, -0.00, -1.00, 304.7, 13.0)"> </text><text xml:space="preserve" font-family="Helvetica-Light" font-size="50.0" fill="#DCDDE0" transform="matrix(1.00, 0.00, -0.00, -1.00, 318.6, 13.0)">q</text><text xml:space="preserve" font-family="Helvetica-Light" font-size="50.0" fill="#DCDDE0" transform="matrix(1.00, 0.00, -0.00, -1.00, 349.1, 13.0)">u</text><text xml:space="preserve" font-family="Helvetica-Light" font-size="50.0" fill="#DCDDE0" transform="matrix(1.00, 0.00, -0.00, -1.00, 376.9, 13.0)">a</text><text xml:space="preserve" font-family="Helvetica-Light" font-size="50.0" fill="#DCDDE0" transform="matrix(1.00, 0.00, -0.00, -1.00, 404.7, 13.0)">s</text><text xml:space="preserve" font-family="Helvetica-Light" font-size="50.0" fill="#DCDDE0" transform="matrix(1.00, 0.00, -0.00, -1.00, 429.7, 13.0)">a</text><text xml:space="preserve" font-family="Helvetica-Light" font-size="50.0" fill="#DCDDE0" transform="matrix(1.00, 0.00, -0.00, -1.00, 457.5, 13.0)">r</text><text xml:space="preserve" font-family="Helvetica-Light" font-size="50.0" fill="#DCDDE0" transform="matrix(1.00, 0.00, -0.00, -1.00, 474.2, 13.0)"> </text><text xml:space="preserve" font-family="Helvetica-Light" font-size="50.0" fill="#DCDDE0" transform="matrix(1.00, 0.00, -0.00, -1.00, 488.1, 13.0)">l</text><text xml:space="preserve" font-family="Helvetica-Light" font-size="50.0" fill="#DCDDE0" transform="matrix(1.00, 0.00, -0.00, -1.00, 499.2, 13.0)">u</text><text xml:space="preserve" font-family="Helvetica-Light" font-size="50.0" fill="#DCDDE0" transform="matrix(1.00, 0.00, -0.00, -1.00, 527.0, 13.0)">m</text><text xml:space="preserve" font-family="Helvetica-Light" font-size="50.0" fill="#DCDDE0" transform="matrix(1.00, 0.00, -0.00, -1.00, 568.6, 13.0)">i</text><text xml:space="preserve" font-family="Helvetica-Light" font-size="50.0" fill="#DCDDE0" transform="matrix(1.00, 0.00, -0.00, -1.00, 579.7, 13.0)">n</text><text xml:space="preserve" font-family="Helvetica-Light" font-size="50.0" fill="#DCDDE0" transform="matrix(1.00, 0.00, -0.00, -1.00, 607.5, 13.0)">o</text><text xml:space="preserve" font-family="Helvetica-Light" font-size="50.0" fill="#DCDDE0" transform="matrix(1.00, 0.00, -0.00, -1.00, 635.3, 13.0)">s</text><text xml:space="preserve" font-family="Helvetica-Light" font-size="50.0" fill="#DCDDE0" transform="matrix(1.00, 0.00, -0.00, -1.00, 660.3, 13.0)">i</text><text xml:space="preserve" font-family="Helvetica-Light" font-size="50.0" fill="#DCDDE0" transform="matrix(1.00, 0.00, -0.00, -1.00, 671.4, 13.0)">t</text><text xml:space="preserve" font-family="Helvetica-Light" font-size="50.0" fill="#DCDDE0" transform="matrix(1.00, 0.00, -0.00, -1.00, 685.3, 13.0)">y</text><text xml:space="preserve" font-family="Helvetica-Light" font-size="50.0" fill="#DCDDE0" transform="matrix(1.00, 0.00, -0.00, -1.00, 710.3, 13.0)"> </text><text xml:space="preserve" font-family="Helvetica-Light" font-size="50.0" fill="#DCDDE0" transform="matrix(1.00, 0.00, -0.00, -1.00, 724.2, 13.0)">f</text><text xml:space="preserve" font-family="Helvetica-Light" font-size="50.0" fill="#DCDDE0" transform="matrix(1.00, 0.00, -0.00, -1.00, 738.1, 13.0)">u</text><text xml:space="preserve" font-family="Helvetica-Light" font-size="50.0" fill="#DCDDE0" transform="matrix(1.00, 0.00, -0.00, -1.00, 765.9, 13.0)">n</text><text xml:space="preserve" font-family="Helvetica-Light" font-size="50.0" fill="#DCDDE0" transform="matrix(1.00, 0.00, -0.00, -1.00, 793.7, 13.0)">c</text><text xml:space="preserve" font-family="Helvetica-Light" font-size="50.0" fill="#DCDDE0" transform="matrix(1.00, 0.00, -0.00, -1.00, 821.5, 13.0)">t</text><text xml:space="preserve" font-family="Helvetica-Light" font-size="50.0" fill="#DCDDE0" transform="matrix(1.00, 0.00, -0.00, -1.00, 835.4, 13.0)">i</text><text xml:space="preserve" font-family="Helvetica-Light" font-size="50.0" fill="#DCDDE0" transform="matrix(1.00, 0.00, -0.00, -1.00, 846.5, 13.0)">o</text><text xml:space="preserve" font-family="Helvetica-Light" font-size="50.0" fill="#DCDDE0" transform="matrix(1.00, 0.00, -0.00, -1.00, 874.3, 13.0)">n</text><text xml:space="preserve" font-family="Helvetica-Light" font-size="50.0" fill="#DCDDE0" transform="matrix(1.00, 0.00, -0.00, -1.00, 902.1, 13.0)"> </text><text xml:space="preserve" font-family="Helvetica-Light" font-size="50.0" fill="#DCDDE0" transform="matrix(1.00, 0.00, -0.00, -1.00, 916.0, 13.0)">a</text><text xml:space="preserve" font-family="Helvetica-Light" font-size="50.0" fill="#DCDDE0" transform="matrix(1.00, 0.00, -0.00, -1.00, 943.8, 13.0)">n</text><text xml:space="preserve" font-family="Helvetica-Light" font-size="50.0" fill="#DCDDE0" transform="matrix(1.00, 0.00, -0.00, -1.00, 971.6, 13.0)">d</text><text xml:space="preserve" font-family="Helvetica-Light" font-size="50.0" fill="#DCDDE0" transform="matrix(1.00, 0.00, -0.00, -1.00, 1002.1, 13.0)"> </text><text xml:space="preserve" font-family="Helvetica-Light" font-size="50.0" fill="#DCDDE0" transform="matrix(1.00, 0.00, -0.00, -1.00, 1016.0, 13.0)">c</text><text xml:space="preserve" font-family="Helvetica-Light" font-size="50.0" fill="#DCDDE0" transform="matrix(1.00, 0.00, -0.00, -1.00, 1043.8, 13.0)">l</text><text xml:space="preserve" font-family="Helvetica-Light" font-size="50.0" fill="#DCDDE0" transform="matrix(1.00, 0.00, -0.00, -1.00, 1054.9, 13.0)">u</text><text xml:space="preserve" font-family="Helvetica-Light" font-size="50.0" fill="#DCDDE0" transform="matrix(1.00, 0.00, -0.00, -1.00, 1082.7, 13.0)">s</text><text xml:space="preserve" font-family="Helvetica-Light" font-size="50.0" fill="#DCDDE0" transform="matrix(1.00, 0.00, -0.00, -1.00, 1107.7, 13.0)">t</text><text xml:space="preserve" font-family="Helvetica-Light" font-size="50.0" fill="#DCDDE0" transform="matrix(1.00, 0.00, -0.00, -1.00, 1121.6, 13.0)">e</text><text xml:space="preserve" font-family="Helvetica-Light" font-size="50.0" fill="#DCDDE0" transform="matrix(1.00, 0.00, -0.00, -1.00, 1149.4, 13.0)">r</text><text xml:space="preserve" font-family="Helvetica-Light" font-size="50.0" fill="#DCDDE0" transform="matrix(1.00, 0.00, -0.00, -1.00, 1166.1, 13.0)">i</text><text xml:space="preserve" font-family="Helvetica-Light" font-size="50.0" fill="#DCDDE0" transform="matrix(1.00, 0.00, -0.00, -1.00, 1177.2, 13.0)">n</text><text xml:space="preserve" font-family="Helvetica-Light" font-size="50.0" fill="#DCDDE0" transform="matrix(1.00, 0.00, -0.00, -1.00, 1205.0, 13.0)">g</text><text xml:space="preserve" font-family="Helvetica-Light" font-size="50.0" fill="#DCDDE0" transform="matrix(1.00, 0.00, -0.00, -1.00, 1235.5, 13.0)"> </text><text xml:space="preserve" font-family="Helvetica-Light" font-size="50.0" fill="#DCDDE0" transform="matrix(1.00, 0.00, -0.00, -1.00, 1249.4, 13.0)">s</text><text xml:space="preserve" font-family="Helvetica-Light" font-size="50.0" fill="#DCDDE0" transform="matrix(1.00, 0.00, -0.00, -1.00, 1274.4, 13.0)">t</text><text xml:space="preserve" font-family="Helvetica-Light" font-size="50.0" fill="#DCDDE0" transform="matrix(1.00, 0.00, -0.00, -1.00, 1288.3, 13.0)">a</text><text xml:space="preserve" font-family="Helvetica-Light" font-size="50.0" fill="#DCDDE0" transform="matrix(1.00, 0.00, -0.00, -1.00, 1316.1, 13.0)">t</text><text xml:space="preserve" font-family="Helvetica-Light" font-size="50.0" fill="#DCDDE0" transform="matrix(1.00, 0.00, -0.00, -1.00, 1330.0, 13.0)">i</text><text xml:space="preserve" font-family="Helvetica-Light" font-size="50.0" fill="#DCDDE0" transform="matrix(1.00, 0.00, -0.00, -1.00, 1341.1, 13.0)">s</text><text xml:space="preserve" font-family="Helvetica-Light" font-size="50.0" fill="#DCDDE0" transform="matrix(1.00, 0.00, -0.00, -1.00, 1366.1, 13.0)">t</text><text xml:space="preserve" font-family="Helvetica-Light" font-size="50.0" fill="#DCDDE0" transform="matrix(1.00, 0.00, -0.00, -1.00, 1380.0, 13.0)">i</text><text xml:space="preserve" font-family="Helvetica-Light" font-size="50.0" fill="#DCDDE0" transform="matrix(1.00, 0.00, -0.00, -1.00, 1391.1, 13.0)">c</text><text xml:space="preserve" font-family="Helvetica-Light" font-size="50.0" fill="#DCDDE0" transform="matrix(1.00, 0.00, -0.00, -1.00, 1418.9, 13.0)">s</text><text xml:space="preserve" font-family="Helvetica-Light" font-size="50.0" fill="#DCDDE0" transform="matrix(1.00, 0.00, -0.00, -1.00, 1443.9, 13.0)"> </text></g></svg>